G04 #@! TF.GenerationSoftware,KiCad,Pcbnew,(5.1.2)-1*
G04 #@! TF.CreationDate,2019-11-15T10:44:12-03:00*
G04 #@! TF.ProjectId,Xbee,58626565-2e6b-4696-9361-645f70636258,rev?*
G04 #@! TF.SameCoordinates,Original*
G04 #@! TF.FileFunction,Copper,L2,Bot*
G04 #@! TF.FilePolarity,Positive*
%FSLAX46Y46*%
G04 Gerber Fmt 4.6, Leading zero omitted, Abs format (unit mm)*
G04 Created by KiCad (PCBNEW (5.1.2)-1) date 2019-11-15 10:44:12*
%MOMM*%
%LPD*%
G04 APERTURE LIST*
%ADD10C,3.000000*%
%ADD11R,3.000000X3.000000*%
%ADD12R,1.400000X1.400000*%
%ADD13C,1.400000*%
%ADD14C,1.440000*%
%ADD15O,2.000000X1.700000*%
%ADD16R,2.000000X1.700000*%
%ADD17O,1.700000X2.000000*%
%ADD18R,1.700000X2.000000*%
%ADD19O,1.350000X1.350000*%
%ADD20R,1.350000X1.350000*%
%ADD21C,2.000000*%
%ADD22C,2.500000*%
%ADD23R,1.700000X1.700000*%
%ADD24C,4.000000*%
%ADD25C,1.270000*%
%ADD26C,0.800000*%
%ADD27C,0.750000*%
%ADD28C,0.500000*%
%ADD29C,1.270000*%
G04 APERTURE END LIST*
D10*
X89535000Y-36576000D03*
D11*
X94615000Y-36576000D03*
D12*
X150836640Y-44190720D03*
D13*
X148836640Y-44190720D03*
X146836640Y-44190720D03*
X144836640Y-44190720D03*
X142836640Y-44190720D03*
X140836640Y-44190720D03*
X138836640Y-44190720D03*
X136836640Y-44190720D03*
X134836640Y-44190720D03*
X132836640Y-44190720D03*
X132836640Y-66190720D03*
X134836640Y-66190720D03*
X136836640Y-66190720D03*
X138836640Y-66190720D03*
X140836640Y-66190720D03*
X142836640Y-66190720D03*
X144836640Y-66190720D03*
X146836640Y-66190720D03*
X148836640Y-66190720D03*
X150836640Y-66190720D03*
D11*
X89549000Y-73275000D03*
D10*
X94629000Y-73275000D03*
D14*
X136398000Y-75438000D03*
X138938000Y-77978000D03*
X141478000Y-75438000D03*
D15*
X110236000Y-33274000D03*
X110236000Y-35814000D03*
X112776000Y-33274000D03*
X112776000Y-35814000D03*
X115316000Y-33274000D03*
X115316000Y-35814000D03*
X117856000Y-33274000D03*
X117856000Y-35814000D03*
X120396000Y-33274000D03*
D16*
X120396000Y-35814000D03*
D14*
X119126000Y-75438000D03*
X121666000Y-77978000D03*
X124206000Y-75438000D03*
D15*
X151511000Y-77978000D03*
X145011000Y-77978000D03*
X151511000Y-73478000D03*
X145011000Y-73478000D03*
X145392000Y-32584000D03*
X151892000Y-32584000D03*
X145392000Y-37084000D03*
X151892000Y-37084000D03*
D17*
X121158000Y-41275000D03*
D18*
X121158000Y-43815000D03*
D19*
X132874000Y-69088000D03*
X134874000Y-69088000D03*
X136874000Y-69088000D03*
X138874000Y-69088000D03*
X140874000Y-69088000D03*
X142874000Y-69088000D03*
X144874000Y-69088000D03*
X146874000Y-69088000D03*
X148874000Y-69088000D03*
D20*
X150874000Y-69088000D03*
D19*
X132876000Y-41402000D03*
X134876000Y-41402000D03*
X136876000Y-41402000D03*
X138876000Y-41402000D03*
X140876000Y-41402000D03*
X142876000Y-41402000D03*
X144876000Y-41402000D03*
X146876000Y-41402000D03*
X148876000Y-41402000D03*
D20*
X150876000Y-41402000D03*
D21*
X127762000Y-75438000D03*
X132334000Y-75438000D03*
D10*
X106429000Y-73300000D03*
D11*
X101349000Y-73300000D03*
D22*
X91948000Y-44900000D03*
X97898000Y-46850000D03*
X97948000Y-59100000D03*
X85898000Y-59050000D03*
X85898000Y-46850000D03*
D17*
X141224000Y-33782000D03*
D18*
X141224000Y-36322000D03*
D23*
X135337000Y-34036000D03*
D15*
X132797000Y-34036000D03*
X130257000Y-34036000D03*
X127717000Y-34036000D03*
X125177000Y-34036000D03*
D11*
X105155000Y-36550000D03*
D10*
X100075000Y-36550000D03*
D15*
X113538000Y-71120000D03*
X113538000Y-73660000D03*
D16*
X113538000Y-76200000D03*
D15*
X113030000Y-45720000D03*
D16*
X115570000Y-45720000D03*
X111249460Y-41468040D03*
D17*
X113789460Y-41468040D03*
X116329460Y-41468040D03*
D16*
X121920000Y-69215000D03*
D15*
X119380000Y-69215000D03*
D24*
X83439000Y-33274000D03*
X83439000Y-76835000D03*
X156566000Y-34036000D03*
X156337000Y-76454000D03*
D25*
X97844000Y-55680000D03*
D26*
X125476000Y-59436000D03*
X125476000Y-44704000D03*
X135636000Y-53213000D03*
X114427000Y-38227000D03*
X135255000Y-56261000D03*
X137160000Y-51689000D03*
X120396000Y-62865000D03*
X125222000Y-36518001D03*
X116714000Y-50927000D03*
X116714000Y-56261000D03*
X116713000Y-52451000D03*
X116713000Y-57531000D03*
X116713000Y-64516000D03*
X110490000Y-53848000D03*
X132080000Y-50038000D03*
X132080000Y-48006022D03*
X150876000Y-38608000D03*
X150961600Y-46697010D03*
X109220000Y-66040000D03*
X109092997Y-57276997D03*
X138430000Y-56134000D03*
X140970000Y-54610000D03*
X147193000Y-34036000D03*
X148209000Y-39497000D03*
X152527000Y-39624000D03*
X152527000Y-45847000D03*
X148844000Y-50038000D03*
X130257000Y-49062990D03*
X113030000Y-49149000D03*
X112776000Y-38862000D03*
X127762000Y-38862000D03*
X119126000Y-43434000D03*
X115570000Y-43345990D03*
X119126000Y-39243000D03*
X123075122Y-39712010D03*
X142748000Y-60960000D03*
X155702000Y-60960000D03*
X155702000Y-72263000D03*
X124228860Y-45239940D03*
X124206000Y-37592000D03*
X110236000Y-37592000D03*
X124206000Y-47498000D03*
X124206000Y-70612000D03*
X117856000Y-46736000D03*
X142748000Y-78740000D03*
X148590000Y-31242000D03*
X153416000Y-64516000D03*
X110998000Y-46990000D03*
X123698000Y-56134000D03*
X123317000Y-48006000D03*
X128778000Y-60325000D03*
X128778000Y-56134000D03*
X145112740Y-61849000D03*
X140970000Y-64516000D03*
X140970000Y-55880000D03*
X128270000Y-47498000D03*
X100076000Y-39624000D03*
X116332000Y-38100000D03*
X122174000Y-36068000D03*
X122174000Y-38100000D03*
X123190000Y-45212000D03*
X123190000Y-41148000D03*
X131064000Y-40894000D03*
X131572000Y-37338000D03*
X126746000Y-51181000D03*
X125476000Y-65532000D03*
X90424000Y-63500000D03*
D25*
X94996000Y-62484000D03*
D26*
X105029000Y-66040000D03*
X144399000Y-48387000D03*
X144272000Y-51181000D03*
X152400000Y-67691000D03*
X152400000Y-51181000D03*
X105410000Y-51054000D03*
X105410000Y-45720000D03*
X101600000Y-51054000D03*
X128778000Y-72644000D03*
X128777998Y-61468000D03*
X101092000Y-70104000D03*
X136398000Y-71628000D03*
X111379000Y-71374000D03*
X113157000Y-66421000D03*
X118872000Y-71374000D03*
X154686000Y-54102000D03*
X154686000Y-70866000D03*
X130302000Y-54102000D03*
X127762000Y-55118000D03*
X144110000Y-52670000D03*
X144017998Y-63373000D03*
X100076000Y-49149000D03*
X100584000Y-67437000D03*
X111760000Y-60452000D03*
X111760000Y-48514000D03*
X106680000Y-59690000D03*
X105410000Y-57404000D03*
D27*
X125476000Y-59436000D02*
X125476000Y-44704000D01*
X97844000Y-46904000D02*
X97898000Y-46850000D01*
X97844000Y-55680000D02*
X97844000Y-46904000D01*
D28*
X124714000Y-34499000D02*
X125177000Y-34036000D01*
X115316000Y-35814000D02*
X115316000Y-37338000D01*
X115316000Y-37338000D02*
X114427000Y-38227000D01*
X125177000Y-36473001D02*
X125222000Y-36518001D01*
X125177000Y-34036000D02*
X125177000Y-36473001D01*
X116713000Y-64516000D02*
X116713000Y-63950315D01*
X116713000Y-63950315D02*
X116713000Y-57531000D01*
X109033919Y-33274000D02*
X108458000Y-33849919D01*
X108458000Y-51816000D02*
X110490000Y-53848000D01*
X108458000Y-33849919D02*
X108458000Y-51816000D01*
X110236000Y-33274000D02*
X109033919Y-33274000D01*
D27*
X132080000Y-50038000D02*
X132080000Y-48006022D01*
D28*
X150876000Y-41402000D02*
X150876000Y-40227000D01*
X150876000Y-40227000D02*
X150876000Y-39624000D01*
X150876000Y-39624000D02*
X150876000Y-38608000D01*
X150836640Y-44190720D02*
X150836640Y-46572050D01*
X150836640Y-46572050D02*
X150961600Y-46697010D01*
X150876000Y-44151360D02*
X150836640Y-44190720D01*
X150876000Y-41402000D02*
X150876000Y-44151360D01*
X109220000Y-66040000D02*
X109220000Y-57404000D01*
X109220000Y-57404000D02*
X109092997Y-57276997D01*
X138430000Y-56134000D02*
X139954000Y-54610000D01*
X140404315Y-54610000D02*
X140970000Y-54610000D01*
X139954000Y-54610000D02*
X140404315Y-54610000D01*
X147193000Y-38481000D02*
X147193000Y-34036000D01*
X148209000Y-39497000D02*
X147193000Y-38481000D01*
X152527000Y-45847000D02*
X152527000Y-39624000D01*
X130257000Y-34036000D02*
X130257000Y-34245000D01*
X148844000Y-44198080D02*
X148836640Y-44190720D01*
X148844000Y-50038000D02*
X148844000Y-44198080D01*
X129407001Y-48212991D02*
X129857001Y-48662991D01*
X129857001Y-48662991D02*
X130257000Y-49062990D01*
X129407001Y-34885999D02*
X129407001Y-48212991D01*
X130257000Y-34036000D02*
X129407001Y-34885999D01*
X148876000Y-44151360D02*
X148836640Y-44190720D01*
X148876000Y-41402000D02*
X148876000Y-44151360D01*
X113030000Y-49149000D02*
X113030000Y-45720000D01*
X112776000Y-35814000D02*
X112776000Y-38862000D01*
X127717000Y-34036000D02*
X127717000Y-38817000D01*
X127717000Y-38817000D02*
X127762000Y-38862000D01*
X115570000Y-45720000D02*
X115570000Y-43345990D01*
X119126000Y-43434000D02*
X119126000Y-39243000D01*
X146876000Y-44151360D02*
X146836640Y-44190720D01*
X146876000Y-41402000D02*
X146876000Y-44151360D01*
X120396000Y-33274000D02*
X121598081Y-33274000D01*
X121598081Y-33274000D02*
X123075122Y-34751041D01*
X123075122Y-39146325D02*
X123075122Y-39712010D01*
X123075122Y-34751041D02*
X123075122Y-39146325D01*
X144876000Y-44151360D02*
X144836640Y-44190720D01*
X144876000Y-41402000D02*
X144876000Y-44151360D01*
X142876000Y-35100000D02*
X142876000Y-41402000D01*
X145392000Y-32584000D02*
X142876000Y-35100000D01*
X142876000Y-44151360D02*
X142836640Y-44190720D01*
X142876000Y-41402000D02*
X142876000Y-44151360D01*
X140876000Y-44151360D02*
X140836640Y-44190720D01*
X140876000Y-41402000D02*
X140876000Y-44151360D01*
X140836640Y-45180669D02*
X141756971Y-46101000D01*
X140836640Y-44190720D02*
X140836640Y-45180669D01*
X141756971Y-46101000D02*
X142748000Y-46101000D01*
X142748000Y-46101000D02*
X142748000Y-60960000D01*
X155702000Y-60960000D02*
X155702000Y-72263000D01*
X138876000Y-44151360D02*
X138836640Y-44190720D01*
X138876000Y-41402000D02*
X138876000Y-44151360D01*
X110236000Y-35814000D02*
X110236000Y-37592000D01*
X124206000Y-45217080D02*
X124228860Y-45239940D01*
X124206000Y-37592000D02*
X124206000Y-45217080D01*
X134876000Y-44151360D02*
X134836640Y-44190720D01*
X134876000Y-41402000D02*
X134876000Y-44151360D01*
X132836640Y-69050640D02*
X132874000Y-69088000D01*
X132836640Y-66190720D02*
X132836640Y-69050640D01*
X117856000Y-35814000D02*
X117856000Y-46736000D01*
X124605999Y-47897999D02*
X124605999Y-70212001D01*
X124206000Y-47498000D02*
X124605999Y-47897999D01*
X124605999Y-70212001D02*
X124206000Y-70612000D01*
X134836640Y-69050640D02*
X134874000Y-69088000D01*
X134836640Y-66190720D02*
X134836640Y-69050640D01*
X136836640Y-69050640D02*
X136874000Y-69088000D01*
X136836640Y-66190720D02*
X136836640Y-69050640D01*
X140836640Y-69050640D02*
X140874000Y-69088000D01*
X140836640Y-66190720D02*
X140836640Y-69050640D01*
X140874000Y-70770000D02*
X140874000Y-69088000D01*
X142748000Y-78740000D02*
X142748000Y-72644000D01*
X142748000Y-72644000D02*
X140874000Y-70770000D01*
X153416000Y-35560000D02*
X153416000Y-39624000D01*
X152654000Y-34798000D02*
X153416000Y-35560000D01*
X148590000Y-31242000D02*
X148590000Y-33782000D01*
X153416000Y-39624000D02*
X153416000Y-64516000D01*
X149606000Y-34798000D02*
X152654000Y-34798000D01*
X148590000Y-33782000D02*
X149606000Y-34798000D01*
X142836640Y-69050640D02*
X142874000Y-69088000D01*
X142836640Y-66190720D02*
X142836640Y-69050640D01*
X144836640Y-69050640D02*
X144874000Y-69088000D01*
X144836640Y-66190720D02*
X144836640Y-69050640D01*
X146836640Y-69050640D02*
X146874000Y-69088000D01*
X146836640Y-66190720D02*
X146836640Y-69050640D01*
X113792000Y-42672000D02*
X110998000Y-45466000D01*
X113792000Y-41402000D02*
X113792000Y-42672000D01*
X110998000Y-45466000D02*
X110998000Y-46609000D01*
X110998000Y-46609000D02*
X110998000Y-46990000D01*
X123698000Y-56134000D02*
X123698000Y-48387000D01*
X123698000Y-48387000D02*
X123317000Y-48006000D01*
X146558000Y-65912080D02*
X146836640Y-66190720D01*
X128778000Y-56134000D02*
X128778000Y-60325000D01*
X145512739Y-62248999D02*
X145112740Y-61849000D01*
X146836640Y-63572900D02*
X145512739Y-62248999D01*
X146836640Y-66190720D02*
X146836640Y-63572900D01*
X148836640Y-69050640D02*
X148874000Y-69088000D01*
X148836640Y-66190720D02*
X148836640Y-69050640D01*
X150836640Y-69050640D02*
X150874000Y-69088000D01*
X150836640Y-66190720D02*
X150836640Y-69050640D01*
X150874000Y-72460000D02*
X150874000Y-69088000D01*
X151892000Y-73478000D02*
X150874000Y-72460000D01*
X140970000Y-64516000D02*
X140970000Y-61087000D01*
X140970000Y-61087000D02*
X140970000Y-55880000D01*
X128270000Y-47498000D02*
X128270000Y-52578000D01*
X128270000Y-52578000D02*
X128524000Y-52832000D01*
X128524000Y-52832000D02*
X134631996Y-52832000D01*
X135227998Y-52235998D02*
X136055998Y-52235998D01*
X134631996Y-52832000D02*
X135227998Y-52235998D01*
X137160000Y-53340000D02*
X137160000Y-60071000D01*
X136055998Y-52235998D02*
X137160000Y-53340000D01*
X138176000Y-61087000D02*
X140970000Y-61087000D01*
X137160000Y-60071000D02*
X138176000Y-61087000D01*
X100075000Y-36550000D02*
X100075000Y-39623000D01*
X100075000Y-39623000D02*
X100076000Y-39624000D01*
X122174000Y-38100000D02*
X122174000Y-36068000D01*
X116332000Y-41402000D02*
X116332000Y-38100000D01*
X123190000Y-45212000D02*
X123190000Y-41148000D01*
X131572000Y-40386000D02*
X131064000Y-40894000D01*
X131572000Y-37338000D02*
X131572000Y-40386000D01*
X132797000Y-36113000D02*
X131572000Y-37338000D01*
X132797000Y-34036000D02*
X132797000Y-36113000D01*
X126746000Y-51181000D02*
X126746000Y-51746685D01*
X126746000Y-51746685D02*
X126746000Y-64262000D01*
X126746000Y-64262000D02*
X125476000Y-65532000D01*
D27*
X89662000Y-48006000D02*
X89662000Y-62738000D01*
X89662000Y-62738000D02*
X90424000Y-63500000D01*
X85898000Y-46850000D02*
X88506000Y-46850000D01*
X88506000Y-46850000D02*
X89662000Y-48006000D01*
D29*
X89370000Y-42322000D02*
X91948000Y-44900000D01*
X89370000Y-36600000D02*
X89370000Y-42322000D01*
X91948000Y-59436000D02*
X94996000Y-62484000D01*
X91948000Y-44900000D02*
X91948000Y-59436000D01*
X89535000Y-42487000D02*
X91948000Y-44900000D01*
X89535000Y-36576000D02*
X89535000Y-42487000D01*
D28*
X111887000Y-73660000D02*
X113538000Y-73660000D01*
X105029000Y-67183000D02*
X105410000Y-67564000D01*
X105029000Y-66040000D02*
X105029000Y-67183000D01*
X105410000Y-67564000D02*
X108966000Y-67564000D01*
X108966000Y-67564000D02*
X110236000Y-68834000D01*
X110236000Y-68834000D02*
X110236000Y-72009000D01*
X110236000Y-72009000D02*
X111887000Y-73660000D01*
X144399000Y-51054000D02*
X144272000Y-51181000D01*
X144399000Y-48387000D02*
X144399000Y-51054000D01*
X152400000Y-67691000D02*
X152400000Y-51181000D01*
D27*
X105410000Y-51054000D02*
X105410000Y-45720000D01*
X128778000Y-72644000D02*
X128778000Y-61468002D01*
X128778000Y-61468002D02*
X128777998Y-61468000D01*
X101092000Y-70104000D02*
X101600000Y-69596000D01*
X101600000Y-51619685D02*
X101600000Y-51054000D01*
X101600000Y-69596000D02*
X101600000Y-51619685D01*
D28*
X136398000Y-75438000D02*
X136398000Y-71628000D01*
D27*
X113157000Y-66421000D02*
X113157000Y-66986685D01*
X111379000Y-68764685D02*
X111379000Y-68834000D01*
X113157000Y-66986685D02*
X111379000Y-68764685D01*
X111379000Y-71374000D02*
X111379000Y-68834000D01*
D28*
X113919000Y-66421000D02*
X118872000Y-71374000D01*
X113157000Y-66421000D02*
X113919000Y-66421000D01*
X118872000Y-71374000D02*
X118872000Y-73660000D01*
X118872000Y-73660000D02*
X119126000Y-73914000D01*
X119126000Y-73914000D02*
X119126000Y-75438000D01*
X154686000Y-70866000D02*
X154686000Y-54102000D01*
X132334000Y-75438000D02*
X130302000Y-73406000D01*
X130302000Y-73406000D02*
X130302000Y-54102000D01*
X127762000Y-75438000D02*
X127762000Y-61964004D01*
X127762000Y-55683685D02*
X127762000Y-55118000D01*
X127673998Y-55771687D02*
X127762000Y-55683685D01*
X127762000Y-61964004D02*
X127673998Y-61876002D01*
X127673998Y-61876002D02*
X127673998Y-55771687D01*
X144110000Y-63280998D02*
X144017998Y-63373000D01*
X144110000Y-52670000D02*
X144110000Y-63280998D01*
X100076000Y-66929000D02*
X100584000Y-67437000D01*
X100076000Y-49149000D02*
X100076000Y-66929000D01*
D27*
X111760000Y-60452000D02*
X111760000Y-48514000D01*
X106680000Y-59690000D02*
X105410000Y-58420000D01*
X105410000Y-58420000D02*
X105410000Y-57404000D01*
D28*
G36*
X122562260Y-55908038D02*
G01*
X122540000Y-56019947D01*
X122540000Y-56248053D01*
X122562260Y-56359962D01*
X122562260Y-58397385D01*
X116062260Y-58397385D01*
X116062260Y-49897385D01*
X122562260Y-49897385D01*
X122562260Y-55908038D01*
X122562260Y-55908038D01*
G37*
X122562260Y-55908038D02*
X122540000Y-56019947D01*
X122540000Y-56248053D01*
X122562260Y-56359962D01*
X122562260Y-58397385D01*
X116062260Y-58397385D01*
X116062260Y-49897385D01*
X122562260Y-49897385D01*
X122562260Y-55908038D01*
G36*
X147476501Y-30904224D02*
G01*
X147432000Y-31127947D01*
X147432000Y-31356053D01*
X147476501Y-31579776D01*
X147563794Y-31790519D01*
X147582000Y-31817767D01*
X147582001Y-32943719D01*
X147530776Y-32922501D01*
X147307053Y-32878000D01*
X147128823Y-32878000D01*
X147157780Y-32584000D01*
X147126733Y-32268777D01*
X147034786Y-31965668D01*
X146885472Y-31686321D01*
X146684529Y-31441471D01*
X146439679Y-31240528D01*
X146160332Y-31091214D01*
X145857223Y-30999267D01*
X145620991Y-30976000D01*
X145163009Y-30976000D01*
X144926777Y-30999267D01*
X144623668Y-31091214D01*
X144344321Y-31240528D01*
X144099471Y-31441471D01*
X143898528Y-31686321D01*
X143749214Y-31965668D01*
X143657267Y-32268777D01*
X143626220Y-32584000D01*
X143656728Y-32893745D01*
X142832000Y-33718473D01*
X142832000Y-33553010D01*
X142808733Y-33316778D01*
X142716786Y-33013669D01*
X142567472Y-32734321D01*
X142366529Y-32489471D01*
X142121679Y-32288528D01*
X141842332Y-32139214D01*
X141539223Y-32047267D01*
X141224000Y-32016220D01*
X140908778Y-32047267D01*
X140605669Y-32139214D01*
X140326322Y-32288528D01*
X140081471Y-32489471D01*
X139880528Y-32734321D01*
X139731214Y-33013668D01*
X139639267Y-33316777D01*
X139616000Y-33553009D01*
X139616000Y-34010990D01*
X139639267Y-34247222D01*
X139731214Y-34550331D01*
X139849587Y-34771792D01*
X139835419Y-34783419D01*
X139740696Y-34898840D01*
X139670311Y-35030522D01*
X139626967Y-35173406D01*
X139612332Y-35322000D01*
X139616000Y-36128500D01*
X139805500Y-36318000D01*
X141220000Y-36318000D01*
X141220000Y-36298000D01*
X141228000Y-36298000D01*
X141228000Y-36318000D01*
X141248000Y-36318000D01*
X141248000Y-36326000D01*
X141228000Y-36326000D01*
X141228000Y-37890500D01*
X141417500Y-38080000D01*
X141868000Y-38082517D01*
X141868001Y-40362324D01*
X141675984Y-40204739D01*
X141427039Y-40071675D01*
X141156917Y-39989735D01*
X140946392Y-39969000D01*
X140805608Y-39969000D01*
X140595083Y-39989735D01*
X140324961Y-40071675D01*
X140076016Y-40204739D01*
X139876000Y-40368889D01*
X139675984Y-40204739D01*
X139427039Y-40071675D01*
X139156917Y-39989735D01*
X138946392Y-39969000D01*
X138805608Y-39969000D01*
X138595083Y-39989735D01*
X138324961Y-40071675D01*
X138076016Y-40204739D01*
X137876000Y-40368889D01*
X137675984Y-40204739D01*
X137427039Y-40071675D01*
X137156917Y-39989735D01*
X136946392Y-39969000D01*
X136805608Y-39969000D01*
X136595083Y-39989735D01*
X136324961Y-40071675D01*
X136076016Y-40204739D01*
X135876000Y-40368889D01*
X135675984Y-40204739D01*
X135427039Y-40071675D01*
X135156917Y-39989735D01*
X134946392Y-39969000D01*
X134805608Y-39969000D01*
X134595083Y-39989735D01*
X134324961Y-40071675D01*
X134076016Y-40204739D01*
X133867987Y-40375466D01*
X133715057Y-40240331D01*
X133472304Y-40098960D01*
X133206636Y-40007664D01*
X133104120Y-39987274D01*
X132880000Y-40158506D01*
X132880000Y-41398000D01*
X132900000Y-41398000D01*
X132900000Y-41406000D01*
X132880000Y-41406000D01*
X132880000Y-41426000D01*
X132872000Y-41426000D01*
X132872000Y-41406000D01*
X132852000Y-41406000D01*
X132852000Y-41398000D01*
X132872000Y-41398000D01*
X132872000Y-40158506D01*
X132647880Y-39987274D01*
X132580000Y-40000775D01*
X132580000Y-37913766D01*
X132598206Y-37886519D01*
X132685499Y-37675776D01*
X132691892Y-37643635D01*
X133013527Y-37322000D01*
X139612332Y-37322000D01*
X139626967Y-37470594D01*
X139670311Y-37613478D01*
X139740696Y-37745160D01*
X139835419Y-37860581D01*
X139950840Y-37955304D01*
X140082522Y-38025689D01*
X140225406Y-38069033D01*
X140374000Y-38083668D01*
X141030500Y-38080000D01*
X141220000Y-37890500D01*
X141220000Y-36326000D01*
X139805500Y-36326000D01*
X139616000Y-36515500D01*
X139612332Y-37322000D01*
X133013527Y-37322000D01*
X133474751Y-36860776D01*
X133513212Y-36829212D01*
X133544778Y-36790749D01*
X133639177Y-36675724D01*
X133732776Y-36500611D01*
X133734243Y-36495776D01*
X133790415Y-36310603D01*
X133805000Y-36162518D01*
X133805000Y-36162507D01*
X133809876Y-36113000D01*
X133805000Y-36063493D01*
X133805000Y-35400681D01*
X133844679Y-35379472D01*
X133884548Y-35346752D01*
X133948420Y-35424580D01*
X134063840Y-35519303D01*
X134195523Y-35589689D01*
X134338406Y-35633032D01*
X134487000Y-35647667D01*
X136187000Y-35647667D01*
X136335594Y-35633032D01*
X136478477Y-35589689D01*
X136610160Y-35519303D01*
X136725580Y-35424580D01*
X136820303Y-35309160D01*
X136890689Y-35177477D01*
X136934032Y-35034594D01*
X136948667Y-34886000D01*
X136948667Y-33186000D01*
X136934032Y-33037406D01*
X136890689Y-32894523D01*
X136820303Y-32762840D01*
X136725580Y-32647420D01*
X136610160Y-32552697D01*
X136478477Y-32482311D01*
X136335594Y-32438968D01*
X136187000Y-32424333D01*
X134487000Y-32424333D01*
X134338406Y-32438968D01*
X134195523Y-32482311D01*
X134063840Y-32552697D01*
X133948420Y-32647420D01*
X133884548Y-32725248D01*
X133844679Y-32692528D01*
X133565332Y-32543214D01*
X133262223Y-32451267D01*
X133025991Y-32428000D01*
X132568009Y-32428000D01*
X132331777Y-32451267D01*
X132028668Y-32543214D01*
X131749321Y-32692528D01*
X131527000Y-32874982D01*
X131304679Y-32692528D01*
X131025332Y-32543214D01*
X130722223Y-32451267D01*
X130485991Y-32428000D01*
X130028009Y-32428000D01*
X129791777Y-32451267D01*
X129488668Y-32543214D01*
X129209321Y-32692528D01*
X128987000Y-32874982D01*
X128764679Y-32692528D01*
X128485332Y-32543214D01*
X128182223Y-32451267D01*
X127945991Y-32428000D01*
X127488009Y-32428000D01*
X127251777Y-32451267D01*
X126948668Y-32543214D01*
X126669321Y-32692528D01*
X126440655Y-32880190D01*
X126223682Y-32701220D01*
X125946050Y-32551933D01*
X125644628Y-32459678D01*
X125331000Y-32428000D01*
X125181000Y-32428000D01*
X125181000Y-34032000D01*
X125201000Y-34032000D01*
X125201000Y-34040000D01*
X125181000Y-34040000D01*
X125181000Y-35644000D01*
X125331000Y-35644000D01*
X125644628Y-35612322D01*
X125946050Y-35520067D01*
X126223682Y-35370780D01*
X126440655Y-35191810D01*
X126669321Y-35379472D01*
X126709000Y-35400681D01*
X126709001Y-38378165D01*
X126648501Y-38524224D01*
X126604000Y-38747947D01*
X126604000Y-38976053D01*
X126648501Y-39199776D01*
X126735794Y-39410519D01*
X126862523Y-39600182D01*
X127023818Y-39761477D01*
X127213481Y-39888206D01*
X127424224Y-39975499D01*
X127647947Y-40020000D01*
X127876053Y-40020000D01*
X128099776Y-39975499D01*
X128310519Y-39888206D01*
X128399001Y-39829084D01*
X128399002Y-46342973D01*
X128384053Y-46340000D01*
X128155947Y-46340000D01*
X127932224Y-46384501D01*
X127721481Y-46471794D01*
X127531818Y-46598523D01*
X127370523Y-46759818D01*
X127243794Y-46949481D01*
X127156501Y-47160224D01*
X127112000Y-47383947D01*
X127112000Y-47612053D01*
X127156501Y-47835776D01*
X127243794Y-48046519D01*
X127262000Y-48073766D01*
X127262001Y-50141324D01*
X127083776Y-50067501D01*
X126860053Y-50023000D01*
X126631947Y-50023000D01*
X126609000Y-50027564D01*
X126609000Y-44943737D01*
X126634000Y-44818053D01*
X126634000Y-44589947D01*
X126589499Y-44366224D01*
X126502206Y-44155481D01*
X126375477Y-43965818D01*
X126214182Y-43804523D01*
X126024519Y-43677794D01*
X125813776Y-43590501D01*
X125590053Y-43546000D01*
X125361947Y-43546000D01*
X125214000Y-43575428D01*
X125214000Y-38167766D01*
X125232206Y-38140519D01*
X125319499Y-37929776D01*
X125364000Y-37706053D01*
X125364000Y-37477947D01*
X125319499Y-37254224D01*
X125232206Y-37043481D01*
X125105477Y-36853818D01*
X124944182Y-36692523D01*
X124754519Y-36565794D01*
X124543776Y-36478501D01*
X124320053Y-36434000D01*
X124091947Y-36434000D01*
X124083122Y-36435755D01*
X124083122Y-35331850D01*
X124130318Y-35370780D01*
X124407950Y-35520067D01*
X124709372Y-35612322D01*
X125023000Y-35644000D01*
X125173000Y-35644000D01*
X125173000Y-34040000D01*
X125153000Y-34040000D01*
X125153000Y-34032000D01*
X125173000Y-34032000D01*
X125173000Y-32428000D01*
X125023000Y-32428000D01*
X124709372Y-32459678D01*
X124407950Y-32551933D01*
X124130318Y-32701220D01*
X123887145Y-32901801D01*
X123687776Y-33145969D01*
X123539872Y-33424340D01*
X123455291Y-33705683D01*
X122345857Y-32596249D01*
X122314293Y-32557788D01*
X122231049Y-32489471D01*
X122160805Y-32431824D01*
X122146790Y-32424333D01*
X121985692Y-32338224D01*
X121815948Y-32286732D01*
X121688529Y-32131471D01*
X121443679Y-31930528D01*
X121164332Y-31781214D01*
X120861223Y-31689267D01*
X120624991Y-31666000D01*
X120167009Y-31666000D01*
X119930777Y-31689267D01*
X119627668Y-31781214D01*
X119348321Y-31930528D01*
X119126000Y-32112982D01*
X118903679Y-31930528D01*
X118624332Y-31781214D01*
X118321223Y-31689267D01*
X118084991Y-31666000D01*
X117627009Y-31666000D01*
X117390777Y-31689267D01*
X117087668Y-31781214D01*
X116808321Y-31930528D01*
X116586000Y-32112982D01*
X116363679Y-31930528D01*
X116084332Y-31781214D01*
X115781223Y-31689267D01*
X115544991Y-31666000D01*
X115087009Y-31666000D01*
X114850777Y-31689267D01*
X114547668Y-31781214D01*
X114268321Y-31930528D01*
X114046000Y-32112982D01*
X113823679Y-31930528D01*
X113544332Y-31781214D01*
X113241223Y-31689267D01*
X113004991Y-31666000D01*
X112547009Y-31666000D01*
X112310777Y-31689267D01*
X112007668Y-31781214D01*
X111728321Y-31930528D01*
X111506000Y-32112982D01*
X111283679Y-31930528D01*
X111004332Y-31781214D01*
X110701223Y-31689267D01*
X110464991Y-31666000D01*
X110007009Y-31666000D01*
X109770777Y-31689267D01*
X109467668Y-31781214D01*
X109188321Y-31930528D01*
X108943471Y-32131471D01*
X108816052Y-32286732D01*
X108646308Y-32338224D01*
X108613989Y-32355499D01*
X108471194Y-32431824D01*
X108425261Y-32469521D01*
X108317707Y-32557788D01*
X108286139Y-32596254D01*
X107780250Y-33102142D01*
X107741788Y-33133707D01*
X107710224Y-33172168D01*
X107710222Y-33172170D01*
X107661514Y-33231521D01*
X107615824Y-33287195D01*
X107522224Y-33462309D01*
X107464585Y-33652317D01*
X107450000Y-33800402D01*
X107450000Y-33800412D01*
X107445124Y-33849919D01*
X107450000Y-33899426D01*
X107450001Y-51766483D01*
X107445124Y-51816000D01*
X107450001Y-51865517D01*
X107450001Y-51865518D01*
X107458638Y-51953206D01*
X107464586Y-52013602D01*
X107522225Y-52203611D01*
X107615824Y-52378724D01*
X107710222Y-52493749D01*
X107710229Y-52493756D01*
X107741789Y-52532212D01*
X107780244Y-52563771D01*
X109370108Y-54153636D01*
X109376501Y-54185776D01*
X109463794Y-54396519D01*
X109590523Y-54586182D01*
X109751818Y-54747477D01*
X109941481Y-54874206D01*
X110152224Y-54961499D01*
X110375947Y-55006000D01*
X110604053Y-55006000D01*
X110627000Y-55001435D01*
X110627000Y-60212263D01*
X110602000Y-60337947D01*
X110602000Y-60566053D01*
X110646501Y-60789776D01*
X110733794Y-61000519D01*
X110860523Y-61190182D01*
X111021818Y-61351477D01*
X111211481Y-61478206D01*
X111422224Y-61565499D01*
X111645947Y-61610000D01*
X111874053Y-61610000D01*
X112097776Y-61565499D01*
X112308519Y-61478206D01*
X112498182Y-61351477D01*
X112659477Y-61190182D01*
X112786206Y-61000519D01*
X112873499Y-60789776D01*
X112918000Y-60566053D01*
X112918000Y-60337947D01*
X112893000Y-60212263D01*
X112893000Y-50302436D01*
X112915947Y-50307000D01*
X113144053Y-50307000D01*
X113367776Y-50262499D01*
X113578519Y-50175206D01*
X113768182Y-50048477D01*
X113929477Y-49887182D01*
X114056206Y-49697519D01*
X114143499Y-49486776D01*
X114188000Y-49263053D01*
X114188000Y-49034947D01*
X114143499Y-48811224D01*
X114056206Y-48600481D01*
X114038000Y-48573234D01*
X114038000Y-47113980D01*
X114146840Y-47203303D01*
X114278523Y-47273689D01*
X114421406Y-47317032D01*
X114570000Y-47331667D01*
X116570000Y-47331667D01*
X116718594Y-47317032D01*
X116829345Y-47283436D01*
X116829794Y-47284519D01*
X116956523Y-47474182D01*
X117117818Y-47635477D01*
X117307481Y-47762206D01*
X117518224Y-47849499D01*
X117741947Y-47894000D01*
X117970053Y-47894000D01*
X118193776Y-47849499D01*
X118404519Y-47762206D01*
X118594182Y-47635477D01*
X118755477Y-47474182D01*
X118882206Y-47284519D01*
X118969499Y-47073776D01*
X119014000Y-46850053D01*
X119014000Y-46621947D01*
X118969499Y-46398224D01*
X118882206Y-46187481D01*
X118864000Y-46160234D01*
X118864000Y-44562572D01*
X119011947Y-44592000D01*
X119240053Y-44592000D01*
X119463776Y-44547499D01*
X119547707Y-44512734D01*
X119546332Y-44815000D01*
X119560967Y-44963594D01*
X119604311Y-45106478D01*
X119674696Y-45238160D01*
X119769419Y-45353581D01*
X119884840Y-45448304D01*
X120016522Y-45518689D01*
X120159406Y-45562033D01*
X120308000Y-45576668D01*
X120964500Y-45573000D01*
X121154000Y-45383500D01*
X121154000Y-43819000D01*
X121134000Y-43819000D01*
X121134000Y-43811000D01*
X121154000Y-43811000D01*
X121154000Y-43791000D01*
X121162000Y-43791000D01*
X121162000Y-43811000D01*
X121182000Y-43811000D01*
X121182000Y-43819000D01*
X121162000Y-43819000D01*
X121162000Y-45383500D01*
X121351500Y-45573000D01*
X122008000Y-45576668D01*
X122084518Y-45569132D01*
X122163794Y-45760519D01*
X122290523Y-45950182D01*
X122451818Y-46111477D01*
X122641481Y-46238206D01*
X122852224Y-46325499D01*
X123075947Y-46370000D01*
X123304053Y-46370000D01*
X123527776Y-46325499D01*
X123676792Y-46263774D01*
X123680341Y-46266146D01*
X123891084Y-46353439D01*
X123957734Y-46366696D01*
X123868224Y-46384501D01*
X123657481Y-46471794D01*
X123467818Y-46598523D01*
X123306523Y-46759818D01*
X123247602Y-46848000D01*
X123202947Y-46848000D01*
X122979224Y-46892501D01*
X122768481Y-46979794D01*
X122578818Y-47106523D01*
X122417523Y-47267818D01*
X122290794Y-47457481D01*
X122203501Y-47668224D01*
X122159000Y-47891947D01*
X122159000Y-48120053D01*
X122203501Y-48343776D01*
X122290794Y-48554519D01*
X122417523Y-48744182D01*
X122562726Y-48889385D01*
X115812260Y-48889385D01*
X115664382Y-48903950D01*
X115522186Y-48947084D01*
X115391138Y-49017131D01*
X115276273Y-49111398D01*
X115182006Y-49226263D01*
X115111959Y-49357311D01*
X115068825Y-49499507D01*
X115054260Y-49647385D01*
X115054260Y-58647385D01*
X115068825Y-58795263D01*
X115111959Y-58937459D01*
X115182006Y-59068507D01*
X115276273Y-59183372D01*
X115391138Y-59277639D01*
X115522186Y-59347686D01*
X115664382Y-59390820D01*
X115705001Y-59394821D01*
X115705000Y-63900797D01*
X115705000Y-63940234D01*
X115686794Y-63967481D01*
X115599501Y-64178224D01*
X115555000Y-64401947D01*
X115555000Y-64630053D01*
X115599501Y-64853776D01*
X115686794Y-65064519D01*
X115813523Y-65254182D01*
X115974818Y-65415477D01*
X116164481Y-65542206D01*
X116375224Y-65629499D01*
X116598947Y-65674000D01*
X116827053Y-65674000D01*
X117050776Y-65629499D01*
X117261519Y-65542206D01*
X117451182Y-65415477D01*
X117612477Y-65254182D01*
X117739206Y-65064519D01*
X117826499Y-64853776D01*
X117871000Y-64630053D01*
X117871000Y-64401947D01*
X117826499Y-64178224D01*
X117739206Y-63967481D01*
X117721000Y-63940234D01*
X117721000Y-59405385D01*
X122812260Y-59405385D01*
X122960138Y-59390820D01*
X123102334Y-59347686D01*
X123233382Y-59277639D01*
X123348247Y-59183372D01*
X123442514Y-59068507D01*
X123512561Y-58937459D01*
X123555695Y-58795263D01*
X123570260Y-58647385D01*
X123570260Y-57289278D01*
X123583947Y-57292000D01*
X123597999Y-57292000D01*
X123598000Y-68025462D01*
X123553303Y-67941840D01*
X123458580Y-67826420D01*
X123343160Y-67731697D01*
X123211477Y-67661311D01*
X123068594Y-67617968D01*
X122920000Y-67603333D01*
X120920000Y-67603333D01*
X120771406Y-67617968D01*
X120628523Y-67661311D01*
X120496840Y-67731697D01*
X120381420Y-67826420D01*
X120369793Y-67840587D01*
X120148332Y-67722214D01*
X119845223Y-67630267D01*
X119608991Y-67607000D01*
X119151009Y-67607000D01*
X118914777Y-67630267D01*
X118611668Y-67722214D01*
X118332321Y-67871528D01*
X118087471Y-68072471D01*
X117886528Y-68317321D01*
X117737214Y-68596668D01*
X117686704Y-68763177D01*
X114666776Y-65743249D01*
X114635212Y-65704788D01*
X114571364Y-65652389D01*
X114481724Y-65578824D01*
X114306611Y-65485224D01*
X114116603Y-65427585D01*
X113968518Y-65413000D01*
X113968507Y-65413000D01*
X113919000Y-65408124D01*
X113869493Y-65413000D01*
X113732766Y-65413000D01*
X113705519Y-65394794D01*
X113494776Y-65307501D01*
X113271053Y-65263000D01*
X113042947Y-65263000D01*
X112819224Y-65307501D01*
X112608481Y-65394794D01*
X112418818Y-65521523D01*
X112257523Y-65682818D01*
X112130794Y-65872481D01*
X112043501Y-66083224D01*
X111999000Y-66306947D01*
X111999000Y-66535053D01*
X112000216Y-66541165D01*
X110684454Y-67856927D01*
X109843579Y-67016052D01*
X109958182Y-66939477D01*
X110119477Y-66778182D01*
X110246206Y-66588519D01*
X110333499Y-66377776D01*
X110378000Y-66154053D01*
X110378000Y-65925947D01*
X110333499Y-65702224D01*
X110246206Y-65491481D01*
X110228000Y-65464234D01*
X110228000Y-57506664D01*
X110250997Y-57391050D01*
X110250997Y-57162944D01*
X110206496Y-56939221D01*
X110119203Y-56728478D01*
X109992474Y-56538815D01*
X109831179Y-56377520D01*
X109641516Y-56250791D01*
X109430773Y-56163498D01*
X109207050Y-56118997D01*
X108978944Y-56118997D01*
X108755221Y-56163498D01*
X108544478Y-56250791D01*
X108354815Y-56377520D01*
X108193520Y-56538815D01*
X108066791Y-56728478D01*
X107979498Y-56939221D01*
X107934997Y-57162944D01*
X107934997Y-57391050D01*
X107979498Y-57614773D01*
X108066791Y-57825516D01*
X108193520Y-58015179D01*
X108212001Y-58033660D01*
X108212000Y-65464234D01*
X108193794Y-65491481D01*
X108106501Y-65702224D01*
X108062000Y-65925947D01*
X108062000Y-66154053D01*
X108106501Y-66377776D01*
X108180324Y-66556000D01*
X106068676Y-66556000D01*
X106142499Y-66377776D01*
X106187000Y-66154053D01*
X106187000Y-65925947D01*
X106142499Y-65702224D01*
X106055206Y-65491481D01*
X105928477Y-65301818D01*
X105767182Y-65140523D01*
X105577519Y-65013794D01*
X105366776Y-64926501D01*
X105143053Y-64882000D01*
X104914947Y-64882000D01*
X104691224Y-64926501D01*
X104480481Y-65013794D01*
X104290818Y-65140523D01*
X104129523Y-65301818D01*
X104002794Y-65491481D01*
X103915501Y-65702224D01*
X103871000Y-65925947D01*
X103871000Y-66154053D01*
X103915501Y-66377776D01*
X104002794Y-66588519D01*
X104021001Y-66615767D01*
X104021001Y-67133484D01*
X104016124Y-67183000D01*
X104021001Y-67232517D01*
X104021001Y-67232518D01*
X104032890Y-67353224D01*
X104035586Y-67380602D01*
X104093225Y-67570611D01*
X104186824Y-67745724D01*
X104281222Y-67860749D01*
X104281229Y-67860756D01*
X104312789Y-67899212D01*
X104351246Y-67930772D01*
X104662220Y-68241746D01*
X104693788Y-68280212D01*
X104847276Y-68406176D01*
X105022389Y-68499776D01*
X105212397Y-68557415D01*
X105360482Y-68572000D01*
X105360492Y-68572000D01*
X105409999Y-68576876D01*
X105459506Y-68572000D01*
X108548473Y-68572000D01*
X109228000Y-69251527D01*
X109228001Y-71959483D01*
X109223124Y-72009000D01*
X109228001Y-72058517D01*
X109228001Y-72058518D01*
X109242586Y-72206603D01*
X109259551Y-72262529D01*
X109300225Y-72396611D01*
X109393824Y-72571724D01*
X109488222Y-72686749D01*
X109488229Y-72686756D01*
X109519789Y-72725212D01*
X109558245Y-72756772D01*
X111139222Y-74337749D01*
X111170788Y-74376212D01*
X111209249Y-74407776D01*
X111209251Y-74407778D01*
X111324276Y-74502177D01*
X111485464Y-74588333D01*
X111499389Y-74595776D01*
X111689397Y-74653415D01*
X111837482Y-74668000D01*
X111837485Y-74668000D01*
X111887000Y-74672877D01*
X111936515Y-74668000D01*
X112135066Y-74668000D01*
X112156678Y-74694334D01*
X112114840Y-74716697D01*
X111999420Y-74811420D01*
X111904697Y-74926840D01*
X111834311Y-75058523D01*
X111790968Y-75201406D01*
X111776333Y-75350000D01*
X111776333Y-77050000D01*
X111790968Y-77198594D01*
X111834311Y-77341477D01*
X111904697Y-77473160D01*
X111999420Y-77588580D01*
X112114840Y-77683303D01*
X112246523Y-77753689D01*
X112389406Y-77797032D01*
X112538000Y-77811667D01*
X114538000Y-77811667D01*
X114686594Y-77797032D01*
X114829477Y-77753689D01*
X114961160Y-77683303D01*
X115076580Y-77588580D01*
X115171303Y-77473160D01*
X115241689Y-77341477D01*
X115285032Y-77198594D01*
X115299667Y-77050000D01*
X115299667Y-75350000D01*
X115285032Y-75201406D01*
X115241689Y-75058523D01*
X115171303Y-74926840D01*
X115076580Y-74811420D01*
X114961160Y-74716697D01*
X114919322Y-74694334D01*
X115031472Y-74557679D01*
X115180786Y-74278332D01*
X115272733Y-73975223D01*
X115303780Y-73660000D01*
X115272733Y-73344777D01*
X115180786Y-73041668D01*
X115031472Y-72762321D01*
X114830529Y-72517471D01*
X114675205Y-72390000D01*
X114830529Y-72262529D01*
X115031472Y-72017679D01*
X115180786Y-71738332D01*
X115272733Y-71435223D01*
X115303780Y-71120000D01*
X115272733Y-70804777D01*
X115180786Y-70501668D01*
X115031472Y-70222321D01*
X114830529Y-69977471D01*
X114585679Y-69776528D01*
X114306332Y-69627214D01*
X114003223Y-69535267D01*
X113766991Y-69512000D01*
X113309009Y-69512000D01*
X113072777Y-69535267D01*
X112769668Y-69627214D01*
X112512000Y-69764940D01*
X112512000Y-69233988D01*
X113909231Y-67836758D01*
X117752108Y-71679635D01*
X117758501Y-71711776D01*
X117845794Y-71922519D01*
X117864000Y-71949767D01*
X117864001Y-73610483D01*
X117859124Y-73660000D01*
X117864001Y-73709517D01*
X117864001Y-73709518D01*
X117873109Y-73801988D01*
X117878586Y-73857602D01*
X117936225Y-74047611D01*
X118029824Y-74222724D01*
X118118000Y-74330168D01*
X118118000Y-74355793D01*
X117977963Y-74495830D01*
X117816214Y-74737905D01*
X117704799Y-75006883D01*
X117648000Y-75292430D01*
X117648000Y-75583570D01*
X117704799Y-75869117D01*
X117816214Y-76138095D01*
X117977963Y-76380170D01*
X118183830Y-76586037D01*
X118425905Y-76747786D01*
X118694883Y-76859201D01*
X118980430Y-76916000D01*
X119271570Y-76916000D01*
X119557117Y-76859201D01*
X119826095Y-76747786D01*
X120068170Y-76586037D01*
X120274037Y-76380170D01*
X120289526Y-76356988D01*
X123292669Y-76356988D01*
X123336289Y-76641860D01*
X123587861Y-76788400D01*
X123863188Y-76883046D01*
X124151689Y-76922158D01*
X124442278Y-76904236D01*
X124723787Y-76829967D01*
X124985396Y-76702206D01*
X125075711Y-76641860D01*
X125119331Y-76356988D01*
X124206000Y-75443657D01*
X123292669Y-76356988D01*
X120289526Y-76356988D01*
X120435786Y-76138095D01*
X120547201Y-75869117D01*
X120604000Y-75583570D01*
X120604000Y-75383689D01*
X122721842Y-75383689D01*
X122739764Y-75674278D01*
X122814033Y-75955787D01*
X122941794Y-76217396D01*
X123002140Y-76307711D01*
X123287012Y-76351331D01*
X124200343Y-75438000D01*
X124211657Y-75438000D01*
X125124988Y-76351331D01*
X125409860Y-76307711D01*
X125556400Y-76056139D01*
X125651046Y-75780812D01*
X125690158Y-75492311D01*
X125672236Y-75201722D01*
X125597967Y-74920213D01*
X125470206Y-74658604D01*
X125409860Y-74568289D01*
X125124988Y-74524669D01*
X124211657Y-75438000D01*
X124200343Y-75438000D01*
X123287012Y-74524669D01*
X123002140Y-74568289D01*
X122855600Y-74819861D01*
X122760954Y-75095188D01*
X122721842Y-75383689D01*
X120604000Y-75383689D01*
X120604000Y-75292430D01*
X120547201Y-75006883D01*
X120435786Y-74737905D01*
X120289527Y-74519012D01*
X123292669Y-74519012D01*
X124206000Y-75432343D01*
X125119331Y-74519012D01*
X125075711Y-74234140D01*
X124824139Y-74087600D01*
X124548812Y-73992954D01*
X124260311Y-73953842D01*
X123969722Y-73971764D01*
X123688213Y-74046033D01*
X123426604Y-74173794D01*
X123336289Y-74234140D01*
X123292669Y-74519012D01*
X120289527Y-74519012D01*
X120274037Y-74495830D01*
X120134000Y-74355793D01*
X120134000Y-73963506D01*
X120138876Y-73913999D01*
X120134000Y-73864492D01*
X120134000Y-73864482D01*
X120119415Y-73716397D01*
X120061776Y-73526389D01*
X119968176Y-73351276D01*
X119880000Y-73243833D01*
X119880000Y-71949766D01*
X119898206Y-71922519D01*
X119985499Y-71711776D01*
X120030000Y-71488053D01*
X120030000Y-71259947D01*
X119985499Y-71036224D01*
X119898206Y-70825481D01*
X119874972Y-70790709D01*
X120148332Y-70707786D01*
X120369793Y-70589413D01*
X120381420Y-70603580D01*
X120496840Y-70698303D01*
X120628523Y-70768689D01*
X120771406Y-70812032D01*
X120920000Y-70826667D01*
X122920000Y-70826667D01*
X123065169Y-70812369D01*
X123092501Y-70949776D01*
X123179794Y-71160519D01*
X123306523Y-71350182D01*
X123467818Y-71511477D01*
X123657481Y-71638206D01*
X123868224Y-71725499D01*
X124091947Y-71770000D01*
X124320053Y-71770000D01*
X124543776Y-71725499D01*
X124754519Y-71638206D01*
X124944182Y-71511477D01*
X125105477Y-71350182D01*
X125232206Y-71160519D01*
X125319499Y-70949776D01*
X125324293Y-70925676D01*
X125405548Y-70826667D01*
X125448175Y-70774725D01*
X125460350Y-70751947D01*
X125541775Y-70599612D01*
X125599414Y-70409604D01*
X125613999Y-70261519D01*
X125613999Y-70261509D01*
X125618875Y-70212002D01*
X125613999Y-70162495D01*
X125613999Y-66685237D01*
X125813776Y-66645499D01*
X126024519Y-66558206D01*
X126214182Y-66431477D01*
X126375477Y-66270182D01*
X126502206Y-66080519D01*
X126589499Y-65869776D01*
X126595892Y-65837635D01*
X126754001Y-65679526D01*
X126754000Y-73997195D01*
X126641340Y-74072472D01*
X126396472Y-74317340D01*
X126204081Y-74605275D01*
X126071559Y-74925210D01*
X126004000Y-75264852D01*
X126004000Y-75611148D01*
X126071559Y-75950790D01*
X126204081Y-76270725D01*
X126396472Y-76558660D01*
X126641340Y-76803528D01*
X126929275Y-76995919D01*
X127249210Y-77128441D01*
X127588852Y-77196000D01*
X127935148Y-77196000D01*
X128274790Y-77128441D01*
X128594725Y-76995919D01*
X128882660Y-76803528D01*
X129127528Y-76558660D01*
X129319919Y-76270725D01*
X129452441Y-75950790D01*
X129520000Y-75611148D01*
X129520000Y-75264852D01*
X129452441Y-74925210D01*
X129319919Y-74605275D01*
X129127528Y-74317340D01*
X128882660Y-74072472D01*
X128770000Y-73997195D01*
X128770000Y-73802000D01*
X128892053Y-73802000D01*
X129115776Y-73757499D01*
X129326519Y-73670206D01*
X129328407Y-73668945D01*
X129366224Y-73793610D01*
X129404709Y-73865610D01*
X129459824Y-73968724D01*
X129548684Y-74077000D01*
X129585788Y-74122212D01*
X129624249Y-74153776D01*
X130602434Y-75131961D01*
X130576000Y-75264852D01*
X130576000Y-75611148D01*
X130643559Y-75950790D01*
X130776081Y-76270725D01*
X130968472Y-76558660D01*
X131213340Y-76803528D01*
X131501275Y-76995919D01*
X131821210Y-77128441D01*
X132160852Y-77196000D01*
X132507148Y-77196000D01*
X132846790Y-77128441D01*
X133166725Y-76995919D01*
X133454660Y-76803528D01*
X133699528Y-76558660D01*
X133891919Y-76270725D01*
X134024441Y-75950790D01*
X134092000Y-75611148D01*
X134092000Y-75264852D01*
X134024441Y-74925210D01*
X133891919Y-74605275D01*
X133699528Y-74317340D01*
X133454660Y-74072472D01*
X133166725Y-73880081D01*
X132846790Y-73747559D01*
X132507148Y-73680000D01*
X132160852Y-73680000D01*
X132027961Y-73706434D01*
X131310000Y-72988473D01*
X131310000Y-54677766D01*
X131328206Y-54650519D01*
X131415499Y-54439776D01*
X131460000Y-54216053D01*
X131460000Y-53987947D01*
X131430572Y-53840000D01*
X134582489Y-53840000D01*
X134631996Y-53844876D01*
X134681503Y-53840000D01*
X134681514Y-53840000D01*
X134829599Y-53825415D01*
X135019607Y-53767776D01*
X135194720Y-53674176D01*
X135264895Y-53616585D01*
X135309745Y-53579778D01*
X135309747Y-53579776D01*
X135348208Y-53548212D01*
X135379772Y-53509751D01*
X135641998Y-53247525D01*
X136152000Y-53757527D01*
X136152001Y-60021483D01*
X136147124Y-60071000D01*
X136152001Y-60120517D01*
X136152001Y-60120518D01*
X136166586Y-60268603D01*
X136214994Y-60428182D01*
X136224225Y-60458611D01*
X136317824Y-60633724D01*
X136412222Y-60748749D01*
X136412229Y-60748756D01*
X136443789Y-60787212D01*
X136482244Y-60818771D01*
X137428228Y-61764756D01*
X137459788Y-61803212D01*
X137498244Y-61834772D01*
X137498250Y-61834778D01*
X137613275Y-61929176D01*
X137676655Y-61963053D01*
X137788389Y-62022776D01*
X137978397Y-62080415D01*
X138126482Y-62095000D01*
X138126493Y-62095000D01*
X138176000Y-62099876D01*
X138225507Y-62095000D01*
X139962001Y-62095000D01*
X139962000Y-63940234D01*
X139943794Y-63967481D01*
X139856501Y-64178224D01*
X139812000Y-64401947D01*
X139812000Y-64630053D01*
X139856501Y-64853776D01*
X139933821Y-65040442D01*
X139907219Y-65058217D01*
X139836640Y-65128796D01*
X139766061Y-65058217D01*
X139527262Y-64898657D01*
X139261923Y-64788750D01*
X138980241Y-64732720D01*
X138693039Y-64732720D01*
X138411357Y-64788750D01*
X138146018Y-64898657D01*
X137907219Y-65058217D01*
X137836640Y-65128796D01*
X137766061Y-65058217D01*
X137527262Y-64898657D01*
X137261923Y-64788750D01*
X136980241Y-64732720D01*
X136693039Y-64732720D01*
X136411357Y-64788750D01*
X136146018Y-64898657D01*
X135907219Y-65058217D01*
X135836640Y-65128796D01*
X135766061Y-65058217D01*
X135527262Y-64898657D01*
X135261923Y-64788750D01*
X134980241Y-64732720D01*
X134693039Y-64732720D01*
X134411357Y-64788750D01*
X134146018Y-64898657D01*
X133907219Y-65058217D01*
X133836640Y-65128796D01*
X133766061Y-65058217D01*
X133527262Y-64898657D01*
X133261923Y-64788750D01*
X132980241Y-64732720D01*
X132693039Y-64732720D01*
X132411357Y-64788750D01*
X132146018Y-64898657D01*
X131907219Y-65058217D01*
X131704137Y-65261299D01*
X131544577Y-65500098D01*
X131434670Y-65765437D01*
X131378640Y-66047119D01*
X131378640Y-66334321D01*
X131434670Y-66616003D01*
X131544577Y-66881342D01*
X131704137Y-67120141D01*
X131828640Y-67244644D01*
X131828641Y-68102925D01*
X131676739Y-68288016D01*
X131543675Y-68536961D01*
X131461735Y-68807083D01*
X131434067Y-69088000D01*
X131461735Y-69368917D01*
X131543675Y-69639039D01*
X131676739Y-69887984D01*
X131855814Y-70106186D01*
X132074016Y-70285261D01*
X132322961Y-70418325D01*
X132593083Y-70500265D01*
X132803608Y-70521000D01*
X132944392Y-70521000D01*
X133154917Y-70500265D01*
X133425039Y-70418325D01*
X133673984Y-70285261D01*
X133874000Y-70121111D01*
X134074016Y-70285261D01*
X134322961Y-70418325D01*
X134593083Y-70500265D01*
X134803608Y-70521000D01*
X134944392Y-70521000D01*
X135154917Y-70500265D01*
X135425039Y-70418325D01*
X135673984Y-70285261D01*
X135874000Y-70121111D01*
X136074016Y-70285261D01*
X136322961Y-70418325D01*
X136493312Y-70470000D01*
X136283947Y-70470000D01*
X136060224Y-70514501D01*
X135849481Y-70601794D01*
X135659818Y-70728523D01*
X135498523Y-70889818D01*
X135371794Y-71079481D01*
X135284501Y-71290224D01*
X135240000Y-71513947D01*
X135240000Y-71742053D01*
X135284501Y-71965776D01*
X135371794Y-72176519D01*
X135390001Y-72203767D01*
X135390000Y-74355793D01*
X135249963Y-74495830D01*
X135088214Y-74737905D01*
X134976799Y-75006883D01*
X134920000Y-75292430D01*
X134920000Y-75583570D01*
X134976799Y-75869117D01*
X135088214Y-76138095D01*
X135249963Y-76380170D01*
X135455830Y-76586037D01*
X135697905Y-76747786D01*
X135966883Y-76859201D01*
X136252430Y-76916000D01*
X136543570Y-76916000D01*
X136829117Y-76859201D01*
X137098095Y-76747786D01*
X137340170Y-76586037D01*
X137546037Y-76380170D01*
X137707786Y-76138095D01*
X137819201Y-75869117D01*
X137876000Y-75583570D01*
X137876000Y-75383689D01*
X139993842Y-75383689D01*
X140011764Y-75674278D01*
X140086033Y-75955787D01*
X140213794Y-76217396D01*
X140274140Y-76307711D01*
X140559012Y-76351331D01*
X141472343Y-75438000D01*
X140559012Y-74524669D01*
X140274140Y-74568289D01*
X140127600Y-74819861D01*
X140032954Y-75095188D01*
X139993842Y-75383689D01*
X137876000Y-75383689D01*
X137876000Y-75292430D01*
X137819201Y-75006883D01*
X137707786Y-74737905D01*
X137546037Y-74495830D01*
X137406000Y-74355793D01*
X137406000Y-72203766D01*
X137424206Y-72176519D01*
X137511499Y-71965776D01*
X137556000Y-71742053D01*
X137556000Y-71513947D01*
X137511499Y-71290224D01*
X137424206Y-71079481D01*
X137297477Y-70889818D01*
X137136182Y-70728523D01*
X136946519Y-70601794D01*
X136735776Y-70514501D01*
X136733965Y-70514141D01*
X136803608Y-70521000D01*
X136944392Y-70521000D01*
X137154917Y-70500265D01*
X137425039Y-70418325D01*
X137673984Y-70285261D01*
X137874000Y-70121111D01*
X138074016Y-70285261D01*
X138322961Y-70418325D01*
X138593083Y-70500265D01*
X138803608Y-70521000D01*
X138944392Y-70521000D01*
X139154917Y-70500265D01*
X139425039Y-70418325D01*
X139673984Y-70285261D01*
X139866000Y-70127676D01*
X139866000Y-70720492D01*
X139861124Y-70770000D01*
X139866000Y-70819507D01*
X139866000Y-70819517D01*
X139880585Y-70967602D01*
X139938224Y-71157610D01*
X140000429Y-71273987D01*
X140031824Y-71332724D01*
X140115943Y-71435223D01*
X140157788Y-71486212D01*
X140196249Y-71517776D01*
X141740001Y-73061528D01*
X141740001Y-73981998D01*
X141532311Y-73953842D01*
X141241722Y-73971764D01*
X140960213Y-74046033D01*
X140698604Y-74173794D01*
X140608289Y-74234140D01*
X140564669Y-74519012D01*
X141478000Y-75432343D01*
X141492142Y-75418201D01*
X141497799Y-75423858D01*
X141483657Y-75438000D01*
X141497799Y-75452142D01*
X141492142Y-75457799D01*
X141478000Y-75443657D01*
X140564669Y-76356988D01*
X140608289Y-76641860D01*
X140859861Y-76788400D01*
X141135188Y-76883046D01*
X141423689Y-76922158D01*
X141714278Y-76904236D01*
X141740000Y-76897450D01*
X141740000Y-78164234D01*
X141721794Y-78191481D01*
X141634501Y-78402224D01*
X141590000Y-78625947D01*
X141590000Y-78854053D01*
X141634501Y-79077776D01*
X141692170Y-79217000D01*
X139744034Y-79217000D01*
X139880170Y-79126037D01*
X140086037Y-78920170D01*
X140247786Y-78678095D01*
X140359201Y-78409117D01*
X140416000Y-78123570D01*
X140416000Y-77832430D01*
X140359201Y-77546883D01*
X140247786Y-77277905D01*
X140086037Y-77035830D01*
X139880170Y-76829963D01*
X139638095Y-76668214D01*
X139369117Y-76556799D01*
X139083570Y-76500000D01*
X138792430Y-76500000D01*
X138506883Y-76556799D01*
X138237905Y-76668214D01*
X137995830Y-76829963D01*
X137789963Y-77035830D01*
X137628214Y-77277905D01*
X137516799Y-77546883D01*
X137460000Y-77832430D01*
X137460000Y-78123570D01*
X137516799Y-78409117D01*
X137628214Y-78678095D01*
X137789963Y-78920170D01*
X137995830Y-79126037D01*
X138131966Y-79217000D01*
X122472034Y-79217000D01*
X122608170Y-79126037D01*
X122814037Y-78920170D01*
X122975786Y-78678095D01*
X123087201Y-78409117D01*
X123144000Y-78123570D01*
X123144000Y-77832430D01*
X123087201Y-77546883D01*
X122975786Y-77277905D01*
X122814037Y-77035830D01*
X122608170Y-76829963D01*
X122366095Y-76668214D01*
X122097117Y-76556799D01*
X121811570Y-76500000D01*
X121520430Y-76500000D01*
X121234883Y-76556799D01*
X120965905Y-76668214D01*
X120723830Y-76829963D01*
X120517963Y-77035830D01*
X120356214Y-77277905D01*
X120244799Y-77546883D01*
X120188000Y-77832430D01*
X120188000Y-78123570D01*
X120244799Y-78409117D01*
X120356214Y-78678095D01*
X120517963Y-78920170D01*
X120723830Y-79126037D01*
X120859966Y-79217000D01*
X84838354Y-79217000D01*
X85197123Y-78977279D01*
X85581279Y-78593123D01*
X85883108Y-78141403D01*
X86091012Y-77639479D01*
X86197000Y-77106639D01*
X86197000Y-76563361D01*
X86091012Y-76030521D01*
X85883108Y-75528597D01*
X85581279Y-75076877D01*
X85279402Y-74775000D01*
X87287332Y-74775000D01*
X87301967Y-74923594D01*
X87345311Y-75066478D01*
X87415696Y-75198160D01*
X87510419Y-75313581D01*
X87625840Y-75408304D01*
X87757522Y-75478689D01*
X87900406Y-75522033D01*
X88049000Y-75536668D01*
X89355500Y-75533000D01*
X89545000Y-75343500D01*
X89545000Y-73279000D01*
X89553000Y-73279000D01*
X89553000Y-75343500D01*
X89742500Y-75533000D01*
X91049000Y-75536668D01*
X91197594Y-75522033D01*
X91340478Y-75478689D01*
X91472160Y-75408304D01*
X91587581Y-75313581D01*
X91682304Y-75198160D01*
X91752689Y-75066478D01*
X91796033Y-74923594D01*
X91810668Y-74775000D01*
X91807000Y-73468500D01*
X91617500Y-73279000D01*
X89553000Y-73279000D01*
X89545000Y-73279000D01*
X87480500Y-73279000D01*
X87291000Y-73468500D01*
X87287332Y-74775000D01*
X85279402Y-74775000D01*
X85197123Y-74692721D01*
X84745403Y-74390892D01*
X84243479Y-74182988D01*
X83710639Y-74077000D01*
X83167361Y-74077000D01*
X82634521Y-74182988D01*
X82132597Y-74390892D01*
X81680877Y-74692721D01*
X81296721Y-75076877D01*
X80994892Y-75528597D01*
X80786988Y-76030521D01*
X80783000Y-76050570D01*
X80783000Y-71775000D01*
X87287332Y-71775000D01*
X87291000Y-73081500D01*
X87480500Y-73271000D01*
X89545000Y-73271000D01*
X89545000Y-71206500D01*
X89553000Y-71206500D01*
X89553000Y-73271000D01*
X91617500Y-73271000D01*
X91807000Y-73081500D01*
X91807081Y-73052606D01*
X92371000Y-73052606D01*
X92371000Y-73497394D01*
X92457774Y-73933634D01*
X92627987Y-74344564D01*
X92875097Y-74714391D01*
X93189609Y-75028903D01*
X93559436Y-75276013D01*
X93970366Y-75446226D01*
X94406606Y-75533000D01*
X94851394Y-75533000D01*
X95287634Y-75446226D01*
X95698564Y-75276013D01*
X96068391Y-75028903D01*
X96297294Y-74800000D01*
X99087332Y-74800000D01*
X99101967Y-74948594D01*
X99145311Y-75091478D01*
X99215696Y-75223160D01*
X99310419Y-75338581D01*
X99425840Y-75433304D01*
X99557522Y-75503689D01*
X99700406Y-75547033D01*
X99849000Y-75561668D01*
X101155500Y-75558000D01*
X101345000Y-75368500D01*
X101345000Y-73304000D01*
X101353000Y-73304000D01*
X101353000Y-75368500D01*
X101542500Y-75558000D01*
X102849000Y-75561668D01*
X102997594Y-75547033D01*
X103140478Y-75503689D01*
X103272160Y-75433304D01*
X103387581Y-75338581D01*
X103482304Y-75223160D01*
X103552689Y-75091478D01*
X103596033Y-74948594D01*
X103610668Y-74800000D01*
X103607000Y-73493500D01*
X103417500Y-73304000D01*
X101353000Y-73304000D01*
X101345000Y-73304000D01*
X99280500Y-73304000D01*
X99091000Y-73493500D01*
X99087332Y-74800000D01*
X96297294Y-74800000D01*
X96382903Y-74714391D01*
X96630013Y-74344564D01*
X96800226Y-73933634D01*
X96887000Y-73497394D01*
X96887000Y-73052606D01*
X96800226Y-72616366D01*
X96630013Y-72205436D01*
X96382903Y-71835609D01*
X96068391Y-71521097D01*
X95698564Y-71273987D01*
X95287634Y-71103774D01*
X94851394Y-71017000D01*
X94406606Y-71017000D01*
X93970366Y-71103774D01*
X93559436Y-71273987D01*
X93189609Y-71521097D01*
X92875097Y-71835609D01*
X92627987Y-72205436D01*
X92457774Y-72616366D01*
X92371000Y-73052606D01*
X91807081Y-73052606D01*
X91810668Y-71775000D01*
X91796033Y-71626406D01*
X91752689Y-71483522D01*
X91682304Y-71351840D01*
X91587581Y-71236419D01*
X91472160Y-71141696D01*
X91340478Y-71071311D01*
X91197594Y-71027967D01*
X91049000Y-71013332D01*
X89742500Y-71017000D01*
X89553000Y-71206500D01*
X89545000Y-71206500D01*
X89355500Y-71017000D01*
X88049000Y-71013332D01*
X87900406Y-71027967D01*
X87757522Y-71071311D01*
X87625840Y-71141696D01*
X87510419Y-71236419D01*
X87415696Y-71351840D01*
X87345311Y-71483522D01*
X87301967Y-71626406D01*
X87287332Y-71775000D01*
X80783000Y-71775000D01*
X80783000Y-58852229D01*
X83890000Y-58852229D01*
X83890000Y-59247771D01*
X83967166Y-59635712D01*
X84118533Y-60001145D01*
X84338284Y-60330025D01*
X84617975Y-60609716D01*
X84946855Y-60829467D01*
X85312288Y-60980834D01*
X85700229Y-61058000D01*
X86095771Y-61058000D01*
X86483712Y-60980834D01*
X86849145Y-60829467D01*
X87178025Y-60609716D01*
X87457716Y-60330025D01*
X87677467Y-60001145D01*
X87828834Y-59635712D01*
X87906000Y-59247771D01*
X87906000Y-58852229D01*
X87828834Y-58464288D01*
X87677467Y-58098855D01*
X87457716Y-57769975D01*
X87178025Y-57490284D01*
X86849145Y-57270533D01*
X86483712Y-57119166D01*
X86095771Y-57042000D01*
X85700229Y-57042000D01*
X85312288Y-57119166D01*
X84946855Y-57270533D01*
X84617975Y-57490284D01*
X84338284Y-57769975D01*
X84118533Y-58098855D01*
X83967166Y-58464288D01*
X83890000Y-58852229D01*
X80783000Y-58852229D01*
X80783000Y-46652229D01*
X83890000Y-46652229D01*
X83890000Y-47047771D01*
X83967166Y-47435712D01*
X84118533Y-47801145D01*
X84338284Y-48130025D01*
X84617975Y-48409716D01*
X84946855Y-48629467D01*
X85312288Y-48780834D01*
X85700229Y-48858000D01*
X86095771Y-48858000D01*
X86483712Y-48780834D01*
X86849145Y-48629467D01*
X87178025Y-48409716D01*
X87457716Y-48130025D01*
X87555955Y-47983000D01*
X88036697Y-47983000D01*
X88529000Y-48475304D01*
X88529001Y-62682339D01*
X88523519Y-62738000D01*
X88545394Y-62960106D01*
X88610181Y-63173678D01*
X88715387Y-63370506D01*
X88813285Y-63489794D01*
X88856973Y-63543028D01*
X88900203Y-63578506D01*
X89453329Y-64131633D01*
X89524523Y-64238182D01*
X89685818Y-64399477D01*
X89875481Y-64526206D01*
X90086224Y-64613499D01*
X90309947Y-64658000D01*
X90538053Y-64658000D01*
X90761776Y-64613499D01*
X90972519Y-64526206D01*
X91162182Y-64399477D01*
X91323477Y-64238182D01*
X91450206Y-64048519D01*
X91537499Y-63837776D01*
X91582000Y-63614053D01*
X91582000Y-63385947D01*
X91537499Y-63162224D01*
X91450206Y-62951481D01*
X91323477Y-62761818D01*
X91162182Y-62600523D01*
X91055633Y-62529329D01*
X90795000Y-62268697D01*
X90795000Y-60226863D01*
X90958235Y-60425766D01*
X91011395Y-60469393D01*
X93913984Y-63371983D01*
X93913986Y-63371986D01*
X94108014Y-63566014D01*
X94165195Y-63604221D01*
X94218346Y-63647841D01*
X94278990Y-63680256D01*
X94336167Y-63718460D01*
X94399701Y-63744777D01*
X94460342Y-63777190D01*
X94526138Y-63797149D01*
X94589677Y-63823468D01*
X94657128Y-63836885D01*
X94722924Y-63856844D01*
X94791353Y-63863584D01*
X94858801Y-63877000D01*
X94927569Y-63877000D01*
X94996000Y-63883740D01*
X95064431Y-63877000D01*
X95133199Y-63877000D01*
X95200648Y-63863584D01*
X95269075Y-63856844D01*
X95334869Y-63836885D01*
X95402323Y-63823468D01*
X95465864Y-63797148D01*
X95531657Y-63777190D01*
X95592295Y-63744779D01*
X95655833Y-63718460D01*
X95713014Y-63680253D01*
X95773653Y-63647841D01*
X95826801Y-63604224D01*
X95883986Y-63566014D01*
X95932620Y-63517380D01*
X95985765Y-63473765D01*
X96029380Y-63420620D01*
X96078014Y-63371986D01*
X96116224Y-63314801D01*
X96159841Y-63261653D01*
X96192253Y-63201014D01*
X96230460Y-63143833D01*
X96256779Y-63080295D01*
X96289190Y-63019657D01*
X96309148Y-62953864D01*
X96335468Y-62890323D01*
X96348885Y-62822869D01*
X96368844Y-62757075D01*
X96375584Y-62688648D01*
X96389000Y-62621199D01*
X96389000Y-62552431D01*
X96395740Y-62484000D01*
X96389000Y-62415569D01*
X96389000Y-62346801D01*
X96375584Y-62279353D01*
X96368844Y-62210924D01*
X96348885Y-62145128D01*
X96335468Y-62077677D01*
X96309149Y-62014138D01*
X96289190Y-61948342D01*
X96256777Y-61887701D01*
X96230460Y-61824167D01*
X96192256Y-61766990D01*
X96159841Y-61706346D01*
X96116221Y-61653195D01*
X96078014Y-61596014D01*
X95883986Y-61401986D01*
X95883983Y-61401984D01*
X93341000Y-58859002D01*
X93341000Y-46652229D01*
X95890000Y-46652229D01*
X95890000Y-47047771D01*
X95967166Y-47435712D01*
X96118533Y-47801145D01*
X96338284Y-48130025D01*
X96617975Y-48409716D01*
X96711001Y-48471874D01*
X96711000Y-54868320D01*
X96609540Y-55020167D01*
X96504532Y-55273677D01*
X96451000Y-55542801D01*
X96451000Y-55817199D01*
X96504532Y-56086323D01*
X96609540Y-56339833D01*
X96761986Y-56567986D01*
X96956014Y-56762014D01*
X97184167Y-56914460D01*
X97437677Y-57019468D01*
X97706801Y-57073000D01*
X97981199Y-57073000D01*
X98250323Y-57019468D01*
X98503833Y-56914460D01*
X98731986Y-56762014D01*
X98926014Y-56567986D01*
X99068000Y-56355487D01*
X99068000Y-57433359D01*
X98899145Y-57320533D01*
X98533712Y-57169166D01*
X98145771Y-57092000D01*
X97750229Y-57092000D01*
X97362288Y-57169166D01*
X96996855Y-57320533D01*
X96667975Y-57540284D01*
X96388284Y-57819975D01*
X96168533Y-58148855D01*
X96017166Y-58514288D01*
X95940000Y-58902229D01*
X95940000Y-59297771D01*
X96017166Y-59685712D01*
X96168533Y-60051145D01*
X96388284Y-60380025D01*
X96667975Y-60659716D01*
X96996855Y-60879467D01*
X97362288Y-61030834D01*
X97750229Y-61108000D01*
X98145771Y-61108000D01*
X98533712Y-61030834D01*
X98899145Y-60879467D01*
X99068001Y-60766641D01*
X99068001Y-66879483D01*
X99063124Y-66929000D01*
X99068001Y-66978517D01*
X99068001Y-66978518D01*
X99082586Y-67126603D01*
X99140225Y-67316611D01*
X99233824Y-67491724D01*
X99328222Y-67606749D01*
X99328229Y-67606756D01*
X99359789Y-67645212D01*
X99398245Y-67676772D01*
X99464108Y-67742634D01*
X99470501Y-67774776D01*
X99557794Y-67985519D01*
X99684523Y-68175182D01*
X99845818Y-68336477D01*
X100035481Y-68463206D01*
X100246224Y-68550499D01*
X100467000Y-68594414D01*
X100467000Y-69126697D01*
X100460370Y-69133327D01*
X100353818Y-69204523D01*
X100192523Y-69365818D01*
X100065794Y-69555481D01*
X99978501Y-69766224D01*
X99934000Y-69989947D01*
X99934000Y-70218053D01*
X99978501Y-70441776D01*
X100065794Y-70652519D01*
X100192523Y-70842182D01*
X100353818Y-71003477D01*
X100408332Y-71039902D01*
X99849000Y-71038332D01*
X99700406Y-71052967D01*
X99557522Y-71096311D01*
X99425840Y-71166696D01*
X99310419Y-71261419D01*
X99215696Y-71376840D01*
X99145311Y-71508522D01*
X99101967Y-71651406D01*
X99087332Y-71800000D01*
X99091000Y-73106500D01*
X99280500Y-73296000D01*
X101345000Y-73296000D01*
X101345000Y-73276000D01*
X101353000Y-73276000D01*
X101353000Y-73296000D01*
X103417500Y-73296000D01*
X103607000Y-73106500D01*
X103607081Y-73077606D01*
X104171000Y-73077606D01*
X104171000Y-73522394D01*
X104257774Y-73958634D01*
X104427987Y-74369564D01*
X104675097Y-74739391D01*
X104989609Y-75053903D01*
X105359436Y-75301013D01*
X105770366Y-75471226D01*
X106206606Y-75558000D01*
X106651394Y-75558000D01*
X107087634Y-75471226D01*
X107498564Y-75301013D01*
X107868391Y-75053903D01*
X108182903Y-74739391D01*
X108430013Y-74369564D01*
X108600226Y-73958634D01*
X108687000Y-73522394D01*
X108687000Y-73077606D01*
X108600226Y-72641366D01*
X108430013Y-72230436D01*
X108182903Y-71860609D01*
X107868391Y-71546097D01*
X107498564Y-71298987D01*
X107087634Y-71128774D01*
X106651394Y-71042000D01*
X106206606Y-71042000D01*
X105770366Y-71128774D01*
X105359436Y-71298987D01*
X104989609Y-71546097D01*
X104675097Y-71860609D01*
X104427987Y-72230436D01*
X104257774Y-72641366D01*
X104171000Y-73077606D01*
X103607081Y-73077606D01*
X103610668Y-71800000D01*
X103596033Y-71651406D01*
X103552689Y-71508522D01*
X103482304Y-71376840D01*
X103387581Y-71261419D01*
X103272160Y-71166696D01*
X103140478Y-71096311D01*
X102997594Y-71052967D01*
X102849000Y-71038332D01*
X101773499Y-71041351D01*
X101830182Y-71003477D01*
X101991477Y-70842182D01*
X102062673Y-70735630D01*
X102361792Y-70436511D01*
X102405028Y-70401028D01*
X102546613Y-70228507D01*
X102651820Y-70031678D01*
X102716606Y-69818107D01*
X102733000Y-69651659D01*
X102733000Y-69651652D01*
X102738481Y-69596001D01*
X102733000Y-69540350D01*
X102733000Y-57289947D01*
X104252000Y-57289947D01*
X104252000Y-57518053D01*
X104277000Y-57643737D01*
X104277000Y-58364349D01*
X104271519Y-58420000D01*
X104277000Y-58475651D01*
X104277000Y-58475658D01*
X104293394Y-58642106D01*
X104358180Y-58855677D01*
X104463387Y-59052507D01*
X104604972Y-59225028D01*
X104648208Y-59260511D01*
X105709329Y-60321633D01*
X105780523Y-60428182D01*
X105941818Y-60589477D01*
X106131481Y-60716206D01*
X106342224Y-60803499D01*
X106565947Y-60848000D01*
X106794053Y-60848000D01*
X107017776Y-60803499D01*
X107228519Y-60716206D01*
X107418182Y-60589477D01*
X107579477Y-60428182D01*
X107706206Y-60238519D01*
X107793499Y-60027776D01*
X107838000Y-59804053D01*
X107838000Y-59575947D01*
X107793499Y-59352224D01*
X107706206Y-59141481D01*
X107579477Y-58951818D01*
X107418182Y-58790523D01*
X107311633Y-58719329D01*
X106543000Y-57950697D01*
X106543000Y-57643737D01*
X106568000Y-57518053D01*
X106568000Y-57289947D01*
X106523499Y-57066224D01*
X106436206Y-56855481D01*
X106309477Y-56665818D01*
X106148182Y-56504523D01*
X105958519Y-56377794D01*
X105747776Y-56290501D01*
X105524053Y-56246000D01*
X105295947Y-56246000D01*
X105072224Y-56290501D01*
X104861481Y-56377794D01*
X104671818Y-56504523D01*
X104510523Y-56665818D01*
X104383794Y-56855481D01*
X104296501Y-57066224D01*
X104252000Y-57289947D01*
X102733000Y-57289947D01*
X102733000Y-51293737D01*
X102758000Y-51168053D01*
X102758000Y-50939947D01*
X102713499Y-50716224D01*
X102626206Y-50505481D01*
X102499477Y-50315818D01*
X102338182Y-50154523D01*
X102148519Y-50027794D01*
X101937776Y-49940501D01*
X101714053Y-49896000D01*
X101485947Y-49896000D01*
X101262224Y-49940501D01*
X101084000Y-50014324D01*
X101084000Y-49724766D01*
X101102206Y-49697519D01*
X101189499Y-49486776D01*
X101234000Y-49263053D01*
X101234000Y-49034947D01*
X101189499Y-48811224D01*
X101102206Y-48600481D01*
X100975477Y-48410818D01*
X100814182Y-48249523D01*
X100624519Y-48122794D01*
X100413776Y-48035501D01*
X100190053Y-47991000D01*
X99961947Y-47991000D01*
X99738224Y-48035501D01*
X99527481Y-48122794D01*
X99339023Y-48248718D01*
X99457716Y-48130025D01*
X99677467Y-47801145D01*
X99828834Y-47435712D01*
X99906000Y-47047771D01*
X99906000Y-46652229D01*
X99828834Y-46264288D01*
X99677467Y-45898855D01*
X99481752Y-45605947D01*
X104252000Y-45605947D01*
X104252000Y-45834053D01*
X104277001Y-45959742D01*
X104277000Y-50814262D01*
X104252000Y-50939947D01*
X104252000Y-51168053D01*
X104296501Y-51391776D01*
X104383794Y-51602519D01*
X104510523Y-51792182D01*
X104671818Y-51953477D01*
X104861481Y-52080206D01*
X105072224Y-52167499D01*
X105295947Y-52212000D01*
X105524053Y-52212000D01*
X105747776Y-52167499D01*
X105958519Y-52080206D01*
X106148182Y-51953477D01*
X106309477Y-51792182D01*
X106436206Y-51602519D01*
X106523499Y-51391776D01*
X106568000Y-51168053D01*
X106568000Y-50939947D01*
X106543000Y-50814263D01*
X106543000Y-45959737D01*
X106568000Y-45834053D01*
X106568000Y-45605947D01*
X106523499Y-45382224D01*
X106436206Y-45171481D01*
X106309477Y-44981818D01*
X106148182Y-44820523D01*
X105958519Y-44693794D01*
X105747776Y-44606501D01*
X105524053Y-44562000D01*
X105295947Y-44562000D01*
X105072224Y-44606501D01*
X104861481Y-44693794D01*
X104671818Y-44820523D01*
X104510523Y-44981818D01*
X104383794Y-45171481D01*
X104296501Y-45382224D01*
X104252000Y-45605947D01*
X99481752Y-45605947D01*
X99457716Y-45569975D01*
X99178025Y-45290284D01*
X98849145Y-45070533D01*
X98483712Y-44919166D01*
X98095771Y-44842000D01*
X97700229Y-44842000D01*
X97312288Y-44919166D01*
X96946855Y-45070533D01*
X96617975Y-45290284D01*
X96338284Y-45569975D01*
X96118533Y-45898855D01*
X95967166Y-46264288D01*
X95890000Y-46652229D01*
X93341000Y-46652229D01*
X93341000Y-46346741D01*
X93507716Y-46180025D01*
X93727467Y-45851145D01*
X93878834Y-45485712D01*
X93956000Y-45097771D01*
X93956000Y-44702229D01*
X93878834Y-44314288D01*
X93727467Y-43948855D01*
X93507716Y-43619975D01*
X93228025Y-43340284D01*
X92899145Y-43120533D01*
X92533712Y-42969166D01*
X92145771Y-42892000D01*
X91909999Y-42892000D01*
X90928000Y-41910002D01*
X90928000Y-38360900D01*
X90974391Y-38329903D01*
X91228294Y-38076000D01*
X92353332Y-38076000D01*
X92367967Y-38224594D01*
X92411311Y-38367478D01*
X92481696Y-38499160D01*
X92576419Y-38614581D01*
X92691840Y-38709304D01*
X92823522Y-38779689D01*
X92966406Y-38823033D01*
X93115000Y-38837668D01*
X94421500Y-38834000D01*
X94611000Y-38644500D01*
X94611000Y-36580000D01*
X94619000Y-36580000D01*
X94619000Y-38644500D01*
X94808500Y-38834000D01*
X96115000Y-38837668D01*
X96263594Y-38823033D01*
X96406478Y-38779689D01*
X96538160Y-38709304D01*
X96653581Y-38614581D01*
X96748304Y-38499160D01*
X96818689Y-38367478D01*
X96862033Y-38224594D01*
X96876668Y-38076000D01*
X96873000Y-36769500D01*
X96683500Y-36580000D01*
X94619000Y-36580000D01*
X94611000Y-36580000D01*
X92546500Y-36580000D01*
X92357000Y-36769500D01*
X92353332Y-38076000D01*
X91228294Y-38076000D01*
X91288903Y-38015391D01*
X91536013Y-37645564D01*
X91706226Y-37234634D01*
X91793000Y-36798394D01*
X91793000Y-36353606D01*
X91706226Y-35917366D01*
X91536013Y-35506436D01*
X91288903Y-35136609D01*
X91228294Y-35076000D01*
X92353332Y-35076000D01*
X92357000Y-36382500D01*
X92546500Y-36572000D01*
X94611000Y-36572000D01*
X94611000Y-34507500D01*
X94619000Y-34507500D01*
X94619000Y-36572000D01*
X96683500Y-36572000D01*
X96873000Y-36382500D01*
X96873154Y-36327606D01*
X97817000Y-36327606D01*
X97817000Y-36772394D01*
X97903774Y-37208634D01*
X98073987Y-37619564D01*
X98321097Y-37989391D01*
X98635609Y-38303903D01*
X99005436Y-38551013D01*
X99067001Y-38576514D01*
X99067001Y-39049729D01*
X99049794Y-39075481D01*
X98962501Y-39286224D01*
X98918000Y-39509947D01*
X98918000Y-39738053D01*
X98962501Y-39961776D01*
X99049794Y-40172519D01*
X99176523Y-40362182D01*
X99337818Y-40523477D01*
X99527481Y-40650206D01*
X99738224Y-40737499D01*
X99961947Y-40782000D01*
X100190053Y-40782000D01*
X100413776Y-40737499D01*
X100624519Y-40650206D01*
X100814182Y-40523477D01*
X100975477Y-40362182D01*
X101102206Y-40172519D01*
X101189499Y-39961776D01*
X101234000Y-39738053D01*
X101234000Y-39509947D01*
X101189499Y-39286224D01*
X101102206Y-39075481D01*
X101083000Y-39046737D01*
X101083000Y-38576514D01*
X101144564Y-38551013D01*
X101514391Y-38303903D01*
X101768294Y-38050000D01*
X102893332Y-38050000D01*
X102907967Y-38198594D01*
X102951311Y-38341478D01*
X103021696Y-38473160D01*
X103116419Y-38588581D01*
X103231840Y-38683304D01*
X103363522Y-38753689D01*
X103506406Y-38797033D01*
X103655000Y-38811668D01*
X104961500Y-38808000D01*
X105151000Y-38618500D01*
X105151000Y-36554000D01*
X105159000Y-36554000D01*
X105159000Y-38618500D01*
X105348500Y-38808000D01*
X106655000Y-38811668D01*
X106803594Y-38797033D01*
X106946478Y-38753689D01*
X107078160Y-38683304D01*
X107193581Y-38588581D01*
X107288304Y-38473160D01*
X107358689Y-38341478D01*
X107402033Y-38198594D01*
X107416668Y-38050000D01*
X107413000Y-36743500D01*
X107223500Y-36554000D01*
X105159000Y-36554000D01*
X105151000Y-36554000D01*
X103086500Y-36554000D01*
X102897000Y-36743500D01*
X102893332Y-38050000D01*
X101768294Y-38050000D01*
X101828903Y-37989391D01*
X102076013Y-37619564D01*
X102246226Y-37208634D01*
X102333000Y-36772394D01*
X102333000Y-36327606D01*
X102246226Y-35891366D01*
X102076013Y-35480436D01*
X101828903Y-35110609D01*
X101768294Y-35050000D01*
X102893332Y-35050000D01*
X102897000Y-36356500D01*
X103086500Y-36546000D01*
X105151000Y-36546000D01*
X105151000Y-34481500D01*
X105159000Y-34481500D01*
X105159000Y-36546000D01*
X107223500Y-36546000D01*
X107413000Y-36356500D01*
X107416668Y-35050000D01*
X107402033Y-34901406D01*
X107358689Y-34758522D01*
X107288304Y-34626840D01*
X107193581Y-34511419D01*
X107078160Y-34416696D01*
X106946478Y-34346311D01*
X106803594Y-34302967D01*
X106655000Y-34288332D01*
X105348500Y-34292000D01*
X105159000Y-34481500D01*
X105151000Y-34481500D01*
X104961500Y-34292000D01*
X103655000Y-34288332D01*
X103506406Y-34302967D01*
X103363522Y-34346311D01*
X103231840Y-34416696D01*
X103116419Y-34511419D01*
X103021696Y-34626840D01*
X102951311Y-34758522D01*
X102907967Y-34901406D01*
X102893332Y-35050000D01*
X101768294Y-35050000D01*
X101514391Y-34796097D01*
X101144564Y-34548987D01*
X100733634Y-34378774D01*
X100297394Y-34292000D01*
X99852606Y-34292000D01*
X99416366Y-34378774D01*
X99005436Y-34548987D01*
X98635609Y-34796097D01*
X98321097Y-35110609D01*
X98073987Y-35480436D01*
X97903774Y-35891366D01*
X97817000Y-36327606D01*
X96873154Y-36327606D01*
X96876668Y-35076000D01*
X96862033Y-34927406D01*
X96818689Y-34784522D01*
X96748304Y-34652840D01*
X96653581Y-34537419D01*
X96538160Y-34442696D01*
X96406478Y-34372311D01*
X96263594Y-34328967D01*
X96115000Y-34314332D01*
X94808500Y-34318000D01*
X94619000Y-34507500D01*
X94611000Y-34507500D01*
X94421500Y-34318000D01*
X93115000Y-34314332D01*
X92966406Y-34328967D01*
X92823522Y-34372311D01*
X92691840Y-34442696D01*
X92576419Y-34537419D01*
X92481696Y-34652840D01*
X92411311Y-34784522D01*
X92367967Y-34927406D01*
X92353332Y-35076000D01*
X91228294Y-35076000D01*
X90974391Y-34822097D01*
X90604564Y-34574987D01*
X90193634Y-34404774D01*
X89757394Y-34318000D01*
X89312606Y-34318000D01*
X88876366Y-34404774D01*
X88465436Y-34574987D01*
X88095609Y-34822097D01*
X87781097Y-35136609D01*
X87533987Y-35506436D01*
X87363774Y-35917366D01*
X87277000Y-36353606D01*
X87277000Y-36798394D01*
X87363774Y-37234634D01*
X87533987Y-37645564D01*
X87781097Y-38015391D01*
X87977000Y-38211294D01*
X87977001Y-42253559D01*
X87970260Y-42322000D01*
X87997156Y-42595075D01*
X88076810Y-42857657D01*
X88206159Y-43099653D01*
X88223295Y-43120533D01*
X88380235Y-43311766D01*
X88433395Y-43355393D01*
X88501608Y-43423606D01*
X88545235Y-43476766D01*
X88598394Y-43520393D01*
X89940000Y-44861999D01*
X89940000Y-45097771D01*
X90017166Y-45485712D01*
X90168533Y-45851145D01*
X90388284Y-46180025D01*
X90555000Y-46346741D01*
X90555000Y-47308166D01*
X90502508Y-47244204D01*
X90502507Y-47244203D01*
X90467028Y-47200972D01*
X90423797Y-47165493D01*
X89346511Y-46088208D01*
X89311028Y-46044972D01*
X89138507Y-45903387D01*
X88941678Y-45798180D01*
X88728107Y-45733394D01*
X88561659Y-45717000D01*
X88561651Y-45717000D01*
X88506000Y-45711519D01*
X88450349Y-45717000D01*
X87555955Y-45717000D01*
X87457716Y-45569975D01*
X87178025Y-45290284D01*
X86849145Y-45070533D01*
X86483712Y-44919166D01*
X86095771Y-44842000D01*
X85700229Y-44842000D01*
X85312288Y-44919166D01*
X84946855Y-45070533D01*
X84617975Y-45290284D01*
X84338284Y-45569975D01*
X84118533Y-45898855D01*
X83967166Y-46264288D01*
X83890000Y-46652229D01*
X80783000Y-46652229D01*
X80783000Y-34058430D01*
X80786988Y-34078479D01*
X80994892Y-34580403D01*
X81296721Y-35032123D01*
X81680877Y-35416279D01*
X82132597Y-35718108D01*
X82634521Y-35926012D01*
X83167361Y-36032000D01*
X83710639Y-36032000D01*
X84243479Y-35926012D01*
X84745403Y-35718108D01*
X85197123Y-35416279D01*
X85581279Y-35032123D01*
X85883108Y-34580403D01*
X86091012Y-34078479D01*
X86197000Y-33545639D01*
X86197000Y-33002361D01*
X86091012Y-32469521D01*
X85883108Y-31967597D01*
X85581279Y-31515877D01*
X85197123Y-31131721D01*
X84745403Y-30829892D01*
X84632196Y-30783000D01*
X147526714Y-30783000D01*
X147476501Y-30904224D01*
X147476501Y-30904224D01*
G37*
X147476501Y-30904224D02*
X147432000Y-31127947D01*
X147432000Y-31356053D01*
X147476501Y-31579776D01*
X147563794Y-31790519D01*
X147582000Y-31817767D01*
X147582001Y-32943719D01*
X147530776Y-32922501D01*
X147307053Y-32878000D01*
X147128823Y-32878000D01*
X147157780Y-32584000D01*
X147126733Y-32268777D01*
X147034786Y-31965668D01*
X146885472Y-31686321D01*
X146684529Y-31441471D01*
X146439679Y-31240528D01*
X146160332Y-31091214D01*
X145857223Y-30999267D01*
X145620991Y-30976000D01*
X145163009Y-30976000D01*
X144926777Y-30999267D01*
X144623668Y-31091214D01*
X144344321Y-31240528D01*
X144099471Y-31441471D01*
X143898528Y-31686321D01*
X143749214Y-31965668D01*
X143657267Y-32268777D01*
X143626220Y-32584000D01*
X143656728Y-32893745D01*
X142832000Y-33718473D01*
X142832000Y-33553010D01*
X142808733Y-33316778D01*
X142716786Y-33013669D01*
X142567472Y-32734321D01*
X142366529Y-32489471D01*
X142121679Y-32288528D01*
X141842332Y-32139214D01*
X141539223Y-32047267D01*
X141224000Y-32016220D01*
X140908778Y-32047267D01*
X140605669Y-32139214D01*
X140326322Y-32288528D01*
X140081471Y-32489471D01*
X139880528Y-32734321D01*
X139731214Y-33013668D01*
X139639267Y-33316777D01*
X139616000Y-33553009D01*
X139616000Y-34010990D01*
X139639267Y-34247222D01*
X139731214Y-34550331D01*
X139849587Y-34771792D01*
X139835419Y-34783419D01*
X139740696Y-34898840D01*
X139670311Y-35030522D01*
X139626967Y-35173406D01*
X139612332Y-35322000D01*
X139616000Y-36128500D01*
X139805500Y-36318000D01*
X141220000Y-36318000D01*
X141220000Y-36298000D01*
X141228000Y-36298000D01*
X141228000Y-36318000D01*
X141248000Y-36318000D01*
X141248000Y-36326000D01*
X141228000Y-36326000D01*
X141228000Y-37890500D01*
X141417500Y-38080000D01*
X141868000Y-38082517D01*
X141868001Y-40362324D01*
X141675984Y-40204739D01*
X141427039Y-40071675D01*
X141156917Y-39989735D01*
X140946392Y-39969000D01*
X140805608Y-39969000D01*
X140595083Y-39989735D01*
X140324961Y-40071675D01*
X140076016Y-40204739D01*
X139876000Y-40368889D01*
X139675984Y-40204739D01*
X139427039Y-40071675D01*
X139156917Y-39989735D01*
X138946392Y-39969000D01*
X138805608Y-39969000D01*
X138595083Y-39989735D01*
X138324961Y-40071675D01*
X138076016Y-40204739D01*
X137876000Y-40368889D01*
X137675984Y-40204739D01*
X137427039Y-40071675D01*
X137156917Y-39989735D01*
X136946392Y-39969000D01*
X136805608Y-39969000D01*
X136595083Y-39989735D01*
X136324961Y-40071675D01*
X136076016Y-40204739D01*
X135876000Y-40368889D01*
X135675984Y-40204739D01*
X135427039Y-40071675D01*
X135156917Y-39989735D01*
X134946392Y-39969000D01*
X134805608Y-39969000D01*
X134595083Y-39989735D01*
X134324961Y-40071675D01*
X134076016Y-40204739D01*
X133867987Y-40375466D01*
X133715057Y-40240331D01*
X133472304Y-40098960D01*
X133206636Y-40007664D01*
X133104120Y-39987274D01*
X132880000Y-40158506D01*
X132880000Y-41398000D01*
X132900000Y-41398000D01*
X132900000Y-41406000D01*
X132880000Y-41406000D01*
X132880000Y-41426000D01*
X132872000Y-41426000D01*
X132872000Y-41406000D01*
X132852000Y-41406000D01*
X132852000Y-41398000D01*
X132872000Y-41398000D01*
X132872000Y-40158506D01*
X132647880Y-39987274D01*
X132580000Y-40000775D01*
X132580000Y-37913766D01*
X132598206Y-37886519D01*
X132685499Y-37675776D01*
X132691892Y-37643635D01*
X133013527Y-37322000D01*
X139612332Y-37322000D01*
X139626967Y-37470594D01*
X139670311Y-37613478D01*
X139740696Y-37745160D01*
X139835419Y-37860581D01*
X139950840Y-37955304D01*
X140082522Y-38025689D01*
X140225406Y-38069033D01*
X140374000Y-38083668D01*
X141030500Y-38080000D01*
X141220000Y-37890500D01*
X141220000Y-36326000D01*
X139805500Y-36326000D01*
X139616000Y-36515500D01*
X139612332Y-37322000D01*
X133013527Y-37322000D01*
X133474751Y-36860776D01*
X133513212Y-36829212D01*
X133544778Y-36790749D01*
X133639177Y-36675724D01*
X133732776Y-36500611D01*
X133734243Y-36495776D01*
X133790415Y-36310603D01*
X133805000Y-36162518D01*
X133805000Y-36162507D01*
X133809876Y-36113000D01*
X133805000Y-36063493D01*
X133805000Y-35400681D01*
X133844679Y-35379472D01*
X133884548Y-35346752D01*
X133948420Y-35424580D01*
X134063840Y-35519303D01*
X134195523Y-35589689D01*
X134338406Y-35633032D01*
X134487000Y-35647667D01*
X136187000Y-35647667D01*
X136335594Y-35633032D01*
X136478477Y-35589689D01*
X136610160Y-35519303D01*
X136725580Y-35424580D01*
X136820303Y-35309160D01*
X136890689Y-35177477D01*
X136934032Y-35034594D01*
X136948667Y-34886000D01*
X136948667Y-33186000D01*
X136934032Y-33037406D01*
X136890689Y-32894523D01*
X136820303Y-32762840D01*
X136725580Y-32647420D01*
X136610160Y-32552697D01*
X136478477Y-32482311D01*
X136335594Y-32438968D01*
X136187000Y-32424333D01*
X134487000Y-32424333D01*
X134338406Y-32438968D01*
X134195523Y-32482311D01*
X134063840Y-32552697D01*
X133948420Y-32647420D01*
X133884548Y-32725248D01*
X133844679Y-32692528D01*
X133565332Y-32543214D01*
X133262223Y-32451267D01*
X133025991Y-32428000D01*
X132568009Y-32428000D01*
X132331777Y-32451267D01*
X132028668Y-32543214D01*
X131749321Y-32692528D01*
X131527000Y-32874982D01*
X131304679Y-32692528D01*
X131025332Y-32543214D01*
X130722223Y-32451267D01*
X130485991Y-32428000D01*
X130028009Y-32428000D01*
X129791777Y-32451267D01*
X129488668Y-32543214D01*
X129209321Y-32692528D01*
X128987000Y-32874982D01*
X128764679Y-32692528D01*
X128485332Y-32543214D01*
X128182223Y-32451267D01*
X127945991Y-32428000D01*
X127488009Y-32428000D01*
X127251777Y-32451267D01*
X126948668Y-32543214D01*
X126669321Y-32692528D01*
X126440655Y-32880190D01*
X126223682Y-32701220D01*
X125946050Y-32551933D01*
X125644628Y-32459678D01*
X125331000Y-32428000D01*
X125181000Y-32428000D01*
X125181000Y-34032000D01*
X125201000Y-34032000D01*
X125201000Y-34040000D01*
X125181000Y-34040000D01*
X125181000Y-35644000D01*
X125331000Y-35644000D01*
X125644628Y-35612322D01*
X125946050Y-35520067D01*
X126223682Y-35370780D01*
X126440655Y-35191810D01*
X126669321Y-35379472D01*
X126709000Y-35400681D01*
X126709001Y-38378165D01*
X126648501Y-38524224D01*
X126604000Y-38747947D01*
X126604000Y-38976053D01*
X126648501Y-39199776D01*
X126735794Y-39410519D01*
X126862523Y-39600182D01*
X127023818Y-39761477D01*
X127213481Y-39888206D01*
X127424224Y-39975499D01*
X127647947Y-40020000D01*
X127876053Y-40020000D01*
X128099776Y-39975499D01*
X128310519Y-39888206D01*
X128399001Y-39829084D01*
X128399002Y-46342973D01*
X128384053Y-46340000D01*
X128155947Y-46340000D01*
X127932224Y-46384501D01*
X127721481Y-46471794D01*
X127531818Y-46598523D01*
X127370523Y-46759818D01*
X127243794Y-46949481D01*
X127156501Y-47160224D01*
X127112000Y-47383947D01*
X127112000Y-47612053D01*
X127156501Y-47835776D01*
X127243794Y-48046519D01*
X127262000Y-48073766D01*
X127262001Y-50141324D01*
X127083776Y-50067501D01*
X126860053Y-50023000D01*
X126631947Y-50023000D01*
X126609000Y-50027564D01*
X126609000Y-44943737D01*
X126634000Y-44818053D01*
X126634000Y-44589947D01*
X126589499Y-44366224D01*
X126502206Y-44155481D01*
X126375477Y-43965818D01*
X126214182Y-43804523D01*
X126024519Y-43677794D01*
X125813776Y-43590501D01*
X125590053Y-43546000D01*
X125361947Y-43546000D01*
X125214000Y-43575428D01*
X125214000Y-38167766D01*
X125232206Y-38140519D01*
X125319499Y-37929776D01*
X125364000Y-37706053D01*
X125364000Y-37477947D01*
X125319499Y-37254224D01*
X125232206Y-37043481D01*
X125105477Y-36853818D01*
X124944182Y-36692523D01*
X124754519Y-36565794D01*
X124543776Y-36478501D01*
X124320053Y-36434000D01*
X124091947Y-36434000D01*
X124083122Y-36435755D01*
X124083122Y-35331850D01*
X124130318Y-35370780D01*
X124407950Y-35520067D01*
X124709372Y-35612322D01*
X125023000Y-35644000D01*
X125173000Y-35644000D01*
X125173000Y-34040000D01*
X125153000Y-34040000D01*
X125153000Y-34032000D01*
X125173000Y-34032000D01*
X125173000Y-32428000D01*
X125023000Y-32428000D01*
X124709372Y-32459678D01*
X124407950Y-32551933D01*
X124130318Y-32701220D01*
X123887145Y-32901801D01*
X123687776Y-33145969D01*
X123539872Y-33424340D01*
X123455291Y-33705683D01*
X122345857Y-32596249D01*
X122314293Y-32557788D01*
X122231049Y-32489471D01*
X122160805Y-32431824D01*
X122146790Y-32424333D01*
X121985692Y-32338224D01*
X121815948Y-32286732D01*
X121688529Y-32131471D01*
X121443679Y-31930528D01*
X121164332Y-31781214D01*
X120861223Y-31689267D01*
X120624991Y-31666000D01*
X120167009Y-31666000D01*
X119930777Y-31689267D01*
X119627668Y-31781214D01*
X119348321Y-31930528D01*
X119126000Y-32112982D01*
X118903679Y-31930528D01*
X118624332Y-31781214D01*
X118321223Y-31689267D01*
X118084991Y-31666000D01*
X117627009Y-31666000D01*
X117390777Y-31689267D01*
X117087668Y-31781214D01*
X116808321Y-31930528D01*
X116586000Y-32112982D01*
X116363679Y-31930528D01*
X116084332Y-31781214D01*
X115781223Y-31689267D01*
X115544991Y-31666000D01*
X115087009Y-31666000D01*
X114850777Y-31689267D01*
X114547668Y-31781214D01*
X114268321Y-31930528D01*
X114046000Y-32112982D01*
X113823679Y-31930528D01*
X113544332Y-31781214D01*
X113241223Y-31689267D01*
X113004991Y-31666000D01*
X112547009Y-31666000D01*
X112310777Y-31689267D01*
X112007668Y-31781214D01*
X111728321Y-31930528D01*
X111506000Y-32112982D01*
X111283679Y-31930528D01*
X111004332Y-31781214D01*
X110701223Y-31689267D01*
X110464991Y-31666000D01*
X110007009Y-31666000D01*
X109770777Y-31689267D01*
X109467668Y-31781214D01*
X109188321Y-31930528D01*
X108943471Y-32131471D01*
X108816052Y-32286732D01*
X108646308Y-32338224D01*
X108613989Y-32355499D01*
X108471194Y-32431824D01*
X108425261Y-32469521D01*
X108317707Y-32557788D01*
X108286139Y-32596254D01*
X107780250Y-33102142D01*
X107741788Y-33133707D01*
X107710224Y-33172168D01*
X107710222Y-33172170D01*
X107661514Y-33231521D01*
X107615824Y-33287195D01*
X107522224Y-33462309D01*
X107464585Y-33652317D01*
X107450000Y-33800402D01*
X107450000Y-33800412D01*
X107445124Y-33849919D01*
X107450000Y-33899426D01*
X107450001Y-51766483D01*
X107445124Y-51816000D01*
X107450001Y-51865517D01*
X107450001Y-51865518D01*
X107458638Y-51953206D01*
X107464586Y-52013602D01*
X107522225Y-52203611D01*
X107615824Y-52378724D01*
X107710222Y-52493749D01*
X107710229Y-52493756D01*
X107741789Y-52532212D01*
X107780244Y-52563771D01*
X109370108Y-54153636D01*
X109376501Y-54185776D01*
X109463794Y-54396519D01*
X109590523Y-54586182D01*
X109751818Y-54747477D01*
X109941481Y-54874206D01*
X110152224Y-54961499D01*
X110375947Y-55006000D01*
X110604053Y-55006000D01*
X110627000Y-55001435D01*
X110627000Y-60212263D01*
X110602000Y-60337947D01*
X110602000Y-60566053D01*
X110646501Y-60789776D01*
X110733794Y-61000519D01*
X110860523Y-61190182D01*
X111021818Y-61351477D01*
X111211481Y-61478206D01*
X111422224Y-61565499D01*
X111645947Y-61610000D01*
X111874053Y-61610000D01*
X112097776Y-61565499D01*
X112308519Y-61478206D01*
X112498182Y-61351477D01*
X112659477Y-61190182D01*
X112786206Y-61000519D01*
X112873499Y-60789776D01*
X112918000Y-60566053D01*
X112918000Y-60337947D01*
X112893000Y-60212263D01*
X112893000Y-50302436D01*
X112915947Y-50307000D01*
X113144053Y-50307000D01*
X113367776Y-50262499D01*
X113578519Y-50175206D01*
X113768182Y-50048477D01*
X113929477Y-49887182D01*
X114056206Y-49697519D01*
X114143499Y-49486776D01*
X114188000Y-49263053D01*
X114188000Y-49034947D01*
X114143499Y-48811224D01*
X114056206Y-48600481D01*
X114038000Y-48573234D01*
X114038000Y-47113980D01*
X114146840Y-47203303D01*
X114278523Y-47273689D01*
X114421406Y-47317032D01*
X114570000Y-47331667D01*
X116570000Y-47331667D01*
X116718594Y-47317032D01*
X116829345Y-47283436D01*
X116829794Y-47284519D01*
X116956523Y-47474182D01*
X117117818Y-47635477D01*
X117307481Y-47762206D01*
X117518224Y-47849499D01*
X117741947Y-47894000D01*
X117970053Y-47894000D01*
X118193776Y-47849499D01*
X118404519Y-47762206D01*
X118594182Y-47635477D01*
X118755477Y-47474182D01*
X118882206Y-47284519D01*
X118969499Y-47073776D01*
X119014000Y-46850053D01*
X119014000Y-46621947D01*
X118969499Y-46398224D01*
X118882206Y-46187481D01*
X118864000Y-46160234D01*
X118864000Y-44562572D01*
X119011947Y-44592000D01*
X119240053Y-44592000D01*
X119463776Y-44547499D01*
X119547707Y-44512734D01*
X119546332Y-44815000D01*
X119560967Y-44963594D01*
X119604311Y-45106478D01*
X119674696Y-45238160D01*
X119769419Y-45353581D01*
X119884840Y-45448304D01*
X120016522Y-45518689D01*
X120159406Y-45562033D01*
X120308000Y-45576668D01*
X120964500Y-45573000D01*
X121154000Y-45383500D01*
X121154000Y-43819000D01*
X121134000Y-43819000D01*
X121134000Y-43811000D01*
X121154000Y-43811000D01*
X121154000Y-43791000D01*
X121162000Y-43791000D01*
X121162000Y-43811000D01*
X121182000Y-43811000D01*
X121182000Y-43819000D01*
X121162000Y-43819000D01*
X121162000Y-45383500D01*
X121351500Y-45573000D01*
X122008000Y-45576668D01*
X122084518Y-45569132D01*
X122163794Y-45760519D01*
X122290523Y-45950182D01*
X122451818Y-46111477D01*
X122641481Y-46238206D01*
X122852224Y-46325499D01*
X123075947Y-46370000D01*
X123304053Y-46370000D01*
X123527776Y-46325499D01*
X123676792Y-46263774D01*
X123680341Y-46266146D01*
X123891084Y-46353439D01*
X123957734Y-46366696D01*
X123868224Y-46384501D01*
X123657481Y-46471794D01*
X123467818Y-46598523D01*
X123306523Y-46759818D01*
X123247602Y-46848000D01*
X123202947Y-46848000D01*
X122979224Y-46892501D01*
X122768481Y-46979794D01*
X122578818Y-47106523D01*
X122417523Y-47267818D01*
X122290794Y-47457481D01*
X122203501Y-47668224D01*
X122159000Y-47891947D01*
X122159000Y-48120053D01*
X122203501Y-48343776D01*
X122290794Y-48554519D01*
X122417523Y-48744182D01*
X122562726Y-48889385D01*
X115812260Y-48889385D01*
X115664382Y-48903950D01*
X115522186Y-48947084D01*
X115391138Y-49017131D01*
X115276273Y-49111398D01*
X115182006Y-49226263D01*
X115111959Y-49357311D01*
X115068825Y-49499507D01*
X115054260Y-49647385D01*
X115054260Y-58647385D01*
X115068825Y-58795263D01*
X115111959Y-58937459D01*
X115182006Y-59068507D01*
X115276273Y-59183372D01*
X115391138Y-59277639D01*
X115522186Y-59347686D01*
X115664382Y-59390820D01*
X115705001Y-59394821D01*
X115705000Y-63900797D01*
X115705000Y-63940234D01*
X115686794Y-63967481D01*
X115599501Y-64178224D01*
X115555000Y-64401947D01*
X115555000Y-64630053D01*
X115599501Y-64853776D01*
X115686794Y-65064519D01*
X115813523Y-65254182D01*
X115974818Y-65415477D01*
X116164481Y-65542206D01*
X116375224Y-65629499D01*
X116598947Y-65674000D01*
X116827053Y-65674000D01*
X117050776Y-65629499D01*
X117261519Y-65542206D01*
X117451182Y-65415477D01*
X117612477Y-65254182D01*
X117739206Y-65064519D01*
X117826499Y-64853776D01*
X117871000Y-64630053D01*
X117871000Y-64401947D01*
X117826499Y-64178224D01*
X117739206Y-63967481D01*
X117721000Y-63940234D01*
X117721000Y-59405385D01*
X122812260Y-59405385D01*
X122960138Y-59390820D01*
X123102334Y-59347686D01*
X123233382Y-59277639D01*
X123348247Y-59183372D01*
X123442514Y-59068507D01*
X123512561Y-58937459D01*
X123555695Y-58795263D01*
X123570260Y-58647385D01*
X123570260Y-57289278D01*
X123583947Y-57292000D01*
X123597999Y-57292000D01*
X123598000Y-68025462D01*
X123553303Y-67941840D01*
X123458580Y-67826420D01*
X123343160Y-67731697D01*
X123211477Y-67661311D01*
X123068594Y-67617968D01*
X122920000Y-67603333D01*
X120920000Y-67603333D01*
X120771406Y-67617968D01*
X120628523Y-67661311D01*
X120496840Y-67731697D01*
X120381420Y-67826420D01*
X120369793Y-67840587D01*
X120148332Y-67722214D01*
X119845223Y-67630267D01*
X119608991Y-67607000D01*
X119151009Y-67607000D01*
X118914777Y-67630267D01*
X118611668Y-67722214D01*
X118332321Y-67871528D01*
X118087471Y-68072471D01*
X117886528Y-68317321D01*
X117737214Y-68596668D01*
X117686704Y-68763177D01*
X114666776Y-65743249D01*
X114635212Y-65704788D01*
X114571364Y-65652389D01*
X114481724Y-65578824D01*
X114306611Y-65485224D01*
X114116603Y-65427585D01*
X113968518Y-65413000D01*
X113968507Y-65413000D01*
X113919000Y-65408124D01*
X113869493Y-65413000D01*
X113732766Y-65413000D01*
X113705519Y-65394794D01*
X113494776Y-65307501D01*
X113271053Y-65263000D01*
X113042947Y-65263000D01*
X112819224Y-65307501D01*
X112608481Y-65394794D01*
X112418818Y-65521523D01*
X112257523Y-65682818D01*
X112130794Y-65872481D01*
X112043501Y-66083224D01*
X111999000Y-66306947D01*
X111999000Y-66535053D01*
X112000216Y-66541165D01*
X110684454Y-67856927D01*
X109843579Y-67016052D01*
X109958182Y-66939477D01*
X110119477Y-66778182D01*
X110246206Y-66588519D01*
X110333499Y-66377776D01*
X110378000Y-66154053D01*
X110378000Y-65925947D01*
X110333499Y-65702224D01*
X110246206Y-65491481D01*
X110228000Y-65464234D01*
X110228000Y-57506664D01*
X110250997Y-57391050D01*
X110250997Y-57162944D01*
X110206496Y-56939221D01*
X110119203Y-56728478D01*
X109992474Y-56538815D01*
X109831179Y-56377520D01*
X109641516Y-56250791D01*
X109430773Y-56163498D01*
X109207050Y-56118997D01*
X108978944Y-56118997D01*
X108755221Y-56163498D01*
X108544478Y-56250791D01*
X108354815Y-56377520D01*
X108193520Y-56538815D01*
X108066791Y-56728478D01*
X107979498Y-56939221D01*
X107934997Y-57162944D01*
X107934997Y-57391050D01*
X107979498Y-57614773D01*
X108066791Y-57825516D01*
X108193520Y-58015179D01*
X108212001Y-58033660D01*
X108212000Y-65464234D01*
X108193794Y-65491481D01*
X108106501Y-65702224D01*
X108062000Y-65925947D01*
X108062000Y-66154053D01*
X108106501Y-66377776D01*
X108180324Y-66556000D01*
X106068676Y-66556000D01*
X106142499Y-66377776D01*
X106187000Y-66154053D01*
X106187000Y-65925947D01*
X106142499Y-65702224D01*
X106055206Y-65491481D01*
X105928477Y-65301818D01*
X105767182Y-65140523D01*
X105577519Y-65013794D01*
X105366776Y-64926501D01*
X105143053Y-64882000D01*
X104914947Y-64882000D01*
X104691224Y-64926501D01*
X104480481Y-65013794D01*
X104290818Y-65140523D01*
X104129523Y-65301818D01*
X104002794Y-65491481D01*
X103915501Y-65702224D01*
X103871000Y-65925947D01*
X103871000Y-66154053D01*
X103915501Y-66377776D01*
X104002794Y-66588519D01*
X104021001Y-66615767D01*
X104021001Y-67133484D01*
X104016124Y-67183000D01*
X104021001Y-67232517D01*
X104021001Y-67232518D01*
X104032890Y-67353224D01*
X104035586Y-67380602D01*
X104093225Y-67570611D01*
X104186824Y-67745724D01*
X104281222Y-67860749D01*
X104281229Y-67860756D01*
X104312789Y-67899212D01*
X104351246Y-67930772D01*
X104662220Y-68241746D01*
X104693788Y-68280212D01*
X104847276Y-68406176D01*
X105022389Y-68499776D01*
X105212397Y-68557415D01*
X105360482Y-68572000D01*
X105360492Y-68572000D01*
X105409999Y-68576876D01*
X105459506Y-68572000D01*
X108548473Y-68572000D01*
X109228000Y-69251527D01*
X109228001Y-71959483D01*
X109223124Y-72009000D01*
X109228001Y-72058517D01*
X109228001Y-72058518D01*
X109242586Y-72206603D01*
X109259551Y-72262529D01*
X109300225Y-72396611D01*
X109393824Y-72571724D01*
X109488222Y-72686749D01*
X109488229Y-72686756D01*
X109519789Y-72725212D01*
X109558245Y-72756772D01*
X111139222Y-74337749D01*
X111170788Y-74376212D01*
X111209249Y-74407776D01*
X111209251Y-74407778D01*
X111324276Y-74502177D01*
X111485464Y-74588333D01*
X111499389Y-74595776D01*
X111689397Y-74653415D01*
X111837482Y-74668000D01*
X111837485Y-74668000D01*
X111887000Y-74672877D01*
X111936515Y-74668000D01*
X112135066Y-74668000D01*
X112156678Y-74694334D01*
X112114840Y-74716697D01*
X111999420Y-74811420D01*
X111904697Y-74926840D01*
X111834311Y-75058523D01*
X111790968Y-75201406D01*
X111776333Y-75350000D01*
X111776333Y-77050000D01*
X111790968Y-77198594D01*
X111834311Y-77341477D01*
X111904697Y-77473160D01*
X111999420Y-77588580D01*
X112114840Y-77683303D01*
X112246523Y-77753689D01*
X112389406Y-77797032D01*
X112538000Y-77811667D01*
X114538000Y-77811667D01*
X114686594Y-77797032D01*
X114829477Y-77753689D01*
X114961160Y-77683303D01*
X115076580Y-77588580D01*
X115171303Y-77473160D01*
X115241689Y-77341477D01*
X115285032Y-77198594D01*
X115299667Y-77050000D01*
X115299667Y-75350000D01*
X115285032Y-75201406D01*
X115241689Y-75058523D01*
X115171303Y-74926840D01*
X115076580Y-74811420D01*
X114961160Y-74716697D01*
X114919322Y-74694334D01*
X115031472Y-74557679D01*
X115180786Y-74278332D01*
X115272733Y-73975223D01*
X115303780Y-73660000D01*
X115272733Y-73344777D01*
X115180786Y-73041668D01*
X115031472Y-72762321D01*
X114830529Y-72517471D01*
X114675205Y-72390000D01*
X114830529Y-72262529D01*
X115031472Y-72017679D01*
X115180786Y-71738332D01*
X115272733Y-71435223D01*
X115303780Y-71120000D01*
X115272733Y-70804777D01*
X115180786Y-70501668D01*
X115031472Y-70222321D01*
X114830529Y-69977471D01*
X114585679Y-69776528D01*
X114306332Y-69627214D01*
X114003223Y-69535267D01*
X113766991Y-69512000D01*
X113309009Y-69512000D01*
X113072777Y-69535267D01*
X112769668Y-69627214D01*
X112512000Y-69764940D01*
X112512000Y-69233988D01*
X113909231Y-67836758D01*
X117752108Y-71679635D01*
X117758501Y-71711776D01*
X117845794Y-71922519D01*
X117864000Y-71949767D01*
X117864001Y-73610483D01*
X117859124Y-73660000D01*
X117864001Y-73709517D01*
X117864001Y-73709518D01*
X117873109Y-73801988D01*
X117878586Y-73857602D01*
X117936225Y-74047611D01*
X118029824Y-74222724D01*
X118118000Y-74330168D01*
X118118000Y-74355793D01*
X117977963Y-74495830D01*
X117816214Y-74737905D01*
X117704799Y-75006883D01*
X117648000Y-75292430D01*
X117648000Y-75583570D01*
X117704799Y-75869117D01*
X117816214Y-76138095D01*
X117977963Y-76380170D01*
X118183830Y-76586037D01*
X118425905Y-76747786D01*
X118694883Y-76859201D01*
X118980430Y-76916000D01*
X119271570Y-76916000D01*
X119557117Y-76859201D01*
X119826095Y-76747786D01*
X120068170Y-76586037D01*
X120274037Y-76380170D01*
X120289526Y-76356988D01*
X123292669Y-76356988D01*
X123336289Y-76641860D01*
X123587861Y-76788400D01*
X123863188Y-76883046D01*
X124151689Y-76922158D01*
X124442278Y-76904236D01*
X124723787Y-76829967D01*
X124985396Y-76702206D01*
X125075711Y-76641860D01*
X125119331Y-76356988D01*
X124206000Y-75443657D01*
X123292669Y-76356988D01*
X120289526Y-76356988D01*
X120435786Y-76138095D01*
X120547201Y-75869117D01*
X120604000Y-75583570D01*
X120604000Y-75383689D01*
X122721842Y-75383689D01*
X122739764Y-75674278D01*
X122814033Y-75955787D01*
X122941794Y-76217396D01*
X123002140Y-76307711D01*
X123287012Y-76351331D01*
X124200343Y-75438000D01*
X124211657Y-75438000D01*
X125124988Y-76351331D01*
X125409860Y-76307711D01*
X125556400Y-76056139D01*
X125651046Y-75780812D01*
X125690158Y-75492311D01*
X125672236Y-75201722D01*
X125597967Y-74920213D01*
X125470206Y-74658604D01*
X125409860Y-74568289D01*
X125124988Y-74524669D01*
X124211657Y-75438000D01*
X124200343Y-75438000D01*
X123287012Y-74524669D01*
X123002140Y-74568289D01*
X122855600Y-74819861D01*
X122760954Y-75095188D01*
X122721842Y-75383689D01*
X120604000Y-75383689D01*
X120604000Y-75292430D01*
X120547201Y-75006883D01*
X120435786Y-74737905D01*
X120289527Y-74519012D01*
X123292669Y-74519012D01*
X124206000Y-75432343D01*
X125119331Y-74519012D01*
X125075711Y-74234140D01*
X124824139Y-74087600D01*
X124548812Y-73992954D01*
X124260311Y-73953842D01*
X123969722Y-73971764D01*
X123688213Y-74046033D01*
X123426604Y-74173794D01*
X123336289Y-74234140D01*
X123292669Y-74519012D01*
X120289527Y-74519012D01*
X120274037Y-74495830D01*
X120134000Y-74355793D01*
X120134000Y-73963506D01*
X120138876Y-73913999D01*
X120134000Y-73864492D01*
X120134000Y-73864482D01*
X120119415Y-73716397D01*
X120061776Y-73526389D01*
X119968176Y-73351276D01*
X119880000Y-73243833D01*
X119880000Y-71949766D01*
X119898206Y-71922519D01*
X119985499Y-71711776D01*
X120030000Y-71488053D01*
X120030000Y-71259947D01*
X119985499Y-71036224D01*
X119898206Y-70825481D01*
X119874972Y-70790709D01*
X120148332Y-70707786D01*
X120369793Y-70589413D01*
X120381420Y-70603580D01*
X120496840Y-70698303D01*
X120628523Y-70768689D01*
X120771406Y-70812032D01*
X120920000Y-70826667D01*
X122920000Y-70826667D01*
X123065169Y-70812369D01*
X123092501Y-70949776D01*
X123179794Y-71160519D01*
X123306523Y-71350182D01*
X123467818Y-71511477D01*
X123657481Y-71638206D01*
X123868224Y-71725499D01*
X124091947Y-71770000D01*
X124320053Y-71770000D01*
X124543776Y-71725499D01*
X124754519Y-71638206D01*
X124944182Y-71511477D01*
X125105477Y-71350182D01*
X125232206Y-71160519D01*
X125319499Y-70949776D01*
X125324293Y-70925676D01*
X125405548Y-70826667D01*
X125448175Y-70774725D01*
X125460350Y-70751947D01*
X125541775Y-70599612D01*
X125599414Y-70409604D01*
X125613999Y-70261519D01*
X125613999Y-70261509D01*
X125618875Y-70212002D01*
X125613999Y-70162495D01*
X125613999Y-66685237D01*
X125813776Y-66645499D01*
X126024519Y-66558206D01*
X126214182Y-66431477D01*
X126375477Y-66270182D01*
X126502206Y-66080519D01*
X126589499Y-65869776D01*
X126595892Y-65837635D01*
X126754001Y-65679526D01*
X126754000Y-73997195D01*
X126641340Y-74072472D01*
X126396472Y-74317340D01*
X126204081Y-74605275D01*
X126071559Y-74925210D01*
X126004000Y-75264852D01*
X126004000Y-75611148D01*
X126071559Y-75950790D01*
X126204081Y-76270725D01*
X126396472Y-76558660D01*
X126641340Y-76803528D01*
X126929275Y-76995919D01*
X127249210Y-77128441D01*
X127588852Y-77196000D01*
X127935148Y-77196000D01*
X128274790Y-77128441D01*
X128594725Y-76995919D01*
X128882660Y-76803528D01*
X129127528Y-76558660D01*
X129319919Y-76270725D01*
X129452441Y-75950790D01*
X129520000Y-75611148D01*
X129520000Y-75264852D01*
X129452441Y-74925210D01*
X129319919Y-74605275D01*
X129127528Y-74317340D01*
X128882660Y-74072472D01*
X128770000Y-73997195D01*
X128770000Y-73802000D01*
X128892053Y-73802000D01*
X129115776Y-73757499D01*
X129326519Y-73670206D01*
X129328407Y-73668945D01*
X129366224Y-73793610D01*
X129404709Y-73865610D01*
X129459824Y-73968724D01*
X129548684Y-74077000D01*
X129585788Y-74122212D01*
X129624249Y-74153776D01*
X130602434Y-75131961D01*
X130576000Y-75264852D01*
X130576000Y-75611148D01*
X130643559Y-75950790D01*
X130776081Y-76270725D01*
X130968472Y-76558660D01*
X131213340Y-76803528D01*
X131501275Y-76995919D01*
X131821210Y-77128441D01*
X132160852Y-77196000D01*
X132507148Y-77196000D01*
X132846790Y-77128441D01*
X133166725Y-76995919D01*
X133454660Y-76803528D01*
X133699528Y-76558660D01*
X133891919Y-76270725D01*
X134024441Y-75950790D01*
X134092000Y-75611148D01*
X134092000Y-75264852D01*
X134024441Y-74925210D01*
X133891919Y-74605275D01*
X133699528Y-74317340D01*
X133454660Y-74072472D01*
X133166725Y-73880081D01*
X132846790Y-73747559D01*
X132507148Y-73680000D01*
X132160852Y-73680000D01*
X132027961Y-73706434D01*
X131310000Y-72988473D01*
X131310000Y-54677766D01*
X131328206Y-54650519D01*
X131415499Y-54439776D01*
X131460000Y-54216053D01*
X131460000Y-53987947D01*
X131430572Y-53840000D01*
X134582489Y-53840000D01*
X134631996Y-53844876D01*
X134681503Y-53840000D01*
X134681514Y-53840000D01*
X134829599Y-53825415D01*
X135019607Y-53767776D01*
X135194720Y-53674176D01*
X135264895Y-53616585D01*
X135309745Y-53579778D01*
X135309747Y-53579776D01*
X135348208Y-53548212D01*
X135379772Y-53509751D01*
X135641998Y-53247525D01*
X136152000Y-53757527D01*
X136152001Y-60021483D01*
X136147124Y-60071000D01*
X136152001Y-60120517D01*
X136152001Y-60120518D01*
X136166586Y-60268603D01*
X136214994Y-60428182D01*
X136224225Y-60458611D01*
X136317824Y-60633724D01*
X136412222Y-60748749D01*
X136412229Y-60748756D01*
X136443789Y-60787212D01*
X136482244Y-60818771D01*
X137428228Y-61764756D01*
X137459788Y-61803212D01*
X137498244Y-61834772D01*
X137498250Y-61834778D01*
X137613275Y-61929176D01*
X137676655Y-61963053D01*
X137788389Y-62022776D01*
X137978397Y-62080415D01*
X138126482Y-62095000D01*
X138126493Y-62095000D01*
X138176000Y-62099876D01*
X138225507Y-62095000D01*
X139962001Y-62095000D01*
X139962000Y-63940234D01*
X139943794Y-63967481D01*
X139856501Y-64178224D01*
X139812000Y-64401947D01*
X139812000Y-64630053D01*
X139856501Y-64853776D01*
X139933821Y-65040442D01*
X139907219Y-65058217D01*
X139836640Y-65128796D01*
X139766061Y-65058217D01*
X139527262Y-64898657D01*
X139261923Y-64788750D01*
X138980241Y-64732720D01*
X138693039Y-64732720D01*
X138411357Y-64788750D01*
X138146018Y-64898657D01*
X137907219Y-65058217D01*
X137836640Y-65128796D01*
X137766061Y-65058217D01*
X137527262Y-64898657D01*
X137261923Y-64788750D01*
X136980241Y-64732720D01*
X136693039Y-64732720D01*
X136411357Y-64788750D01*
X136146018Y-64898657D01*
X135907219Y-65058217D01*
X135836640Y-65128796D01*
X135766061Y-65058217D01*
X135527262Y-64898657D01*
X135261923Y-64788750D01*
X134980241Y-64732720D01*
X134693039Y-64732720D01*
X134411357Y-64788750D01*
X134146018Y-64898657D01*
X133907219Y-65058217D01*
X133836640Y-65128796D01*
X133766061Y-65058217D01*
X133527262Y-64898657D01*
X133261923Y-64788750D01*
X132980241Y-64732720D01*
X132693039Y-64732720D01*
X132411357Y-64788750D01*
X132146018Y-64898657D01*
X131907219Y-65058217D01*
X131704137Y-65261299D01*
X131544577Y-65500098D01*
X131434670Y-65765437D01*
X131378640Y-66047119D01*
X131378640Y-66334321D01*
X131434670Y-66616003D01*
X131544577Y-66881342D01*
X131704137Y-67120141D01*
X131828640Y-67244644D01*
X131828641Y-68102925D01*
X131676739Y-68288016D01*
X131543675Y-68536961D01*
X131461735Y-68807083D01*
X131434067Y-69088000D01*
X131461735Y-69368917D01*
X131543675Y-69639039D01*
X131676739Y-69887984D01*
X131855814Y-70106186D01*
X132074016Y-70285261D01*
X132322961Y-70418325D01*
X132593083Y-70500265D01*
X132803608Y-70521000D01*
X132944392Y-70521000D01*
X133154917Y-70500265D01*
X133425039Y-70418325D01*
X133673984Y-70285261D01*
X133874000Y-70121111D01*
X134074016Y-70285261D01*
X134322961Y-70418325D01*
X134593083Y-70500265D01*
X134803608Y-70521000D01*
X134944392Y-70521000D01*
X135154917Y-70500265D01*
X135425039Y-70418325D01*
X135673984Y-70285261D01*
X135874000Y-70121111D01*
X136074016Y-70285261D01*
X136322961Y-70418325D01*
X136493312Y-70470000D01*
X136283947Y-70470000D01*
X136060224Y-70514501D01*
X135849481Y-70601794D01*
X135659818Y-70728523D01*
X135498523Y-70889818D01*
X135371794Y-71079481D01*
X135284501Y-71290224D01*
X135240000Y-71513947D01*
X135240000Y-71742053D01*
X135284501Y-71965776D01*
X135371794Y-72176519D01*
X135390001Y-72203767D01*
X135390000Y-74355793D01*
X135249963Y-74495830D01*
X135088214Y-74737905D01*
X134976799Y-75006883D01*
X134920000Y-75292430D01*
X134920000Y-75583570D01*
X134976799Y-75869117D01*
X135088214Y-76138095D01*
X135249963Y-76380170D01*
X135455830Y-76586037D01*
X135697905Y-76747786D01*
X135966883Y-76859201D01*
X136252430Y-76916000D01*
X136543570Y-76916000D01*
X136829117Y-76859201D01*
X137098095Y-76747786D01*
X137340170Y-76586037D01*
X137546037Y-76380170D01*
X137707786Y-76138095D01*
X137819201Y-75869117D01*
X137876000Y-75583570D01*
X137876000Y-75383689D01*
X139993842Y-75383689D01*
X140011764Y-75674278D01*
X140086033Y-75955787D01*
X140213794Y-76217396D01*
X140274140Y-76307711D01*
X140559012Y-76351331D01*
X141472343Y-75438000D01*
X140559012Y-74524669D01*
X140274140Y-74568289D01*
X140127600Y-74819861D01*
X140032954Y-75095188D01*
X139993842Y-75383689D01*
X137876000Y-75383689D01*
X137876000Y-75292430D01*
X137819201Y-75006883D01*
X137707786Y-74737905D01*
X137546037Y-74495830D01*
X137406000Y-74355793D01*
X137406000Y-72203766D01*
X137424206Y-72176519D01*
X137511499Y-71965776D01*
X137556000Y-71742053D01*
X137556000Y-71513947D01*
X137511499Y-71290224D01*
X137424206Y-71079481D01*
X137297477Y-70889818D01*
X137136182Y-70728523D01*
X136946519Y-70601794D01*
X136735776Y-70514501D01*
X136733965Y-70514141D01*
X136803608Y-70521000D01*
X136944392Y-70521000D01*
X137154917Y-70500265D01*
X137425039Y-70418325D01*
X137673984Y-70285261D01*
X137874000Y-70121111D01*
X138074016Y-70285261D01*
X138322961Y-70418325D01*
X138593083Y-70500265D01*
X138803608Y-70521000D01*
X138944392Y-70521000D01*
X139154917Y-70500265D01*
X139425039Y-70418325D01*
X139673984Y-70285261D01*
X139866000Y-70127676D01*
X139866000Y-70720492D01*
X139861124Y-70770000D01*
X139866000Y-70819507D01*
X139866000Y-70819517D01*
X139880585Y-70967602D01*
X139938224Y-71157610D01*
X140000429Y-71273987D01*
X140031824Y-71332724D01*
X140115943Y-71435223D01*
X140157788Y-71486212D01*
X140196249Y-71517776D01*
X141740001Y-73061528D01*
X141740001Y-73981998D01*
X141532311Y-73953842D01*
X141241722Y-73971764D01*
X140960213Y-74046033D01*
X140698604Y-74173794D01*
X140608289Y-74234140D01*
X140564669Y-74519012D01*
X141478000Y-75432343D01*
X141492142Y-75418201D01*
X141497799Y-75423858D01*
X141483657Y-75438000D01*
X141497799Y-75452142D01*
X141492142Y-75457799D01*
X141478000Y-75443657D01*
X140564669Y-76356988D01*
X140608289Y-76641860D01*
X140859861Y-76788400D01*
X141135188Y-76883046D01*
X141423689Y-76922158D01*
X141714278Y-76904236D01*
X141740000Y-76897450D01*
X141740000Y-78164234D01*
X141721794Y-78191481D01*
X141634501Y-78402224D01*
X141590000Y-78625947D01*
X141590000Y-78854053D01*
X141634501Y-79077776D01*
X141692170Y-79217000D01*
X139744034Y-79217000D01*
X139880170Y-79126037D01*
X140086037Y-78920170D01*
X140247786Y-78678095D01*
X140359201Y-78409117D01*
X140416000Y-78123570D01*
X140416000Y-77832430D01*
X140359201Y-77546883D01*
X140247786Y-77277905D01*
X140086037Y-77035830D01*
X139880170Y-76829963D01*
X139638095Y-76668214D01*
X139369117Y-76556799D01*
X139083570Y-76500000D01*
X138792430Y-76500000D01*
X138506883Y-76556799D01*
X138237905Y-76668214D01*
X137995830Y-76829963D01*
X137789963Y-77035830D01*
X137628214Y-77277905D01*
X137516799Y-77546883D01*
X137460000Y-77832430D01*
X137460000Y-78123570D01*
X137516799Y-78409117D01*
X137628214Y-78678095D01*
X137789963Y-78920170D01*
X137995830Y-79126037D01*
X138131966Y-79217000D01*
X122472034Y-79217000D01*
X122608170Y-79126037D01*
X122814037Y-78920170D01*
X122975786Y-78678095D01*
X123087201Y-78409117D01*
X123144000Y-78123570D01*
X123144000Y-77832430D01*
X123087201Y-77546883D01*
X122975786Y-77277905D01*
X122814037Y-77035830D01*
X122608170Y-76829963D01*
X122366095Y-76668214D01*
X122097117Y-76556799D01*
X121811570Y-76500000D01*
X121520430Y-76500000D01*
X121234883Y-76556799D01*
X120965905Y-76668214D01*
X120723830Y-76829963D01*
X120517963Y-77035830D01*
X120356214Y-77277905D01*
X120244799Y-77546883D01*
X120188000Y-77832430D01*
X120188000Y-78123570D01*
X120244799Y-78409117D01*
X120356214Y-78678095D01*
X120517963Y-78920170D01*
X120723830Y-79126037D01*
X120859966Y-79217000D01*
X84838354Y-79217000D01*
X85197123Y-78977279D01*
X85581279Y-78593123D01*
X85883108Y-78141403D01*
X86091012Y-77639479D01*
X86197000Y-77106639D01*
X86197000Y-76563361D01*
X86091012Y-76030521D01*
X85883108Y-75528597D01*
X85581279Y-75076877D01*
X85279402Y-74775000D01*
X87287332Y-74775000D01*
X87301967Y-74923594D01*
X87345311Y-75066478D01*
X87415696Y-75198160D01*
X87510419Y-75313581D01*
X87625840Y-75408304D01*
X87757522Y-75478689D01*
X87900406Y-75522033D01*
X88049000Y-75536668D01*
X89355500Y-75533000D01*
X89545000Y-75343500D01*
X89545000Y-73279000D01*
X89553000Y-73279000D01*
X89553000Y-75343500D01*
X89742500Y-75533000D01*
X91049000Y-75536668D01*
X91197594Y-75522033D01*
X91340478Y-75478689D01*
X91472160Y-75408304D01*
X91587581Y-75313581D01*
X91682304Y-75198160D01*
X91752689Y-75066478D01*
X91796033Y-74923594D01*
X91810668Y-74775000D01*
X91807000Y-73468500D01*
X91617500Y-73279000D01*
X89553000Y-73279000D01*
X89545000Y-73279000D01*
X87480500Y-73279000D01*
X87291000Y-73468500D01*
X87287332Y-74775000D01*
X85279402Y-74775000D01*
X85197123Y-74692721D01*
X84745403Y-74390892D01*
X84243479Y-74182988D01*
X83710639Y-74077000D01*
X83167361Y-74077000D01*
X82634521Y-74182988D01*
X82132597Y-74390892D01*
X81680877Y-74692721D01*
X81296721Y-75076877D01*
X80994892Y-75528597D01*
X80786988Y-76030521D01*
X80783000Y-76050570D01*
X80783000Y-71775000D01*
X87287332Y-71775000D01*
X87291000Y-73081500D01*
X87480500Y-73271000D01*
X89545000Y-73271000D01*
X89545000Y-71206500D01*
X89553000Y-71206500D01*
X89553000Y-73271000D01*
X91617500Y-73271000D01*
X91807000Y-73081500D01*
X91807081Y-73052606D01*
X92371000Y-73052606D01*
X92371000Y-73497394D01*
X92457774Y-73933634D01*
X92627987Y-74344564D01*
X92875097Y-74714391D01*
X93189609Y-75028903D01*
X93559436Y-75276013D01*
X93970366Y-75446226D01*
X94406606Y-75533000D01*
X94851394Y-75533000D01*
X95287634Y-75446226D01*
X95698564Y-75276013D01*
X96068391Y-75028903D01*
X96297294Y-74800000D01*
X99087332Y-74800000D01*
X99101967Y-74948594D01*
X99145311Y-75091478D01*
X99215696Y-75223160D01*
X99310419Y-75338581D01*
X99425840Y-75433304D01*
X99557522Y-75503689D01*
X99700406Y-75547033D01*
X99849000Y-75561668D01*
X101155500Y-75558000D01*
X101345000Y-75368500D01*
X101345000Y-73304000D01*
X101353000Y-73304000D01*
X101353000Y-75368500D01*
X101542500Y-75558000D01*
X102849000Y-75561668D01*
X102997594Y-75547033D01*
X103140478Y-75503689D01*
X103272160Y-75433304D01*
X103387581Y-75338581D01*
X103482304Y-75223160D01*
X103552689Y-75091478D01*
X103596033Y-74948594D01*
X103610668Y-74800000D01*
X103607000Y-73493500D01*
X103417500Y-73304000D01*
X101353000Y-73304000D01*
X101345000Y-73304000D01*
X99280500Y-73304000D01*
X99091000Y-73493500D01*
X99087332Y-74800000D01*
X96297294Y-74800000D01*
X96382903Y-74714391D01*
X96630013Y-74344564D01*
X96800226Y-73933634D01*
X96887000Y-73497394D01*
X96887000Y-73052606D01*
X96800226Y-72616366D01*
X96630013Y-72205436D01*
X96382903Y-71835609D01*
X96068391Y-71521097D01*
X95698564Y-71273987D01*
X95287634Y-71103774D01*
X94851394Y-71017000D01*
X94406606Y-71017000D01*
X93970366Y-71103774D01*
X93559436Y-71273987D01*
X93189609Y-71521097D01*
X92875097Y-71835609D01*
X92627987Y-72205436D01*
X92457774Y-72616366D01*
X92371000Y-73052606D01*
X91807081Y-73052606D01*
X91810668Y-71775000D01*
X91796033Y-71626406D01*
X91752689Y-71483522D01*
X91682304Y-71351840D01*
X91587581Y-71236419D01*
X91472160Y-71141696D01*
X91340478Y-71071311D01*
X91197594Y-71027967D01*
X91049000Y-71013332D01*
X89742500Y-71017000D01*
X89553000Y-71206500D01*
X89545000Y-71206500D01*
X89355500Y-71017000D01*
X88049000Y-71013332D01*
X87900406Y-71027967D01*
X87757522Y-71071311D01*
X87625840Y-71141696D01*
X87510419Y-71236419D01*
X87415696Y-71351840D01*
X87345311Y-71483522D01*
X87301967Y-71626406D01*
X87287332Y-71775000D01*
X80783000Y-71775000D01*
X80783000Y-58852229D01*
X83890000Y-58852229D01*
X83890000Y-59247771D01*
X83967166Y-59635712D01*
X84118533Y-60001145D01*
X84338284Y-60330025D01*
X84617975Y-60609716D01*
X84946855Y-60829467D01*
X85312288Y-60980834D01*
X85700229Y-61058000D01*
X86095771Y-61058000D01*
X86483712Y-60980834D01*
X86849145Y-60829467D01*
X87178025Y-60609716D01*
X87457716Y-60330025D01*
X87677467Y-60001145D01*
X87828834Y-59635712D01*
X87906000Y-59247771D01*
X87906000Y-58852229D01*
X87828834Y-58464288D01*
X87677467Y-58098855D01*
X87457716Y-57769975D01*
X87178025Y-57490284D01*
X86849145Y-57270533D01*
X86483712Y-57119166D01*
X86095771Y-57042000D01*
X85700229Y-57042000D01*
X85312288Y-57119166D01*
X84946855Y-57270533D01*
X84617975Y-57490284D01*
X84338284Y-57769975D01*
X84118533Y-58098855D01*
X83967166Y-58464288D01*
X83890000Y-58852229D01*
X80783000Y-58852229D01*
X80783000Y-46652229D01*
X83890000Y-46652229D01*
X83890000Y-47047771D01*
X83967166Y-47435712D01*
X84118533Y-47801145D01*
X84338284Y-48130025D01*
X84617975Y-48409716D01*
X84946855Y-48629467D01*
X85312288Y-48780834D01*
X85700229Y-48858000D01*
X86095771Y-48858000D01*
X86483712Y-48780834D01*
X86849145Y-48629467D01*
X87178025Y-48409716D01*
X87457716Y-48130025D01*
X87555955Y-47983000D01*
X88036697Y-47983000D01*
X88529000Y-48475304D01*
X88529001Y-62682339D01*
X88523519Y-62738000D01*
X88545394Y-62960106D01*
X88610181Y-63173678D01*
X88715387Y-63370506D01*
X88813285Y-63489794D01*
X88856973Y-63543028D01*
X88900203Y-63578506D01*
X89453329Y-64131633D01*
X89524523Y-64238182D01*
X89685818Y-64399477D01*
X89875481Y-64526206D01*
X90086224Y-64613499D01*
X90309947Y-64658000D01*
X90538053Y-64658000D01*
X90761776Y-64613499D01*
X90972519Y-64526206D01*
X91162182Y-64399477D01*
X91323477Y-64238182D01*
X91450206Y-64048519D01*
X91537499Y-63837776D01*
X91582000Y-63614053D01*
X91582000Y-63385947D01*
X91537499Y-63162224D01*
X91450206Y-62951481D01*
X91323477Y-62761818D01*
X91162182Y-62600523D01*
X91055633Y-62529329D01*
X90795000Y-62268697D01*
X90795000Y-60226863D01*
X90958235Y-60425766D01*
X91011395Y-60469393D01*
X93913984Y-63371983D01*
X93913986Y-63371986D01*
X94108014Y-63566014D01*
X94165195Y-63604221D01*
X94218346Y-63647841D01*
X94278990Y-63680256D01*
X94336167Y-63718460D01*
X94399701Y-63744777D01*
X94460342Y-63777190D01*
X94526138Y-63797149D01*
X94589677Y-63823468D01*
X94657128Y-63836885D01*
X94722924Y-63856844D01*
X94791353Y-63863584D01*
X94858801Y-63877000D01*
X94927569Y-63877000D01*
X94996000Y-63883740D01*
X95064431Y-63877000D01*
X95133199Y-63877000D01*
X95200648Y-63863584D01*
X95269075Y-63856844D01*
X95334869Y-63836885D01*
X95402323Y-63823468D01*
X95465864Y-63797148D01*
X95531657Y-63777190D01*
X95592295Y-63744779D01*
X95655833Y-63718460D01*
X95713014Y-63680253D01*
X95773653Y-63647841D01*
X95826801Y-63604224D01*
X95883986Y-63566014D01*
X95932620Y-63517380D01*
X95985765Y-63473765D01*
X96029380Y-63420620D01*
X96078014Y-63371986D01*
X96116224Y-63314801D01*
X96159841Y-63261653D01*
X96192253Y-63201014D01*
X96230460Y-63143833D01*
X96256779Y-63080295D01*
X96289190Y-63019657D01*
X96309148Y-62953864D01*
X96335468Y-62890323D01*
X96348885Y-62822869D01*
X96368844Y-62757075D01*
X96375584Y-62688648D01*
X96389000Y-62621199D01*
X96389000Y-62552431D01*
X96395740Y-62484000D01*
X96389000Y-62415569D01*
X96389000Y-62346801D01*
X96375584Y-62279353D01*
X96368844Y-62210924D01*
X96348885Y-62145128D01*
X96335468Y-62077677D01*
X96309149Y-62014138D01*
X96289190Y-61948342D01*
X96256777Y-61887701D01*
X96230460Y-61824167D01*
X96192256Y-61766990D01*
X96159841Y-61706346D01*
X96116221Y-61653195D01*
X96078014Y-61596014D01*
X95883986Y-61401986D01*
X95883983Y-61401984D01*
X93341000Y-58859002D01*
X93341000Y-46652229D01*
X95890000Y-46652229D01*
X95890000Y-47047771D01*
X95967166Y-47435712D01*
X96118533Y-47801145D01*
X96338284Y-48130025D01*
X96617975Y-48409716D01*
X96711001Y-48471874D01*
X96711000Y-54868320D01*
X96609540Y-55020167D01*
X96504532Y-55273677D01*
X96451000Y-55542801D01*
X96451000Y-55817199D01*
X96504532Y-56086323D01*
X96609540Y-56339833D01*
X96761986Y-56567986D01*
X96956014Y-56762014D01*
X97184167Y-56914460D01*
X97437677Y-57019468D01*
X97706801Y-57073000D01*
X97981199Y-57073000D01*
X98250323Y-57019468D01*
X98503833Y-56914460D01*
X98731986Y-56762014D01*
X98926014Y-56567986D01*
X99068000Y-56355487D01*
X99068000Y-57433359D01*
X98899145Y-57320533D01*
X98533712Y-57169166D01*
X98145771Y-57092000D01*
X97750229Y-57092000D01*
X97362288Y-57169166D01*
X96996855Y-57320533D01*
X96667975Y-57540284D01*
X96388284Y-57819975D01*
X96168533Y-58148855D01*
X96017166Y-58514288D01*
X95940000Y-58902229D01*
X95940000Y-59297771D01*
X96017166Y-59685712D01*
X96168533Y-60051145D01*
X96388284Y-60380025D01*
X96667975Y-60659716D01*
X96996855Y-60879467D01*
X97362288Y-61030834D01*
X97750229Y-61108000D01*
X98145771Y-61108000D01*
X98533712Y-61030834D01*
X98899145Y-60879467D01*
X99068001Y-60766641D01*
X99068001Y-66879483D01*
X99063124Y-66929000D01*
X99068001Y-66978517D01*
X99068001Y-66978518D01*
X99082586Y-67126603D01*
X99140225Y-67316611D01*
X99233824Y-67491724D01*
X99328222Y-67606749D01*
X99328229Y-67606756D01*
X99359789Y-67645212D01*
X99398245Y-67676772D01*
X99464108Y-67742634D01*
X99470501Y-67774776D01*
X99557794Y-67985519D01*
X99684523Y-68175182D01*
X99845818Y-68336477D01*
X100035481Y-68463206D01*
X100246224Y-68550499D01*
X100467000Y-68594414D01*
X100467000Y-69126697D01*
X100460370Y-69133327D01*
X100353818Y-69204523D01*
X100192523Y-69365818D01*
X100065794Y-69555481D01*
X99978501Y-69766224D01*
X99934000Y-69989947D01*
X99934000Y-70218053D01*
X99978501Y-70441776D01*
X100065794Y-70652519D01*
X100192523Y-70842182D01*
X100353818Y-71003477D01*
X100408332Y-71039902D01*
X99849000Y-71038332D01*
X99700406Y-71052967D01*
X99557522Y-71096311D01*
X99425840Y-71166696D01*
X99310419Y-71261419D01*
X99215696Y-71376840D01*
X99145311Y-71508522D01*
X99101967Y-71651406D01*
X99087332Y-71800000D01*
X99091000Y-73106500D01*
X99280500Y-73296000D01*
X101345000Y-73296000D01*
X101345000Y-73276000D01*
X101353000Y-73276000D01*
X101353000Y-73296000D01*
X103417500Y-73296000D01*
X103607000Y-73106500D01*
X103607081Y-73077606D01*
X104171000Y-73077606D01*
X104171000Y-73522394D01*
X104257774Y-73958634D01*
X104427987Y-74369564D01*
X104675097Y-74739391D01*
X104989609Y-75053903D01*
X105359436Y-75301013D01*
X105770366Y-75471226D01*
X106206606Y-75558000D01*
X106651394Y-75558000D01*
X107087634Y-75471226D01*
X107498564Y-75301013D01*
X107868391Y-75053903D01*
X108182903Y-74739391D01*
X108430013Y-74369564D01*
X108600226Y-73958634D01*
X108687000Y-73522394D01*
X108687000Y-73077606D01*
X108600226Y-72641366D01*
X108430013Y-72230436D01*
X108182903Y-71860609D01*
X107868391Y-71546097D01*
X107498564Y-71298987D01*
X107087634Y-71128774D01*
X106651394Y-71042000D01*
X106206606Y-71042000D01*
X105770366Y-71128774D01*
X105359436Y-71298987D01*
X104989609Y-71546097D01*
X104675097Y-71860609D01*
X104427987Y-72230436D01*
X104257774Y-72641366D01*
X104171000Y-73077606D01*
X103607081Y-73077606D01*
X103610668Y-71800000D01*
X103596033Y-71651406D01*
X103552689Y-71508522D01*
X103482304Y-71376840D01*
X103387581Y-71261419D01*
X103272160Y-71166696D01*
X103140478Y-71096311D01*
X102997594Y-71052967D01*
X102849000Y-71038332D01*
X101773499Y-71041351D01*
X101830182Y-71003477D01*
X101991477Y-70842182D01*
X102062673Y-70735630D01*
X102361792Y-70436511D01*
X102405028Y-70401028D01*
X102546613Y-70228507D01*
X102651820Y-70031678D01*
X102716606Y-69818107D01*
X102733000Y-69651659D01*
X102733000Y-69651652D01*
X102738481Y-69596001D01*
X102733000Y-69540350D01*
X102733000Y-57289947D01*
X104252000Y-57289947D01*
X104252000Y-57518053D01*
X104277000Y-57643737D01*
X104277000Y-58364349D01*
X104271519Y-58420000D01*
X104277000Y-58475651D01*
X104277000Y-58475658D01*
X104293394Y-58642106D01*
X104358180Y-58855677D01*
X104463387Y-59052507D01*
X104604972Y-59225028D01*
X104648208Y-59260511D01*
X105709329Y-60321633D01*
X105780523Y-60428182D01*
X105941818Y-60589477D01*
X106131481Y-60716206D01*
X106342224Y-60803499D01*
X106565947Y-60848000D01*
X106794053Y-60848000D01*
X107017776Y-60803499D01*
X107228519Y-60716206D01*
X107418182Y-60589477D01*
X107579477Y-60428182D01*
X107706206Y-60238519D01*
X107793499Y-60027776D01*
X107838000Y-59804053D01*
X107838000Y-59575947D01*
X107793499Y-59352224D01*
X107706206Y-59141481D01*
X107579477Y-58951818D01*
X107418182Y-58790523D01*
X107311633Y-58719329D01*
X106543000Y-57950697D01*
X106543000Y-57643737D01*
X106568000Y-57518053D01*
X106568000Y-57289947D01*
X106523499Y-57066224D01*
X106436206Y-56855481D01*
X106309477Y-56665818D01*
X106148182Y-56504523D01*
X105958519Y-56377794D01*
X105747776Y-56290501D01*
X105524053Y-56246000D01*
X105295947Y-56246000D01*
X105072224Y-56290501D01*
X104861481Y-56377794D01*
X104671818Y-56504523D01*
X104510523Y-56665818D01*
X104383794Y-56855481D01*
X104296501Y-57066224D01*
X104252000Y-57289947D01*
X102733000Y-57289947D01*
X102733000Y-51293737D01*
X102758000Y-51168053D01*
X102758000Y-50939947D01*
X102713499Y-50716224D01*
X102626206Y-50505481D01*
X102499477Y-50315818D01*
X102338182Y-50154523D01*
X102148519Y-50027794D01*
X101937776Y-49940501D01*
X101714053Y-49896000D01*
X101485947Y-49896000D01*
X101262224Y-49940501D01*
X101084000Y-50014324D01*
X101084000Y-49724766D01*
X101102206Y-49697519D01*
X101189499Y-49486776D01*
X101234000Y-49263053D01*
X101234000Y-49034947D01*
X101189499Y-48811224D01*
X101102206Y-48600481D01*
X100975477Y-48410818D01*
X100814182Y-48249523D01*
X100624519Y-48122794D01*
X100413776Y-48035501D01*
X100190053Y-47991000D01*
X99961947Y-47991000D01*
X99738224Y-48035501D01*
X99527481Y-48122794D01*
X99339023Y-48248718D01*
X99457716Y-48130025D01*
X99677467Y-47801145D01*
X99828834Y-47435712D01*
X99906000Y-47047771D01*
X99906000Y-46652229D01*
X99828834Y-46264288D01*
X99677467Y-45898855D01*
X99481752Y-45605947D01*
X104252000Y-45605947D01*
X104252000Y-45834053D01*
X104277001Y-45959742D01*
X104277000Y-50814262D01*
X104252000Y-50939947D01*
X104252000Y-51168053D01*
X104296501Y-51391776D01*
X104383794Y-51602519D01*
X104510523Y-51792182D01*
X104671818Y-51953477D01*
X104861481Y-52080206D01*
X105072224Y-52167499D01*
X105295947Y-52212000D01*
X105524053Y-52212000D01*
X105747776Y-52167499D01*
X105958519Y-52080206D01*
X106148182Y-51953477D01*
X106309477Y-51792182D01*
X106436206Y-51602519D01*
X106523499Y-51391776D01*
X106568000Y-51168053D01*
X106568000Y-50939947D01*
X106543000Y-50814263D01*
X106543000Y-45959737D01*
X106568000Y-45834053D01*
X106568000Y-45605947D01*
X106523499Y-45382224D01*
X106436206Y-45171481D01*
X106309477Y-44981818D01*
X106148182Y-44820523D01*
X105958519Y-44693794D01*
X105747776Y-44606501D01*
X105524053Y-44562000D01*
X105295947Y-44562000D01*
X105072224Y-44606501D01*
X104861481Y-44693794D01*
X104671818Y-44820523D01*
X104510523Y-44981818D01*
X104383794Y-45171481D01*
X104296501Y-45382224D01*
X104252000Y-45605947D01*
X99481752Y-45605947D01*
X99457716Y-45569975D01*
X99178025Y-45290284D01*
X98849145Y-45070533D01*
X98483712Y-44919166D01*
X98095771Y-44842000D01*
X97700229Y-44842000D01*
X97312288Y-44919166D01*
X96946855Y-45070533D01*
X96617975Y-45290284D01*
X96338284Y-45569975D01*
X96118533Y-45898855D01*
X95967166Y-46264288D01*
X95890000Y-46652229D01*
X93341000Y-46652229D01*
X93341000Y-46346741D01*
X93507716Y-46180025D01*
X93727467Y-45851145D01*
X93878834Y-45485712D01*
X93956000Y-45097771D01*
X93956000Y-44702229D01*
X93878834Y-44314288D01*
X93727467Y-43948855D01*
X93507716Y-43619975D01*
X93228025Y-43340284D01*
X92899145Y-43120533D01*
X92533712Y-42969166D01*
X92145771Y-42892000D01*
X91909999Y-42892000D01*
X90928000Y-41910002D01*
X90928000Y-38360900D01*
X90974391Y-38329903D01*
X91228294Y-38076000D01*
X92353332Y-38076000D01*
X92367967Y-38224594D01*
X92411311Y-38367478D01*
X92481696Y-38499160D01*
X92576419Y-38614581D01*
X92691840Y-38709304D01*
X92823522Y-38779689D01*
X92966406Y-38823033D01*
X93115000Y-38837668D01*
X94421500Y-38834000D01*
X94611000Y-38644500D01*
X94611000Y-36580000D01*
X94619000Y-36580000D01*
X94619000Y-38644500D01*
X94808500Y-38834000D01*
X96115000Y-38837668D01*
X96263594Y-38823033D01*
X96406478Y-38779689D01*
X96538160Y-38709304D01*
X96653581Y-38614581D01*
X96748304Y-38499160D01*
X96818689Y-38367478D01*
X96862033Y-38224594D01*
X96876668Y-38076000D01*
X96873000Y-36769500D01*
X96683500Y-36580000D01*
X94619000Y-36580000D01*
X94611000Y-36580000D01*
X92546500Y-36580000D01*
X92357000Y-36769500D01*
X92353332Y-38076000D01*
X91228294Y-38076000D01*
X91288903Y-38015391D01*
X91536013Y-37645564D01*
X91706226Y-37234634D01*
X91793000Y-36798394D01*
X91793000Y-36353606D01*
X91706226Y-35917366D01*
X91536013Y-35506436D01*
X91288903Y-35136609D01*
X91228294Y-35076000D01*
X92353332Y-35076000D01*
X92357000Y-36382500D01*
X92546500Y-36572000D01*
X94611000Y-36572000D01*
X94611000Y-34507500D01*
X94619000Y-34507500D01*
X94619000Y-36572000D01*
X96683500Y-36572000D01*
X96873000Y-36382500D01*
X96873154Y-36327606D01*
X97817000Y-36327606D01*
X97817000Y-36772394D01*
X97903774Y-37208634D01*
X98073987Y-37619564D01*
X98321097Y-37989391D01*
X98635609Y-38303903D01*
X99005436Y-38551013D01*
X99067001Y-38576514D01*
X99067001Y-39049729D01*
X99049794Y-39075481D01*
X98962501Y-39286224D01*
X98918000Y-39509947D01*
X98918000Y-39738053D01*
X98962501Y-39961776D01*
X99049794Y-40172519D01*
X99176523Y-40362182D01*
X99337818Y-40523477D01*
X99527481Y-40650206D01*
X99738224Y-40737499D01*
X99961947Y-40782000D01*
X100190053Y-40782000D01*
X100413776Y-40737499D01*
X100624519Y-40650206D01*
X100814182Y-40523477D01*
X100975477Y-40362182D01*
X101102206Y-40172519D01*
X101189499Y-39961776D01*
X101234000Y-39738053D01*
X101234000Y-39509947D01*
X101189499Y-39286224D01*
X101102206Y-39075481D01*
X101083000Y-39046737D01*
X101083000Y-38576514D01*
X101144564Y-38551013D01*
X101514391Y-38303903D01*
X101768294Y-38050000D01*
X102893332Y-38050000D01*
X102907967Y-38198594D01*
X102951311Y-38341478D01*
X103021696Y-38473160D01*
X103116419Y-38588581D01*
X103231840Y-38683304D01*
X103363522Y-38753689D01*
X103506406Y-38797033D01*
X103655000Y-38811668D01*
X104961500Y-38808000D01*
X105151000Y-38618500D01*
X105151000Y-36554000D01*
X105159000Y-36554000D01*
X105159000Y-38618500D01*
X105348500Y-38808000D01*
X106655000Y-38811668D01*
X106803594Y-38797033D01*
X106946478Y-38753689D01*
X107078160Y-38683304D01*
X107193581Y-38588581D01*
X107288304Y-38473160D01*
X107358689Y-38341478D01*
X107402033Y-38198594D01*
X107416668Y-38050000D01*
X107413000Y-36743500D01*
X107223500Y-36554000D01*
X105159000Y-36554000D01*
X105151000Y-36554000D01*
X103086500Y-36554000D01*
X102897000Y-36743500D01*
X102893332Y-38050000D01*
X101768294Y-38050000D01*
X101828903Y-37989391D01*
X102076013Y-37619564D01*
X102246226Y-37208634D01*
X102333000Y-36772394D01*
X102333000Y-36327606D01*
X102246226Y-35891366D01*
X102076013Y-35480436D01*
X101828903Y-35110609D01*
X101768294Y-35050000D01*
X102893332Y-35050000D01*
X102897000Y-36356500D01*
X103086500Y-36546000D01*
X105151000Y-36546000D01*
X105151000Y-34481500D01*
X105159000Y-34481500D01*
X105159000Y-36546000D01*
X107223500Y-36546000D01*
X107413000Y-36356500D01*
X107416668Y-35050000D01*
X107402033Y-34901406D01*
X107358689Y-34758522D01*
X107288304Y-34626840D01*
X107193581Y-34511419D01*
X107078160Y-34416696D01*
X106946478Y-34346311D01*
X106803594Y-34302967D01*
X106655000Y-34288332D01*
X105348500Y-34292000D01*
X105159000Y-34481500D01*
X105151000Y-34481500D01*
X104961500Y-34292000D01*
X103655000Y-34288332D01*
X103506406Y-34302967D01*
X103363522Y-34346311D01*
X103231840Y-34416696D01*
X103116419Y-34511419D01*
X103021696Y-34626840D01*
X102951311Y-34758522D01*
X102907967Y-34901406D01*
X102893332Y-35050000D01*
X101768294Y-35050000D01*
X101514391Y-34796097D01*
X101144564Y-34548987D01*
X100733634Y-34378774D01*
X100297394Y-34292000D01*
X99852606Y-34292000D01*
X99416366Y-34378774D01*
X99005436Y-34548987D01*
X98635609Y-34796097D01*
X98321097Y-35110609D01*
X98073987Y-35480436D01*
X97903774Y-35891366D01*
X97817000Y-36327606D01*
X96873154Y-36327606D01*
X96876668Y-35076000D01*
X96862033Y-34927406D01*
X96818689Y-34784522D01*
X96748304Y-34652840D01*
X96653581Y-34537419D01*
X96538160Y-34442696D01*
X96406478Y-34372311D01*
X96263594Y-34328967D01*
X96115000Y-34314332D01*
X94808500Y-34318000D01*
X94619000Y-34507500D01*
X94611000Y-34507500D01*
X94421500Y-34318000D01*
X93115000Y-34314332D01*
X92966406Y-34328967D01*
X92823522Y-34372311D01*
X92691840Y-34442696D01*
X92576419Y-34537419D01*
X92481696Y-34652840D01*
X92411311Y-34784522D01*
X92367967Y-34927406D01*
X92353332Y-35076000D01*
X91228294Y-35076000D01*
X90974391Y-34822097D01*
X90604564Y-34574987D01*
X90193634Y-34404774D01*
X89757394Y-34318000D01*
X89312606Y-34318000D01*
X88876366Y-34404774D01*
X88465436Y-34574987D01*
X88095609Y-34822097D01*
X87781097Y-35136609D01*
X87533987Y-35506436D01*
X87363774Y-35917366D01*
X87277000Y-36353606D01*
X87277000Y-36798394D01*
X87363774Y-37234634D01*
X87533987Y-37645564D01*
X87781097Y-38015391D01*
X87977000Y-38211294D01*
X87977001Y-42253559D01*
X87970260Y-42322000D01*
X87997156Y-42595075D01*
X88076810Y-42857657D01*
X88206159Y-43099653D01*
X88223295Y-43120533D01*
X88380235Y-43311766D01*
X88433395Y-43355393D01*
X88501608Y-43423606D01*
X88545235Y-43476766D01*
X88598394Y-43520393D01*
X89940000Y-44861999D01*
X89940000Y-45097771D01*
X90017166Y-45485712D01*
X90168533Y-45851145D01*
X90388284Y-46180025D01*
X90555000Y-46346741D01*
X90555000Y-47308166D01*
X90502508Y-47244204D01*
X90502507Y-47244203D01*
X90467028Y-47200972D01*
X90423797Y-47165493D01*
X89346511Y-46088208D01*
X89311028Y-46044972D01*
X89138507Y-45903387D01*
X88941678Y-45798180D01*
X88728107Y-45733394D01*
X88561659Y-45717000D01*
X88561651Y-45717000D01*
X88506000Y-45711519D01*
X88450349Y-45717000D01*
X87555955Y-45717000D01*
X87457716Y-45569975D01*
X87178025Y-45290284D01*
X86849145Y-45070533D01*
X86483712Y-44919166D01*
X86095771Y-44842000D01*
X85700229Y-44842000D01*
X85312288Y-44919166D01*
X84946855Y-45070533D01*
X84617975Y-45290284D01*
X84338284Y-45569975D01*
X84118533Y-45898855D01*
X83967166Y-46264288D01*
X83890000Y-46652229D01*
X80783000Y-46652229D01*
X80783000Y-34058430D01*
X80786988Y-34078479D01*
X80994892Y-34580403D01*
X81296721Y-35032123D01*
X81680877Y-35416279D01*
X82132597Y-35718108D01*
X82634521Y-35926012D01*
X83167361Y-36032000D01*
X83710639Y-36032000D01*
X84243479Y-35926012D01*
X84745403Y-35718108D01*
X85197123Y-35416279D01*
X85581279Y-35032123D01*
X85883108Y-34580403D01*
X86091012Y-34078479D01*
X86197000Y-33545639D01*
X86197000Y-33002361D01*
X86091012Y-32469521D01*
X85883108Y-31967597D01*
X85581279Y-31515877D01*
X85197123Y-31131721D01*
X84745403Y-30829892D01*
X84632196Y-30783000D01*
X147526714Y-30783000D01*
X147476501Y-30904224D01*
G36*
X160507001Y-79217000D02*
G01*
X152673800Y-79217000D01*
X152800855Y-79112199D01*
X153000224Y-78868031D01*
X153148128Y-78589660D01*
X153238882Y-78287783D01*
X153248572Y-78233497D01*
X153079494Y-77982000D01*
X151515000Y-77982000D01*
X151515000Y-78002000D01*
X151507000Y-78002000D01*
X151507000Y-77982000D01*
X149942506Y-77982000D01*
X149773428Y-78233497D01*
X149783118Y-78287783D01*
X149873872Y-78589660D01*
X150021776Y-78868031D01*
X150221145Y-79112199D01*
X150348200Y-79217000D01*
X146173800Y-79217000D01*
X146300855Y-79112199D01*
X146500224Y-78868031D01*
X146648128Y-78589660D01*
X146738882Y-78287783D01*
X146748572Y-78233497D01*
X146579494Y-77982000D01*
X145015000Y-77982000D01*
X145015000Y-78002000D01*
X145007000Y-78002000D01*
X145007000Y-77982000D01*
X144987000Y-77982000D01*
X144987000Y-77974000D01*
X145007000Y-77974000D01*
X145007000Y-76370000D01*
X145015000Y-76370000D01*
X145015000Y-77974000D01*
X146579494Y-77974000D01*
X146748572Y-77722503D01*
X149773428Y-77722503D01*
X149942506Y-77974000D01*
X151507000Y-77974000D01*
X151507000Y-76370000D01*
X151515000Y-76370000D01*
X151515000Y-77974000D01*
X153079494Y-77974000D01*
X153248572Y-77722503D01*
X153238882Y-77668217D01*
X153148128Y-77366340D01*
X153000224Y-77087969D01*
X152800855Y-76843801D01*
X152557682Y-76643220D01*
X152280050Y-76493933D01*
X151978628Y-76401678D01*
X151665000Y-76370000D01*
X151515000Y-76370000D01*
X151507000Y-76370000D01*
X151357000Y-76370000D01*
X151043372Y-76401678D01*
X150741950Y-76493933D01*
X150464318Y-76643220D01*
X150221145Y-76843801D01*
X150021776Y-77087969D01*
X149873872Y-77366340D01*
X149783118Y-77668217D01*
X149773428Y-77722503D01*
X146748572Y-77722503D01*
X146738882Y-77668217D01*
X146648128Y-77366340D01*
X146500224Y-77087969D01*
X146300855Y-76843801D01*
X146057682Y-76643220D01*
X145780050Y-76493933D01*
X145478628Y-76401678D01*
X145165000Y-76370000D01*
X145015000Y-76370000D01*
X145007000Y-76370000D01*
X144857000Y-76370000D01*
X144543372Y-76401678D01*
X144241950Y-76493933D01*
X143964318Y-76643220D01*
X143756000Y-76815051D01*
X143756000Y-76182361D01*
X153579000Y-76182361D01*
X153579000Y-76725639D01*
X153684988Y-77258479D01*
X153892892Y-77760403D01*
X154194721Y-78212123D01*
X154578877Y-78596279D01*
X155030597Y-78898108D01*
X155532521Y-79106012D01*
X156065361Y-79212000D01*
X156608639Y-79212000D01*
X157141479Y-79106012D01*
X157643403Y-78898108D01*
X158095123Y-78596279D01*
X158479279Y-78212123D01*
X158781108Y-77760403D01*
X158989012Y-77258479D01*
X159095000Y-76725639D01*
X159095000Y-76182361D01*
X158989012Y-75649521D01*
X158781108Y-75147597D01*
X158479279Y-74695877D01*
X158095123Y-74311721D01*
X157643403Y-74009892D01*
X157141479Y-73801988D01*
X156608639Y-73696000D01*
X156065361Y-73696000D01*
X155532521Y-73801988D01*
X155030597Y-74009892D01*
X154578877Y-74311721D01*
X154194721Y-74695877D01*
X153892892Y-75147597D01*
X153684988Y-75649521D01*
X153579000Y-76182361D01*
X143756000Y-76182361D01*
X143756000Y-74651328D01*
X143963321Y-74821472D01*
X144242668Y-74970786D01*
X144545777Y-75062733D01*
X144782009Y-75086000D01*
X145239991Y-75086000D01*
X145476223Y-75062733D01*
X145779332Y-74970786D01*
X146058679Y-74821472D01*
X146303529Y-74620529D01*
X146504472Y-74375679D01*
X146653786Y-74096332D01*
X146745733Y-73793223D01*
X146776780Y-73478000D01*
X146745733Y-73162777D01*
X146653786Y-72859668D01*
X146504472Y-72580321D01*
X146303529Y-72335471D01*
X146058679Y-72134528D01*
X145779332Y-71985214D01*
X145476223Y-71893267D01*
X145239991Y-71870000D01*
X144782009Y-71870000D01*
X144545777Y-71893267D01*
X144242668Y-71985214D01*
X143963321Y-72134528D01*
X143718471Y-72335471D01*
X143710655Y-72344995D01*
X143683776Y-72256389D01*
X143597769Y-72095481D01*
X143590176Y-72081275D01*
X143495777Y-71966250D01*
X143495776Y-71966249D01*
X143464212Y-71927788D01*
X143425751Y-71896224D01*
X141882000Y-70352473D01*
X141882000Y-70127676D01*
X142074016Y-70285261D01*
X142322961Y-70418325D01*
X142593083Y-70500265D01*
X142803608Y-70521000D01*
X142944392Y-70521000D01*
X143154917Y-70500265D01*
X143425039Y-70418325D01*
X143673984Y-70285261D01*
X143874000Y-70121111D01*
X144074016Y-70285261D01*
X144322961Y-70418325D01*
X144593083Y-70500265D01*
X144803608Y-70521000D01*
X144944392Y-70521000D01*
X145154917Y-70500265D01*
X145425039Y-70418325D01*
X145673984Y-70285261D01*
X145874000Y-70121111D01*
X146074016Y-70285261D01*
X146322961Y-70418325D01*
X146593083Y-70500265D01*
X146803608Y-70521000D01*
X146944392Y-70521000D01*
X147154917Y-70500265D01*
X147425039Y-70418325D01*
X147673984Y-70285261D01*
X147874000Y-70121111D01*
X148074016Y-70285261D01*
X148322961Y-70418325D01*
X148593083Y-70500265D01*
X148803608Y-70521000D01*
X148944392Y-70521000D01*
X149154917Y-70500265D01*
X149425039Y-70418325D01*
X149655247Y-70295276D01*
X149660420Y-70301580D01*
X149775840Y-70396303D01*
X149866001Y-70444495D01*
X149866000Y-72410493D01*
X149861124Y-72460000D01*
X149866000Y-72509507D01*
X149866000Y-72509517D01*
X149880585Y-72657602D01*
X149915210Y-72771744D01*
X149868214Y-72859668D01*
X149776267Y-73162777D01*
X149745220Y-73478000D01*
X149776267Y-73793223D01*
X149868214Y-74096332D01*
X150017528Y-74375679D01*
X150218471Y-74620529D01*
X150463321Y-74821472D01*
X150742668Y-74970786D01*
X151045777Y-75062733D01*
X151282009Y-75086000D01*
X151739991Y-75086000D01*
X151976223Y-75062733D01*
X152279332Y-74970786D01*
X152558679Y-74821472D01*
X152803529Y-74620529D01*
X153004472Y-74375679D01*
X153153786Y-74096332D01*
X153245733Y-73793223D01*
X153276780Y-73478000D01*
X153245733Y-73162777D01*
X153153786Y-72859668D01*
X153004472Y-72580321D01*
X152803529Y-72335471D01*
X152558679Y-72134528D01*
X152279332Y-71985214D01*
X151976223Y-71893267D01*
X151882000Y-71883987D01*
X151882000Y-70444495D01*
X151972160Y-70396303D01*
X152087580Y-70301580D01*
X152182303Y-70186160D01*
X152252689Y-70054477D01*
X152296032Y-69911594D01*
X152310667Y-69763000D01*
X152310667Y-68849000D01*
X152514053Y-68849000D01*
X152737776Y-68804499D01*
X152948519Y-68717206D01*
X153138182Y-68590477D01*
X153299477Y-68429182D01*
X153426206Y-68239519D01*
X153513499Y-68028776D01*
X153558000Y-67805053D01*
X153558000Y-67576947D01*
X153513499Y-67353224D01*
X153426206Y-67142481D01*
X153408000Y-67115234D01*
X153408000Y-65674000D01*
X153530053Y-65674000D01*
X153678000Y-65644572D01*
X153678000Y-70290234D01*
X153659794Y-70317481D01*
X153572501Y-70528224D01*
X153528000Y-70751947D01*
X153528000Y-70980053D01*
X153572501Y-71203776D01*
X153659794Y-71414519D01*
X153786523Y-71604182D01*
X153947818Y-71765477D01*
X154137481Y-71892206D01*
X154348224Y-71979499D01*
X154568971Y-72023408D01*
X154544000Y-72148947D01*
X154544000Y-72377053D01*
X154588501Y-72600776D01*
X154675794Y-72811519D01*
X154802523Y-73001182D01*
X154963818Y-73162477D01*
X155153481Y-73289206D01*
X155364224Y-73376499D01*
X155587947Y-73421000D01*
X155816053Y-73421000D01*
X156039776Y-73376499D01*
X156250519Y-73289206D01*
X156440182Y-73162477D01*
X156601477Y-73001182D01*
X156728206Y-72811519D01*
X156815499Y-72600776D01*
X156860000Y-72377053D01*
X156860000Y-72148947D01*
X156815499Y-71925224D01*
X156728206Y-71714481D01*
X156710000Y-71687234D01*
X156710000Y-61535766D01*
X156728206Y-61508519D01*
X156815499Y-61297776D01*
X156860000Y-61074053D01*
X156860000Y-60845947D01*
X156815499Y-60622224D01*
X156728206Y-60411481D01*
X156601477Y-60221818D01*
X156440182Y-60060523D01*
X156250519Y-59933794D01*
X156039776Y-59846501D01*
X155816053Y-59802000D01*
X155694000Y-59802000D01*
X155694000Y-54677766D01*
X155712206Y-54650519D01*
X155799499Y-54439776D01*
X155844000Y-54216053D01*
X155844000Y-53987947D01*
X155799499Y-53764224D01*
X155712206Y-53553481D01*
X155585477Y-53363818D01*
X155424182Y-53202523D01*
X155234519Y-53075794D01*
X155023776Y-52988501D01*
X154800053Y-52944000D01*
X154571947Y-52944000D01*
X154424000Y-52973428D01*
X154424000Y-35794402D01*
X154807877Y-36178279D01*
X155259597Y-36480108D01*
X155761521Y-36688012D01*
X156294361Y-36794000D01*
X156837639Y-36794000D01*
X157370479Y-36688012D01*
X157872403Y-36480108D01*
X158324123Y-36178279D01*
X158708279Y-35794123D01*
X159010108Y-35342403D01*
X159218012Y-34840479D01*
X159324000Y-34307639D01*
X159324000Y-33764361D01*
X159218012Y-33231521D01*
X159010108Y-32729597D01*
X158708279Y-32277877D01*
X158324123Y-31893721D01*
X157872403Y-31591892D01*
X157370479Y-31383988D01*
X156837639Y-31278000D01*
X156294361Y-31278000D01*
X155761521Y-31383988D01*
X155259597Y-31591892D01*
X154807877Y-31893721D01*
X154423721Y-32277877D01*
X154121892Y-32729597D01*
X153913988Y-33231521D01*
X153808000Y-33764361D01*
X153808000Y-34307639D01*
X153862337Y-34580810D01*
X153401776Y-34120249D01*
X153370212Y-34081788D01*
X153328458Y-34047521D01*
X153216724Y-33955824D01*
X153163681Y-33927472D01*
X153041611Y-33862224D01*
X153025237Y-33857257D01*
X153184529Y-33726529D01*
X153385472Y-33481679D01*
X153534786Y-33202332D01*
X153626733Y-32899223D01*
X153657780Y-32584000D01*
X153626733Y-32268777D01*
X153534786Y-31965668D01*
X153385472Y-31686321D01*
X153184529Y-31441471D01*
X152939679Y-31240528D01*
X152660332Y-31091214D01*
X152357223Y-30999267D01*
X152120991Y-30976000D01*
X151663009Y-30976000D01*
X151426777Y-30999267D01*
X151123668Y-31091214D01*
X150844321Y-31240528D01*
X150599471Y-31441471D01*
X150398528Y-31686321D01*
X150249214Y-31965668D01*
X150157267Y-32268777D01*
X150126220Y-32584000D01*
X150157267Y-32899223D01*
X150249214Y-33202332D01*
X150398528Y-33481679D01*
X150599471Y-33726529D01*
X150676811Y-33790000D01*
X150023528Y-33790000D01*
X149598000Y-33364473D01*
X149598000Y-31817766D01*
X149616206Y-31790519D01*
X149703499Y-31579776D01*
X149748000Y-31356053D01*
X149748000Y-31127947D01*
X149703499Y-30904224D01*
X149653286Y-30783000D01*
X160507000Y-30783000D01*
X160507001Y-79217000D01*
X160507001Y-79217000D01*
G37*
X160507001Y-79217000D02*
X152673800Y-79217000D01*
X152800855Y-79112199D01*
X153000224Y-78868031D01*
X153148128Y-78589660D01*
X153238882Y-78287783D01*
X153248572Y-78233497D01*
X153079494Y-77982000D01*
X151515000Y-77982000D01*
X151515000Y-78002000D01*
X151507000Y-78002000D01*
X151507000Y-77982000D01*
X149942506Y-77982000D01*
X149773428Y-78233497D01*
X149783118Y-78287783D01*
X149873872Y-78589660D01*
X150021776Y-78868031D01*
X150221145Y-79112199D01*
X150348200Y-79217000D01*
X146173800Y-79217000D01*
X146300855Y-79112199D01*
X146500224Y-78868031D01*
X146648128Y-78589660D01*
X146738882Y-78287783D01*
X146748572Y-78233497D01*
X146579494Y-77982000D01*
X145015000Y-77982000D01*
X145015000Y-78002000D01*
X145007000Y-78002000D01*
X145007000Y-77982000D01*
X144987000Y-77982000D01*
X144987000Y-77974000D01*
X145007000Y-77974000D01*
X145007000Y-76370000D01*
X145015000Y-76370000D01*
X145015000Y-77974000D01*
X146579494Y-77974000D01*
X146748572Y-77722503D01*
X149773428Y-77722503D01*
X149942506Y-77974000D01*
X151507000Y-77974000D01*
X151507000Y-76370000D01*
X151515000Y-76370000D01*
X151515000Y-77974000D01*
X153079494Y-77974000D01*
X153248572Y-77722503D01*
X153238882Y-77668217D01*
X153148128Y-77366340D01*
X153000224Y-77087969D01*
X152800855Y-76843801D01*
X152557682Y-76643220D01*
X152280050Y-76493933D01*
X151978628Y-76401678D01*
X151665000Y-76370000D01*
X151515000Y-76370000D01*
X151507000Y-76370000D01*
X151357000Y-76370000D01*
X151043372Y-76401678D01*
X150741950Y-76493933D01*
X150464318Y-76643220D01*
X150221145Y-76843801D01*
X150021776Y-77087969D01*
X149873872Y-77366340D01*
X149783118Y-77668217D01*
X149773428Y-77722503D01*
X146748572Y-77722503D01*
X146738882Y-77668217D01*
X146648128Y-77366340D01*
X146500224Y-77087969D01*
X146300855Y-76843801D01*
X146057682Y-76643220D01*
X145780050Y-76493933D01*
X145478628Y-76401678D01*
X145165000Y-76370000D01*
X145015000Y-76370000D01*
X145007000Y-76370000D01*
X144857000Y-76370000D01*
X144543372Y-76401678D01*
X144241950Y-76493933D01*
X143964318Y-76643220D01*
X143756000Y-76815051D01*
X143756000Y-76182361D01*
X153579000Y-76182361D01*
X153579000Y-76725639D01*
X153684988Y-77258479D01*
X153892892Y-77760403D01*
X154194721Y-78212123D01*
X154578877Y-78596279D01*
X155030597Y-78898108D01*
X155532521Y-79106012D01*
X156065361Y-79212000D01*
X156608639Y-79212000D01*
X157141479Y-79106012D01*
X157643403Y-78898108D01*
X158095123Y-78596279D01*
X158479279Y-78212123D01*
X158781108Y-77760403D01*
X158989012Y-77258479D01*
X159095000Y-76725639D01*
X159095000Y-76182361D01*
X158989012Y-75649521D01*
X158781108Y-75147597D01*
X158479279Y-74695877D01*
X158095123Y-74311721D01*
X157643403Y-74009892D01*
X157141479Y-73801988D01*
X156608639Y-73696000D01*
X156065361Y-73696000D01*
X155532521Y-73801988D01*
X155030597Y-74009892D01*
X154578877Y-74311721D01*
X154194721Y-74695877D01*
X153892892Y-75147597D01*
X153684988Y-75649521D01*
X153579000Y-76182361D01*
X143756000Y-76182361D01*
X143756000Y-74651328D01*
X143963321Y-74821472D01*
X144242668Y-74970786D01*
X144545777Y-75062733D01*
X144782009Y-75086000D01*
X145239991Y-75086000D01*
X145476223Y-75062733D01*
X145779332Y-74970786D01*
X146058679Y-74821472D01*
X146303529Y-74620529D01*
X146504472Y-74375679D01*
X146653786Y-74096332D01*
X146745733Y-73793223D01*
X146776780Y-73478000D01*
X146745733Y-73162777D01*
X146653786Y-72859668D01*
X146504472Y-72580321D01*
X146303529Y-72335471D01*
X146058679Y-72134528D01*
X145779332Y-71985214D01*
X145476223Y-71893267D01*
X145239991Y-71870000D01*
X144782009Y-71870000D01*
X144545777Y-71893267D01*
X144242668Y-71985214D01*
X143963321Y-72134528D01*
X143718471Y-72335471D01*
X143710655Y-72344995D01*
X143683776Y-72256389D01*
X143597769Y-72095481D01*
X143590176Y-72081275D01*
X143495777Y-71966250D01*
X143495776Y-71966249D01*
X143464212Y-71927788D01*
X143425751Y-71896224D01*
X141882000Y-70352473D01*
X141882000Y-70127676D01*
X142074016Y-70285261D01*
X142322961Y-70418325D01*
X142593083Y-70500265D01*
X142803608Y-70521000D01*
X142944392Y-70521000D01*
X143154917Y-70500265D01*
X143425039Y-70418325D01*
X143673984Y-70285261D01*
X143874000Y-70121111D01*
X144074016Y-70285261D01*
X144322961Y-70418325D01*
X144593083Y-70500265D01*
X144803608Y-70521000D01*
X144944392Y-70521000D01*
X145154917Y-70500265D01*
X145425039Y-70418325D01*
X145673984Y-70285261D01*
X145874000Y-70121111D01*
X146074016Y-70285261D01*
X146322961Y-70418325D01*
X146593083Y-70500265D01*
X146803608Y-70521000D01*
X146944392Y-70521000D01*
X147154917Y-70500265D01*
X147425039Y-70418325D01*
X147673984Y-70285261D01*
X147874000Y-70121111D01*
X148074016Y-70285261D01*
X148322961Y-70418325D01*
X148593083Y-70500265D01*
X148803608Y-70521000D01*
X148944392Y-70521000D01*
X149154917Y-70500265D01*
X149425039Y-70418325D01*
X149655247Y-70295276D01*
X149660420Y-70301580D01*
X149775840Y-70396303D01*
X149866001Y-70444495D01*
X149866000Y-72410493D01*
X149861124Y-72460000D01*
X149866000Y-72509507D01*
X149866000Y-72509517D01*
X149880585Y-72657602D01*
X149915210Y-72771744D01*
X149868214Y-72859668D01*
X149776267Y-73162777D01*
X149745220Y-73478000D01*
X149776267Y-73793223D01*
X149868214Y-74096332D01*
X150017528Y-74375679D01*
X150218471Y-74620529D01*
X150463321Y-74821472D01*
X150742668Y-74970786D01*
X151045777Y-75062733D01*
X151282009Y-75086000D01*
X151739991Y-75086000D01*
X151976223Y-75062733D01*
X152279332Y-74970786D01*
X152558679Y-74821472D01*
X152803529Y-74620529D01*
X153004472Y-74375679D01*
X153153786Y-74096332D01*
X153245733Y-73793223D01*
X153276780Y-73478000D01*
X153245733Y-73162777D01*
X153153786Y-72859668D01*
X153004472Y-72580321D01*
X152803529Y-72335471D01*
X152558679Y-72134528D01*
X152279332Y-71985214D01*
X151976223Y-71893267D01*
X151882000Y-71883987D01*
X151882000Y-70444495D01*
X151972160Y-70396303D01*
X152087580Y-70301580D01*
X152182303Y-70186160D01*
X152252689Y-70054477D01*
X152296032Y-69911594D01*
X152310667Y-69763000D01*
X152310667Y-68849000D01*
X152514053Y-68849000D01*
X152737776Y-68804499D01*
X152948519Y-68717206D01*
X153138182Y-68590477D01*
X153299477Y-68429182D01*
X153426206Y-68239519D01*
X153513499Y-68028776D01*
X153558000Y-67805053D01*
X153558000Y-67576947D01*
X153513499Y-67353224D01*
X153426206Y-67142481D01*
X153408000Y-67115234D01*
X153408000Y-65674000D01*
X153530053Y-65674000D01*
X153678000Y-65644572D01*
X153678000Y-70290234D01*
X153659794Y-70317481D01*
X153572501Y-70528224D01*
X153528000Y-70751947D01*
X153528000Y-70980053D01*
X153572501Y-71203776D01*
X153659794Y-71414519D01*
X153786523Y-71604182D01*
X153947818Y-71765477D01*
X154137481Y-71892206D01*
X154348224Y-71979499D01*
X154568971Y-72023408D01*
X154544000Y-72148947D01*
X154544000Y-72377053D01*
X154588501Y-72600776D01*
X154675794Y-72811519D01*
X154802523Y-73001182D01*
X154963818Y-73162477D01*
X155153481Y-73289206D01*
X155364224Y-73376499D01*
X155587947Y-73421000D01*
X155816053Y-73421000D01*
X156039776Y-73376499D01*
X156250519Y-73289206D01*
X156440182Y-73162477D01*
X156601477Y-73001182D01*
X156728206Y-72811519D01*
X156815499Y-72600776D01*
X156860000Y-72377053D01*
X156860000Y-72148947D01*
X156815499Y-71925224D01*
X156728206Y-71714481D01*
X156710000Y-71687234D01*
X156710000Y-61535766D01*
X156728206Y-61508519D01*
X156815499Y-61297776D01*
X156860000Y-61074053D01*
X156860000Y-60845947D01*
X156815499Y-60622224D01*
X156728206Y-60411481D01*
X156601477Y-60221818D01*
X156440182Y-60060523D01*
X156250519Y-59933794D01*
X156039776Y-59846501D01*
X155816053Y-59802000D01*
X155694000Y-59802000D01*
X155694000Y-54677766D01*
X155712206Y-54650519D01*
X155799499Y-54439776D01*
X155844000Y-54216053D01*
X155844000Y-53987947D01*
X155799499Y-53764224D01*
X155712206Y-53553481D01*
X155585477Y-53363818D01*
X155424182Y-53202523D01*
X155234519Y-53075794D01*
X155023776Y-52988501D01*
X154800053Y-52944000D01*
X154571947Y-52944000D01*
X154424000Y-52973428D01*
X154424000Y-35794402D01*
X154807877Y-36178279D01*
X155259597Y-36480108D01*
X155761521Y-36688012D01*
X156294361Y-36794000D01*
X156837639Y-36794000D01*
X157370479Y-36688012D01*
X157872403Y-36480108D01*
X158324123Y-36178279D01*
X158708279Y-35794123D01*
X159010108Y-35342403D01*
X159218012Y-34840479D01*
X159324000Y-34307639D01*
X159324000Y-33764361D01*
X159218012Y-33231521D01*
X159010108Y-32729597D01*
X158708279Y-32277877D01*
X158324123Y-31893721D01*
X157872403Y-31591892D01*
X157370479Y-31383988D01*
X156837639Y-31278000D01*
X156294361Y-31278000D01*
X155761521Y-31383988D01*
X155259597Y-31591892D01*
X154807877Y-31893721D01*
X154423721Y-32277877D01*
X154121892Y-32729597D01*
X153913988Y-33231521D01*
X153808000Y-33764361D01*
X153808000Y-34307639D01*
X153862337Y-34580810D01*
X153401776Y-34120249D01*
X153370212Y-34081788D01*
X153328458Y-34047521D01*
X153216724Y-33955824D01*
X153163681Y-33927472D01*
X153041611Y-33862224D01*
X153025237Y-33857257D01*
X153184529Y-33726529D01*
X153385472Y-33481679D01*
X153534786Y-33202332D01*
X153626733Y-32899223D01*
X153657780Y-32584000D01*
X153626733Y-32268777D01*
X153534786Y-31965668D01*
X153385472Y-31686321D01*
X153184529Y-31441471D01*
X152939679Y-31240528D01*
X152660332Y-31091214D01*
X152357223Y-30999267D01*
X152120991Y-30976000D01*
X151663009Y-30976000D01*
X151426777Y-30999267D01*
X151123668Y-31091214D01*
X150844321Y-31240528D01*
X150599471Y-31441471D01*
X150398528Y-31686321D01*
X150249214Y-31965668D01*
X150157267Y-32268777D01*
X150126220Y-32584000D01*
X150157267Y-32899223D01*
X150249214Y-33202332D01*
X150398528Y-33481679D01*
X150599471Y-33726529D01*
X150676811Y-33790000D01*
X150023528Y-33790000D01*
X149598000Y-33364473D01*
X149598000Y-31817766D01*
X149616206Y-31790519D01*
X149703499Y-31579776D01*
X149748000Y-31356053D01*
X149748000Y-31127947D01*
X149703499Y-30904224D01*
X149653286Y-30783000D01*
X160507000Y-30783000D01*
X160507001Y-79217000D01*
G36*
X130515481Y-41920206D02*
G01*
X130726224Y-42007499D01*
X130949947Y-42052000D01*
X131178053Y-42052000D01*
X131401776Y-42007499D01*
X131553853Y-41944506D01*
X131656261Y-42154149D01*
X131826435Y-42377656D01*
X132036943Y-42563669D01*
X132279696Y-42705040D01*
X132485015Y-42775597D01*
X132325809Y-42817606D01*
X132067743Y-42943648D01*
X131978741Y-43003119D01*
X131937519Y-43285942D01*
X132836640Y-44185063D01*
X132850782Y-44170921D01*
X132856439Y-44176578D01*
X132842297Y-44190720D01*
X132856439Y-44204862D01*
X132850782Y-44210519D01*
X132836640Y-44196377D01*
X131937519Y-45095498D01*
X131978741Y-45378321D01*
X132226915Y-45522870D01*
X132498520Y-45616225D01*
X132783118Y-45654798D01*
X133069774Y-45637108D01*
X133347471Y-45563834D01*
X133605537Y-45437792D01*
X133694539Y-45378321D01*
X133728603Y-45144607D01*
X133907219Y-45323223D01*
X134146018Y-45482783D01*
X134411357Y-45592690D01*
X134693039Y-45648720D01*
X134980241Y-45648720D01*
X135261923Y-45592690D01*
X135527262Y-45482783D01*
X135766061Y-45323223D01*
X135836640Y-45252644D01*
X135907219Y-45323223D01*
X136146018Y-45482783D01*
X136411357Y-45592690D01*
X136693039Y-45648720D01*
X136980241Y-45648720D01*
X137261923Y-45592690D01*
X137527262Y-45482783D01*
X137766061Y-45323223D01*
X137836640Y-45252644D01*
X137907219Y-45323223D01*
X138146018Y-45482783D01*
X138411357Y-45592690D01*
X138693039Y-45648720D01*
X138980241Y-45648720D01*
X139261923Y-45592690D01*
X139527262Y-45482783D01*
X139766061Y-45323223D01*
X139831372Y-45257912D01*
X139843226Y-45378272D01*
X139875818Y-45485712D01*
X139900865Y-45568280D01*
X139994464Y-45743393D01*
X140088862Y-45858418D01*
X140088869Y-45858425D01*
X140120429Y-45896881D01*
X140158885Y-45928441D01*
X141009195Y-46778751D01*
X141040759Y-46817212D01*
X141079220Y-46848776D01*
X141079222Y-46848778D01*
X141194247Y-46943177D01*
X141365637Y-47034786D01*
X141369360Y-47036776D01*
X141559368Y-47094415D01*
X141707453Y-47109000D01*
X141707456Y-47109000D01*
X141740000Y-47112205D01*
X141740001Y-53742342D01*
X141708182Y-53710523D01*
X141518519Y-53583794D01*
X141307776Y-53496501D01*
X141084053Y-53452000D01*
X140855947Y-53452000D01*
X140632224Y-53496501D01*
X140421481Y-53583794D01*
X140394234Y-53602000D01*
X140003504Y-53602000D01*
X139953999Y-53597124D01*
X139904494Y-53602000D01*
X139904482Y-53602000D01*
X139756397Y-53616585D01*
X139566389Y-53674224D01*
X139491246Y-53714389D01*
X139391275Y-53767824D01*
X139293581Y-53848000D01*
X139237788Y-53893788D01*
X139206224Y-53932249D01*
X138168000Y-54970473D01*
X138168000Y-53389515D01*
X138172877Y-53340000D01*
X138164579Y-53255749D01*
X138153415Y-53142397D01*
X138095776Y-52952389D01*
X138091292Y-52944000D01*
X138002177Y-52777276D01*
X137907778Y-52662251D01*
X137907776Y-52662249D01*
X137876212Y-52623788D01*
X137837751Y-52592224D01*
X136803774Y-51558247D01*
X136772210Y-51519786D01*
X136718271Y-51475519D01*
X136618722Y-51393822D01*
X136590247Y-51378602D01*
X136443609Y-51300222D01*
X136253601Y-51242583D01*
X136105516Y-51227998D01*
X136105505Y-51227998D01*
X136055998Y-51223122D01*
X136006491Y-51227998D01*
X135277504Y-51227998D01*
X135227997Y-51223122D01*
X135178490Y-51227998D01*
X135178480Y-51227998D01*
X135030395Y-51242583D01*
X134840387Y-51300222D01*
X134770643Y-51337501D01*
X134665273Y-51393822D01*
X134550249Y-51488220D01*
X134511786Y-51519786D01*
X134480222Y-51558247D01*
X134214469Y-51824000D01*
X129278000Y-51824000D01*
X129278000Y-49682158D01*
X129357523Y-49801172D01*
X129518818Y-49962467D01*
X129708481Y-50089196D01*
X129919224Y-50176489D01*
X130142947Y-50220990D01*
X130371053Y-50220990D01*
X130594776Y-50176489D01*
X130805519Y-50089196D01*
X130922000Y-50011366D01*
X130922000Y-50152053D01*
X130966501Y-50375776D01*
X131053794Y-50586519D01*
X131180523Y-50776182D01*
X131341818Y-50937477D01*
X131531481Y-51064206D01*
X131742224Y-51151499D01*
X131965947Y-51196000D01*
X132194053Y-51196000D01*
X132417776Y-51151499D01*
X132628519Y-51064206D01*
X132818182Y-50937477D01*
X132979477Y-50776182D01*
X133106206Y-50586519D01*
X133193499Y-50375776D01*
X133238000Y-50152053D01*
X133238000Y-49923947D01*
X133213000Y-49798263D01*
X133213000Y-48245759D01*
X133238000Y-48120075D01*
X133238000Y-47891969D01*
X133193499Y-47668246D01*
X133106206Y-47457503D01*
X132979477Y-47267840D01*
X132818182Y-47106545D01*
X132628519Y-46979816D01*
X132417776Y-46892523D01*
X132194053Y-46848022D01*
X131965947Y-46848022D01*
X131742224Y-46892523D01*
X131531481Y-46979816D01*
X131341818Y-47106545D01*
X131180523Y-47267840D01*
X131053794Y-47457503D01*
X130966501Y-47668246D01*
X130922000Y-47891969D01*
X130922000Y-48114614D01*
X130805519Y-48036784D01*
X130594776Y-47949491D01*
X130562635Y-47943098D01*
X130415001Y-47795464D01*
X130415001Y-44137198D01*
X131372562Y-44137198D01*
X131390252Y-44423854D01*
X131463526Y-44701551D01*
X131589568Y-44959617D01*
X131649039Y-45048619D01*
X131931862Y-45089841D01*
X132830983Y-44190720D01*
X131931862Y-43291599D01*
X131649039Y-43332821D01*
X131504490Y-43580995D01*
X131411135Y-43852600D01*
X131372562Y-44137198D01*
X130415001Y-44137198D01*
X130415001Y-41853067D01*
X130515481Y-41920206D01*
X130515481Y-41920206D01*
G37*
X130515481Y-41920206D02*
X130726224Y-42007499D01*
X130949947Y-42052000D01*
X131178053Y-42052000D01*
X131401776Y-42007499D01*
X131553853Y-41944506D01*
X131656261Y-42154149D01*
X131826435Y-42377656D01*
X132036943Y-42563669D01*
X132279696Y-42705040D01*
X132485015Y-42775597D01*
X132325809Y-42817606D01*
X132067743Y-42943648D01*
X131978741Y-43003119D01*
X131937519Y-43285942D01*
X132836640Y-44185063D01*
X132850782Y-44170921D01*
X132856439Y-44176578D01*
X132842297Y-44190720D01*
X132856439Y-44204862D01*
X132850782Y-44210519D01*
X132836640Y-44196377D01*
X131937519Y-45095498D01*
X131978741Y-45378321D01*
X132226915Y-45522870D01*
X132498520Y-45616225D01*
X132783118Y-45654798D01*
X133069774Y-45637108D01*
X133347471Y-45563834D01*
X133605537Y-45437792D01*
X133694539Y-45378321D01*
X133728603Y-45144607D01*
X133907219Y-45323223D01*
X134146018Y-45482783D01*
X134411357Y-45592690D01*
X134693039Y-45648720D01*
X134980241Y-45648720D01*
X135261923Y-45592690D01*
X135527262Y-45482783D01*
X135766061Y-45323223D01*
X135836640Y-45252644D01*
X135907219Y-45323223D01*
X136146018Y-45482783D01*
X136411357Y-45592690D01*
X136693039Y-45648720D01*
X136980241Y-45648720D01*
X137261923Y-45592690D01*
X137527262Y-45482783D01*
X137766061Y-45323223D01*
X137836640Y-45252644D01*
X137907219Y-45323223D01*
X138146018Y-45482783D01*
X138411357Y-45592690D01*
X138693039Y-45648720D01*
X138980241Y-45648720D01*
X139261923Y-45592690D01*
X139527262Y-45482783D01*
X139766061Y-45323223D01*
X139831372Y-45257912D01*
X139843226Y-45378272D01*
X139875818Y-45485712D01*
X139900865Y-45568280D01*
X139994464Y-45743393D01*
X140088862Y-45858418D01*
X140088869Y-45858425D01*
X140120429Y-45896881D01*
X140158885Y-45928441D01*
X141009195Y-46778751D01*
X141040759Y-46817212D01*
X141079220Y-46848776D01*
X141079222Y-46848778D01*
X141194247Y-46943177D01*
X141365637Y-47034786D01*
X141369360Y-47036776D01*
X141559368Y-47094415D01*
X141707453Y-47109000D01*
X141707456Y-47109000D01*
X141740000Y-47112205D01*
X141740001Y-53742342D01*
X141708182Y-53710523D01*
X141518519Y-53583794D01*
X141307776Y-53496501D01*
X141084053Y-53452000D01*
X140855947Y-53452000D01*
X140632224Y-53496501D01*
X140421481Y-53583794D01*
X140394234Y-53602000D01*
X140003504Y-53602000D01*
X139953999Y-53597124D01*
X139904494Y-53602000D01*
X139904482Y-53602000D01*
X139756397Y-53616585D01*
X139566389Y-53674224D01*
X139491246Y-53714389D01*
X139391275Y-53767824D01*
X139293581Y-53848000D01*
X139237788Y-53893788D01*
X139206224Y-53932249D01*
X138168000Y-54970473D01*
X138168000Y-53389515D01*
X138172877Y-53340000D01*
X138164579Y-53255749D01*
X138153415Y-53142397D01*
X138095776Y-52952389D01*
X138091292Y-52944000D01*
X138002177Y-52777276D01*
X137907778Y-52662251D01*
X137907776Y-52662249D01*
X137876212Y-52623788D01*
X137837751Y-52592224D01*
X136803774Y-51558247D01*
X136772210Y-51519786D01*
X136718271Y-51475519D01*
X136618722Y-51393822D01*
X136590247Y-51378602D01*
X136443609Y-51300222D01*
X136253601Y-51242583D01*
X136105516Y-51227998D01*
X136105505Y-51227998D01*
X136055998Y-51223122D01*
X136006491Y-51227998D01*
X135277504Y-51227998D01*
X135227997Y-51223122D01*
X135178490Y-51227998D01*
X135178480Y-51227998D01*
X135030395Y-51242583D01*
X134840387Y-51300222D01*
X134770643Y-51337501D01*
X134665273Y-51393822D01*
X134550249Y-51488220D01*
X134511786Y-51519786D01*
X134480222Y-51558247D01*
X134214469Y-51824000D01*
X129278000Y-51824000D01*
X129278000Y-49682158D01*
X129357523Y-49801172D01*
X129518818Y-49962467D01*
X129708481Y-50089196D01*
X129919224Y-50176489D01*
X130142947Y-50220990D01*
X130371053Y-50220990D01*
X130594776Y-50176489D01*
X130805519Y-50089196D01*
X130922000Y-50011366D01*
X130922000Y-50152053D01*
X130966501Y-50375776D01*
X131053794Y-50586519D01*
X131180523Y-50776182D01*
X131341818Y-50937477D01*
X131531481Y-51064206D01*
X131742224Y-51151499D01*
X131965947Y-51196000D01*
X132194053Y-51196000D01*
X132417776Y-51151499D01*
X132628519Y-51064206D01*
X132818182Y-50937477D01*
X132979477Y-50776182D01*
X133106206Y-50586519D01*
X133193499Y-50375776D01*
X133238000Y-50152053D01*
X133238000Y-49923947D01*
X133213000Y-49798263D01*
X133213000Y-48245759D01*
X133238000Y-48120075D01*
X133238000Y-47891969D01*
X133193499Y-47668246D01*
X133106206Y-47457503D01*
X132979477Y-47267840D01*
X132818182Y-47106545D01*
X132628519Y-46979816D01*
X132417776Y-46892523D01*
X132194053Y-46848022D01*
X131965947Y-46848022D01*
X131742224Y-46892523D01*
X131531481Y-46979816D01*
X131341818Y-47106545D01*
X131180523Y-47267840D01*
X131053794Y-47457503D01*
X130966501Y-47668246D01*
X130922000Y-47891969D01*
X130922000Y-48114614D01*
X130805519Y-48036784D01*
X130594776Y-47949491D01*
X130562635Y-47943098D01*
X130415001Y-47795464D01*
X130415001Y-44137198D01*
X131372562Y-44137198D01*
X131390252Y-44423854D01*
X131463526Y-44701551D01*
X131589568Y-44959617D01*
X131649039Y-45048619D01*
X131931862Y-45089841D01*
X132830983Y-44190720D01*
X131931862Y-43291599D01*
X131649039Y-43332821D01*
X131504490Y-43580995D01*
X131411135Y-43852600D01*
X131372562Y-44137198D01*
X130415001Y-44137198D01*
X130415001Y-41853067D01*
X130515481Y-41920206D01*
G36*
X146035000Y-34150053D02*
G01*
X146079501Y-34373776D01*
X146166794Y-34584519D01*
X146185001Y-34611767D01*
X146185001Y-35612812D01*
X146161050Y-35599933D01*
X145859628Y-35507678D01*
X145546000Y-35476000D01*
X145396000Y-35476000D01*
X145396000Y-37080000D01*
X145416000Y-37080000D01*
X145416000Y-37088000D01*
X145396000Y-37088000D01*
X145396000Y-38692000D01*
X145546000Y-38692000D01*
X145859628Y-38660322D01*
X146161050Y-38568067D01*
X146187308Y-38553948D01*
X146199585Y-38678602D01*
X146257224Y-38868610D01*
X146278165Y-38907788D01*
X146350824Y-39043724D01*
X146420765Y-39128947D01*
X146476788Y-39197212D01*
X146515249Y-39228776D01*
X147089108Y-39802635D01*
X147095501Y-39834776D01*
X147160086Y-39990696D01*
X147156917Y-39989735D01*
X146946392Y-39969000D01*
X146805608Y-39969000D01*
X146595083Y-39989735D01*
X146324961Y-40071675D01*
X146076016Y-40204739D01*
X145876000Y-40368889D01*
X145675984Y-40204739D01*
X145427039Y-40071675D01*
X145156917Y-39989735D01*
X144946392Y-39969000D01*
X144805608Y-39969000D01*
X144595083Y-39989735D01*
X144324961Y-40071675D01*
X144076016Y-40204739D01*
X143884000Y-40362324D01*
X143884000Y-37938693D01*
X143902776Y-37974031D01*
X144102145Y-38218199D01*
X144345318Y-38418780D01*
X144622950Y-38568067D01*
X144924372Y-38660322D01*
X145238000Y-38692000D01*
X145388000Y-38692000D01*
X145388000Y-37088000D01*
X145368000Y-37088000D01*
X145368000Y-37080000D01*
X145388000Y-37080000D01*
X145388000Y-35476000D01*
X145238000Y-35476000D01*
X144924372Y-35507678D01*
X144622950Y-35599933D01*
X144345318Y-35749220D01*
X144102145Y-35949801D01*
X143902776Y-36193969D01*
X143884000Y-36229307D01*
X143884000Y-35517527D01*
X145209527Y-34192000D01*
X145620991Y-34192000D01*
X145857223Y-34168733D01*
X146035000Y-34114805D01*
X146035000Y-34150053D01*
X146035000Y-34150053D01*
G37*
X146035000Y-34150053D02*
X146079501Y-34373776D01*
X146166794Y-34584519D01*
X146185001Y-34611767D01*
X146185001Y-35612812D01*
X146161050Y-35599933D01*
X145859628Y-35507678D01*
X145546000Y-35476000D01*
X145396000Y-35476000D01*
X145396000Y-37080000D01*
X145416000Y-37080000D01*
X145416000Y-37088000D01*
X145396000Y-37088000D01*
X145396000Y-38692000D01*
X145546000Y-38692000D01*
X145859628Y-38660322D01*
X146161050Y-38568067D01*
X146187308Y-38553948D01*
X146199585Y-38678602D01*
X146257224Y-38868610D01*
X146278165Y-38907788D01*
X146350824Y-39043724D01*
X146420765Y-39128947D01*
X146476788Y-39197212D01*
X146515249Y-39228776D01*
X147089108Y-39802635D01*
X147095501Y-39834776D01*
X147160086Y-39990696D01*
X147156917Y-39989735D01*
X146946392Y-39969000D01*
X146805608Y-39969000D01*
X146595083Y-39989735D01*
X146324961Y-40071675D01*
X146076016Y-40204739D01*
X145876000Y-40368889D01*
X145675984Y-40204739D01*
X145427039Y-40071675D01*
X145156917Y-39989735D01*
X144946392Y-39969000D01*
X144805608Y-39969000D01*
X144595083Y-39989735D01*
X144324961Y-40071675D01*
X144076016Y-40204739D01*
X143884000Y-40362324D01*
X143884000Y-37938693D01*
X143902776Y-37974031D01*
X144102145Y-38218199D01*
X144345318Y-38418780D01*
X144622950Y-38568067D01*
X144924372Y-38660322D01*
X145238000Y-38692000D01*
X145388000Y-38692000D01*
X145388000Y-37088000D01*
X145368000Y-37088000D01*
X145368000Y-37080000D01*
X145388000Y-37080000D01*
X145388000Y-35476000D01*
X145238000Y-35476000D01*
X144924372Y-35507678D01*
X144622950Y-35599933D01*
X144345318Y-35749220D01*
X144102145Y-35949801D01*
X143902776Y-36193969D01*
X143884000Y-36229307D01*
X143884000Y-35517527D01*
X145209527Y-34192000D01*
X145620991Y-34192000D01*
X145857223Y-34168733D01*
X146035000Y-34114805D01*
X146035000Y-34150053D01*
G36*
X115320000Y-35810000D02*
G01*
X115340000Y-35810000D01*
X115340000Y-35818000D01*
X115320000Y-35818000D01*
X115320000Y-37422000D01*
X115392311Y-37422000D01*
X115305794Y-37551481D01*
X115218501Y-37762224D01*
X115174000Y-37985947D01*
X115174000Y-38214053D01*
X115218501Y-38437776D01*
X115305794Y-38648519D01*
X115324001Y-38675767D01*
X115324000Y-40063021D01*
X115186931Y-40175511D01*
X115059460Y-40330835D01*
X114931989Y-40175511D01*
X114687138Y-39974568D01*
X114407791Y-39825254D01*
X114104682Y-39733307D01*
X113789460Y-39702260D01*
X113549794Y-39725865D01*
X113675477Y-39600182D01*
X113802206Y-39410519D01*
X113889499Y-39199776D01*
X113934000Y-38976053D01*
X113934000Y-38747947D01*
X113889499Y-38524224D01*
X113802206Y-38313481D01*
X113784000Y-38286234D01*
X113784000Y-37178681D01*
X113823679Y-37157472D01*
X114052345Y-36969810D01*
X114269318Y-37148780D01*
X114546950Y-37298067D01*
X114848372Y-37390322D01*
X115162000Y-37422000D01*
X115312000Y-37422000D01*
X115312000Y-35818000D01*
X115292000Y-35818000D01*
X115292000Y-35810000D01*
X115312000Y-35810000D01*
X115312000Y-35790000D01*
X115320000Y-35790000D01*
X115320000Y-35810000D01*
X115320000Y-35810000D01*
G37*
X115320000Y-35810000D02*
X115340000Y-35810000D01*
X115340000Y-35818000D01*
X115320000Y-35818000D01*
X115320000Y-37422000D01*
X115392311Y-37422000D01*
X115305794Y-37551481D01*
X115218501Y-37762224D01*
X115174000Y-37985947D01*
X115174000Y-38214053D01*
X115218501Y-38437776D01*
X115305794Y-38648519D01*
X115324001Y-38675767D01*
X115324000Y-40063021D01*
X115186931Y-40175511D01*
X115059460Y-40330835D01*
X114931989Y-40175511D01*
X114687138Y-39974568D01*
X114407791Y-39825254D01*
X114104682Y-39733307D01*
X113789460Y-39702260D01*
X113549794Y-39725865D01*
X113675477Y-39600182D01*
X113802206Y-39410519D01*
X113889499Y-39199776D01*
X113934000Y-38976053D01*
X113934000Y-38747947D01*
X113889499Y-38524224D01*
X113802206Y-38313481D01*
X113784000Y-38286234D01*
X113784000Y-37178681D01*
X113823679Y-37157472D01*
X114052345Y-36969810D01*
X114269318Y-37148780D01*
X114546950Y-37298067D01*
X114848372Y-37390322D01*
X115162000Y-37422000D01*
X115312000Y-37422000D01*
X115312000Y-35818000D01*
X115292000Y-35818000D01*
X115292000Y-35810000D01*
X115312000Y-35810000D01*
X115312000Y-35790000D01*
X115320000Y-35790000D01*
X115320000Y-35810000D01*
G36*
X148858228Y-35475756D02*
G01*
X148889788Y-35514212D01*
X148928244Y-35545772D01*
X148928250Y-35545778D01*
X149043275Y-35640176D01*
X149085460Y-35662724D01*
X149218389Y-35733776D01*
X149408397Y-35791415D01*
X149556482Y-35806000D01*
X149556493Y-35806000D01*
X149606000Y-35810876D01*
X149655507Y-35806000D01*
X150776481Y-35806000D01*
X150602145Y-35949801D01*
X150402776Y-36193969D01*
X150254872Y-36472340D01*
X150164118Y-36774217D01*
X150154428Y-36828503D01*
X150323506Y-37080000D01*
X151888000Y-37080000D01*
X151888000Y-37060000D01*
X151896000Y-37060000D01*
X151896000Y-37080000D01*
X151916000Y-37080000D01*
X151916000Y-37088000D01*
X151896000Y-37088000D01*
X151896000Y-37108000D01*
X151888000Y-37108000D01*
X151888000Y-37088000D01*
X150323506Y-37088000D01*
X150154428Y-37339497D01*
X150164118Y-37393783D01*
X150238512Y-37641241D01*
X150137818Y-37708523D01*
X149976523Y-37869818D01*
X149849794Y-38059481D01*
X149762501Y-38270224D01*
X149718000Y-38493947D01*
X149718000Y-38722053D01*
X149762501Y-38945776D01*
X149849794Y-39156519D01*
X149868000Y-39183767D01*
X149868000Y-40045505D01*
X149777840Y-40093697D01*
X149662420Y-40188420D01*
X149657247Y-40194724D01*
X149427039Y-40071675D01*
X149246994Y-40017059D01*
X149322499Y-39834776D01*
X149367000Y-39611053D01*
X149367000Y-39382947D01*
X149322499Y-39159224D01*
X149235206Y-38948481D01*
X149108477Y-38758818D01*
X148947182Y-38597523D01*
X148757519Y-38470794D01*
X148546776Y-38383501D01*
X148514635Y-38377108D01*
X148201000Y-38063473D01*
X148201000Y-34818527D01*
X148858228Y-35475756D01*
X148858228Y-35475756D01*
G37*
X148858228Y-35475756D02*
X148889788Y-35514212D01*
X148928244Y-35545772D01*
X148928250Y-35545778D01*
X149043275Y-35640176D01*
X149085460Y-35662724D01*
X149218389Y-35733776D01*
X149408397Y-35791415D01*
X149556482Y-35806000D01*
X149556493Y-35806000D01*
X149606000Y-35810876D01*
X149655507Y-35806000D01*
X150776481Y-35806000D01*
X150602145Y-35949801D01*
X150402776Y-36193969D01*
X150254872Y-36472340D01*
X150164118Y-36774217D01*
X150154428Y-36828503D01*
X150323506Y-37080000D01*
X151888000Y-37080000D01*
X151888000Y-37060000D01*
X151896000Y-37060000D01*
X151896000Y-37080000D01*
X151916000Y-37080000D01*
X151916000Y-37088000D01*
X151896000Y-37088000D01*
X151896000Y-37108000D01*
X151888000Y-37108000D01*
X151888000Y-37088000D01*
X150323506Y-37088000D01*
X150154428Y-37339497D01*
X150164118Y-37393783D01*
X150238512Y-37641241D01*
X150137818Y-37708523D01*
X149976523Y-37869818D01*
X149849794Y-38059481D01*
X149762501Y-38270224D01*
X149718000Y-38493947D01*
X149718000Y-38722053D01*
X149762501Y-38945776D01*
X149849794Y-39156519D01*
X149868000Y-39183767D01*
X149868000Y-40045505D01*
X149777840Y-40093697D01*
X149662420Y-40188420D01*
X149657247Y-40194724D01*
X149427039Y-40071675D01*
X149246994Y-40017059D01*
X149322499Y-39834776D01*
X149367000Y-39611053D01*
X149367000Y-39382947D01*
X149322499Y-39159224D01*
X149235206Y-38948481D01*
X149108477Y-38758818D01*
X148947182Y-38597523D01*
X148757519Y-38470794D01*
X148546776Y-38383501D01*
X148514635Y-38377108D01*
X148201000Y-38063473D01*
X148201000Y-34818527D01*
X148858228Y-35475756D01*
M02*
