G04 #@! TF.GenerationSoftware,KiCad,Pcbnew,5.1.4-e60b266~84~ubuntu18.04.1*
G04 #@! TF.CreationDate,2019-11-01T15:12:37-03:00*
G04 #@! TF.ProjectId,Xbee,58626565-2e6b-4696-9361-645f70636258,rev?*
G04 #@! TF.SameCoordinates,Original*
G04 #@! TF.FileFunction,Legend,Bot*
G04 #@! TF.FilePolarity,Positive*
%FSLAX46Y46*%
G04 Gerber Fmt 4.6, Leading zero omitted, Abs format (unit mm)*
G04 Created by KiCad (PCBNEW 5.1.4-e60b266~84~ubuntu18.04.1) date 2019-11-01 15:12:37*
%MOMM*%
%LPD*%
G04 APERTURE LIST*
%ADD10C,0.150000*%
%ADD11C,0.010000*%
G04 APERTURE END LIST*
D10*
X158348419Y-51986394D02*
X158300800Y-52034013D01*
X158253180Y-52129251D01*
X158253180Y-52367346D01*
X158300800Y-52462584D01*
X158348419Y-52510203D01*
X158443657Y-52557822D01*
X158538895Y-52557822D01*
X158681752Y-52510203D01*
X159253180Y-51938775D01*
X159253180Y-52557822D01*
X158253180Y-53176870D02*
X158253180Y-53272108D01*
X158300800Y-53367346D01*
X158348419Y-53414965D01*
X158443657Y-53462584D01*
X158634133Y-53510203D01*
X158872228Y-53510203D01*
X159062704Y-53462584D01*
X159157942Y-53414965D01*
X159205561Y-53367346D01*
X159253180Y-53272108D01*
X159253180Y-53176870D01*
X159205561Y-53081632D01*
X159157942Y-53034013D01*
X159062704Y-52986394D01*
X158872228Y-52938775D01*
X158634133Y-52938775D01*
X158443657Y-52986394D01*
X158348419Y-53034013D01*
X158300800Y-53081632D01*
X158253180Y-53176870D01*
X159253180Y-54462584D02*
X159253180Y-53891156D01*
X159253180Y-54176870D02*
X158253180Y-54176870D01*
X158396038Y-54081632D01*
X158491276Y-53986394D01*
X158538895Y-53891156D01*
X159253180Y-54938775D02*
X159253180Y-55129251D01*
X159205561Y-55224489D01*
X159157942Y-55272108D01*
X159015085Y-55367346D01*
X158824609Y-55414965D01*
X158443657Y-55414965D01*
X158348419Y-55367346D01*
X158300800Y-55319727D01*
X158253180Y-55224489D01*
X158253180Y-55034013D01*
X158300800Y-54938775D01*
X158348419Y-54891156D01*
X158443657Y-54843537D01*
X158681752Y-54843537D01*
X158776990Y-54891156D01*
X158824609Y-54938775D01*
X158872228Y-55034013D01*
X158872228Y-55224489D01*
X158824609Y-55319727D01*
X158776990Y-55367346D01*
X158681752Y-55414965D01*
D11*
G36*
X146066855Y-61317247D02*
G01*
X146114211Y-61613606D01*
X146188995Y-61873916D01*
X146291363Y-62096888D01*
X146421468Y-62281232D01*
X146579465Y-62425659D01*
X146731176Y-62513965D01*
X146815306Y-62549705D01*
X146888768Y-62571533D01*
X146969504Y-62582698D01*
X147075455Y-62586452D01*
X147132040Y-62586600D01*
X147325128Y-62576272D01*
X147512828Y-62544030D01*
X147707248Y-62486597D01*
X147920502Y-62400695D01*
X148059140Y-62335782D01*
X148362771Y-62171475D01*
X148685976Y-61965789D01*
X149024122Y-61722007D01*
X149372572Y-61443411D01*
X149614538Y-61234420D01*
X149824440Y-61047669D01*
X149824440Y-60782854D01*
X149823783Y-60673787D01*
X149822007Y-60586540D01*
X149819404Y-60531645D01*
X149817081Y-60518040D01*
X149794436Y-60531277D01*
X149737403Y-60567593D01*
X149653867Y-60621890D01*
X149551711Y-60689073D01*
X149518631Y-60710966D01*
X149344055Y-60820688D01*
X149156099Y-60928491D01*
X148966262Y-61028511D01*
X148786047Y-61114887D01*
X148626954Y-61181756D01*
X148529040Y-61215395D01*
X148261541Y-61275035D01*
X148016918Y-61289439D01*
X147795816Y-61258959D01*
X147598884Y-61183948D01*
X147426769Y-61064760D01*
X147280119Y-60901747D01*
X147159580Y-60695262D01*
X147065799Y-60445659D01*
X147056169Y-60412087D01*
X146996201Y-60122504D01*
X146965853Y-59793893D01*
X146964740Y-59428219D01*
X146992476Y-59027446D01*
X147048677Y-58593538D01*
X147132957Y-58128459D01*
X147244931Y-57634174D01*
X147384214Y-57112645D01*
X147550419Y-56565839D01*
X147743163Y-55995717D01*
X147962060Y-55404246D01*
X148113822Y-55020050D01*
X148321525Y-54523012D01*
X148552327Y-54000250D01*
X148799105Y-53466874D01*
X149054738Y-52937994D01*
X149312105Y-52428720D01*
X149524303Y-52027357D01*
X149729231Y-51648542D01*
X149626655Y-51545966D01*
X149384228Y-51952357D01*
X149136579Y-52376670D01*
X148881882Y-52830217D01*
X148625680Y-53302345D01*
X148373513Y-53782397D01*
X148130924Y-54259718D01*
X147903452Y-54723653D01*
X147696640Y-55163545D01*
X147581764Y-55418308D01*
X147312031Y-56046711D01*
X147067871Y-56654534D01*
X146849441Y-57240487D01*
X146656893Y-57803282D01*
X146490383Y-58341630D01*
X146350066Y-58854240D01*
X146236096Y-59339826D01*
X146148627Y-59797096D01*
X146087813Y-60224762D01*
X146053811Y-60621536D01*
X146046773Y-60986127D01*
X146066855Y-61317247D01*
X146066855Y-61317247D01*
G37*
X146066855Y-61317247D02*
X146114211Y-61613606D01*
X146188995Y-61873916D01*
X146291363Y-62096888D01*
X146421468Y-62281232D01*
X146579465Y-62425659D01*
X146731176Y-62513965D01*
X146815306Y-62549705D01*
X146888768Y-62571533D01*
X146969504Y-62582698D01*
X147075455Y-62586452D01*
X147132040Y-62586600D01*
X147325128Y-62576272D01*
X147512828Y-62544030D01*
X147707248Y-62486597D01*
X147920502Y-62400695D01*
X148059140Y-62335782D01*
X148362771Y-62171475D01*
X148685976Y-61965789D01*
X149024122Y-61722007D01*
X149372572Y-61443411D01*
X149614538Y-61234420D01*
X149824440Y-61047669D01*
X149824440Y-60782854D01*
X149823783Y-60673787D01*
X149822007Y-60586540D01*
X149819404Y-60531645D01*
X149817081Y-60518040D01*
X149794436Y-60531277D01*
X149737403Y-60567593D01*
X149653867Y-60621890D01*
X149551711Y-60689073D01*
X149518631Y-60710966D01*
X149344055Y-60820688D01*
X149156099Y-60928491D01*
X148966262Y-61028511D01*
X148786047Y-61114887D01*
X148626954Y-61181756D01*
X148529040Y-61215395D01*
X148261541Y-61275035D01*
X148016918Y-61289439D01*
X147795816Y-61258959D01*
X147598884Y-61183948D01*
X147426769Y-61064760D01*
X147280119Y-60901747D01*
X147159580Y-60695262D01*
X147065799Y-60445659D01*
X147056169Y-60412087D01*
X146996201Y-60122504D01*
X146965853Y-59793893D01*
X146964740Y-59428219D01*
X146992476Y-59027446D01*
X147048677Y-58593538D01*
X147132957Y-58128459D01*
X147244931Y-57634174D01*
X147384214Y-57112645D01*
X147550419Y-56565839D01*
X147743163Y-55995717D01*
X147962060Y-55404246D01*
X148113822Y-55020050D01*
X148321525Y-54523012D01*
X148552327Y-54000250D01*
X148799105Y-53466874D01*
X149054738Y-52937994D01*
X149312105Y-52428720D01*
X149524303Y-52027357D01*
X149729231Y-51648542D01*
X149626655Y-51545966D01*
X149384228Y-51952357D01*
X149136579Y-52376670D01*
X148881882Y-52830217D01*
X148625680Y-53302345D01*
X148373513Y-53782397D01*
X148130924Y-54259718D01*
X147903452Y-54723653D01*
X147696640Y-55163545D01*
X147581764Y-55418308D01*
X147312031Y-56046711D01*
X147067871Y-56654534D01*
X146849441Y-57240487D01*
X146656893Y-57803282D01*
X146490383Y-58341630D01*
X146350066Y-58854240D01*
X146236096Y-59339826D01*
X146148627Y-59797096D01*
X146087813Y-60224762D01*
X146053811Y-60621536D01*
X146046773Y-60986127D01*
X146066855Y-61317247D01*
G36*
X150564741Y-59964691D02*
G01*
X150565805Y-60149266D01*
X150567579Y-60298288D01*
X150570105Y-60414807D01*
X150573425Y-60501873D01*
X150577582Y-60562533D01*
X150582617Y-60599838D01*
X150588574Y-60616836D01*
X150591831Y-60618676D01*
X150625029Y-60611836D01*
X150699537Y-60593239D01*
X150807760Y-60564887D01*
X150942105Y-60528781D01*
X151094979Y-60486922D01*
X151157940Y-60469482D01*
X151691340Y-60321252D01*
X151704040Y-58563193D01*
X151716740Y-56805135D01*
X151776703Y-56756587D01*
X151851424Y-56714714D01*
X151922879Y-56718994D01*
X152001073Y-56769315D01*
X152072340Y-56830591D01*
X152085040Y-58210765D01*
X152097740Y-59590940D01*
X152158807Y-59743340D01*
X152238750Y-59889387D01*
X152353951Y-60030061D01*
X152490933Y-60152060D01*
X152636216Y-60242083D01*
X152685598Y-60263227D01*
X152904107Y-60321699D01*
X153125018Y-60333232D01*
X153352463Y-60297459D01*
X153590574Y-60214014D01*
X153672540Y-60175784D01*
X153884385Y-60045080D01*
X154080136Y-59873412D01*
X154251483Y-59670013D01*
X154390115Y-59444119D01*
X154450241Y-59311540D01*
X154510740Y-59159140D01*
X154524922Y-55217464D01*
X154013612Y-55327840D01*
X153858398Y-55361797D01*
X153719787Y-55392977D01*
X153605579Y-55419557D01*
X153523575Y-55439711D01*
X153481574Y-55451616D01*
X153478291Y-55453056D01*
X153473619Y-55481122D01*
X153469491Y-55557681D01*
X153465935Y-55680429D01*
X153462976Y-55847064D01*
X153460640Y-56055280D01*
X153458953Y-56302774D01*
X153457941Y-56587241D01*
X153457631Y-56906379D01*
X153458028Y-57248974D01*
X153461776Y-59030053D01*
X153405594Y-59075546D01*
X153320284Y-59114827D01*
X153219429Y-59118226D01*
X153122470Y-59086696D01*
X153083406Y-59059765D01*
X153012140Y-58998491D01*
X152999440Y-57732615D01*
X152986740Y-56466740D01*
X152920055Y-56327040D01*
X152815416Y-56150144D01*
X152685292Y-56011556D01*
X152519838Y-55901252D01*
X152483717Y-55882724D01*
X152289429Y-55806539D01*
X152096612Y-55773668D01*
X151892195Y-55782674D01*
X151772159Y-55804495D01*
X151570336Y-55861830D01*
X151394802Y-55941511D01*
X151231041Y-56051753D01*
X151064541Y-56200772D01*
X151054524Y-56210749D01*
X150895028Y-56385632D01*
X150771896Y-56558336D01*
X150674236Y-56745331D01*
X150630575Y-56851915D01*
X150619803Y-56881063D01*
X150610485Y-56910165D01*
X150602500Y-56942985D01*
X150595725Y-56983284D01*
X150590037Y-57034824D01*
X150585313Y-57101368D01*
X150581430Y-57186677D01*
X150578267Y-57294514D01*
X150575700Y-57428641D01*
X150573607Y-57592820D01*
X150571864Y-57790813D01*
X150570350Y-58026382D01*
X150568942Y-58303290D01*
X150567517Y-58625299D01*
X150566736Y-58809890D01*
X150565384Y-59167163D01*
X150564573Y-59476689D01*
X150564345Y-59741515D01*
X150564741Y-59964691D01*
X150564741Y-59964691D01*
G37*
X150564741Y-59964691D02*
X150565805Y-60149266D01*
X150567579Y-60298288D01*
X150570105Y-60414807D01*
X150573425Y-60501873D01*
X150577582Y-60562533D01*
X150582617Y-60599838D01*
X150588574Y-60616836D01*
X150591831Y-60618676D01*
X150625029Y-60611836D01*
X150699537Y-60593239D01*
X150807760Y-60564887D01*
X150942105Y-60528781D01*
X151094979Y-60486922D01*
X151157940Y-60469482D01*
X151691340Y-60321252D01*
X151704040Y-58563193D01*
X151716740Y-56805135D01*
X151776703Y-56756587D01*
X151851424Y-56714714D01*
X151922879Y-56718994D01*
X152001073Y-56769315D01*
X152072340Y-56830591D01*
X152085040Y-58210765D01*
X152097740Y-59590940D01*
X152158807Y-59743340D01*
X152238750Y-59889387D01*
X152353951Y-60030061D01*
X152490933Y-60152060D01*
X152636216Y-60242083D01*
X152685598Y-60263227D01*
X152904107Y-60321699D01*
X153125018Y-60333232D01*
X153352463Y-60297459D01*
X153590574Y-60214014D01*
X153672540Y-60175784D01*
X153884385Y-60045080D01*
X154080136Y-59873412D01*
X154251483Y-59670013D01*
X154390115Y-59444119D01*
X154450241Y-59311540D01*
X154510740Y-59159140D01*
X154524922Y-55217464D01*
X154013612Y-55327840D01*
X153858398Y-55361797D01*
X153719787Y-55392977D01*
X153605579Y-55419557D01*
X153523575Y-55439711D01*
X153481574Y-55451616D01*
X153478291Y-55453056D01*
X153473619Y-55481122D01*
X153469491Y-55557681D01*
X153465935Y-55680429D01*
X153462976Y-55847064D01*
X153460640Y-56055280D01*
X153458953Y-56302774D01*
X153457941Y-56587241D01*
X153457631Y-56906379D01*
X153458028Y-57248974D01*
X153461776Y-59030053D01*
X153405594Y-59075546D01*
X153320284Y-59114827D01*
X153219429Y-59118226D01*
X153122470Y-59086696D01*
X153083406Y-59059765D01*
X153012140Y-58998491D01*
X152999440Y-57732615D01*
X152986740Y-56466740D01*
X152920055Y-56327040D01*
X152815416Y-56150144D01*
X152685292Y-56011556D01*
X152519838Y-55901252D01*
X152483717Y-55882724D01*
X152289429Y-55806539D01*
X152096612Y-55773668D01*
X151892195Y-55782674D01*
X151772159Y-55804495D01*
X151570336Y-55861830D01*
X151394802Y-55941511D01*
X151231041Y-56051753D01*
X151064541Y-56200772D01*
X151054524Y-56210749D01*
X150895028Y-56385632D01*
X150771896Y-56558336D01*
X150674236Y-56745331D01*
X150630575Y-56851915D01*
X150619803Y-56881063D01*
X150610485Y-56910165D01*
X150602500Y-56942985D01*
X150595725Y-56983284D01*
X150590037Y-57034824D01*
X150585313Y-57101368D01*
X150581430Y-57186677D01*
X150578267Y-57294514D01*
X150575700Y-57428641D01*
X150573607Y-57592820D01*
X150571864Y-57790813D01*
X150570350Y-58026382D01*
X150568942Y-58303290D01*
X150567517Y-58625299D01*
X150566736Y-58809890D01*
X150565384Y-59167163D01*
X150564573Y-59476689D01*
X150564345Y-59741515D01*
X150564741Y-59964691D01*
G36*
X150884780Y-55891485D02*
G01*
X151035392Y-55845073D01*
X151196961Y-55795286D01*
X151348736Y-55748521D01*
X151456390Y-55715353D01*
X151704040Y-55639058D01*
X151704169Y-54566999D01*
X151704299Y-53494940D01*
X153113869Y-53165156D01*
X154523440Y-52835372D01*
X154523440Y-52130106D01*
X154523129Y-51946757D01*
X154522252Y-51781151D01*
X154520892Y-51639741D01*
X154519130Y-51528980D01*
X154517049Y-51455321D01*
X154514732Y-51425219D01*
X154514436Y-51424840D01*
X154488038Y-51430468D01*
X154417645Y-51446500D01*
X154308699Y-51471657D01*
X154166644Y-51504661D01*
X153996921Y-51544232D01*
X153804975Y-51589093D01*
X153596247Y-51637963D01*
X153376181Y-51689564D01*
X153150219Y-51742618D01*
X152923804Y-51795845D01*
X152702380Y-51847967D01*
X152491388Y-51897706D01*
X152296273Y-51943781D01*
X152122476Y-51984915D01*
X151975441Y-52019829D01*
X151860610Y-52047243D01*
X151783426Y-52065880D01*
X151749333Y-52074460D01*
X151748761Y-52074632D01*
X151738046Y-52075446D01*
X151729158Y-52067631D01*
X151721891Y-52046805D01*
X151716037Y-52008587D01*
X151711391Y-51948596D01*
X151707745Y-51862453D01*
X151704893Y-51745774D01*
X151702629Y-51594181D01*
X151700745Y-51403292D01*
X151699035Y-51168726D01*
X151697961Y-50997726D01*
X151691340Y-49906962D01*
X150573740Y-50321368D01*
X150560820Y-55991322D01*
X150884780Y-55891485D01*
X150884780Y-55891485D01*
G37*
X150884780Y-55891485D02*
X151035392Y-55845073D01*
X151196961Y-55795286D01*
X151348736Y-55748521D01*
X151456390Y-55715353D01*
X151704040Y-55639058D01*
X151704169Y-54566999D01*
X151704299Y-53494940D01*
X153113869Y-53165156D01*
X154523440Y-52835372D01*
X154523440Y-52130106D01*
X154523129Y-51946757D01*
X154522252Y-51781151D01*
X154520892Y-51639741D01*
X154519130Y-51528980D01*
X154517049Y-51455321D01*
X154514732Y-51425219D01*
X154514436Y-51424840D01*
X154488038Y-51430468D01*
X154417645Y-51446500D01*
X154308699Y-51471657D01*
X154166644Y-51504661D01*
X153996921Y-51544232D01*
X153804975Y-51589093D01*
X153596247Y-51637963D01*
X153376181Y-51689564D01*
X153150219Y-51742618D01*
X152923804Y-51795845D01*
X152702380Y-51847967D01*
X152491388Y-51897706D01*
X152296273Y-51943781D01*
X152122476Y-51984915D01*
X151975441Y-52019829D01*
X151860610Y-52047243D01*
X151783426Y-52065880D01*
X151749333Y-52074460D01*
X151748761Y-52074632D01*
X151738046Y-52075446D01*
X151729158Y-52067631D01*
X151721891Y-52046805D01*
X151716037Y-52008587D01*
X151711391Y-51948596D01*
X151707745Y-51862453D01*
X151704893Y-51745774D01*
X151702629Y-51594181D01*
X151700745Y-51403292D01*
X151699035Y-51168726D01*
X151697961Y-50997726D01*
X151691340Y-49906962D01*
X150573740Y-50321368D01*
X150560820Y-55991322D01*
X150884780Y-55891485D01*
G36*
X150485284Y-49221094D02*
G01*
X150486446Y-49392359D01*
X150488237Y-49554862D01*
X150490628Y-49701160D01*
X150493586Y-49823809D01*
X150497081Y-49915363D01*
X150501083Y-49968380D01*
X150503890Y-49978647D01*
X150531119Y-49973715D01*
X150604269Y-49958935D01*
X150719588Y-49935100D01*
X150873322Y-49902998D01*
X151061720Y-49863422D01*
X151281028Y-49817162D01*
X151527494Y-49765008D01*
X151797366Y-49707751D01*
X152086889Y-49646183D01*
X152392313Y-49581093D01*
X152523018Y-49553197D01*
X154523096Y-49126140D01*
X154523268Y-48330678D01*
X154523166Y-48108632D01*
X154522563Y-47932282D01*
X154521169Y-47796522D01*
X154518694Y-47696247D01*
X154514850Y-47626354D01*
X154509348Y-47581738D01*
X154501899Y-47557293D01*
X154492213Y-47547916D01*
X154480002Y-47548502D01*
X154478990Y-47548801D01*
X154448417Y-47555936D01*
X154373102Y-47572605D01*
X154257607Y-47597829D01*
X154106498Y-47630632D01*
X153924336Y-47670034D01*
X153715687Y-47715057D01*
X153485114Y-47764723D01*
X153237180Y-47818054D01*
X152976450Y-47874072D01*
X152707487Y-47931798D01*
X152434854Y-47990255D01*
X152163116Y-48048464D01*
X151896836Y-48105446D01*
X151640578Y-48160224D01*
X151398906Y-48211819D01*
X151176383Y-48259254D01*
X150977574Y-48301550D01*
X150807041Y-48337728D01*
X150669348Y-48366811D01*
X150569060Y-48387820D01*
X150510740Y-48399778D01*
X150497367Y-48402240D01*
X150493260Y-48426395D01*
X150489997Y-48493899D01*
X150487549Y-48597307D01*
X150485884Y-48729174D01*
X150484973Y-48882057D01*
X150484783Y-49048512D01*
X150485284Y-49221094D01*
X150485284Y-49221094D01*
G37*
X150485284Y-49221094D02*
X150486446Y-49392359D01*
X150488237Y-49554862D01*
X150490628Y-49701160D01*
X150493586Y-49823809D01*
X150497081Y-49915363D01*
X150501083Y-49968380D01*
X150503890Y-49978647D01*
X150531119Y-49973715D01*
X150604269Y-49958935D01*
X150719588Y-49935100D01*
X150873322Y-49902998D01*
X151061720Y-49863422D01*
X151281028Y-49817162D01*
X151527494Y-49765008D01*
X151797366Y-49707751D01*
X152086889Y-49646183D01*
X152392313Y-49581093D01*
X152523018Y-49553197D01*
X154523096Y-49126140D01*
X154523268Y-48330678D01*
X154523166Y-48108632D01*
X154522563Y-47932282D01*
X154521169Y-47796522D01*
X154518694Y-47696247D01*
X154514850Y-47626354D01*
X154509348Y-47581738D01*
X154501899Y-47557293D01*
X154492213Y-47547916D01*
X154480002Y-47548502D01*
X154478990Y-47548801D01*
X154448417Y-47555936D01*
X154373102Y-47572605D01*
X154257607Y-47597829D01*
X154106498Y-47630632D01*
X153924336Y-47670034D01*
X153715687Y-47715057D01*
X153485114Y-47764723D01*
X153237180Y-47818054D01*
X152976450Y-47874072D01*
X152707487Y-47931798D01*
X152434854Y-47990255D01*
X152163116Y-48048464D01*
X151896836Y-48105446D01*
X151640578Y-48160224D01*
X151398906Y-48211819D01*
X151176383Y-48259254D01*
X150977574Y-48301550D01*
X150807041Y-48337728D01*
X150669348Y-48366811D01*
X150569060Y-48387820D01*
X150510740Y-48399778D01*
X150497367Y-48402240D01*
X150493260Y-48426395D01*
X150489997Y-48493899D01*
X150487549Y-48597307D01*
X150485884Y-48729174D01*
X150484973Y-48882057D01*
X150484783Y-49048512D01*
X150485284Y-49221094D01*
G36*
X155011560Y-56592712D02*
G01*
X155018740Y-56847740D01*
X155539440Y-56978794D01*
X155697043Y-57018043D01*
X155839849Y-57052817D01*
X155959838Y-57081228D01*
X156048994Y-57101386D01*
X156099296Y-57111403D01*
X156105509Y-57112144D01*
X156126291Y-57108719D01*
X156139027Y-57089823D01*
X156145130Y-57046358D01*
X156146013Y-56969227D01*
X156143609Y-56866790D01*
X156136340Y-56619140D01*
X155958540Y-56593740D01*
X155951370Y-56324607D01*
X155944200Y-56055475D01*
X156149040Y-55919919D01*
X156149040Y-55677717D01*
X156147781Y-55563948D01*
X156143246Y-55493561D01*
X156134297Y-55459182D01*
X156119797Y-55453438D01*
X156114804Y-55455827D01*
X156086532Y-55476584D01*
X156024186Y-55524806D01*
X155933290Y-55596137D01*
X155819370Y-55686224D01*
X155717240Y-55767425D01*
X155717240Y-56222399D01*
X155717240Y-56560627D01*
X155558490Y-56542612D01*
X155448362Y-56528132D01*
X155385607Y-56511439D01*
X155369235Y-56486987D01*
X155398253Y-56449225D01*
X155471670Y-56392605D01*
X155525006Y-56355290D01*
X155717240Y-56222399D01*
X155717240Y-55767425D01*
X155687951Y-55790712D01*
X155544558Y-55905245D01*
X155542474Y-55906912D01*
X155004380Y-56337685D01*
X155011560Y-56592712D01*
X155011560Y-56592712D01*
G37*
X155011560Y-56592712D02*
X155018740Y-56847740D01*
X155539440Y-56978794D01*
X155697043Y-57018043D01*
X155839849Y-57052817D01*
X155959838Y-57081228D01*
X156048994Y-57101386D01*
X156099296Y-57111403D01*
X156105509Y-57112144D01*
X156126291Y-57108719D01*
X156139027Y-57089823D01*
X156145130Y-57046358D01*
X156146013Y-56969227D01*
X156143609Y-56866790D01*
X156136340Y-56619140D01*
X155958540Y-56593740D01*
X155951370Y-56324607D01*
X155944200Y-56055475D01*
X156149040Y-55919919D01*
X156149040Y-55677717D01*
X156147781Y-55563948D01*
X156143246Y-55493561D01*
X156134297Y-55459182D01*
X156119797Y-55453438D01*
X156114804Y-55455827D01*
X156086532Y-55476584D01*
X156024186Y-55524806D01*
X155933290Y-55596137D01*
X155819370Y-55686224D01*
X155717240Y-55767425D01*
X155717240Y-56222399D01*
X155717240Y-56560627D01*
X155558490Y-56542612D01*
X155448362Y-56528132D01*
X155385607Y-56511439D01*
X155369235Y-56486987D01*
X155398253Y-56449225D01*
X155471670Y-56392605D01*
X155525006Y-56355290D01*
X155717240Y-56222399D01*
X155717240Y-55767425D01*
X155687951Y-55790712D01*
X155544558Y-55905245D01*
X155542474Y-55906912D01*
X155004380Y-56337685D01*
X155011560Y-56592712D01*
G36*
X155020721Y-54795818D02*
G01*
X155021746Y-54965344D01*
X155023832Y-55092647D01*
X155027879Y-55186303D01*
X155034788Y-55254890D01*
X155045457Y-55306985D01*
X155060787Y-55351163D01*
X155081678Y-55396001D01*
X155084221Y-55401078D01*
X155160453Y-55514368D01*
X155255658Y-55582401D01*
X155376354Y-55608739D01*
X155459857Y-55606386D01*
X155630005Y-55569291D01*
X155786612Y-55495495D01*
X155915860Y-55392352D01*
X155960123Y-55340080D01*
X156013828Y-55261280D01*
X156055317Y-55182976D01*
X156086373Y-55096774D01*
X156108775Y-54994279D01*
X156124305Y-54867098D01*
X156134743Y-54706835D01*
X156141870Y-54505097D01*
X156142521Y-54480301D01*
X156155015Y-53992463D01*
X155967877Y-54045906D01*
X155877178Y-54071676D01*
X155877178Y-54567763D01*
X155879241Y-54568338D01*
X155891645Y-54601430D01*
X155892031Y-54667938D01*
X155882634Y-54752518D01*
X155865686Y-54839826D01*
X155843423Y-54914519D01*
X155822878Y-54955440D01*
X155746037Y-55025799D01*
X155634739Y-55083626D01*
X155505142Y-55120725D01*
X155493046Y-55122781D01*
X155404646Y-55123461D01*
X155342139Y-55089405D01*
X155301006Y-55015814D01*
X155276728Y-54897888D01*
X155276059Y-54892313D01*
X155268645Y-54811272D01*
X155267254Y-54752928D01*
X155270721Y-54733092D01*
X155302060Y-54718727D01*
X155369807Y-54696145D01*
X155462109Y-54668554D01*
X155567116Y-54639163D01*
X155672978Y-54611179D01*
X155767843Y-54587813D01*
X155839860Y-54572271D01*
X155877178Y-54567763D01*
X155877178Y-54071676D01*
X155874525Y-54072430D01*
X155746966Y-54108484D01*
X155599917Y-54149919D01*
X155448095Y-54192584D01*
X155399740Y-54206146D01*
X155018740Y-54312943D01*
X155020721Y-54795818D01*
X155020721Y-54795818D01*
G37*
X155020721Y-54795818D02*
X155021746Y-54965344D01*
X155023832Y-55092647D01*
X155027879Y-55186303D01*
X155034788Y-55254890D01*
X155045457Y-55306985D01*
X155060787Y-55351163D01*
X155081678Y-55396001D01*
X155084221Y-55401078D01*
X155160453Y-55514368D01*
X155255658Y-55582401D01*
X155376354Y-55608739D01*
X155459857Y-55606386D01*
X155630005Y-55569291D01*
X155786612Y-55495495D01*
X155915860Y-55392352D01*
X155960123Y-55340080D01*
X156013828Y-55261280D01*
X156055317Y-55182976D01*
X156086373Y-55096774D01*
X156108775Y-54994279D01*
X156124305Y-54867098D01*
X156134743Y-54706835D01*
X156141870Y-54505097D01*
X156142521Y-54480301D01*
X156155015Y-53992463D01*
X155967877Y-54045906D01*
X155877178Y-54071676D01*
X155877178Y-54567763D01*
X155879241Y-54568338D01*
X155891645Y-54601430D01*
X155892031Y-54667938D01*
X155882634Y-54752518D01*
X155865686Y-54839826D01*
X155843423Y-54914519D01*
X155822878Y-54955440D01*
X155746037Y-55025799D01*
X155634739Y-55083626D01*
X155505142Y-55120725D01*
X155493046Y-55122781D01*
X155404646Y-55123461D01*
X155342139Y-55089405D01*
X155301006Y-55015814D01*
X155276728Y-54897888D01*
X155276059Y-54892313D01*
X155268645Y-54811272D01*
X155267254Y-54752928D01*
X155270721Y-54733092D01*
X155302060Y-54718727D01*
X155369807Y-54696145D01*
X155462109Y-54668554D01*
X155567116Y-54639163D01*
X155672978Y-54611179D01*
X155767843Y-54587813D01*
X155839860Y-54572271D01*
X155877178Y-54567763D01*
X155877178Y-54071676D01*
X155874525Y-54072430D01*
X155746966Y-54108484D01*
X155599917Y-54149919D01*
X155448095Y-54192584D01*
X155399740Y-54206146D01*
X155018740Y-54312943D01*
X155020721Y-54795818D01*
G36*
X155018740Y-53567397D02*
G01*
X155514040Y-53687721D01*
X155670013Y-53725479D01*
X155813024Y-53759853D01*
X155934249Y-53788740D01*
X156024863Y-53810039D01*
X156076041Y-53821649D01*
X156079190Y-53822307D01*
X156149040Y-53836570D01*
X156149040Y-53583205D01*
X156148607Y-53468104D01*
X156145808Y-53394517D01*
X156138392Y-53353161D01*
X156124107Y-53334749D01*
X156100704Y-53329996D01*
X156087617Y-53329840D01*
X156026980Y-53327335D01*
X155986662Y-53314097D01*
X155962528Y-53281536D01*
X155950442Y-53221062D01*
X155946268Y-53124087D01*
X155945840Y-53035382D01*
X155945840Y-52771760D01*
X156047440Y-52704525D01*
X156149040Y-52637289D01*
X156149040Y-52399364D01*
X156147457Y-52296470D01*
X156143206Y-52215972D01*
X156137034Y-52168979D01*
X156133045Y-52161440D01*
X156109837Y-52176706D01*
X156052260Y-52219814D01*
X155965500Y-52286728D01*
X155854742Y-52373411D01*
X155725171Y-52475828D01*
X155705756Y-52491299D01*
X155705756Y-52948840D01*
X155711574Y-52972027D01*
X155715705Y-53032754D01*
X155717240Y-53115958D01*
X155717240Y-53283076D01*
X155647390Y-53269320D01*
X155578575Y-53257309D01*
X155489365Y-53243606D01*
X155457149Y-53239056D01*
X155390089Y-53225673D01*
X155352677Y-53209861D01*
X155349701Y-53201607D01*
X155374626Y-53178973D01*
X155428506Y-53137512D01*
X155499175Y-53085860D01*
X155574465Y-53032656D01*
X155642210Y-52986537D01*
X155690242Y-52956141D01*
X155705756Y-52948840D01*
X155705756Y-52491299D01*
X155581971Y-52589943D01*
X155560668Y-52606993D01*
X155004286Y-53052547D01*
X155018740Y-53567397D01*
X155018740Y-53567397D01*
G37*
X155018740Y-53567397D02*
X155514040Y-53687721D01*
X155670013Y-53725479D01*
X155813024Y-53759853D01*
X155934249Y-53788740D01*
X156024863Y-53810039D01*
X156076041Y-53821649D01*
X156079190Y-53822307D01*
X156149040Y-53836570D01*
X156149040Y-53583205D01*
X156148607Y-53468104D01*
X156145808Y-53394517D01*
X156138392Y-53353161D01*
X156124107Y-53334749D01*
X156100704Y-53329996D01*
X156087617Y-53329840D01*
X156026980Y-53327335D01*
X155986662Y-53314097D01*
X155962528Y-53281536D01*
X155950442Y-53221062D01*
X155946268Y-53124087D01*
X155945840Y-53035382D01*
X155945840Y-52771760D01*
X156047440Y-52704525D01*
X156149040Y-52637289D01*
X156149040Y-52399364D01*
X156147457Y-52296470D01*
X156143206Y-52215972D01*
X156137034Y-52168979D01*
X156133045Y-52161440D01*
X156109837Y-52176706D01*
X156052260Y-52219814D01*
X155965500Y-52286728D01*
X155854742Y-52373411D01*
X155725171Y-52475828D01*
X155705756Y-52491299D01*
X155705756Y-52948840D01*
X155711574Y-52972027D01*
X155715705Y-53032754D01*
X155717240Y-53115958D01*
X155717240Y-53283076D01*
X155647390Y-53269320D01*
X155578575Y-53257309D01*
X155489365Y-53243606D01*
X155457149Y-53239056D01*
X155390089Y-53225673D01*
X155352677Y-53209861D01*
X155349701Y-53201607D01*
X155374626Y-53178973D01*
X155428506Y-53137512D01*
X155499175Y-53085860D01*
X155574465Y-53032656D01*
X155642210Y-52986537D01*
X155690242Y-52956141D01*
X155705756Y-52948840D01*
X155705756Y-52491299D01*
X155581971Y-52589943D01*
X155560668Y-52606993D01*
X155004286Y-53052547D01*
X155018740Y-53567397D01*
G36*
X155007446Y-51498347D02*
G01*
X155011204Y-51578709D01*
X155016620Y-51625850D01*
X155019194Y-51632727D01*
X155046841Y-51630611D01*
X155114660Y-51616233D01*
X155214090Y-51591666D01*
X155336567Y-51558983D01*
X155419244Y-51535860D01*
X155553491Y-51498201D01*
X155671646Y-51466028D01*
X155764585Y-51441749D01*
X155823183Y-51427775D01*
X155837890Y-51425339D01*
X155851055Y-51438281D01*
X155860322Y-51481306D01*
X155866171Y-51559995D01*
X155869086Y-51679925D01*
X155869640Y-51792342D01*
X155870652Y-51942186D01*
X155874027Y-52046985D01*
X155880275Y-52112460D01*
X155889905Y-52144334D01*
X155901390Y-52149196D01*
X155944548Y-52136584D01*
X156014414Y-52117816D01*
X156041090Y-52110915D01*
X156149040Y-52083281D01*
X156149040Y-51474660D01*
X156148321Y-51269033D01*
X156146039Y-51110294D01*
X156142003Y-50994551D01*
X156136021Y-50917911D01*
X156127904Y-50876480D01*
X156119218Y-50866040D01*
X156087789Y-50872567D01*
X156016435Y-50890514D01*
X155914103Y-50917427D01*
X155789737Y-50950854D01*
X155652282Y-50988342D01*
X155510683Y-51027438D01*
X155373885Y-51065688D01*
X155250834Y-51100641D01*
X155150474Y-51129843D01*
X155088590Y-51148658D01*
X155006040Y-51174779D01*
X155006040Y-51397176D01*
X155007446Y-51498347D01*
X155007446Y-51498347D01*
G37*
X155007446Y-51498347D02*
X155011204Y-51578709D01*
X155016620Y-51625850D01*
X155019194Y-51632727D01*
X155046841Y-51630611D01*
X155114660Y-51616233D01*
X155214090Y-51591666D01*
X155336567Y-51558983D01*
X155419244Y-51535860D01*
X155553491Y-51498201D01*
X155671646Y-51466028D01*
X155764585Y-51441749D01*
X155823183Y-51427775D01*
X155837890Y-51425339D01*
X155851055Y-51438281D01*
X155860322Y-51481306D01*
X155866171Y-51559995D01*
X155869086Y-51679925D01*
X155869640Y-51792342D01*
X155870652Y-51942186D01*
X155874027Y-52046985D01*
X155880275Y-52112460D01*
X155889905Y-52144334D01*
X155901390Y-52149196D01*
X155944548Y-52136584D01*
X156014414Y-52117816D01*
X156041090Y-52110915D01*
X156149040Y-52083281D01*
X156149040Y-51474660D01*
X156148321Y-51269033D01*
X156146039Y-51110294D01*
X156142003Y-50994551D01*
X156136021Y-50917911D01*
X156127904Y-50876480D01*
X156119218Y-50866040D01*
X156087789Y-50872567D01*
X156016435Y-50890514D01*
X155914103Y-50917427D01*
X155789737Y-50950854D01*
X155652282Y-50988342D01*
X155510683Y-51027438D01*
X155373885Y-51065688D01*
X155250834Y-51100641D01*
X155150474Y-51129843D01*
X155088590Y-51148658D01*
X155006040Y-51174779D01*
X155006040Y-51397176D01*
X155007446Y-51498347D01*
G36*
X155007449Y-50063977D02*
G01*
X155012712Y-50132536D01*
X155023382Y-50168222D01*
X155041010Y-50179974D01*
X155045409Y-50180240D01*
X155082882Y-50173642D01*
X155159431Y-50155493D01*
X155265306Y-50128257D01*
X155390755Y-50094397D01*
X155447485Y-50078640D01*
X155577320Y-50042808D01*
X155690738Y-50012518D01*
X155778300Y-49990211D01*
X155830569Y-49978333D01*
X155839915Y-49977040D01*
X155852632Y-49994184D01*
X155861577Y-50048345D01*
X155867081Y-50143619D01*
X155869475Y-50284099D01*
X155869640Y-50344542D01*
X155870652Y-50494386D01*
X155874027Y-50599185D01*
X155880275Y-50664660D01*
X155889905Y-50696534D01*
X155901390Y-50701396D01*
X155944548Y-50688784D01*
X156014414Y-50670016D01*
X156041090Y-50663115D01*
X156149040Y-50635481D01*
X156149040Y-50026860D01*
X156148321Y-49821233D01*
X156146039Y-49662494D01*
X156142003Y-49546751D01*
X156136021Y-49470111D01*
X156127904Y-49428680D01*
X156119218Y-49418240D01*
X156087789Y-49424767D01*
X156016435Y-49442714D01*
X155914103Y-49469627D01*
X155789737Y-49503054D01*
X155652282Y-49540542D01*
X155510683Y-49579638D01*
X155373885Y-49617888D01*
X155250834Y-49652841D01*
X155150474Y-49682043D01*
X155088590Y-49700858D01*
X155006040Y-49726979D01*
X155006040Y-49953609D01*
X155007449Y-50063977D01*
X155007449Y-50063977D01*
G37*
X155007449Y-50063977D02*
X155012712Y-50132536D01*
X155023382Y-50168222D01*
X155041010Y-50179974D01*
X155045409Y-50180240D01*
X155082882Y-50173642D01*
X155159431Y-50155493D01*
X155265306Y-50128257D01*
X155390755Y-50094397D01*
X155447485Y-50078640D01*
X155577320Y-50042808D01*
X155690738Y-50012518D01*
X155778300Y-49990211D01*
X155830569Y-49978333D01*
X155839915Y-49977040D01*
X155852632Y-49994184D01*
X155861577Y-50048345D01*
X155867081Y-50143619D01*
X155869475Y-50284099D01*
X155869640Y-50344542D01*
X155870652Y-50494386D01*
X155874027Y-50599185D01*
X155880275Y-50664660D01*
X155889905Y-50696534D01*
X155901390Y-50701396D01*
X155944548Y-50688784D01*
X156014414Y-50670016D01*
X156041090Y-50663115D01*
X156149040Y-50635481D01*
X156149040Y-50026860D01*
X156148321Y-49821233D01*
X156146039Y-49662494D01*
X156142003Y-49546751D01*
X156136021Y-49470111D01*
X156127904Y-49428680D01*
X156119218Y-49418240D01*
X156087789Y-49424767D01*
X156016435Y-49442714D01*
X155914103Y-49469627D01*
X155789737Y-49503054D01*
X155652282Y-49540542D01*
X155510683Y-49579638D01*
X155373885Y-49617888D01*
X155250834Y-49652841D01*
X155150474Y-49682043D01*
X155088590Y-49700858D01*
X155006040Y-49726979D01*
X155006040Y-49953609D01*
X155007449Y-50063977D01*
G36*
X155008006Y-49259858D02*
G01*
X155013148Y-49328843D01*
X155021893Y-49365013D01*
X155025407Y-49367440D01*
X155054973Y-49360880D01*
X155125289Y-49342659D01*
X155228228Y-49314960D01*
X155355663Y-49279968D01*
X155488957Y-49242819D01*
X155639925Y-49200547D01*
X155781592Y-49161034D01*
X155903584Y-49127161D01*
X155995524Y-49101812D01*
X156041090Y-49089440D01*
X156149040Y-49060681D01*
X156149040Y-48818649D01*
X156148201Y-48706461D01*
X156144558Y-48636348D01*
X156136418Y-48599596D01*
X156122088Y-48587492D01*
X156104590Y-48589829D01*
X156067396Y-48600435D01*
X155989368Y-48622374D01*
X155878615Y-48653376D01*
X155743249Y-48691171D01*
X155591380Y-48733490D01*
X155557891Y-48742812D01*
X155405079Y-48785732D01*
X155268554Y-48824828D01*
X155156043Y-48857825D01*
X155075271Y-48882449D01*
X155033965Y-48896428D01*
X155030841Y-48897910D01*
X155020325Y-48927309D01*
X155012626Y-48991782D01*
X155007902Y-49077749D01*
X155006309Y-49171634D01*
X155008006Y-49259858D01*
X155008006Y-49259858D01*
G37*
X155008006Y-49259858D02*
X155013148Y-49328843D01*
X155021893Y-49365013D01*
X155025407Y-49367440D01*
X155054973Y-49360880D01*
X155125289Y-49342659D01*
X155228228Y-49314960D01*
X155355663Y-49279968D01*
X155488957Y-49242819D01*
X155639925Y-49200547D01*
X155781592Y-49161034D01*
X155903584Y-49127161D01*
X155995524Y-49101812D01*
X156041090Y-49089440D01*
X156149040Y-49060681D01*
X156149040Y-48818649D01*
X156148201Y-48706461D01*
X156144558Y-48636348D01*
X156136418Y-48599596D01*
X156122088Y-48587492D01*
X156104590Y-48589829D01*
X156067396Y-48600435D01*
X155989368Y-48622374D01*
X155878615Y-48653376D01*
X155743249Y-48691171D01*
X155591380Y-48733490D01*
X155557891Y-48742812D01*
X155405079Y-48785732D01*
X155268554Y-48824828D01*
X155156043Y-48857825D01*
X155075271Y-48882449D01*
X155033965Y-48896428D01*
X155030841Y-48897910D01*
X155020325Y-48927309D01*
X155012626Y-48991782D01*
X155007902Y-49077749D01*
X155006309Y-49171634D01*
X155008006Y-49259858D01*
G36*
X155279090Y-47573170D02*
G01*
X155406151Y-47592313D01*
X155528283Y-47610356D01*
X155628329Y-47624782D01*
X155672790Y-47630947D01*
X155743000Y-47643532D01*
X155786503Y-47657413D01*
X155793440Y-47663946D01*
X155773636Y-47683109D01*
X155718515Y-47726413D01*
X155634513Y-47789061D01*
X155528067Y-47866256D01*
X155405612Y-47953204D01*
X155399740Y-47957332D01*
X155006040Y-48233916D01*
X155006040Y-48470478D01*
X155007299Y-48573052D01*
X155010682Y-48653197D01*
X155015590Y-48699770D01*
X155018700Y-48707040D01*
X155041077Y-48691848D01*
X155097977Y-48648949D01*
X155184243Y-48582352D01*
X155294718Y-48496068D01*
X155424245Y-48394109D01*
X155567667Y-48280485D01*
X155590200Y-48262571D01*
X156149040Y-47818102D01*
X156149040Y-47563274D01*
X156146722Y-47433320D01*
X156139380Y-47349101D01*
X156126431Y-47305743D01*
X156117290Y-47297728D01*
X156085999Y-47289480D01*
X156013951Y-47271547D01*
X155909806Y-47246023D01*
X155782222Y-47214999D01*
X155639858Y-47180569D01*
X155491375Y-47144825D01*
X155345430Y-47109860D01*
X155210683Y-47077765D01*
X155095794Y-47050634D01*
X155063190Y-47043004D01*
X155037133Y-47038862D01*
X155020515Y-47047007D01*
X155011212Y-47076260D01*
X155007104Y-47135442D01*
X155006069Y-47233374D01*
X155006040Y-47280632D01*
X155006040Y-47531592D01*
X155279090Y-47573170D01*
X155279090Y-47573170D01*
G37*
X155279090Y-47573170D02*
X155406151Y-47592313D01*
X155528283Y-47610356D01*
X155628329Y-47624782D01*
X155672790Y-47630947D01*
X155743000Y-47643532D01*
X155786503Y-47657413D01*
X155793440Y-47663946D01*
X155773636Y-47683109D01*
X155718515Y-47726413D01*
X155634513Y-47789061D01*
X155528067Y-47866256D01*
X155405612Y-47953204D01*
X155399740Y-47957332D01*
X155006040Y-48233916D01*
X155006040Y-48470478D01*
X155007299Y-48573052D01*
X155010682Y-48653197D01*
X155015590Y-48699770D01*
X155018700Y-48707040D01*
X155041077Y-48691848D01*
X155097977Y-48648949D01*
X155184243Y-48582352D01*
X155294718Y-48496068D01*
X155424245Y-48394109D01*
X155567667Y-48280485D01*
X155590200Y-48262571D01*
X156149040Y-47818102D01*
X156149040Y-47563274D01*
X156146722Y-47433320D01*
X156139380Y-47349101D01*
X156126431Y-47305743D01*
X156117290Y-47297728D01*
X156085999Y-47289480D01*
X156013951Y-47271547D01*
X155909806Y-47246023D01*
X155782222Y-47214999D01*
X155639858Y-47180569D01*
X155491375Y-47144825D01*
X155345430Y-47109860D01*
X155210683Y-47077765D01*
X155095794Y-47050634D01*
X155063190Y-47043004D01*
X155037133Y-47038862D01*
X155020515Y-47047007D01*
X155011212Y-47076260D01*
X155007104Y-47135442D01*
X155006069Y-47233374D01*
X155006040Y-47280632D01*
X155006040Y-47531592D01*
X155279090Y-47573170D01*
G36*
X154369416Y-46197957D02*
G01*
X154411154Y-46216760D01*
X154495433Y-46235047D01*
X154516994Y-46238724D01*
X154684139Y-46266421D01*
X154800639Y-46169218D01*
X154934435Y-46066669D01*
X155097331Y-45955579D01*
X155271601Y-45847093D01*
X155439514Y-45752359D01*
X155554439Y-45695288D01*
X155856767Y-45577660D01*
X156143531Y-45506515D01*
X156413107Y-45481240D01*
X156663875Y-45501218D01*
X156894209Y-45565835D01*
X157102489Y-45674475D01*
X157287090Y-45826524D01*
X157446390Y-46021366D01*
X157578767Y-46258387D01*
X157670395Y-46497240D01*
X157730708Y-46726287D01*
X157775077Y-46984975D01*
X157804491Y-47280299D01*
X157817623Y-47538640D01*
X157816792Y-48005067D01*
X157784797Y-48508398D01*
X157722161Y-49045830D01*
X157629406Y-49614558D01*
X157507054Y-50211780D01*
X157355627Y-50834692D01*
X157175648Y-51480491D01*
X156967638Y-52146374D01*
X156948672Y-52203837D01*
X156893177Y-52372181D01*
X156852529Y-52498890D01*
X156825261Y-52590441D01*
X156809907Y-52653309D01*
X156805001Y-52693969D01*
X156809078Y-52718897D01*
X156820670Y-52734568D01*
X156827315Y-52739864D01*
X156843367Y-52751300D01*
X156857313Y-52755860D01*
X156871778Y-52748365D01*
X156889387Y-52723637D01*
X156912764Y-52676497D01*
X156944535Y-52601767D01*
X156987324Y-52494267D01*
X157043757Y-52348819D01*
X157101669Y-52198600D01*
X157325670Y-51598876D01*
X157533927Y-51003631D01*
X157725699Y-50416159D01*
X157900246Y-49839756D01*
X158056829Y-49277715D01*
X158194708Y-48733331D01*
X158313141Y-48209898D01*
X158411390Y-47710709D01*
X158488714Y-47239060D01*
X158544373Y-46798244D01*
X158577626Y-46391555D01*
X158587735Y-46022289D01*
X158573959Y-45693738D01*
X158570840Y-45659040D01*
X158526298Y-45330713D01*
X158459120Y-45047631D01*
X158368621Y-44809227D01*
X158254119Y-44614935D01*
X158114930Y-44464188D01*
X157950371Y-44356419D01*
X157759758Y-44291061D01*
X157542407Y-44267548D01*
X157297636Y-44285314D01*
X157024761Y-44343790D01*
X156994699Y-44352198D01*
X156760880Y-44432988D01*
X156502268Y-44547362D01*
X156227340Y-44690513D01*
X155944571Y-44857633D01*
X155662436Y-45043914D01*
X155389411Y-45244550D01*
X155307804Y-45309025D01*
X155211265Y-45388804D01*
X155098833Y-45485161D01*
X154976640Y-45592470D01*
X154850816Y-45705103D01*
X154727491Y-45817436D01*
X154612795Y-45923841D01*
X154512860Y-46018691D01*
X154433815Y-46096362D01*
X154381791Y-46151226D01*
X154363355Y-46175829D01*
X154369416Y-46197957D01*
X154369416Y-46197957D01*
G37*
X154369416Y-46197957D02*
X154411154Y-46216760D01*
X154495433Y-46235047D01*
X154516994Y-46238724D01*
X154684139Y-46266421D01*
X154800639Y-46169218D01*
X154934435Y-46066669D01*
X155097331Y-45955579D01*
X155271601Y-45847093D01*
X155439514Y-45752359D01*
X155554439Y-45695288D01*
X155856767Y-45577660D01*
X156143531Y-45506515D01*
X156413107Y-45481240D01*
X156663875Y-45501218D01*
X156894209Y-45565835D01*
X157102489Y-45674475D01*
X157287090Y-45826524D01*
X157446390Y-46021366D01*
X157578767Y-46258387D01*
X157670395Y-46497240D01*
X157730708Y-46726287D01*
X157775077Y-46984975D01*
X157804491Y-47280299D01*
X157817623Y-47538640D01*
X157816792Y-48005067D01*
X157784797Y-48508398D01*
X157722161Y-49045830D01*
X157629406Y-49614558D01*
X157507054Y-50211780D01*
X157355627Y-50834692D01*
X157175648Y-51480491D01*
X156967638Y-52146374D01*
X156948672Y-52203837D01*
X156893177Y-52372181D01*
X156852529Y-52498890D01*
X156825261Y-52590441D01*
X156809907Y-52653309D01*
X156805001Y-52693969D01*
X156809078Y-52718897D01*
X156820670Y-52734568D01*
X156827315Y-52739864D01*
X156843367Y-52751300D01*
X156857313Y-52755860D01*
X156871778Y-52748365D01*
X156889387Y-52723637D01*
X156912764Y-52676497D01*
X156944535Y-52601767D01*
X156987324Y-52494267D01*
X157043757Y-52348819D01*
X157101669Y-52198600D01*
X157325670Y-51598876D01*
X157533927Y-51003631D01*
X157725699Y-50416159D01*
X157900246Y-49839756D01*
X158056829Y-49277715D01*
X158194708Y-48733331D01*
X158313141Y-48209898D01*
X158411390Y-47710709D01*
X158488714Y-47239060D01*
X158544373Y-46798244D01*
X158577626Y-46391555D01*
X158587735Y-46022289D01*
X158573959Y-45693738D01*
X158570840Y-45659040D01*
X158526298Y-45330713D01*
X158459120Y-45047631D01*
X158368621Y-44809227D01*
X158254119Y-44614935D01*
X158114930Y-44464188D01*
X157950371Y-44356419D01*
X157759758Y-44291061D01*
X157542407Y-44267548D01*
X157297636Y-44285314D01*
X157024761Y-44343790D01*
X156994699Y-44352198D01*
X156760880Y-44432988D01*
X156502268Y-44547362D01*
X156227340Y-44690513D01*
X155944571Y-44857633D01*
X155662436Y-45043914D01*
X155389411Y-45244550D01*
X155307804Y-45309025D01*
X155211265Y-45388804D01*
X155098833Y-45485161D01*
X154976640Y-45592470D01*
X154850816Y-45705103D01*
X154727491Y-45817436D01*
X154612795Y-45923841D01*
X154512860Y-46018691D01*
X154433815Y-46096362D01*
X154381791Y-46151226D01*
X154363355Y-46175829D01*
X154369416Y-46197957D01*
M02*
