%TF.GenerationSoftware,KiCad,Pcbnew,5.1.4-e60b266~84~ubuntu18.04.1*%
%TF.CreationDate,2019-10-21T10:52:58-03:00*%
%TF.ProjectId,Xbee,58626565-2e6b-4696-9361-645f70636258,rev?*%
%TF.SameCoordinates,Original*%
%TF.FileFunction,Copper,L2,Bot*%
%TF.FilePolarity,Positive*%
%FSLAX46Y46*%
G04 Gerber Fmt 4.6, Leading zero omitted, Abs format (unit mm)*
G04 Created by KiCad (PCBNEW 5.1.4-e60b266~84~ubuntu18.04.1) date 2019-10-21 10:52:58*
%MOMM*%
%LPD*%
G04 APERTURE LIST*
%ADD10C,1.700000*%
%ADD11R,1.400000X1.400000*%
%ADD12C,1.400000*%
%ADD13O,1.700000X1.700000*%
%ADD14R,1.700000X1.700000*%
%ADD15C,3.500000*%
%ADD16O,1.350000X1.350000*%
%ADD17R,1.350000X1.350000*%
%ADD18C,2.000000*%
%ADD19C,3.000000*%
%ADD20R,3.000000X3.000000*%
%ADD21C,2.500000*%
%ADD22C,1.440000*%
%ADD23O,2.000000X2.000000*%
%ADD24R,2.000000X2.000000*%
%ADD25C,0.800000*%
%ADD26C,0.500000*%
%ADD27C,1.270000*%
%ADD28C,0.750000*%
%ADD29C,0.254000*%
G04 APERTURE END LIST*
D10*
X150450000Y-76425000D03*
X150450000Y-69925000D03*
X154950000Y-76425000D03*
X154950000Y-69925000D03*
X153025000Y-33875000D03*
X153025000Y-40375000D03*
X148525000Y-33875000D03*
X148525000Y-40375000D03*
D11*
X145756640Y-44444720D03*
D12*
X143756640Y-44444720D03*
X141756640Y-44444720D03*
X139756640Y-44444720D03*
X137756640Y-44444720D03*
X135756640Y-44444720D03*
X133756640Y-44444720D03*
X131756640Y-44444720D03*
X129756640Y-44444720D03*
X127756640Y-44444720D03*
X127756640Y-66444720D03*
X129756640Y-66444720D03*
X131756640Y-66444720D03*
X133756640Y-66444720D03*
X135756640Y-66444720D03*
X137756640Y-66444720D03*
X139756640Y-66444720D03*
X141756640Y-66444720D03*
X143756640Y-66444720D03*
X145756640Y-66444720D03*
D13*
X152000000Y-44000000D03*
D14*
X154540000Y-44000000D03*
D15*
X160000000Y-32775000D03*
X82625000Y-77425000D03*
X160000000Y-77425000D03*
X82875000Y-32775000D03*
D16*
X127795040Y-69582360D03*
X129795040Y-69582360D03*
X131795040Y-69582360D03*
X133795040Y-69582360D03*
X135795040Y-69582360D03*
X137795040Y-69582360D03*
X139795040Y-69582360D03*
X141795040Y-69582360D03*
X143795040Y-69582360D03*
D17*
X145795040Y-69582360D03*
D16*
X127750000Y-41148000D03*
X129750000Y-41148000D03*
X131750000Y-41148000D03*
X133750000Y-41148000D03*
X135750000Y-41148000D03*
X137750000Y-41148000D03*
X139750000Y-41148000D03*
X141750000Y-41148000D03*
X143750000Y-41148000D03*
D17*
X145750000Y-41148000D03*
D18*
X130775000Y-74825000D03*
X135300000Y-74825000D03*
D19*
X104905000Y-73300000D03*
D20*
X99825000Y-73300000D03*
D19*
X91948000Y-44900000D03*
D21*
X97898000Y-46850000D03*
D19*
X97948000Y-59100000D03*
X85898000Y-59050000D03*
D21*
X85898000Y-46850000D03*
D22*
X145110000Y-74830000D03*
X142570000Y-74830000D03*
X140030000Y-74830000D03*
D23*
X123685000Y-34360000D03*
X123685000Y-36900000D03*
X121145000Y-34360000D03*
X121145000Y-36900000D03*
X118605000Y-34360000D03*
X118605000Y-36900000D03*
X116065000Y-34360000D03*
X116065000Y-36900000D03*
X113525000Y-34360000D03*
D24*
X113525000Y-36900000D03*
D13*
X154000000Y-67000000D03*
D14*
X156540000Y-67000000D03*
D20*
X88025000Y-73275000D03*
D19*
X93105000Y-73275000D03*
D14*
X143465000Y-35225000D03*
D13*
X140925000Y-35225000D03*
X138385000Y-35225000D03*
X135845000Y-35225000D03*
X133305000Y-35225000D03*
D20*
X104139000Y-36550000D03*
D19*
X99059000Y-36550000D03*
X88354000Y-36600000D03*
D20*
X93434000Y-36600000D03*
D13*
X123250000Y-69750000D03*
X120710000Y-69750000D03*
D14*
X118170000Y-69750000D03*
D13*
X128125000Y-34060000D03*
D14*
X128125000Y-36600000D03*
X111252000Y-41402000D03*
D13*
X113792000Y-41402000D03*
X116332000Y-41402000D03*
D14*
X118373200Y-58205700D03*
D13*
X118373200Y-55665700D03*
D22*
X124250000Y-74830000D03*
X121710000Y-74830000D03*
X119170000Y-74830000D03*
D25*
X111760000Y-53848000D03*
X111760000Y-45212000D03*
X111633000Y-43815000D03*
X102616000Y-44577000D03*
X113284000Y-53848000D03*
X109600000Y-46990000D03*
X109600000Y-52324000D03*
X109601000Y-45720000D03*
X125984000Y-40259000D03*
X130429000Y-47752000D03*
X109601000Y-50800000D03*
X119126000Y-47752000D03*
X119634000Y-45847000D03*
X121920000Y-46863000D03*
X135763000Y-46863000D03*
X129794000Y-63373000D03*
X113665000Y-38989000D03*
X123005315Y-42926000D03*
X121920000Y-38989000D03*
X108204000Y-33020000D03*
X114050000Y-67450000D03*
X120523000Y-49784000D03*
X129129731Y-50509765D03*
X108331000Y-62738000D03*
X141351000Y-55372000D03*
X148336000Y-55499000D03*
X151384000Y-55499000D03*
X136652000Y-52070000D03*
X123063000Y-61722000D03*
X136652000Y-61722000D03*
X138811000Y-56769000D03*
X125222000Y-59817000D03*
X125222000Y-67818000D03*
X112776000Y-55245000D03*
D26*
X85852000Y-56912000D02*
X85898000Y-59050000D01*
X85852000Y-52705000D02*
X85852000Y-56912000D01*
X89281000Y-49276000D02*
X85852000Y-52705000D01*
X95264000Y-49276000D02*
X89281000Y-49276000D01*
X97898000Y-46850000D02*
X97690000Y-46850000D01*
X97690000Y-46850000D02*
X95264000Y-49276000D01*
X111760000Y-53848000D02*
X111760000Y-45212000D01*
X111633000Y-43815000D02*
X103378000Y-43815000D01*
X103378000Y-43815000D02*
X102616000Y-44577000D01*
X123685000Y-34360000D02*
X124784000Y-34360000D01*
X124784000Y-34360000D02*
X125984000Y-35560000D01*
X125984000Y-35560000D02*
X125984000Y-40259000D01*
X145756640Y-45644720D02*
X145756640Y-44444720D01*
X143649360Y-47752000D02*
X145756640Y-45644720D01*
X130429000Y-47752000D02*
X143649360Y-47752000D01*
X119126000Y-47752000D02*
X130429000Y-47752000D01*
X143750000Y-39795406D02*
X143750000Y-40750000D01*
X138385000Y-35225000D02*
X138385000Y-36427081D01*
X138385000Y-36427081D02*
X138882919Y-36925000D01*
X138882919Y-36925000D02*
X140225000Y-36925000D01*
X140225000Y-36925000D02*
X142825000Y-39525000D01*
X142825000Y-39525000D02*
X143479594Y-39525000D01*
X143479594Y-39525000D02*
X143750000Y-39795406D01*
X130367081Y-33020000D02*
X137668000Y-33020000D01*
X129327081Y-34060000D02*
X130367081Y-33020000D01*
X128125000Y-34060000D02*
X129327081Y-34060000D01*
X138385000Y-33737000D02*
X138385000Y-35225000D01*
X137668000Y-33020000D02*
X138385000Y-33737000D01*
X141750000Y-39795406D02*
X139954594Y-38000000D01*
X141750000Y-40750000D02*
X141750000Y-39795406D01*
X139954594Y-38000000D02*
X136725000Y-38000000D01*
X135845000Y-37120000D02*
X135845000Y-35225000D01*
X136725000Y-38000000D02*
X135845000Y-37120000D01*
X135845000Y-34022919D02*
X135845000Y-35225000D01*
X135542091Y-33720010D02*
X135845000Y-34022919D01*
X130408500Y-35666500D02*
X130408500Y-35199500D01*
X129475000Y-36600000D02*
X130408500Y-35666500D01*
X131887990Y-33720010D02*
X135542091Y-33720010D01*
X130408500Y-35199500D02*
X131887990Y-33720010D01*
X128125000Y-36600000D02*
X129475000Y-36600000D01*
X138354360Y-45847000D02*
X139756640Y-44444720D01*
X119634000Y-45847000D02*
X138354360Y-45847000D01*
X121920000Y-46863000D02*
X135763000Y-46863000D01*
X129750000Y-44438080D02*
X129756640Y-44444720D01*
X123685000Y-38314213D02*
X123698000Y-38327213D01*
X123685000Y-36900000D02*
X123685000Y-38314213D01*
X123698000Y-38327213D02*
X123698000Y-41529000D01*
X123698000Y-41529000D02*
X124841000Y-42672000D01*
X129452000Y-42672000D02*
X129750000Y-42374000D01*
X124841000Y-42672000D02*
X129452000Y-42672000D01*
X129750000Y-41148000D02*
X129750000Y-42374000D01*
X129750000Y-42374000D02*
X129750000Y-44438080D01*
X118373200Y-59555700D02*
X118364000Y-59564900D01*
X118373200Y-58205700D02*
X118373200Y-59555700D01*
X118364000Y-59564900D02*
X118364000Y-64643000D01*
X120165720Y-66444720D02*
X127756640Y-66444720D01*
X118364000Y-64643000D02*
X120165720Y-66444720D01*
X122112011Y-62676011D02*
X122809000Y-63373000D01*
X122112011Y-54574046D02*
X122112011Y-62676011D01*
X117702965Y-50165000D02*
X122112011Y-54574046D01*
X116840000Y-50038000D02*
X116967000Y-50165000D01*
X122809000Y-63373000D02*
X129794000Y-63373000D01*
X116840000Y-43180000D02*
X116840000Y-50038000D01*
X116859002Y-42799000D02*
X116840000Y-43180000D01*
X116065000Y-38314213D02*
X116205000Y-38454213D01*
X116065000Y-36900000D02*
X116065000Y-38314213D01*
X116967000Y-50165000D02*
X117702965Y-50165000D01*
X118110000Y-40767000D02*
X118110000Y-41548002D01*
X116205000Y-38862000D02*
X118110000Y-40767000D01*
X116205000Y-38454213D02*
X116205000Y-38862000D01*
X118110000Y-41548002D02*
X116859002Y-42799000D01*
X118170000Y-71100000D02*
X118170000Y-69750000D01*
X133749400Y-71628000D02*
X118698000Y-71628000D01*
X118698000Y-71628000D02*
X118170000Y-71100000D01*
X135795040Y-69582360D02*
X133749400Y-71628000D01*
X109982000Y-37846000D02*
X111125000Y-38989000D01*
X111125000Y-38989000D02*
X113099315Y-38989000D01*
X113099315Y-38989000D02*
X113665000Y-38989000D01*
X112075989Y-32831011D02*
X109982000Y-34925000D01*
X109982000Y-34925000D02*
X109982000Y-37846000D01*
X119616011Y-32831011D02*
X112075989Y-32831011D01*
X121145000Y-34360000D02*
X119616011Y-32831011D01*
X123005315Y-42926000D02*
X121920000Y-41840685D01*
X121920000Y-41840685D02*
X121920000Y-38989000D01*
X121158000Y-64389000D02*
X140716000Y-64389000D01*
X113792000Y-52451000D02*
X114808000Y-53467000D01*
X113792000Y-41402000D02*
X113792000Y-52451000D01*
X114808000Y-53467000D02*
X119507000Y-53467000D01*
X140716000Y-64389000D02*
X141756640Y-65429640D01*
X119507000Y-53467000D02*
X120650000Y-54610000D01*
X141756640Y-65429640D02*
X141756640Y-66444720D01*
X120650000Y-54610000D02*
X120650000Y-63881000D01*
X120650000Y-63881000D02*
X121158000Y-64389000D01*
X116332000Y-41402000D02*
X114808000Y-39878000D01*
X102387000Y-39878000D02*
X99059000Y-36550000D01*
X114808000Y-39878000D02*
X102387000Y-39878000D01*
X140970000Y-32131000D02*
X140925000Y-35225000D01*
X108204000Y-33020000D02*
X108204000Y-32131000D01*
X108204000Y-32131000D02*
X140970000Y-32131000D01*
D27*
X88354000Y-39214000D02*
X91948000Y-44900000D01*
X88354000Y-36600000D02*
X88354000Y-39214000D01*
D26*
X114050000Y-67450000D02*
X118410000Y-67450000D01*
X119860001Y-68900001D02*
X120710000Y-69750000D01*
X118410000Y-67450000D02*
X119860001Y-68900001D01*
X120922999Y-50183999D02*
X128632001Y-50183999D01*
X120523000Y-49784000D02*
X120922999Y-50183999D01*
X128632001Y-50183999D02*
X128957767Y-50509765D01*
X128957767Y-50509765D02*
X129129731Y-50509765D01*
D28*
X96205000Y-70175000D02*
X93105000Y-73275000D01*
X102650000Y-70175000D02*
X96205000Y-70175000D01*
X106858161Y-65966839D02*
X102650000Y-70175000D01*
X106858161Y-62783999D02*
X106858161Y-65966839D01*
X108331000Y-62738000D02*
X106858161Y-62783999D01*
D26*
X141351000Y-55372000D02*
X148209000Y-55372000D01*
X148209000Y-55372000D02*
X148336000Y-55499000D01*
X141200001Y-73659999D02*
X140749999Y-74110001D01*
X140749999Y-74110001D02*
X140030000Y-74830000D01*
X148639003Y-73659999D02*
X141200001Y-73659999D01*
X151783999Y-70515003D02*
X148639003Y-73659999D01*
X151783999Y-55898999D02*
X151783999Y-70515003D01*
X151384000Y-55499000D02*
X151783999Y-55898999D01*
X147955000Y-52070000D02*
X136652000Y-52070000D01*
X149860000Y-53975000D02*
X147955000Y-52070000D01*
X149860000Y-68072000D02*
X149860000Y-53975000D01*
X146558000Y-71374000D02*
X149860000Y-68072000D01*
X135300000Y-74825000D02*
X138751000Y-71374000D01*
X138751000Y-71374000D02*
X146558000Y-71374000D01*
X141850001Y-75549999D02*
X142570000Y-74830000D01*
X140946000Y-76454000D02*
X141850001Y-75549999D01*
X135300000Y-74825000D02*
X136929000Y-76454000D01*
X136929000Y-76454000D02*
X140946000Y-76454000D01*
X123063000Y-61722000D02*
X136652000Y-61722000D01*
X122429999Y-75549999D02*
X121710000Y-74830000D01*
X123080000Y-76200000D02*
X122429999Y-75549999D01*
X127985787Y-76200000D02*
X123080000Y-76200000D01*
X130775000Y-74825000D02*
X129360787Y-74825000D01*
X129360787Y-74825000D02*
X127985787Y-76200000D01*
X138811000Y-56769000D02*
X135763000Y-59817000D01*
X135763000Y-59817000D02*
X125222000Y-59817000D01*
X119888000Y-67818000D02*
X125222000Y-67818000D01*
X113792000Y-66040000D02*
X118110000Y-66040000D01*
X112776000Y-55245000D02*
X112776000Y-65024000D01*
X118110000Y-66040000D02*
X119888000Y-67818000D01*
X112776000Y-65024000D02*
X113792000Y-66040000D01*
D29*
G36*
X107314718Y-32131000D02*
G01*
X107319000Y-32174477D01*
X107319000Y-32481546D01*
X107286795Y-32529744D01*
X107208774Y-32718102D01*
X107169000Y-32918061D01*
X107169000Y-33121939D01*
X107208774Y-33321898D01*
X107286795Y-33510256D01*
X107400063Y-33679774D01*
X107544226Y-33823937D01*
X107713744Y-33937205D01*
X107902102Y-34015226D01*
X108102061Y-34055000D01*
X108305939Y-34055000D01*
X108505898Y-34015226D01*
X108694256Y-33937205D01*
X108863774Y-33823937D01*
X109007937Y-33679774D01*
X109121205Y-33510256D01*
X109199226Y-33321898D01*
X109239000Y-33121939D01*
X109239000Y-33016000D01*
X110639421Y-33016000D01*
X109386956Y-34268466D01*
X109353183Y-34296183D01*
X109242589Y-34430942D01*
X109160411Y-34584688D01*
X109129130Y-34687805D01*
X109111627Y-34745506D01*
X109109805Y-34751511D01*
X109097000Y-34881524D01*
X109097000Y-34881531D01*
X109092719Y-34925000D01*
X109097000Y-34968469D01*
X109097001Y-37802521D01*
X109092719Y-37846000D01*
X109109805Y-38019490D01*
X109160412Y-38186313D01*
X109242590Y-38340059D01*
X109325468Y-38441046D01*
X109325471Y-38441049D01*
X109353184Y-38474817D01*
X109386951Y-38502529D01*
X109877422Y-38993000D01*
X102753579Y-38993000D01*
X102402372Y-38641793D01*
X102514518Y-38675812D01*
X102639000Y-38688072D01*
X103853250Y-38685000D01*
X104012000Y-38526250D01*
X104012000Y-36677000D01*
X104266000Y-36677000D01*
X104266000Y-38526250D01*
X104424750Y-38685000D01*
X105639000Y-38688072D01*
X105763482Y-38675812D01*
X105883180Y-38639502D01*
X105993494Y-38580537D01*
X106090185Y-38501185D01*
X106169537Y-38404494D01*
X106228502Y-38294180D01*
X106264812Y-38174482D01*
X106277072Y-38050000D01*
X106274000Y-36835750D01*
X106115250Y-36677000D01*
X104266000Y-36677000D01*
X104012000Y-36677000D01*
X102162750Y-36677000D01*
X102004000Y-36835750D01*
X102000928Y-38050000D01*
X102013188Y-38174482D01*
X102047207Y-38286629D01*
X101059637Y-37299058D01*
X101111953Y-37172756D01*
X101194000Y-36760279D01*
X101194000Y-36339721D01*
X101111953Y-35927244D01*
X100951012Y-35538698D01*
X100717363Y-35189017D01*
X100578346Y-35050000D01*
X102000928Y-35050000D01*
X102004000Y-36264250D01*
X102162750Y-36423000D01*
X104012000Y-36423000D01*
X104012000Y-34573750D01*
X104266000Y-34573750D01*
X104266000Y-36423000D01*
X106115250Y-36423000D01*
X106274000Y-36264250D01*
X106277072Y-35050000D01*
X106264812Y-34925518D01*
X106228502Y-34805820D01*
X106169537Y-34695506D01*
X106090185Y-34598815D01*
X105993494Y-34519463D01*
X105883180Y-34460498D01*
X105763482Y-34424188D01*
X105639000Y-34411928D01*
X104424750Y-34415000D01*
X104266000Y-34573750D01*
X104012000Y-34573750D01*
X103853250Y-34415000D01*
X102639000Y-34411928D01*
X102514518Y-34424188D01*
X102394820Y-34460498D01*
X102284506Y-34519463D01*
X102187815Y-34598815D01*
X102108463Y-34695506D01*
X102049498Y-34805820D01*
X102013188Y-34925518D01*
X102000928Y-35050000D01*
X100578346Y-35050000D01*
X100419983Y-34891637D01*
X100070302Y-34657988D01*
X99681756Y-34497047D01*
X99269279Y-34415000D01*
X98848721Y-34415000D01*
X98436244Y-34497047D01*
X98047698Y-34657988D01*
X97698017Y-34891637D01*
X97400637Y-35189017D01*
X97166988Y-35538698D01*
X97006047Y-35927244D01*
X96924000Y-36339721D01*
X96924000Y-36760279D01*
X97006047Y-37172756D01*
X97166988Y-37561302D01*
X97400637Y-37910983D01*
X97698017Y-38208363D01*
X98047698Y-38442012D01*
X98436244Y-38602953D01*
X98848721Y-38685000D01*
X99269279Y-38685000D01*
X99681756Y-38602953D01*
X99808058Y-38550637D01*
X101730470Y-40473049D01*
X101758183Y-40506817D01*
X101791951Y-40534530D01*
X101791953Y-40534532D01*
X101870889Y-40599313D01*
X101892941Y-40617411D01*
X102046687Y-40699589D01*
X102213510Y-40750195D01*
X102343523Y-40763000D01*
X102343531Y-40763000D01*
X102387000Y-40767281D01*
X102430469Y-40763000D01*
X109763928Y-40763000D01*
X109763928Y-42252000D01*
X109776188Y-42376482D01*
X109812498Y-42496180D01*
X109871463Y-42606494D01*
X109950815Y-42703185D01*
X110047506Y-42782537D01*
X110157820Y-42841502D01*
X110277518Y-42877812D01*
X110402000Y-42890072D01*
X112102000Y-42890072D01*
X112226482Y-42877812D01*
X112346180Y-42841502D01*
X112456494Y-42782537D01*
X112553185Y-42703185D01*
X112632537Y-42606494D01*
X112691502Y-42496180D01*
X112712393Y-42427313D01*
X112736866Y-42457134D01*
X112907000Y-42596760D01*
X112907001Y-52407521D01*
X112902719Y-52451000D01*
X112919805Y-52624490D01*
X112970412Y-52791313D01*
X113052590Y-52945059D01*
X113135468Y-53046046D01*
X113135471Y-53046049D01*
X113163184Y-53079817D01*
X113196951Y-53107529D01*
X114151470Y-54062049D01*
X114179183Y-54095817D01*
X114212951Y-54123530D01*
X114212953Y-54123532D01*
X114245080Y-54149898D01*
X114313941Y-54206411D01*
X114467687Y-54288589D01*
X114555783Y-54315313D01*
X114634509Y-54339195D01*
X114649306Y-54340652D01*
X114764523Y-54352000D01*
X114764531Y-54352000D01*
X114808000Y-54356281D01*
X114851469Y-54352000D01*
X117680748Y-54352000D01*
X117544186Y-54424994D01*
X117318066Y-54610566D01*
X117132494Y-54836686D01*
X116994601Y-55094666D01*
X116909687Y-55374589D01*
X116881015Y-55665700D01*
X116909687Y-55956811D01*
X116994601Y-56236734D01*
X117132494Y-56494714D01*
X117318066Y-56720834D01*
X117347887Y-56745307D01*
X117279020Y-56766198D01*
X117168706Y-56825163D01*
X117072015Y-56904515D01*
X116992663Y-57001206D01*
X116933698Y-57111520D01*
X116897388Y-57231218D01*
X116885128Y-57355700D01*
X116885128Y-59055700D01*
X116897388Y-59180182D01*
X116933698Y-59299880D01*
X116992663Y-59410194D01*
X117072015Y-59506885D01*
X117168706Y-59586237D01*
X117279020Y-59645202D01*
X117398718Y-59681512D01*
X117479000Y-59689419D01*
X117479001Y-64599521D01*
X117474719Y-64643000D01*
X117491805Y-64816490D01*
X117542412Y-64983313D01*
X117624590Y-65137059D01*
X117639314Y-65155000D01*
X114158579Y-65155000D01*
X113661000Y-64657422D01*
X113661000Y-55783454D01*
X113693205Y-55735256D01*
X113771226Y-55546898D01*
X113811000Y-55346939D01*
X113811000Y-55143061D01*
X113771226Y-54943102D01*
X113693205Y-54754744D01*
X113579937Y-54585226D01*
X113435774Y-54441063D01*
X113266256Y-54327795D01*
X113077898Y-54249774D01*
X112877939Y-54210000D01*
X112730331Y-54210000D01*
X112755226Y-54149898D01*
X112795000Y-53949939D01*
X112795000Y-53746061D01*
X112755226Y-53546102D01*
X112677205Y-53357744D01*
X112645000Y-53309546D01*
X112645000Y-45750454D01*
X112677205Y-45702256D01*
X112755226Y-45513898D01*
X112795000Y-45313939D01*
X112795000Y-45110061D01*
X112755226Y-44910102D01*
X112677205Y-44721744D01*
X112563937Y-44552226D01*
X112419774Y-44408063D01*
X112250256Y-44294795D01*
X112061898Y-44216774D01*
X111861939Y-44177000D01*
X111658061Y-44177000D01*
X111458102Y-44216774D01*
X111269744Y-44294795D01*
X111102365Y-44406634D01*
X111088404Y-44360611D01*
X111029723Y-44250828D01*
X110950753Y-44154602D01*
X110854527Y-44075632D01*
X110744744Y-44016951D01*
X110625622Y-43980816D01*
X110501740Y-43968615D01*
X103501740Y-43968615D01*
X103377858Y-43980816D01*
X103258736Y-44016951D01*
X103148953Y-44075632D01*
X103052727Y-44154602D01*
X102973757Y-44250828D01*
X102915076Y-44360611D01*
X102878941Y-44479733D01*
X102866740Y-44603615D01*
X102866740Y-53603615D01*
X102878941Y-53727497D01*
X102915076Y-53846619D01*
X102973757Y-53956402D01*
X103052727Y-54052628D01*
X103148953Y-54131598D01*
X103258736Y-54190279D01*
X103377858Y-54226414D01*
X103501740Y-54238615D01*
X110501740Y-54238615D01*
X110625622Y-54226414D01*
X110744744Y-54190279D01*
X110774838Y-54174193D01*
X110842795Y-54338256D01*
X110956063Y-54507774D01*
X111100226Y-54651937D01*
X111269744Y-54765205D01*
X111458102Y-54843226D01*
X111658061Y-54883000D01*
X111805669Y-54883000D01*
X111780774Y-54943102D01*
X111741000Y-55143061D01*
X111741000Y-55346939D01*
X111780774Y-55546898D01*
X111858795Y-55735256D01*
X111891000Y-55783454D01*
X111891001Y-64980521D01*
X111886719Y-65024000D01*
X111903805Y-65197490D01*
X111954412Y-65364313D01*
X112036590Y-65518059D01*
X112119468Y-65619046D01*
X112119471Y-65619049D01*
X112147184Y-65652817D01*
X112180951Y-65680529D01*
X113135470Y-66635049D01*
X113163183Y-66668817D01*
X113196951Y-66696530D01*
X113196953Y-66696532D01*
X113268452Y-66755210D01*
X113275387Y-66760902D01*
X113246063Y-66790226D01*
X113132795Y-66959744D01*
X113054774Y-67148102D01*
X113015000Y-67348061D01*
X113015000Y-67551939D01*
X113054774Y-67751898D01*
X113132795Y-67940256D01*
X113246063Y-68109774D01*
X113390226Y-68253937D01*
X113559744Y-68367205D01*
X113748102Y-68445226D01*
X113948061Y-68485000D01*
X114151939Y-68485000D01*
X114351898Y-68445226D01*
X114540256Y-68367205D01*
X114588454Y-68335000D01*
X117029981Y-68335000D01*
X116965506Y-68369463D01*
X116868815Y-68448815D01*
X116789463Y-68545506D01*
X116730498Y-68655820D01*
X116694188Y-68775518D01*
X116681928Y-68900000D01*
X116681928Y-70600000D01*
X116694188Y-70724482D01*
X116730498Y-70844180D01*
X116789463Y-70954494D01*
X116868815Y-71051185D01*
X116965506Y-71130537D01*
X117075820Y-71189502D01*
X117195518Y-71225812D01*
X117294065Y-71235518D01*
X117297805Y-71273490D01*
X117302112Y-71287687D01*
X117348411Y-71440312D01*
X117430589Y-71594058D01*
X117541183Y-71728817D01*
X117574956Y-71756534D01*
X118041466Y-72223044D01*
X118069183Y-72256817D01*
X118203941Y-72367411D01*
X118357687Y-72449589D01*
X118524510Y-72500195D01*
X118654523Y-72513000D01*
X118654531Y-72513000D01*
X118698000Y-72517281D01*
X118741469Y-72513000D01*
X133705931Y-72513000D01*
X133749400Y-72517281D01*
X133792869Y-72513000D01*
X133792877Y-72513000D01*
X133922890Y-72500195D01*
X134089713Y-72449589D01*
X134243459Y-72367411D01*
X134378217Y-72256817D01*
X134405934Y-72223044D01*
X135736619Y-70892360D01*
X135859391Y-70892360D01*
X136051845Y-70873405D01*
X136298781Y-70798498D01*
X136526358Y-70676855D01*
X136725832Y-70513152D01*
X136795040Y-70428821D01*
X136864248Y-70513152D01*
X137063722Y-70676855D01*
X137291299Y-70798498D01*
X137538235Y-70873405D01*
X137730689Y-70892360D01*
X137859391Y-70892360D01*
X137994354Y-70879067D01*
X135646525Y-73226897D01*
X135461033Y-73190000D01*
X135138967Y-73190000D01*
X134823088Y-73252832D01*
X134525537Y-73376082D01*
X134257748Y-73555013D01*
X134030013Y-73782748D01*
X133851082Y-74050537D01*
X133727832Y-74348088D01*
X133665000Y-74663967D01*
X133665000Y-74986033D01*
X133727832Y-75301912D01*
X133851082Y-75599463D01*
X134030013Y-75867252D01*
X134257748Y-76094987D01*
X134525537Y-76273918D01*
X134823088Y-76397168D01*
X135138967Y-76460000D01*
X135461033Y-76460000D01*
X135646525Y-76423104D01*
X136272470Y-77049049D01*
X136300183Y-77082817D01*
X136333951Y-77110530D01*
X136333953Y-77110532D01*
X136430904Y-77190098D01*
X136434941Y-77193411D01*
X136588687Y-77275589D01*
X136755510Y-77326195D01*
X136885523Y-77339000D01*
X136885531Y-77339000D01*
X136929000Y-77343281D01*
X136972469Y-77339000D01*
X140902531Y-77339000D01*
X140946000Y-77343281D01*
X140989469Y-77339000D01*
X140989477Y-77339000D01*
X141119490Y-77326195D01*
X141286313Y-77275589D01*
X141440059Y-77193411D01*
X141574817Y-77082817D01*
X141602534Y-77049044D01*
X142158047Y-76493531D01*
X148959389Y-76493531D01*
X149001401Y-76783019D01*
X149099081Y-77058747D01*
X149172528Y-77196157D01*
X149421603Y-77273792D01*
X150270395Y-76425000D01*
X150629605Y-76425000D01*
X151478397Y-77273792D01*
X151727472Y-77196157D01*
X151853371Y-76932117D01*
X151925339Y-76648589D01*
X151933445Y-76493531D01*
X153459389Y-76493531D01*
X153501401Y-76783019D01*
X153599081Y-77058747D01*
X153672528Y-77196157D01*
X153921603Y-77273792D01*
X154770395Y-76425000D01*
X155129605Y-76425000D01*
X155978397Y-77273792D01*
X156227472Y-77196157D01*
X156353371Y-76932117D01*
X156425339Y-76648589D01*
X156440611Y-76356469D01*
X156398599Y-76066981D01*
X156300919Y-75791253D01*
X156227472Y-75653843D01*
X155978397Y-75576208D01*
X155129605Y-76425000D01*
X154770395Y-76425000D01*
X153921603Y-75576208D01*
X153672528Y-75653843D01*
X153546629Y-75917883D01*
X153474661Y-76201411D01*
X153459389Y-76493531D01*
X151933445Y-76493531D01*
X151940611Y-76356469D01*
X151898599Y-76066981D01*
X151800919Y-75791253D01*
X151727472Y-75653843D01*
X151478397Y-75576208D01*
X150629605Y-76425000D01*
X150270395Y-76425000D01*
X149421603Y-75576208D01*
X149172528Y-75653843D01*
X149046629Y-75917883D01*
X148974661Y-76201411D01*
X148959389Y-76493531D01*
X142158047Y-76493531D01*
X142466579Y-76185000D01*
X142703456Y-76185000D01*
X142965239Y-76132928D01*
X143211833Y-76030785D01*
X143433762Y-75882497D01*
X143550699Y-75765560D01*
X144354045Y-75765560D01*
X144415932Y-76001368D01*
X144657790Y-76114266D01*
X144917027Y-76177811D01*
X145183680Y-76189561D01*
X145447501Y-76149063D01*
X145698353Y-76057875D01*
X145804068Y-76001368D01*
X145865955Y-75765560D01*
X145110000Y-75009605D01*
X144354045Y-75765560D01*
X143550699Y-75765560D01*
X143622497Y-75693762D01*
X143770785Y-75471833D01*
X143840438Y-75303676D01*
X143882125Y-75418353D01*
X143938632Y-75524068D01*
X144174440Y-75585955D01*
X144930395Y-74830000D01*
X144916253Y-74815858D01*
X145095858Y-74636253D01*
X145110000Y-74650395D01*
X145124143Y-74636253D01*
X145303748Y-74815858D01*
X145289605Y-74830000D01*
X146045560Y-75585955D01*
X146281368Y-75524068D01*
X146340867Y-75396603D01*
X149601208Y-75396603D01*
X150450000Y-76245395D01*
X151298792Y-75396603D01*
X154101208Y-75396603D01*
X154950000Y-76245395D01*
X155798792Y-75396603D01*
X155721157Y-75147528D01*
X155457117Y-75021629D01*
X155173589Y-74949661D01*
X154881469Y-74934389D01*
X154591981Y-74976401D01*
X154316253Y-75074081D01*
X154178843Y-75147528D01*
X154101208Y-75396603D01*
X151298792Y-75396603D01*
X151221157Y-75147528D01*
X150957117Y-75021629D01*
X150673589Y-74949661D01*
X150381469Y-74934389D01*
X150091981Y-74976401D01*
X149816253Y-75074081D01*
X149678843Y-75147528D01*
X149601208Y-75396603D01*
X146340867Y-75396603D01*
X146394266Y-75282210D01*
X146457811Y-75022973D01*
X146469561Y-74756320D01*
X146437122Y-74544999D01*
X148595534Y-74544999D01*
X148639003Y-74549280D01*
X148682472Y-74544999D01*
X148682480Y-74544999D01*
X148812493Y-74532194D01*
X148979316Y-74481588D01*
X149133062Y-74399410D01*
X149267820Y-74288816D01*
X149295537Y-74255043D01*
X152379048Y-71171533D01*
X152412816Y-71143820D01*
X152448779Y-71100000D01*
X152503802Y-71032954D01*
X152523410Y-71009062D01*
X152605588Y-70855316D01*
X152645277Y-70724482D01*
X152656194Y-70688494D01*
X152662111Y-70628411D01*
X152668999Y-70558480D01*
X152668999Y-70558472D01*
X152673280Y-70515003D01*
X152668999Y-70471534D01*
X152668999Y-69778740D01*
X153465000Y-69778740D01*
X153465000Y-70071260D01*
X153522068Y-70358158D01*
X153634010Y-70628411D01*
X153796525Y-70871632D01*
X154003368Y-71078475D01*
X154246589Y-71240990D01*
X154516842Y-71352932D01*
X154803740Y-71410000D01*
X155096260Y-71410000D01*
X155383158Y-71352932D01*
X155653411Y-71240990D01*
X155896632Y-71078475D01*
X156103475Y-70871632D01*
X156265990Y-70628411D01*
X156377932Y-70358158D01*
X156435000Y-70071260D01*
X156435000Y-69778740D01*
X156377932Y-69491842D01*
X156265990Y-69221589D01*
X156103475Y-68978368D01*
X155896632Y-68771525D01*
X155653411Y-68609010D01*
X155383158Y-68497068D01*
X155096260Y-68440000D01*
X154803740Y-68440000D01*
X154516842Y-68497068D01*
X154246589Y-68609010D01*
X154003368Y-68771525D01*
X153796525Y-68978368D01*
X153634010Y-69221589D01*
X153522068Y-69491842D01*
X153465000Y-69778740D01*
X152668999Y-69778740D01*
X152668999Y-67660084D01*
X152759294Y-67829014D01*
X152944866Y-68055134D01*
X153170986Y-68240706D01*
X153428966Y-68378599D01*
X153708889Y-68463513D01*
X153927050Y-68485000D01*
X154072950Y-68485000D01*
X154291111Y-68463513D01*
X154571034Y-68378599D01*
X154829014Y-68240706D01*
X155055134Y-68055134D01*
X155079607Y-68025313D01*
X155100498Y-68094180D01*
X155159463Y-68204494D01*
X155238815Y-68301185D01*
X155335506Y-68380537D01*
X155445820Y-68439502D01*
X155565518Y-68475812D01*
X155690000Y-68488072D01*
X156254250Y-68485000D01*
X156413000Y-68326250D01*
X156413000Y-67127000D01*
X156667000Y-67127000D01*
X156667000Y-68326250D01*
X156825750Y-68485000D01*
X157390000Y-68488072D01*
X157514482Y-68475812D01*
X157634180Y-68439502D01*
X157744494Y-68380537D01*
X157841185Y-68301185D01*
X157920537Y-68204494D01*
X157979502Y-68094180D01*
X158015812Y-67974482D01*
X158028072Y-67850000D01*
X158025000Y-67285750D01*
X157866250Y-67127000D01*
X156667000Y-67127000D01*
X156413000Y-67127000D01*
X156393000Y-67127000D01*
X156393000Y-66873000D01*
X156413000Y-66873000D01*
X156413000Y-65673750D01*
X156667000Y-65673750D01*
X156667000Y-66873000D01*
X157866250Y-66873000D01*
X158025000Y-66714250D01*
X158028072Y-66150000D01*
X158015812Y-66025518D01*
X157979502Y-65905820D01*
X157920537Y-65795506D01*
X157841185Y-65698815D01*
X157744494Y-65619463D01*
X157634180Y-65560498D01*
X157514482Y-65524188D01*
X157390000Y-65511928D01*
X156825750Y-65515000D01*
X156667000Y-65673750D01*
X156413000Y-65673750D01*
X156254250Y-65515000D01*
X155690000Y-65511928D01*
X155565518Y-65524188D01*
X155445820Y-65560498D01*
X155335506Y-65619463D01*
X155238815Y-65698815D01*
X155159463Y-65795506D01*
X155100498Y-65905820D01*
X155079607Y-65974687D01*
X155055134Y-65944866D01*
X154829014Y-65759294D01*
X154571034Y-65621401D01*
X154291111Y-65536487D01*
X154072950Y-65515000D01*
X153927050Y-65515000D01*
X153708889Y-65536487D01*
X153428966Y-65621401D01*
X153170986Y-65759294D01*
X152944866Y-65944866D01*
X152759294Y-66170986D01*
X152668999Y-66339916D01*
X152668999Y-55942465D01*
X152673280Y-55898998D01*
X152668999Y-55855532D01*
X152668999Y-55855522D01*
X152656194Y-55725509D01*
X152605588Y-55558686D01*
X152523410Y-55404940D01*
X152412816Y-55270182D01*
X152390045Y-55251495D01*
X152379226Y-55197102D01*
X152301205Y-55008744D01*
X152187937Y-54839226D01*
X152043774Y-54695063D01*
X151874256Y-54581795D01*
X151685898Y-54503774D01*
X151485939Y-54464000D01*
X151282061Y-54464000D01*
X151082102Y-54503774D01*
X150893744Y-54581795D01*
X150745000Y-54681182D01*
X150745000Y-54018469D01*
X150749281Y-53975000D01*
X150745000Y-53931531D01*
X150745000Y-53931523D01*
X150732195Y-53801510D01*
X150681589Y-53634687D01*
X150599411Y-53480941D01*
X150488817Y-53346183D01*
X150455049Y-53318470D01*
X148611534Y-51474956D01*
X148583817Y-51441183D01*
X148449059Y-51330589D01*
X148295313Y-51248411D01*
X148128490Y-51197805D01*
X147998477Y-51185000D01*
X147998469Y-51185000D01*
X147955000Y-51180719D01*
X147911531Y-51185000D01*
X137190454Y-51185000D01*
X137142256Y-51152795D01*
X136953898Y-51074774D01*
X136753939Y-51035000D01*
X136550061Y-51035000D01*
X136350102Y-51074774D01*
X136161744Y-51152795D01*
X135992226Y-51266063D01*
X135848063Y-51410226D01*
X135734795Y-51579744D01*
X135656774Y-51768102D01*
X135617000Y-51968061D01*
X135617000Y-52171939D01*
X135656774Y-52371898D01*
X135734795Y-52560256D01*
X135848063Y-52729774D01*
X135992226Y-52873937D01*
X136161744Y-52987205D01*
X136350102Y-53065226D01*
X136550061Y-53105000D01*
X136753939Y-53105000D01*
X136953898Y-53065226D01*
X137142256Y-52987205D01*
X137190454Y-52955000D01*
X147588422Y-52955000D01*
X148975001Y-54341580D01*
X148975001Y-54681183D01*
X148826256Y-54581795D01*
X148637898Y-54503774D01*
X148437939Y-54464000D01*
X148234061Y-54464000D01*
X148118431Y-54487000D01*
X141889454Y-54487000D01*
X141841256Y-54454795D01*
X141652898Y-54376774D01*
X141452939Y-54337000D01*
X141249061Y-54337000D01*
X141049102Y-54376774D01*
X140860744Y-54454795D01*
X140691226Y-54568063D01*
X140547063Y-54712226D01*
X140433795Y-54881744D01*
X140355774Y-55070102D01*
X140316000Y-55270061D01*
X140316000Y-55473939D01*
X140355774Y-55673898D01*
X140433795Y-55862256D01*
X140547063Y-56031774D01*
X140691226Y-56175937D01*
X140860744Y-56289205D01*
X141049102Y-56367226D01*
X141249061Y-56407000D01*
X141452939Y-56407000D01*
X141652898Y-56367226D01*
X141841256Y-56289205D01*
X141889454Y-56257000D01*
X147630289Y-56257000D01*
X147676226Y-56302937D01*
X147845744Y-56416205D01*
X148034102Y-56494226D01*
X148234061Y-56534000D01*
X148437939Y-56534000D01*
X148637898Y-56494226D01*
X148826256Y-56416205D01*
X148975001Y-56316817D01*
X148975000Y-67705421D01*
X147108112Y-69572310D01*
X147108112Y-68907360D01*
X147095852Y-68782878D01*
X147059542Y-68663180D01*
X147000577Y-68552866D01*
X146921225Y-68456175D01*
X146824534Y-68376823D01*
X146714220Y-68317858D01*
X146594522Y-68281548D01*
X146470040Y-68269288D01*
X145120040Y-68269288D01*
X144995558Y-68281548D01*
X144875860Y-68317858D01*
X144765546Y-68376823D01*
X144668855Y-68456175D01*
X144595966Y-68544991D01*
X144526358Y-68487865D01*
X144298781Y-68366222D01*
X144051845Y-68291315D01*
X143859391Y-68272360D01*
X143730689Y-68272360D01*
X143538235Y-68291315D01*
X143291299Y-68366222D01*
X143063722Y-68487865D01*
X142864248Y-68651568D01*
X142795040Y-68735899D01*
X142725832Y-68651568D01*
X142526358Y-68487865D01*
X142298781Y-68366222D01*
X142051845Y-68291315D01*
X141859391Y-68272360D01*
X141730689Y-68272360D01*
X141538235Y-68291315D01*
X141291299Y-68366222D01*
X141063722Y-68487865D01*
X140864248Y-68651568D01*
X140795040Y-68735899D01*
X140725832Y-68651568D01*
X140526358Y-68487865D01*
X140298781Y-68366222D01*
X140051845Y-68291315D01*
X139859391Y-68272360D01*
X139730689Y-68272360D01*
X139538235Y-68291315D01*
X139291299Y-68366222D01*
X139063722Y-68487865D01*
X138864248Y-68651568D01*
X138795040Y-68735899D01*
X138725832Y-68651568D01*
X138526358Y-68487865D01*
X138298781Y-68366222D01*
X138051845Y-68291315D01*
X137859391Y-68272360D01*
X137730689Y-68272360D01*
X137538235Y-68291315D01*
X137291299Y-68366222D01*
X137063722Y-68487865D01*
X136864248Y-68651568D01*
X136795040Y-68735899D01*
X136725832Y-68651568D01*
X136526358Y-68487865D01*
X136298781Y-68366222D01*
X136051845Y-68291315D01*
X135859391Y-68272360D01*
X135730689Y-68272360D01*
X135538235Y-68291315D01*
X135291299Y-68366222D01*
X135063722Y-68487865D01*
X134864248Y-68651568D01*
X134795040Y-68735899D01*
X134725832Y-68651568D01*
X134526358Y-68487865D01*
X134298781Y-68366222D01*
X134051845Y-68291315D01*
X133859391Y-68272360D01*
X133730689Y-68272360D01*
X133538235Y-68291315D01*
X133291299Y-68366222D01*
X133063722Y-68487865D01*
X132864248Y-68651568D01*
X132795040Y-68735899D01*
X132725832Y-68651568D01*
X132526358Y-68487865D01*
X132298781Y-68366222D01*
X132051845Y-68291315D01*
X131859391Y-68272360D01*
X131730689Y-68272360D01*
X131538235Y-68291315D01*
X131291299Y-68366222D01*
X131063722Y-68487865D01*
X130864248Y-68651568D01*
X130795040Y-68735899D01*
X130725832Y-68651568D01*
X130526358Y-68487865D01*
X130298781Y-68366222D01*
X130051845Y-68291315D01*
X129859391Y-68272360D01*
X129730689Y-68272360D01*
X129538235Y-68291315D01*
X129291299Y-68366222D01*
X129063722Y-68487865D01*
X128864248Y-68651568D01*
X128795040Y-68735899D01*
X128725832Y-68651568D01*
X128526358Y-68487865D01*
X128298781Y-68366222D01*
X128051845Y-68291315D01*
X127859391Y-68272360D01*
X127730689Y-68272360D01*
X127538235Y-68291315D01*
X127291299Y-68366222D01*
X127063722Y-68487865D01*
X126864248Y-68651568D01*
X126700545Y-68851042D01*
X126578902Y-69078619D01*
X126503995Y-69325555D01*
X126478702Y-69582360D01*
X126503995Y-69839165D01*
X126578902Y-70086101D01*
X126700545Y-70313678D01*
X126864248Y-70513152D01*
X127063722Y-70676855D01*
X127187470Y-70743000D01*
X124356126Y-70743000D01*
X124490706Y-70579014D01*
X124628599Y-70321034D01*
X124713513Y-70041111D01*
X124742185Y-69750000D01*
X124713513Y-69458889D01*
X124628599Y-69178966D01*
X124490706Y-68920986D01*
X124311809Y-68703000D01*
X124683546Y-68703000D01*
X124731744Y-68735205D01*
X124920102Y-68813226D01*
X125120061Y-68853000D01*
X125323939Y-68853000D01*
X125523898Y-68813226D01*
X125712256Y-68735205D01*
X125881774Y-68621937D01*
X126025937Y-68477774D01*
X126139205Y-68308256D01*
X126217226Y-68119898D01*
X126257000Y-67919939D01*
X126257000Y-67716061D01*
X126217226Y-67516102D01*
X126140023Y-67329720D01*
X126753665Y-67329720D01*
X126905627Y-67481682D01*
X127124281Y-67627781D01*
X127367235Y-67728416D01*
X127625154Y-67779720D01*
X127888126Y-67779720D01*
X128146045Y-67728416D01*
X128388999Y-67627781D01*
X128607653Y-67481682D01*
X128756640Y-67332695D01*
X128905627Y-67481682D01*
X129124281Y-67627781D01*
X129367235Y-67728416D01*
X129625154Y-67779720D01*
X129888126Y-67779720D01*
X130146045Y-67728416D01*
X130388999Y-67627781D01*
X130607653Y-67481682D01*
X130756640Y-67332695D01*
X130905627Y-67481682D01*
X131124281Y-67627781D01*
X131367235Y-67728416D01*
X131625154Y-67779720D01*
X131888126Y-67779720D01*
X132146045Y-67728416D01*
X132388999Y-67627781D01*
X132607653Y-67481682D01*
X132756640Y-67332695D01*
X132905627Y-67481682D01*
X133124281Y-67627781D01*
X133367235Y-67728416D01*
X133625154Y-67779720D01*
X133888126Y-67779720D01*
X134146045Y-67728416D01*
X134388999Y-67627781D01*
X134607653Y-67481682D01*
X134756640Y-67332695D01*
X134905627Y-67481682D01*
X135124281Y-67627781D01*
X135367235Y-67728416D01*
X135625154Y-67779720D01*
X135888126Y-67779720D01*
X136146045Y-67728416D01*
X136388999Y-67627781D01*
X136607653Y-67481682D01*
X136756640Y-67332695D01*
X136905627Y-67481682D01*
X137124281Y-67627781D01*
X137367235Y-67728416D01*
X137625154Y-67779720D01*
X137888126Y-67779720D01*
X138146045Y-67728416D01*
X138388999Y-67627781D01*
X138607653Y-67481682D01*
X138756640Y-67332695D01*
X138905627Y-67481682D01*
X139124281Y-67627781D01*
X139367235Y-67728416D01*
X139625154Y-67779720D01*
X139888126Y-67779720D01*
X140146045Y-67728416D01*
X140388999Y-67627781D01*
X140607653Y-67481682D01*
X140756640Y-67332695D01*
X140905627Y-67481682D01*
X141124281Y-67627781D01*
X141367235Y-67728416D01*
X141625154Y-67779720D01*
X141888126Y-67779720D01*
X142146045Y-67728416D01*
X142388999Y-67627781D01*
X142607653Y-67481682D01*
X142756640Y-67332695D01*
X142905627Y-67481682D01*
X143124281Y-67627781D01*
X143367235Y-67728416D01*
X143625154Y-67779720D01*
X143888126Y-67779720D01*
X144146045Y-67728416D01*
X144388999Y-67627781D01*
X144607653Y-67481682D01*
X144756640Y-67332695D01*
X144905627Y-67481682D01*
X145124281Y-67627781D01*
X145367235Y-67728416D01*
X145625154Y-67779720D01*
X145888126Y-67779720D01*
X146146045Y-67728416D01*
X146388999Y-67627781D01*
X146607653Y-67481682D01*
X146793602Y-67295733D01*
X146939701Y-67077079D01*
X147040336Y-66834125D01*
X147091640Y-66576206D01*
X147091640Y-66313234D01*
X147040336Y-66055315D01*
X146939701Y-65812361D01*
X146793602Y-65593707D01*
X146607653Y-65407758D01*
X146388999Y-65261659D01*
X146146045Y-65161024D01*
X145888126Y-65109720D01*
X145625154Y-65109720D01*
X145367235Y-65161024D01*
X145124281Y-65261659D01*
X144905627Y-65407758D01*
X144756640Y-65556745D01*
X144607653Y-65407758D01*
X144388999Y-65261659D01*
X144146045Y-65161024D01*
X143888126Y-65109720D01*
X143625154Y-65109720D01*
X143367235Y-65161024D01*
X143124281Y-65261659D01*
X142905627Y-65407758D01*
X142756640Y-65556745D01*
X142644452Y-65444557D01*
X142645921Y-65429639D01*
X142641640Y-65386173D01*
X142641640Y-65386163D01*
X142628835Y-65256150D01*
X142578229Y-65089327D01*
X142496051Y-64935581D01*
X142452946Y-64883058D01*
X142413172Y-64834593D01*
X142413170Y-64834591D01*
X142385457Y-64800823D01*
X142351690Y-64773111D01*
X141372532Y-63793954D01*
X141344817Y-63760183D01*
X141210059Y-63649589D01*
X141056313Y-63567411D01*
X140889490Y-63516805D01*
X140759477Y-63504000D01*
X140759469Y-63504000D01*
X140716000Y-63499719D01*
X140672531Y-63504000D01*
X130823219Y-63504000D01*
X130829000Y-63474939D01*
X130829000Y-63271061D01*
X130789226Y-63071102D01*
X130711205Y-62882744D01*
X130597937Y-62713226D01*
X130491711Y-62607000D01*
X136113546Y-62607000D01*
X136161744Y-62639205D01*
X136350102Y-62717226D01*
X136550061Y-62757000D01*
X136753939Y-62757000D01*
X136953898Y-62717226D01*
X137142256Y-62639205D01*
X137311774Y-62525937D01*
X137455937Y-62381774D01*
X137569205Y-62212256D01*
X137647226Y-62023898D01*
X137687000Y-61823939D01*
X137687000Y-61620061D01*
X137647226Y-61420102D01*
X137569205Y-61231744D01*
X137455937Y-61062226D01*
X137311774Y-60918063D01*
X137142256Y-60804795D01*
X136953898Y-60726774D01*
X136753939Y-60687000D01*
X136550061Y-60687000D01*
X136350102Y-60726774D01*
X136161744Y-60804795D01*
X136113546Y-60837000D01*
X125399350Y-60837000D01*
X125523898Y-60812226D01*
X125712256Y-60734205D01*
X125760454Y-60702000D01*
X135719531Y-60702000D01*
X135763000Y-60706281D01*
X135806469Y-60702000D01*
X135806477Y-60702000D01*
X135936490Y-60689195D01*
X136103313Y-60638589D01*
X136257059Y-60556411D01*
X136391817Y-60445817D01*
X136419534Y-60412044D01*
X139056044Y-57775535D01*
X139112898Y-57764226D01*
X139301256Y-57686205D01*
X139470774Y-57572937D01*
X139614937Y-57428774D01*
X139728205Y-57259256D01*
X139806226Y-57070898D01*
X139846000Y-56870939D01*
X139846000Y-56667061D01*
X139806226Y-56467102D01*
X139728205Y-56278744D01*
X139614937Y-56109226D01*
X139470774Y-55965063D01*
X139301256Y-55851795D01*
X139112898Y-55773774D01*
X138912939Y-55734000D01*
X138709061Y-55734000D01*
X138509102Y-55773774D01*
X138320744Y-55851795D01*
X138151226Y-55965063D01*
X138007063Y-56109226D01*
X137893795Y-56278744D01*
X137815774Y-56467102D01*
X137804465Y-56523956D01*
X135396422Y-58932000D01*
X125760454Y-58932000D01*
X125712256Y-58899795D01*
X125523898Y-58821774D01*
X125323939Y-58782000D01*
X125120061Y-58782000D01*
X124920102Y-58821774D01*
X124731744Y-58899795D01*
X124562226Y-59013063D01*
X124418063Y-59157226D01*
X124304795Y-59326744D01*
X124226774Y-59515102D01*
X124187000Y-59715061D01*
X124187000Y-59918939D01*
X124226774Y-60118898D01*
X124304795Y-60307256D01*
X124418063Y-60476774D01*
X124562226Y-60620937D01*
X124731744Y-60734205D01*
X124920102Y-60812226D01*
X125044650Y-60837000D01*
X123601454Y-60837000D01*
X123553256Y-60804795D01*
X123364898Y-60726774D01*
X123164939Y-60687000D01*
X122997011Y-60687000D01*
X122997011Y-54617515D01*
X123001292Y-54574046D01*
X122997011Y-54530577D01*
X122997011Y-54530569D01*
X122984206Y-54400556D01*
X122970604Y-54355718D01*
X122933600Y-54233732D01*
X122851422Y-54079987D01*
X122768543Y-53978999D01*
X122768541Y-53978997D01*
X122740828Y-53945229D01*
X122707061Y-53917518D01*
X118471604Y-49682061D01*
X119488000Y-49682061D01*
X119488000Y-49885939D01*
X119527774Y-50085898D01*
X119605795Y-50274256D01*
X119719063Y-50443774D01*
X119863226Y-50587937D01*
X120032744Y-50701205D01*
X120221102Y-50779226D01*
X120275494Y-50790045D01*
X120294182Y-50812816D01*
X120428940Y-50923410D01*
X120582686Y-51005588D01*
X120749509Y-51056194D01*
X120879522Y-51068999D01*
X120879532Y-51068999D01*
X120922998Y-51073280D01*
X120966465Y-51068999D01*
X128258616Y-51068999D01*
X128325794Y-51169539D01*
X128469957Y-51313702D01*
X128639475Y-51426970D01*
X128827833Y-51504991D01*
X129027792Y-51544765D01*
X129231670Y-51544765D01*
X129431629Y-51504991D01*
X129619987Y-51426970D01*
X129789505Y-51313702D01*
X129933668Y-51169539D01*
X130046936Y-51000021D01*
X130124957Y-50811663D01*
X130164731Y-50611704D01*
X130164731Y-50407826D01*
X130124957Y-50207867D01*
X130046936Y-50019509D01*
X129933668Y-49849991D01*
X129789505Y-49705828D01*
X129619987Y-49592560D01*
X129431629Y-49514539D01*
X129231670Y-49474765D01*
X129162830Y-49474765D01*
X129126060Y-49444588D01*
X128972314Y-49362410D01*
X128805491Y-49311804D01*
X128675478Y-49298999D01*
X128675470Y-49298999D01*
X128632001Y-49294718D01*
X128588532Y-49298999D01*
X121442382Y-49298999D01*
X121440205Y-49293744D01*
X121326937Y-49124226D01*
X121182774Y-48980063D01*
X121013256Y-48866795D01*
X120824898Y-48788774D01*
X120624939Y-48749000D01*
X120421061Y-48749000D01*
X120221102Y-48788774D01*
X120032744Y-48866795D01*
X119863226Y-48980063D01*
X119719063Y-49124226D01*
X119605795Y-49293744D01*
X119527774Y-49482102D01*
X119488000Y-49682061D01*
X118471604Y-49682061D01*
X118359497Y-49569954D01*
X118331782Y-49536183D01*
X118197024Y-49425589D01*
X118043278Y-49343411D01*
X117876455Y-49292805D01*
X117746442Y-49280000D01*
X117746434Y-49280000D01*
X117725000Y-49277889D01*
X117725000Y-43202043D01*
X117725917Y-43183664D01*
X118705049Y-42204532D01*
X118738817Y-42176819D01*
X118769329Y-42139641D01*
X118849410Y-42042062D01*
X118849411Y-42042061D01*
X118931589Y-41888315D01*
X118982195Y-41721492D01*
X118995000Y-41591479D01*
X118995000Y-41591469D01*
X118999281Y-41548003D01*
X118995000Y-41504537D01*
X118995000Y-40810469D01*
X118999281Y-40767000D01*
X118995000Y-40723531D01*
X118995000Y-40723523D01*
X118982195Y-40593510D01*
X118931589Y-40426687D01*
X118849411Y-40272941D01*
X118738817Y-40138183D01*
X118705050Y-40110471D01*
X117090203Y-38495624D01*
X117094281Y-38454213D01*
X117090000Y-38410744D01*
X117090000Y-38410736D01*
X117077195Y-38280723D01*
X117053805Y-38203616D01*
X117226714Y-38061714D01*
X117339038Y-37924846D01*
X117494215Y-38099748D01*
X117749618Y-38293399D01*
X118037893Y-38433502D01*
X118224566Y-38490124D01*
X118478000Y-38370777D01*
X118478000Y-37027000D01*
X118458000Y-37027000D01*
X118458000Y-36773000D01*
X118478000Y-36773000D01*
X118478000Y-36753000D01*
X118732000Y-36753000D01*
X118732000Y-36773000D01*
X118752000Y-36773000D01*
X118752000Y-37027000D01*
X118732000Y-37027000D01*
X118732000Y-38370777D01*
X118985434Y-38490124D01*
X119172107Y-38433502D01*
X119460382Y-38293399D01*
X119715785Y-38099748D01*
X119870962Y-37924846D01*
X119983286Y-38061714D01*
X120232248Y-38266031D01*
X120516285Y-38417852D01*
X120824484Y-38511343D01*
X120990791Y-38527723D01*
X120924774Y-38687102D01*
X120885000Y-38887061D01*
X120885000Y-39090939D01*
X120924774Y-39290898D01*
X121002795Y-39479256D01*
X121035001Y-39527456D01*
X121035000Y-41797216D01*
X121030719Y-41840685D01*
X121035000Y-41884154D01*
X121035000Y-41884161D01*
X121042615Y-41961479D01*
X121047805Y-42014175D01*
X121056265Y-42042062D01*
X121098411Y-42180997D01*
X121180589Y-42334743D01*
X121291183Y-42469502D01*
X121324956Y-42497219D01*
X121998780Y-43171044D01*
X122010089Y-43227898D01*
X122088110Y-43416256D01*
X122201378Y-43585774D01*
X122345541Y-43729937D01*
X122515059Y-43843205D01*
X122703417Y-43921226D01*
X122903376Y-43961000D01*
X123107254Y-43961000D01*
X123307213Y-43921226D01*
X123495571Y-43843205D01*
X123665089Y-43729937D01*
X123809252Y-43585774D01*
X123922520Y-43416256D01*
X124000541Y-43227898D01*
X124024561Y-43107140D01*
X124184470Y-43267049D01*
X124212183Y-43300817D01*
X124245951Y-43328530D01*
X124245953Y-43328532D01*
X124317452Y-43387210D01*
X124346941Y-43411411D01*
X124500687Y-43493589D01*
X124667510Y-43544195D01*
X124797523Y-43557000D01*
X124797533Y-43557000D01*
X124840999Y-43561281D01*
X124884465Y-43557000D01*
X126748118Y-43557000D01*
X126718715Y-43586403D01*
X126835369Y-43703057D01*
X126601603Y-43762517D01*
X126490706Y-44000962D01*
X126428457Y-44256460D01*
X126417250Y-44519193D01*
X126457515Y-44779064D01*
X126524307Y-44962000D01*
X120172454Y-44962000D01*
X120124256Y-44929795D01*
X119935898Y-44851774D01*
X119735939Y-44812000D01*
X119532061Y-44812000D01*
X119332102Y-44851774D01*
X119143744Y-44929795D01*
X118974226Y-45043063D01*
X118830063Y-45187226D01*
X118716795Y-45356744D01*
X118638774Y-45545102D01*
X118599000Y-45745061D01*
X118599000Y-45948939D01*
X118638774Y-46148898D01*
X118716795Y-46337256D01*
X118830063Y-46506774D01*
X118974226Y-46650937D01*
X119073097Y-46717000D01*
X119024061Y-46717000D01*
X118824102Y-46756774D01*
X118635744Y-46834795D01*
X118466226Y-46948063D01*
X118322063Y-47092226D01*
X118208795Y-47261744D01*
X118130774Y-47450102D01*
X118091000Y-47650061D01*
X118091000Y-47853939D01*
X118130774Y-48053898D01*
X118208795Y-48242256D01*
X118322063Y-48411774D01*
X118466226Y-48555937D01*
X118635744Y-48669205D01*
X118824102Y-48747226D01*
X119024061Y-48787000D01*
X119227939Y-48787000D01*
X119427898Y-48747226D01*
X119616256Y-48669205D01*
X119664454Y-48637000D01*
X129890546Y-48637000D01*
X129938744Y-48669205D01*
X130127102Y-48747226D01*
X130327061Y-48787000D01*
X130530939Y-48787000D01*
X130730898Y-48747226D01*
X130919256Y-48669205D01*
X130967454Y-48637000D01*
X143605891Y-48637000D01*
X143649360Y-48641281D01*
X143692829Y-48637000D01*
X143692837Y-48637000D01*
X143822850Y-48624195D01*
X143989673Y-48573589D01*
X144143419Y-48491411D01*
X144278177Y-48380817D01*
X144305894Y-48347044D01*
X146351690Y-46301249D01*
X146385457Y-46273537D01*
X146417755Y-46234183D01*
X146496050Y-46138780D01*
X146496051Y-46138779D01*
X146578229Y-45985033D01*
X146628835Y-45818210D01*
X146635145Y-45754144D01*
X146700820Y-45734222D01*
X146811134Y-45675257D01*
X146907825Y-45595905D01*
X146987177Y-45499214D01*
X147046142Y-45388900D01*
X147082452Y-45269202D01*
X147094712Y-45144720D01*
X147094712Y-44000000D01*
X150507815Y-44000000D01*
X150536487Y-44291111D01*
X150621401Y-44571034D01*
X150759294Y-44829014D01*
X150944866Y-45055134D01*
X151170986Y-45240706D01*
X151428966Y-45378599D01*
X151708889Y-45463513D01*
X151927050Y-45485000D01*
X152072950Y-45485000D01*
X152291111Y-45463513D01*
X152571034Y-45378599D01*
X152829014Y-45240706D01*
X153055134Y-45055134D01*
X153079607Y-45025313D01*
X153100498Y-45094180D01*
X153159463Y-45204494D01*
X153238815Y-45301185D01*
X153335506Y-45380537D01*
X153445820Y-45439502D01*
X153565518Y-45475812D01*
X153690000Y-45488072D01*
X154254250Y-45485000D01*
X154413000Y-45326250D01*
X154413000Y-44127000D01*
X154667000Y-44127000D01*
X154667000Y-45326250D01*
X154825750Y-45485000D01*
X155390000Y-45488072D01*
X155514482Y-45475812D01*
X155634180Y-45439502D01*
X155744494Y-45380537D01*
X155841185Y-45301185D01*
X155920537Y-45204494D01*
X155979502Y-45094180D01*
X156015812Y-44974482D01*
X156028072Y-44850000D01*
X156025000Y-44285750D01*
X155866250Y-44127000D01*
X154667000Y-44127000D01*
X154413000Y-44127000D01*
X154393000Y-44127000D01*
X154393000Y-43873000D01*
X154413000Y-43873000D01*
X154413000Y-42673750D01*
X154667000Y-42673750D01*
X154667000Y-43873000D01*
X155866250Y-43873000D01*
X156025000Y-43714250D01*
X156028072Y-43150000D01*
X156015812Y-43025518D01*
X155979502Y-42905820D01*
X155920537Y-42795506D01*
X155841185Y-42698815D01*
X155744494Y-42619463D01*
X155634180Y-42560498D01*
X155514482Y-42524188D01*
X155390000Y-42511928D01*
X154825750Y-42515000D01*
X154667000Y-42673750D01*
X154413000Y-42673750D01*
X154254250Y-42515000D01*
X153690000Y-42511928D01*
X153565518Y-42524188D01*
X153445820Y-42560498D01*
X153335506Y-42619463D01*
X153238815Y-42698815D01*
X153159463Y-42795506D01*
X153100498Y-42905820D01*
X153079607Y-42974687D01*
X153055134Y-42944866D01*
X152829014Y-42759294D01*
X152571034Y-42621401D01*
X152291111Y-42536487D01*
X152072950Y-42515000D01*
X151927050Y-42515000D01*
X151708889Y-42536487D01*
X151428966Y-42621401D01*
X151170986Y-42759294D01*
X150944866Y-42944866D01*
X150759294Y-43170986D01*
X150621401Y-43428966D01*
X150536487Y-43708889D01*
X150507815Y-44000000D01*
X147094712Y-44000000D01*
X147094712Y-43744720D01*
X147082452Y-43620238D01*
X147046142Y-43500540D01*
X146987177Y-43390226D01*
X146907825Y-43293535D01*
X146811134Y-43214183D01*
X146700820Y-43155218D01*
X146581122Y-43118908D01*
X146456640Y-43106648D01*
X145056640Y-43106648D01*
X144932158Y-43118908D01*
X144812460Y-43155218D01*
X144702146Y-43214183D01*
X144605455Y-43293535D01*
X144545692Y-43366357D01*
X144388999Y-43261659D01*
X144146045Y-43161024D01*
X143888126Y-43109720D01*
X143625154Y-43109720D01*
X143367235Y-43161024D01*
X143124281Y-43261659D01*
X142905627Y-43407758D01*
X142756640Y-43556745D01*
X142607653Y-43407758D01*
X142388999Y-43261659D01*
X142146045Y-43161024D01*
X141888126Y-43109720D01*
X141625154Y-43109720D01*
X141367235Y-43161024D01*
X141124281Y-43261659D01*
X140905627Y-43407758D01*
X140756640Y-43556745D01*
X140607653Y-43407758D01*
X140388999Y-43261659D01*
X140146045Y-43161024D01*
X139888126Y-43109720D01*
X139625154Y-43109720D01*
X139367235Y-43161024D01*
X139124281Y-43261659D01*
X138905627Y-43407758D01*
X138756640Y-43556745D01*
X138607653Y-43407758D01*
X138388999Y-43261659D01*
X138146045Y-43161024D01*
X137888126Y-43109720D01*
X137625154Y-43109720D01*
X137367235Y-43161024D01*
X137124281Y-43261659D01*
X136905627Y-43407758D01*
X136756640Y-43556745D01*
X136607653Y-43407758D01*
X136388999Y-43261659D01*
X136146045Y-43161024D01*
X135888126Y-43109720D01*
X135625154Y-43109720D01*
X135367235Y-43161024D01*
X135124281Y-43261659D01*
X134905627Y-43407758D01*
X134756640Y-43556745D01*
X134607653Y-43407758D01*
X134388999Y-43261659D01*
X134146045Y-43161024D01*
X133888126Y-43109720D01*
X133625154Y-43109720D01*
X133367235Y-43161024D01*
X133124281Y-43261659D01*
X132905627Y-43407758D01*
X132756640Y-43556745D01*
X132607653Y-43407758D01*
X132388999Y-43261659D01*
X132146045Y-43161024D01*
X131888126Y-43109720D01*
X131625154Y-43109720D01*
X131367235Y-43161024D01*
X131124281Y-43261659D01*
X130905627Y-43407758D01*
X130756640Y-43556745D01*
X130635000Y-43435105D01*
X130635000Y-42417469D01*
X130639281Y-42374000D01*
X130635000Y-42330531D01*
X130635000Y-42116372D01*
X130680792Y-42078792D01*
X130750000Y-41994461D01*
X130819208Y-42078792D01*
X131018682Y-42242495D01*
X131246259Y-42364138D01*
X131493195Y-42439045D01*
X131685649Y-42458000D01*
X131814351Y-42458000D01*
X132006805Y-42439045D01*
X132253741Y-42364138D01*
X132481318Y-42242495D01*
X132680792Y-42078792D01*
X132750000Y-41994461D01*
X132819208Y-42078792D01*
X133018682Y-42242495D01*
X133246259Y-42364138D01*
X133493195Y-42439045D01*
X133685649Y-42458000D01*
X133814351Y-42458000D01*
X134006805Y-42439045D01*
X134253741Y-42364138D01*
X134481318Y-42242495D01*
X134680792Y-42078792D01*
X134750000Y-41994461D01*
X134819208Y-42078792D01*
X135018682Y-42242495D01*
X135246259Y-42364138D01*
X135493195Y-42439045D01*
X135685649Y-42458000D01*
X135814351Y-42458000D01*
X136006805Y-42439045D01*
X136253741Y-42364138D01*
X136481318Y-42242495D01*
X136680792Y-42078792D01*
X136750000Y-41994461D01*
X136819208Y-42078792D01*
X137018682Y-42242495D01*
X137246259Y-42364138D01*
X137493195Y-42439045D01*
X137685649Y-42458000D01*
X137814351Y-42458000D01*
X138006805Y-42439045D01*
X138253741Y-42364138D01*
X138481318Y-42242495D01*
X138680792Y-42078792D01*
X138750000Y-41994461D01*
X138819208Y-42078792D01*
X139018682Y-42242495D01*
X139246259Y-42364138D01*
X139493195Y-42439045D01*
X139685649Y-42458000D01*
X139814351Y-42458000D01*
X140006805Y-42439045D01*
X140253741Y-42364138D01*
X140481318Y-42242495D01*
X140680792Y-42078792D01*
X140750000Y-41994461D01*
X140819208Y-42078792D01*
X141018682Y-42242495D01*
X141246259Y-42364138D01*
X141493195Y-42439045D01*
X141685649Y-42458000D01*
X141814351Y-42458000D01*
X142006805Y-42439045D01*
X142253741Y-42364138D01*
X142481318Y-42242495D01*
X142680792Y-42078792D01*
X142750000Y-41994461D01*
X142819208Y-42078792D01*
X143018682Y-42242495D01*
X143246259Y-42364138D01*
X143493195Y-42439045D01*
X143685649Y-42458000D01*
X143814351Y-42458000D01*
X144006805Y-42439045D01*
X144253741Y-42364138D01*
X144481318Y-42242495D01*
X144550926Y-42185369D01*
X144623815Y-42274185D01*
X144720506Y-42353537D01*
X144830820Y-42412502D01*
X144950518Y-42448812D01*
X145075000Y-42461072D01*
X146425000Y-42461072D01*
X146549482Y-42448812D01*
X146669180Y-42412502D01*
X146779494Y-42353537D01*
X146876185Y-42274185D01*
X146955537Y-42177494D01*
X147014502Y-42067180D01*
X147050812Y-41947482D01*
X147063072Y-41823000D01*
X147063072Y-41403397D01*
X147676208Y-41403397D01*
X147753843Y-41652472D01*
X148017883Y-41778371D01*
X148301411Y-41850339D01*
X148593531Y-41865611D01*
X148883019Y-41823599D01*
X149158747Y-41725919D01*
X149296157Y-41652472D01*
X149373792Y-41403397D01*
X152176208Y-41403397D01*
X152253843Y-41652472D01*
X152517883Y-41778371D01*
X152801411Y-41850339D01*
X153093531Y-41865611D01*
X153383019Y-41823599D01*
X153658747Y-41725919D01*
X153796157Y-41652472D01*
X153873792Y-41403397D01*
X153025000Y-40554605D01*
X152176208Y-41403397D01*
X149373792Y-41403397D01*
X148525000Y-40554605D01*
X147676208Y-41403397D01*
X147063072Y-41403397D01*
X147063072Y-40641174D01*
X147076401Y-40733019D01*
X147174081Y-41008747D01*
X147247528Y-41146157D01*
X147496603Y-41223792D01*
X148345395Y-40375000D01*
X148704605Y-40375000D01*
X149553397Y-41223792D01*
X149802472Y-41146157D01*
X149928371Y-40882117D01*
X150000339Y-40598589D01*
X150008445Y-40443531D01*
X151534389Y-40443531D01*
X151576401Y-40733019D01*
X151674081Y-41008747D01*
X151747528Y-41146157D01*
X151996603Y-41223792D01*
X152845395Y-40375000D01*
X153204605Y-40375000D01*
X154053397Y-41223792D01*
X154302472Y-41146157D01*
X154428371Y-40882117D01*
X154500339Y-40598589D01*
X154515611Y-40306469D01*
X154473599Y-40016981D01*
X154375919Y-39741253D01*
X154302472Y-39603843D01*
X154053397Y-39526208D01*
X153204605Y-40375000D01*
X152845395Y-40375000D01*
X151996603Y-39526208D01*
X151747528Y-39603843D01*
X151621629Y-39867883D01*
X151549661Y-40151411D01*
X151534389Y-40443531D01*
X150008445Y-40443531D01*
X150015611Y-40306469D01*
X149973599Y-40016981D01*
X149875919Y-39741253D01*
X149802472Y-39603843D01*
X149553397Y-39526208D01*
X148704605Y-40375000D01*
X148345395Y-40375000D01*
X147496603Y-39526208D01*
X147247528Y-39603843D01*
X147121629Y-39867883D01*
X147049661Y-40151411D01*
X147041040Y-40316305D01*
X147014502Y-40228820D01*
X146955537Y-40118506D01*
X146876185Y-40021815D01*
X146779494Y-39942463D01*
X146669180Y-39883498D01*
X146549482Y-39847188D01*
X146425000Y-39834928D01*
X145075000Y-39834928D01*
X144950518Y-39847188D01*
X144830820Y-39883498D01*
X144720506Y-39942463D01*
X144635000Y-40012636D01*
X144635000Y-39838875D01*
X144639281Y-39795406D01*
X144635000Y-39751937D01*
X144635000Y-39751929D01*
X144622195Y-39621916D01*
X144571589Y-39455093D01*
X144513601Y-39346603D01*
X147676208Y-39346603D01*
X148525000Y-40195395D01*
X149373792Y-39346603D01*
X152176208Y-39346603D01*
X153025000Y-40195395D01*
X153873792Y-39346603D01*
X153796157Y-39097528D01*
X153532117Y-38971629D01*
X153248589Y-38899661D01*
X152956469Y-38884389D01*
X152666981Y-38926401D01*
X152391253Y-39024081D01*
X152253843Y-39097528D01*
X152176208Y-39346603D01*
X149373792Y-39346603D01*
X149296157Y-39097528D01*
X149032117Y-38971629D01*
X148748589Y-38899661D01*
X148456469Y-38884389D01*
X148166981Y-38926401D01*
X147891253Y-39024081D01*
X147753843Y-39097528D01*
X147676208Y-39346603D01*
X144513601Y-39346603D01*
X144489411Y-39301347D01*
X144378817Y-39166589D01*
X144345045Y-39138873D01*
X144136128Y-38929956D01*
X144108411Y-38896183D01*
X143973653Y-38785589D01*
X143819907Y-38703411D01*
X143653084Y-38652805D01*
X143523071Y-38640000D01*
X143523063Y-38640000D01*
X143479594Y-38635719D01*
X143436125Y-38640000D01*
X143191579Y-38640000D01*
X141234510Y-36682932D01*
X141496034Y-36603599D01*
X141754014Y-36465706D01*
X141980134Y-36280134D01*
X142004607Y-36250313D01*
X142025498Y-36319180D01*
X142084463Y-36429494D01*
X142163815Y-36526185D01*
X142260506Y-36605537D01*
X142370820Y-36664502D01*
X142490518Y-36700812D01*
X142615000Y-36713072D01*
X144315000Y-36713072D01*
X144439482Y-36700812D01*
X144559180Y-36664502D01*
X144669494Y-36605537D01*
X144766185Y-36526185D01*
X144845537Y-36429494D01*
X144904502Y-36319180D01*
X144940812Y-36199482D01*
X144953072Y-36075000D01*
X144953072Y-34375000D01*
X144940812Y-34250518D01*
X144904502Y-34130820D01*
X144845537Y-34020506D01*
X144766185Y-33923815D01*
X144669494Y-33844463D01*
X144559180Y-33785498D01*
X144439482Y-33749188D01*
X144315000Y-33736928D01*
X142615000Y-33736928D01*
X142490518Y-33749188D01*
X142370820Y-33785498D01*
X142260506Y-33844463D01*
X142163815Y-33923815D01*
X142084463Y-34020506D01*
X142025498Y-34130820D01*
X142004607Y-34199687D01*
X141980134Y-34169866D01*
X141827264Y-34044409D01*
X141831855Y-33728740D01*
X147040000Y-33728740D01*
X147040000Y-34021260D01*
X147097068Y-34308158D01*
X147209010Y-34578411D01*
X147371525Y-34821632D01*
X147578368Y-35028475D01*
X147821589Y-35190990D01*
X148091842Y-35302932D01*
X148378740Y-35360000D01*
X148671260Y-35360000D01*
X148958158Y-35302932D01*
X149228411Y-35190990D01*
X149471632Y-35028475D01*
X149678475Y-34821632D01*
X149840990Y-34578411D01*
X149952932Y-34308158D01*
X150010000Y-34021260D01*
X150010000Y-33728740D01*
X151540000Y-33728740D01*
X151540000Y-34021260D01*
X151597068Y-34308158D01*
X151709010Y-34578411D01*
X151871525Y-34821632D01*
X152078368Y-35028475D01*
X152321589Y-35190990D01*
X152591842Y-35302932D01*
X152878740Y-35360000D01*
X153171260Y-35360000D01*
X153458158Y-35302932D01*
X153728411Y-35190990D01*
X153971632Y-35028475D01*
X154178475Y-34821632D01*
X154340990Y-34578411D01*
X154452932Y-34308158D01*
X154510000Y-34021260D01*
X154510000Y-33728740D01*
X154452932Y-33441842D01*
X154340990Y-33171589D01*
X154178475Y-32928368D01*
X153971632Y-32721525D01*
X153728411Y-32559010D01*
X153458158Y-32447068D01*
X153171260Y-32390000D01*
X152878740Y-32390000D01*
X152591842Y-32447068D01*
X152321589Y-32559010D01*
X152078368Y-32721525D01*
X151871525Y-32928368D01*
X151709010Y-33171589D01*
X151597068Y-33441842D01*
X151540000Y-33728740D01*
X150010000Y-33728740D01*
X149952932Y-33441842D01*
X149840990Y-33171589D01*
X149678475Y-32928368D01*
X149471632Y-32721525D01*
X149228411Y-32559010D01*
X148958158Y-32447068D01*
X148671260Y-32390000D01*
X148378740Y-32390000D01*
X148091842Y-32447068D01*
X147821589Y-32559010D01*
X147578368Y-32721525D01*
X147371525Y-32928368D01*
X147209010Y-33171589D01*
X147097068Y-33441842D01*
X147040000Y-33728740D01*
X141831855Y-33728740D01*
X141854367Y-32180902D01*
X141859282Y-32131000D01*
X141858888Y-32127000D01*
X157697170Y-32127000D01*
X157615000Y-32540098D01*
X157615000Y-33009902D01*
X157706654Y-33470679D01*
X157886440Y-33904721D01*
X158147450Y-34295349D01*
X158479651Y-34627550D01*
X158870279Y-34888560D01*
X159304321Y-35068346D01*
X159765098Y-35160000D01*
X159873000Y-35160000D01*
X159873000Y-75040000D01*
X159765098Y-75040000D01*
X159304321Y-75131654D01*
X158870279Y-75311440D01*
X158479651Y-75572450D01*
X158147450Y-75904651D01*
X157886440Y-76295279D01*
X157706654Y-76729321D01*
X157615000Y-77190098D01*
X157615000Y-77659902D01*
X157657388Y-77873000D01*
X155309710Y-77873000D01*
X155583747Y-77775919D01*
X155721157Y-77702472D01*
X155798792Y-77453397D01*
X154950000Y-76604605D01*
X154101208Y-77453397D01*
X154178843Y-77702472D01*
X154442883Y-77828371D01*
X154618705Y-77873000D01*
X150809710Y-77873000D01*
X151083747Y-77775919D01*
X151221157Y-77702472D01*
X151298792Y-77453397D01*
X150450000Y-76604605D01*
X149601208Y-77453397D01*
X149678843Y-77702472D01*
X149942883Y-77828371D01*
X150118705Y-77873000D01*
X84967612Y-77873000D01*
X85010000Y-77659902D01*
X85010000Y-77190098D01*
X84918346Y-76729321D01*
X84738560Y-76295279D01*
X84477550Y-75904651D01*
X84338459Y-75765560D01*
X118414045Y-75765560D01*
X118475932Y-76001368D01*
X118717790Y-76114266D01*
X118977027Y-76177811D01*
X119243680Y-76189561D01*
X119507501Y-76149063D01*
X119758353Y-76057875D01*
X119864068Y-76001368D01*
X119925955Y-75765560D01*
X119170000Y-75009605D01*
X118414045Y-75765560D01*
X84338459Y-75765560D01*
X84145349Y-75572450D01*
X83754721Y-75311440D01*
X83320679Y-75131654D01*
X82859902Y-75040000D01*
X82390098Y-75040000D01*
X82127000Y-75092333D01*
X82127000Y-74775000D01*
X85886928Y-74775000D01*
X85899188Y-74899482D01*
X85935498Y-75019180D01*
X85994463Y-75129494D01*
X86073815Y-75226185D01*
X86170506Y-75305537D01*
X86280820Y-75364502D01*
X86400518Y-75400812D01*
X86525000Y-75413072D01*
X87739250Y-75410000D01*
X87898000Y-75251250D01*
X87898000Y-73402000D01*
X88152000Y-73402000D01*
X88152000Y-75251250D01*
X88310750Y-75410000D01*
X89525000Y-75413072D01*
X89649482Y-75400812D01*
X89769180Y-75364502D01*
X89879494Y-75305537D01*
X89976185Y-75226185D01*
X90055537Y-75129494D01*
X90114502Y-75019180D01*
X90150812Y-74899482D01*
X90163072Y-74775000D01*
X90160000Y-73560750D01*
X90001250Y-73402000D01*
X88152000Y-73402000D01*
X87898000Y-73402000D01*
X86048750Y-73402000D01*
X85890000Y-73560750D01*
X85886928Y-74775000D01*
X82127000Y-74775000D01*
X82127000Y-71775000D01*
X85886928Y-71775000D01*
X85890000Y-72989250D01*
X86048750Y-73148000D01*
X87898000Y-73148000D01*
X87898000Y-71298750D01*
X88152000Y-71298750D01*
X88152000Y-73148000D01*
X90001250Y-73148000D01*
X90084529Y-73064721D01*
X90970000Y-73064721D01*
X90970000Y-73485279D01*
X91052047Y-73897756D01*
X91212988Y-74286302D01*
X91446637Y-74635983D01*
X91744017Y-74933363D01*
X92093698Y-75167012D01*
X92482244Y-75327953D01*
X92894721Y-75410000D01*
X93315279Y-75410000D01*
X93727756Y-75327953D01*
X94116302Y-75167012D01*
X94465983Y-74933363D01*
X94599346Y-74800000D01*
X97686928Y-74800000D01*
X97699188Y-74924482D01*
X97735498Y-75044180D01*
X97794463Y-75154494D01*
X97873815Y-75251185D01*
X97970506Y-75330537D01*
X98080820Y-75389502D01*
X98200518Y-75425812D01*
X98325000Y-75438072D01*
X99539250Y-75435000D01*
X99698000Y-75276250D01*
X99698000Y-73427000D01*
X99952000Y-73427000D01*
X99952000Y-75276250D01*
X100110750Y-75435000D01*
X101325000Y-75438072D01*
X101449482Y-75425812D01*
X101569180Y-75389502D01*
X101679494Y-75330537D01*
X101776185Y-75251185D01*
X101855537Y-75154494D01*
X101914502Y-75044180D01*
X101950812Y-74924482D01*
X101963072Y-74800000D01*
X101960000Y-73585750D01*
X101801250Y-73427000D01*
X99952000Y-73427000D01*
X99698000Y-73427000D01*
X97848750Y-73427000D01*
X97690000Y-73585750D01*
X97686928Y-74800000D01*
X94599346Y-74800000D01*
X94763363Y-74635983D01*
X94997012Y-74286302D01*
X95157953Y-73897756D01*
X95240000Y-73485279D01*
X95240000Y-73064721D01*
X95157953Y-72652244D01*
X95157413Y-72650942D01*
X96623355Y-71185000D01*
X98164876Y-71185000D01*
X98080820Y-71210498D01*
X97970506Y-71269463D01*
X97873815Y-71348815D01*
X97794463Y-71445506D01*
X97735498Y-71555820D01*
X97699188Y-71675518D01*
X97686928Y-71800000D01*
X97690000Y-73014250D01*
X97848750Y-73173000D01*
X99698000Y-73173000D01*
X99698000Y-73153000D01*
X99952000Y-73153000D01*
X99952000Y-73173000D01*
X101801250Y-73173000D01*
X101884529Y-73089721D01*
X102770000Y-73089721D01*
X102770000Y-73510279D01*
X102852047Y-73922756D01*
X103012988Y-74311302D01*
X103246637Y-74660983D01*
X103544017Y-74958363D01*
X103893698Y-75192012D01*
X104282244Y-75352953D01*
X104694721Y-75435000D01*
X105115279Y-75435000D01*
X105527756Y-75352953D01*
X105916302Y-75192012D01*
X106265983Y-74958363D01*
X106320666Y-74903680D01*
X117810439Y-74903680D01*
X117850937Y-75167501D01*
X117942125Y-75418353D01*
X117998632Y-75524068D01*
X118234440Y-75585955D01*
X118990395Y-74830000D01*
X119349605Y-74830000D01*
X120105560Y-75585955D01*
X120341368Y-75524068D01*
X120441764Y-75308993D01*
X120509215Y-75471833D01*
X120657503Y-75693762D01*
X120846238Y-75882497D01*
X121068167Y-76030785D01*
X121314761Y-76132928D01*
X121576544Y-76185000D01*
X121813421Y-76185000D01*
X121834952Y-76206531D01*
X121834957Y-76206535D01*
X122423470Y-76795049D01*
X122451183Y-76828817D01*
X122484951Y-76856530D01*
X122484953Y-76856532D01*
X122556452Y-76915210D01*
X122585941Y-76939411D01*
X122739687Y-77021589D01*
X122906510Y-77072195D01*
X123036523Y-77085000D01*
X123036533Y-77085000D01*
X123079999Y-77089281D01*
X123123465Y-77085000D01*
X127942318Y-77085000D01*
X127985787Y-77089281D01*
X128029256Y-77085000D01*
X128029264Y-77085000D01*
X128159277Y-77072195D01*
X128326100Y-77021589D01*
X128479846Y-76939411D01*
X128614604Y-76828817D01*
X128642321Y-76795044D01*
X129537563Y-75899802D01*
X129732748Y-76094987D01*
X130000537Y-76273918D01*
X130298088Y-76397168D01*
X130613967Y-76460000D01*
X130936033Y-76460000D01*
X131251912Y-76397168D01*
X131549463Y-76273918D01*
X131817252Y-76094987D01*
X132044987Y-75867252D01*
X132223918Y-75599463D01*
X132347168Y-75301912D01*
X132410000Y-74986033D01*
X132410000Y-74663967D01*
X132347168Y-74348088D01*
X132223918Y-74050537D01*
X132044987Y-73782748D01*
X131817252Y-73555013D01*
X131549463Y-73376082D01*
X131251912Y-73252832D01*
X130936033Y-73190000D01*
X130613967Y-73190000D01*
X130298088Y-73252832D01*
X130000537Y-73376082D01*
X129732748Y-73555013D01*
X129505013Y-73782748D01*
X129400207Y-73939601D01*
X129360787Y-73935719D01*
X129317318Y-73940000D01*
X129317310Y-73940000D01*
X129187297Y-73952805D01*
X129020473Y-74003411D01*
X128866728Y-74085589D01*
X128765740Y-74168468D01*
X128765738Y-74168470D01*
X128731970Y-74196183D01*
X128704257Y-74229951D01*
X127619209Y-75315000D01*
X125515748Y-75315000D01*
X125552928Y-75225239D01*
X125605000Y-74963456D01*
X125605000Y-74696544D01*
X125552928Y-74434761D01*
X125450785Y-74188167D01*
X125302497Y-73966238D01*
X125113762Y-73777503D01*
X124891833Y-73629215D01*
X124645239Y-73527072D01*
X124383456Y-73475000D01*
X124116544Y-73475000D01*
X123854761Y-73527072D01*
X123608167Y-73629215D01*
X123386238Y-73777503D01*
X123197503Y-73966238D01*
X123049215Y-74188167D01*
X122980000Y-74355266D01*
X122910785Y-74188167D01*
X122762497Y-73966238D01*
X122573762Y-73777503D01*
X122351833Y-73629215D01*
X122105239Y-73527072D01*
X121843456Y-73475000D01*
X121576544Y-73475000D01*
X121314761Y-73527072D01*
X121068167Y-73629215D01*
X120846238Y-73777503D01*
X120657503Y-73966238D01*
X120509215Y-74188167D01*
X120439562Y-74356324D01*
X120397875Y-74241647D01*
X120341368Y-74135932D01*
X120105560Y-74074045D01*
X119349605Y-74830000D01*
X118990395Y-74830000D01*
X118234440Y-74074045D01*
X117998632Y-74135932D01*
X117885734Y-74377790D01*
X117822189Y-74637027D01*
X117810439Y-74903680D01*
X106320666Y-74903680D01*
X106563363Y-74660983D01*
X106797012Y-74311302D01*
X106957953Y-73922756D01*
X106963585Y-73894440D01*
X118414045Y-73894440D01*
X119170000Y-74650395D01*
X119925955Y-73894440D01*
X119864068Y-73658632D01*
X119622210Y-73545734D01*
X119362973Y-73482189D01*
X119096320Y-73470439D01*
X118832499Y-73510937D01*
X118581647Y-73602125D01*
X118475932Y-73658632D01*
X118414045Y-73894440D01*
X106963585Y-73894440D01*
X107040000Y-73510279D01*
X107040000Y-73089721D01*
X106957953Y-72677244D01*
X106797012Y-72288698D01*
X106563363Y-71939017D01*
X106265983Y-71641637D01*
X105916302Y-71407988D01*
X105527756Y-71247047D01*
X105115279Y-71165000D01*
X104694721Y-71165000D01*
X104282244Y-71247047D01*
X103893698Y-71407988D01*
X103544017Y-71641637D01*
X103246637Y-71939017D01*
X103012988Y-72288698D01*
X102852047Y-72677244D01*
X102770000Y-73089721D01*
X101884529Y-73089721D01*
X101960000Y-73014250D01*
X101963072Y-71800000D01*
X101950812Y-71675518D01*
X101914502Y-71555820D01*
X101855537Y-71445506D01*
X101776185Y-71348815D01*
X101679494Y-71269463D01*
X101569180Y-71210498D01*
X101485124Y-71185000D01*
X102600392Y-71185000D01*
X102650000Y-71189886D01*
X102847994Y-71170385D01*
X102935567Y-71143820D01*
X103038380Y-71112632D01*
X103213840Y-71018847D01*
X103367633Y-70892633D01*
X103399261Y-70854094D01*
X107537255Y-66716100D01*
X107575794Y-66684472D01*
X107702008Y-66530679D01*
X107795793Y-66355219D01*
X107853546Y-66164833D01*
X107868161Y-66016447D01*
X107868161Y-66016445D01*
X107873047Y-65966840D01*
X107868161Y-65917235D01*
X107868161Y-63762947D01*
X108136405Y-63754570D01*
X108229061Y-63773000D01*
X108432939Y-63773000D01*
X108632898Y-63733226D01*
X108821256Y-63655205D01*
X108990774Y-63541937D01*
X109134937Y-63397774D01*
X109248205Y-63228256D01*
X109326226Y-63039898D01*
X109366000Y-62839939D01*
X109366000Y-62636061D01*
X109326226Y-62436102D01*
X109248205Y-62247744D01*
X109134937Y-62078226D01*
X108990774Y-61934063D01*
X108821256Y-61820795D01*
X108632898Y-61742774D01*
X108432939Y-61703000D01*
X108229061Y-61703000D01*
X108063915Y-61735849D01*
X106892031Y-61772449D01*
X106858161Y-61769113D01*
X106792837Y-61775547D01*
X106777049Y-61776040D01*
X106743478Y-61780408D01*
X106660167Y-61788614D01*
X106644953Y-61793229D01*
X106629192Y-61795280D01*
X106549897Y-61822064D01*
X106469781Y-61846367D01*
X106455760Y-61853862D01*
X106440701Y-61858948D01*
X106368164Y-61900682D01*
X106294321Y-61940152D01*
X106282027Y-61950241D01*
X106268255Y-61958165D01*
X106205259Y-62013243D01*
X106140528Y-62066366D01*
X106130442Y-62078656D01*
X106118476Y-62089118D01*
X106067428Y-62155439D01*
X106014314Y-62220159D01*
X106006818Y-62234182D01*
X105997125Y-62246776D01*
X105959997Y-62321779D01*
X105920529Y-62395620D01*
X105915914Y-62410835D01*
X105908863Y-62425078D01*
X105887080Y-62505886D01*
X105862776Y-62586006D01*
X105861218Y-62601828D01*
X105857081Y-62617174D01*
X105851481Y-62700680D01*
X105848161Y-62734392D01*
X105848161Y-62750197D01*
X105843770Y-62815679D01*
X105848161Y-62849424D01*
X105848162Y-65548483D01*
X102231645Y-69165000D01*
X96254604Y-69165000D01*
X96204999Y-69160114D01*
X96155394Y-69165000D01*
X96155392Y-69165000D01*
X96007006Y-69179615D01*
X95816620Y-69237368D01*
X95641160Y-69331153D01*
X95487367Y-69457367D01*
X95455739Y-69495906D01*
X93729058Y-71222587D01*
X93727756Y-71222047D01*
X93315279Y-71140000D01*
X92894721Y-71140000D01*
X92482244Y-71222047D01*
X92093698Y-71382988D01*
X91744017Y-71616637D01*
X91446637Y-71914017D01*
X91212988Y-72263698D01*
X91052047Y-72652244D01*
X90970000Y-73064721D01*
X90084529Y-73064721D01*
X90160000Y-72989250D01*
X90163072Y-71775000D01*
X90150812Y-71650518D01*
X90114502Y-71530820D01*
X90055537Y-71420506D01*
X89976185Y-71323815D01*
X89879494Y-71244463D01*
X89769180Y-71185498D01*
X89649482Y-71149188D01*
X89525000Y-71136928D01*
X88310750Y-71140000D01*
X88152000Y-71298750D01*
X87898000Y-71298750D01*
X87739250Y-71140000D01*
X86525000Y-71136928D01*
X86400518Y-71149188D01*
X86280820Y-71185498D01*
X86170506Y-71244463D01*
X86073815Y-71323815D01*
X85994463Y-71420506D01*
X85935498Y-71530820D01*
X85899188Y-71650518D01*
X85886928Y-71775000D01*
X82127000Y-71775000D01*
X82127000Y-58839721D01*
X83763000Y-58839721D01*
X83763000Y-59260279D01*
X83845047Y-59672756D01*
X84005988Y-60061302D01*
X84239637Y-60410983D01*
X84537017Y-60708363D01*
X84886698Y-60942012D01*
X85275244Y-61102953D01*
X85687721Y-61185000D01*
X86108279Y-61185000D01*
X86520756Y-61102953D01*
X86909302Y-60942012D01*
X87258983Y-60708363D01*
X87556363Y-60410983D01*
X87790012Y-60061302D01*
X87950953Y-59672756D01*
X88033000Y-59260279D01*
X88033000Y-58889721D01*
X95813000Y-58889721D01*
X95813000Y-59310279D01*
X95895047Y-59722756D01*
X96055988Y-60111302D01*
X96289637Y-60460983D01*
X96587017Y-60758363D01*
X96936698Y-60992012D01*
X97325244Y-61152953D01*
X97737721Y-61235000D01*
X98158279Y-61235000D01*
X98570756Y-61152953D01*
X98959302Y-60992012D01*
X99308983Y-60758363D01*
X99606363Y-60460983D01*
X99840012Y-60111302D01*
X100000953Y-59722756D01*
X100083000Y-59310279D01*
X100083000Y-58889721D01*
X100000953Y-58477244D01*
X99840012Y-58088698D01*
X99606363Y-57739017D01*
X99308983Y-57441637D01*
X98959302Y-57207988D01*
X98570756Y-57047047D01*
X98158279Y-56965000D01*
X97737721Y-56965000D01*
X97325244Y-57047047D01*
X96936698Y-57207988D01*
X96587017Y-57441637D01*
X96289637Y-57739017D01*
X96055988Y-58088698D01*
X95895047Y-58477244D01*
X95813000Y-58889721D01*
X88033000Y-58889721D01*
X88033000Y-58839721D01*
X87950953Y-58427244D01*
X87790012Y-58038698D01*
X87556363Y-57689017D01*
X87258983Y-57391637D01*
X86909302Y-57157988D01*
X86740997Y-57088274D01*
X86737000Y-56902483D01*
X86737000Y-53071578D01*
X89647579Y-50161000D01*
X95220531Y-50161000D01*
X95264000Y-50165281D01*
X95307469Y-50161000D01*
X95307477Y-50161000D01*
X95437490Y-50148195D01*
X95604313Y-50097589D01*
X95758059Y-50015411D01*
X95892817Y-49904817D01*
X95920534Y-49871044D01*
X97193205Y-48598374D01*
X97348166Y-48662561D01*
X97712344Y-48735000D01*
X98083656Y-48735000D01*
X98447834Y-48662561D01*
X98790882Y-48520466D01*
X99099618Y-48314175D01*
X99362175Y-48051618D01*
X99568466Y-47742882D01*
X99710561Y-47399834D01*
X99783000Y-47035656D01*
X99783000Y-46664344D01*
X99710561Y-46300166D01*
X99568466Y-45957118D01*
X99362175Y-45648382D01*
X99099618Y-45385825D01*
X98790882Y-45179534D01*
X98447834Y-45037439D01*
X98083656Y-44965000D01*
X97712344Y-44965000D01*
X97348166Y-45037439D01*
X97005118Y-45179534D01*
X96696382Y-45385825D01*
X96433825Y-45648382D01*
X96227534Y-45957118D01*
X96085439Y-46300166D01*
X96013000Y-46664344D01*
X96013000Y-47035656D01*
X96052779Y-47235642D01*
X94897422Y-48391000D01*
X89324465Y-48391000D01*
X89280999Y-48386719D01*
X89237533Y-48391000D01*
X89237523Y-48391000D01*
X89107510Y-48403805D01*
X88940687Y-48454411D01*
X88786941Y-48536589D01*
X88786939Y-48536590D01*
X88786940Y-48536590D01*
X88685953Y-48619468D01*
X88685951Y-48619470D01*
X88652183Y-48647183D01*
X88624470Y-48680951D01*
X85256956Y-52048466D01*
X85223183Y-52076183D01*
X85112589Y-52210942D01*
X85030411Y-52364688D01*
X84979805Y-52531511D01*
X84967000Y-52661524D01*
X84967000Y-52661531D01*
X84962719Y-52705000D01*
X84967000Y-52748469D01*
X84967001Y-56878053D01*
X84966270Y-56887570D01*
X84967001Y-56921546D01*
X84967001Y-56955477D01*
X84967935Y-56964961D01*
X84971334Y-57122931D01*
X84886698Y-57157988D01*
X84537017Y-57391637D01*
X84239637Y-57689017D01*
X84005988Y-58038698D01*
X83845047Y-58427244D01*
X83763000Y-58839721D01*
X82127000Y-58839721D01*
X82127000Y-46664344D01*
X84013000Y-46664344D01*
X84013000Y-47035656D01*
X84085439Y-47399834D01*
X84227534Y-47742882D01*
X84433825Y-48051618D01*
X84696382Y-48314175D01*
X85005118Y-48520466D01*
X85348166Y-48662561D01*
X85712344Y-48735000D01*
X86083656Y-48735000D01*
X86447834Y-48662561D01*
X86790882Y-48520466D01*
X87099618Y-48314175D01*
X87362175Y-48051618D01*
X87568466Y-47742882D01*
X87710561Y-47399834D01*
X87783000Y-47035656D01*
X87783000Y-46664344D01*
X87710561Y-46300166D01*
X87568466Y-45957118D01*
X87362175Y-45648382D01*
X87099618Y-45385825D01*
X86790882Y-45179534D01*
X86447834Y-45037439D01*
X86083656Y-44965000D01*
X85712344Y-44965000D01*
X85348166Y-45037439D01*
X85005118Y-45179534D01*
X84696382Y-45385825D01*
X84433825Y-45648382D01*
X84227534Y-45957118D01*
X84085439Y-46300166D01*
X84013000Y-46664344D01*
X82127000Y-46664344D01*
X82127000Y-36389721D01*
X86219000Y-36389721D01*
X86219000Y-36810279D01*
X86301047Y-37222756D01*
X86461988Y-37611302D01*
X86695637Y-37960983D01*
X86993017Y-38258363D01*
X87084001Y-38319156D01*
X87084001Y-39135448D01*
X87078267Y-39181621D01*
X87084001Y-39260242D01*
X87084001Y-39276380D01*
X87088536Y-39322429D01*
X87096464Y-39431126D01*
X87100785Y-39446792D01*
X87102378Y-39462963D01*
X87134007Y-39567228D01*
X87162986Y-39672287D01*
X87170281Y-39686810D01*
X87174998Y-39702359D01*
X87226370Y-39798470D01*
X87247143Y-39839824D01*
X87255767Y-39853467D01*
X87292926Y-39922988D01*
X87322442Y-39958953D01*
X89957159Y-44127292D01*
X89895047Y-44277244D01*
X89813000Y-44689721D01*
X89813000Y-45110279D01*
X89895047Y-45522756D01*
X90055988Y-45911302D01*
X90289637Y-46260983D01*
X90587017Y-46558363D01*
X90936698Y-46792012D01*
X91325244Y-46952953D01*
X91737721Y-47035000D01*
X92158279Y-47035000D01*
X92570756Y-46952953D01*
X92959302Y-46792012D01*
X93308983Y-46558363D01*
X93606363Y-46260983D01*
X93840012Y-45911302D01*
X94000953Y-45522756D01*
X94083000Y-45110279D01*
X94083000Y-44689721D01*
X94000953Y-44277244D01*
X93840012Y-43888698D01*
X93606363Y-43539017D01*
X93308983Y-43241637D01*
X92959302Y-43007988D01*
X92570756Y-42847047D01*
X92158279Y-42765000D01*
X92100940Y-42765000D01*
X89624000Y-38846280D01*
X89624000Y-38319156D01*
X89714983Y-38258363D01*
X89873346Y-38100000D01*
X91295928Y-38100000D01*
X91308188Y-38224482D01*
X91344498Y-38344180D01*
X91403463Y-38454494D01*
X91482815Y-38551185D01*
X91579506Y-38630537D01*
X91689820Y-38689502D01*
X91809518Y-38725812D01*
X91934000Y-38738072D01*
X93148250Y-38735000D01*
X93307000Y-38576250D01*
X93307000Y-36727000D01*
X93561000Y-36727000D01*
X93561000Y-38576250D01*
X93719750Y-38735000D01*
X94934000Y-38738072D01*
X95058482Y-38725812D01*
X95178180Y-38689502D01*
X95288494Y-38630537D01*
X95385185Y-38551185D01*
X95464537Y-38454494D01*
X95523502Y-38344180D01*
X95559812Y-38224482D01*
X95572072Y-38100000D01*
X95569000Y-36885750D01*
X95410250Y-36727000D01*
X93561000Y-36727000D01*
X93307000Y-36727000D01*
X91457750Y-36727000D01*
X91299000Y-36885750D01*
X91295928Y-38100000D01*
X89873346Y-38100000D01*
X90012363Y-37960983D01*
X90246012Y-37611302D01*
X90406953Y-37222756D01*
X90489000Y-36810279D01*
X90489000Y-36389721D01*
X90406953Y-35977244D01*
X90246012Y-35588698D01*
X90012363Y-35239017D01*
X89873346Y-35100000D01*
X91295928Y-35100000D01*
X91299000Y-36314250D01*
X91457750Y-36473000D01*
X93307000Y-36473000D01*
X93307000Y-34623750D01*
X93561000Y-34623750D01*
X93561000Y-36473000D01*
X95410250Y-36473000D01*
X95569000Y-36314250D01*
X95572072Y-35100000D01*
X95559812Y-34975518D01*
X95523502Y-34855820D01*
X95464537Y-34745506D01*
X95385185Y-34648815D01*
X95288494Y-34569463D01*
X95178180Y-34510498D01*
X95058482Y-34474188D01*
X94934000Y-34461928D01*
X93719750Y-34465000D01*
X93561000Y-34623750D01*
X93307000Y-34623750D01*
X93148250Y-34465000D01*
X91934000Y-34461928D01*
X91809518Y-34474188D01*
X91689820Y-34510498D01*
X91579506Y-34569463D01*
X91482815Y-34648815D01*
X91403463Y-34745506D01*
X91344498Y-34855820D01*
X91308188Y-34975518D01*
X91295928Y-35100000D01*
X89873346Y-35100000D01*
X89714983Y-34941637D01*
X89365302Y-34707988D01*
X88976756Y-34547047D01*
X88564279Y-34465000D01*
X88143721Y-34465000D01*
X87731244Y-34547047D01*
X87342698Y-34707988D01*
X86993017Y-34941637D01*
X86695637Y-35239017D01*
X86461988Y-35588698D01*
X86301047Y-35977244D01*
X86219000Y-36389721D01*
X82127000Y-36389721D01*
X82127000Y-35046674D01*
X82179321Y-35068346D01*
X82640098Y-35160000D01*
X83109902Y-35160000D01*
X83570679Y-35068346D01*
X84004721Y-34888560D01*
X84395349Y-34627550D01*
X84727550Y-34295349D01*
X84988560Y-33904721D01*
X85168346Y-33470679D01*
X85260000Y-33009902D01*
X85260000Y-32540098D01*
X85177830Y-32127000D01*
X107315112Y-32127000D01*
X107314718Y-32131000D01*
X107314718Y-32131000D01*
G37*
X107314718Y-32131000D02*
X107319000Y-32174477D01*
X107319000Y-32481546D01*
X107286795Y-32529744D01*
X107208774Y-32718102D01*
X107169000Y-32918061D01*
X107169000Y-33121939D01*
X107208774Y-33321898D01*
X107286795Y-33510256D01*
X107400063Y-33679774D01*
X107544226Y-33823937D01*
X107713744Y-33937205D01*
X107902102Y-34015226D01*
X108102061Y-34055000D01*
X108305939Y-34055000D01*
X108505898Y-34015226D01*
X108694256Y-33937205D01*
X108863774Y-33823937D01*
X109007937Y-33679774D01*
X109121205Y-33510256D01*
X109199226Y-33321898D01*
X109239000Y-33121939D01*
X109239000Y-33016000D01*
X110639421Y-33016000D01*
X109386956Y-34268466D01*
X109353183Y-34296183D01*
X109242589Y-34430942D01*
X109160411Y-34584688D01*
X109129130Y-34687805D01*
X109111627Y-34745506D01*
X109109805Y-34751511D01*
X109097000Y-34881524D01*
X109097000Y-34881531D01*
X109092719Y-34925000D01*
X109097000Y-34968469D01*
X109097001Y-37802521D01*
X109092719Y-37846000D01*
X109109805Y-38019490D01*
X109160412Y-38186313D01*
X109242590Y-38340059D01*
X109325468Y-38441046D01*
X109325471Y-38441049D01*
X109353184Y-38474817D01*
X109386951Y-38502529D01*
X109877422Y-38993000D01*
X102753579Y-38993000D01*
X102402372Y-38641793D01*
X102514518Y-38675812D01*
X102639000Y-38688072D01*
X103853250Y-38685000D01*
X104012000Y-38526250D01*
X104012000Y-36677000D01*
X104266000Y-36677000D01*
X104266000Y-38526250D01*
X104424750Y-38685000D01*
X105639000Y-38688072D01*
X105763482Y-38675812D01*
X105883180Y-38639502D01*
X105993494Y-38580537D01*
X106090185Y-38501185D01*
X106169537Y-38404494D01*
X106228502Y-38294180D01*
X106264812Y-38174482D01*
X106277072Y-38050000D01*
X106274000Y-36835750D01*
X106115250Y-36677000D01*
X104266000Y-36677000D01*
X104012000Y-36677000D01*
X102162750Y-36677000D01*
X102004000Y-36835750D01*
X102000928Y-38050000D01*
X102013188Y-38174482D01*
X102047207Y-38286629D01*
X101059637Y-37299058D01*
X101111953Y-37172756D01*
X101194000Y-36760279D01*
X101194000Y-36339721D01*
X101111953Y-35927244D01*
X100951012Y-35538698D01*
X100717363Y-35189017D01*
X100578346Y-35050000D01*
X102000928Y-35050000D01*
X102004000Y-36264250D01*
X102162750Y-36423000D01*
X104012000Y-36423000D01*
X104012000Y-34573750D01*
X104266000Y-34573750D01*
X104266000Y-36423000D01*
X106115250Y-36423000D01*
X106274000Y-36264250D01*
X106277072Y-35050000D01*
X106264812Y-34925518D01*
X106228502Y-34805820D01*
X106169537Y-34695506D01*
X106090185Y-34598815D01*
X105993494Y-34519463D01*
X105883180Y-34460498D01*
X105763482Y-34424188D01*
X105639000Y-34411928D01*
X104424750Y-34415000D01*
X104266000Y-34573750D01*
X104012000Y-34573750D01*
X103853250Y-34415000D01*
X102639000Y-34411928D01*
X102514518Y-34424188D01*
X102394820Y-34460498D01*
X102284506Y-34519463D01*
X102187815Y-34598815D01*
X102108463Y-34695506D01*
X102049498Y-34805820D01*
X102013188Y-34925518D01*
X102000928Y-35050000D01*
X100578346Y-35050000D01*
X100419983Y-34891637D01*
X100070302Y-34657988D01*
X99681756Y-34497047D01*
X99269279Y-34415000D01*
X98848721Y-34415000D01*
X98436244Y-34497047D01*
X98047698Y-34657988D01*
X97698017Y-34891637D01*
X97400637Y-35189017D01*
X97166988Y-35538698D01*
X97006047Y-35927244D01*
X96924000Y-36339721D01*
X96924000Y-36760279D01*
X97006047Y-37172756D01*
X97166988Y-37561302D01*
X97400637Y-37910983D01*
X97698017Y-38208363D01*
X98047698Y-38442012D01*
X98436244Y-38602953D01*
X98848721Y-38685000D01*
X99269279Y-38685000D01*
X99681756Y-38602953D01*
X99808058Y-38550637D01*
X101730470Y-40473049D01*
X101758183Y-40506817D01*
X101791951Y-40534530D01*
X101791953Y-40534532D01*
X101870889Y-40599313D01*
X101892941Y-40617411D01*
X102046687Y-40699589D01*
X102213510Y-40750195D01*
X102343523Y-40763000D01*
X102343531Y-40763000D01*
X102387000Y-40767281D01*
X102430469Y-40763000D01*
X109763928Y-40763000D01*
X109763928Y-42252000D01*
X109776188Y-42376482D01*
X109812498Y-42496180D01*
X109871463Y-42606494D01*
X109950815Y-42703185D01*
X110047506Y-42782537D01*
X110157820Y-42841502D01*
X110277518Y-42877812D01*
X110402000Y-42890072D01*
X112102000Y-42890072D01*
X112226482Y-42877812D01*
X112346180Y-42841502D01*
X112456494Y-42782537D01*
X112553185Y-42703185D01*
X112632537Y-42606494D01*
X112691502Y-42496180D01*
X112712393Y-42427313D01*
X112736866Y-42457134D01*
X112907000Y-42596760D01*
X112907001Y-52407521D01*
X112902719Y-52451000D01*
X112919805Y-52624490D01*
X112970412Y-52791313D01*
X113052590Y-52945059D01*
X113135468Y-53046046D01*
X113135471Y-53046049D01*
X113163184Y-53079817D01*
X113196951Y-53107529D01*
X114151470Y-54062049D01*
X114179183Y-54095817D01*
X114212951Y-54123530D01*
X114212953Y-54123532D01*
X114245080Y-54149898D01*
X114313941Y-54206411D01*
X114467687Y-54288589D01*
X114555783Y-54315313D01*
X114634509Y-54339195D01*
X114649306Y-54340652D01*
X114764523Y-54352000D01*
X114764531Y-54352000D01*
X114808000Y-54356281D01*
X114851469Y-54352000D01*
X117680748Y-54352000D01*
X117544186Y-54424994D01*
X117318066Y-54610566D01*
X117132494Y-54836686D01*
X116994601Y-55094666D01*
X116909687Y-55374589D01*
X116881015Y-55665700D01*
X116909687Y-55956811D01*
X116994601Y-56236734D01*
X117132494Y-56494714D01*
X117318066Y-56720834D01*
X117347887Y-56745307D01*
X117279020Y-56766198D01*
X117168706Y-56825163D01*
X117072015Y-56904515D01*
X116992663Y-57001206D01*
X116933698Y-57111520D01*
X116897388Y-57231218D01*
X116885128Y-57355700D01*
X116885128Y-59055700D01*
X116897388Y-59180182D01*
X116933698Y-59299880D01*
X116992663Y-59410194D01*
X117072015Y-59506885D01*
X117168706Y-59586237D01*
X117279020Y-59645202D01*
X117398718Y-59681512D01*
X117479000Y-59689419D01*
X117479001Y-64599521D01*
X117474719Y-64643000D01*
X117491805Y-64816490D01*
X117542412Y-64983313D01*
X117624590Y-65137059D01*
X117639314Y-65155000D01*
X114158579Y-65155000D01*
X113661000Y-64657422D01*
X113661000Y-55783454D01*
X113693205Y-55735256D01*
X113771226Y-55546898D01*
X113811000Y-55346939D01*
X113811000Y-55143061D01*
X113771226Y-54943102D01*
X113693205Y-54754744D01*
X113579937Y-54585226D01*
X113435774Y-54441063D01*
X113266256Y-54327795D01*
X113077898Y-54249774D01*
X112877939Y-54210000D01*
X112730331Y-54210000D01*
X112755226Y-54149898D01*
X112795000Y-53949939D01*
X112795000Y-53746061D01*
X112755226Y-53546102D01*
X112677205Y-53357744D01*
X112645000Y-53309546D01*
X112645000Y-45750454D01*
X112677205Y-45702256D01*
X112755226Y-45513898D01*
X112795000Y-45313939D01*
X112795000Y-45110061D01*
X112755226Y-44910102D01*
X112677205Y-44721744D01*
X112563937Y-44552226D01*
X112419774Y-44408063D01*
X112250256Y-44294795D01*
X112061898Y-44216774D01*
X111861939Y-44177000D01*
X111658061Y-44177000D01*
X111458102Y-44216774D01*
X111269744Y-44294795D01*
X111102365Y-44406634D01*
X111088404Y-44360611D01*
X111029723Y-44250828D01*
X110950753Y-44154602D01*
X110854527Y-44075632D01*
X110744744Y-44016951D01*
X110625622Y-43980816D01*
X110501740Y-43968615D01*
X103501740Y-43968615D01*
X103377858Y-43980816D01*
X103258736Y-44016951D01*
X103148953Y-44075632D01*
X103052727Y-44154602D01*
X102973757Y-44250828D01*
X102915076Y-44360611D01*
X102878941Y-44479733D01*
X102866740Y-44603615D01*
X102866740Y-53603615D01*
X102878941Y-53727497D01*
X102915076Y-53846619D01*
X102973757Y-53956402D01*
X103052727Y-54052628D01*
X103148953Y-54131598D01*
X103258736Y-54190279D01*
X103377858Y-54226414D01*
X103501740Y-54238615D01*
X110501740Y-54238615D01*
X110625622Y-54226414D01*
X110744744Y-54190279D01*
X110774838Y-54174193D01*
X110842795Y-54338256D01*
X110956063Y-54507774D01*
X111100226Y-54651937D01*
X111269744Y-54765205D01*
X111458102Y-54843226D01*
X111658061Y-54883000D01*
X111805669Y-54883000D01*
X111780774Y-54943102D01*
X111741000Y-55143061D01*
X111741000Y-55346939D01*
X111780774Y-55546898D01*
X111858795Y-55735256D01*
X111891000Y-55783454D01*
X111891001Y-64980521D01*
X111886719Y-65024000D01*
X111903805Y-65197490D01*
X111954412Y-65364313D01*
X112036590Y-65518059D01*
X112119468Y-65619046D01*
X112119471Y-65619049D01*
X112147184Y-65652817D01*
X112180951Y-65680529D01*
X113135470Y-66635049D01*
X113163183Y-66668817D01*
X113196951Y-66696530D01*
X113196953Y-66696532D01*
X113268452Y-66755210D01*
X113275387Y-66760902D01*
X113246063Y-66790226D01*
X113132795Y-66959744D01*
X113054774Y-67148102D01*
X113015000Y-67348061D01*
X113015000Y-67551939D01*
X113054774Y-67751898D01*
X113132795Y-67940256D01*
X113246063Y-68109774D01*
X113390226Y-68253937D01*
X113559744Y-68367205D01*
X113748102Y-68445226D01*
X113948061Y-68485000D01*
X114151939Y-68485000D01*
X114351898Y-68445226D01*
X114540256Y-68367205D01*
X114588454Y-68335000D01*
X117029981Y-68335000D01*
X116965506Y-68369463D01*
X116868815Y-68448815D01*
X116789463Y-68545506D01*
X116730498Y-68655820D01*
X116694188Y-68775518D01*
X116681928Y-68900000D01*
X116681928Y-70600000D01*
X116694188Y-70724482D01*
X116730498Y-70844180D01*
X116789463Y-70954494D01*
X116868815Y-71051185D01*
X116965506Y-71130537D01*
X117075820Y-71189502D01*
X117195518Y-71225812D01*
X117294065Y-71235518D01*
X117297805Y-71273490D01*
X117302112Y-71287687D01*
X117348411Y-71440312D01*
X117430589Y-71594058D01*
X117541183Y-71728817D01*
X117574956Y-71756534D01*
X118041466Y-72223044D01*
X118069183Y-72256817D01*
X118203941Y-72367411D01*
X118357687Y-72449589D01*
X118524510Y-72500195D01*
X118654523Y-72513000D01*
X118654531Y-72513000D01*
X118698000Y-72517281D01*
X118741469Y-72513000D01*
X133705931Y-72513000D01*
X133749400Y-72517281D01*
X133792869Y-72513000D01*
X133792877Y-72513000D01*
X133922890Y-72500195D01*
X134089713Y-72449589D01*
X134243459Y-72367411D01*
X134378217Y-72256817D01*
X134405934Y-72223044D01*
X135736619Y-70892360D01*
X135859391Y-70892360D01*
X136051845Y-70873405D01*
X136298781Y-70798498D01*
X136526358Y-70676855D01*
X136725832Y-70513152D01*
X136795040Y-70428821D01*
X136864248Y-70513152D01*
X137063722Y-70676855D01*
X137291299Y-70798498D01*
X137538235Y-70873405D01*
X137730689Y-70892360D01*
X137859391Y-70892360D01*
X137994354Y-70879067D01*
X135646525Y-73226897D01*
X135461033Y-73190000D01*
X135138967Y-73190000D01*
X134823088Y-73252832D01*
X134525537Y-73376082D01*
X134257748Y-73555013D01*
X134030013Y-73782748D01*
X133851082Y-74050537D01*
X133727832Y-74348088D01*
X133665000Y-74663967D01*
X133665000Y-74986033D01*
X133727832Y-75301912D01*
X133851082Y-75599463D01*
X134030013Y-75867252D01*
X134257748Y-76094987D01*
X134525537Y-76273918D01*
X134823088Y-76397168D01*
X135138967Y-76460000D01*
X135461033Y-76460000D01*
X135646525Y-76423104D01*
X136272470Y-77049049D01*
X136300183Y-77082817D01*
X136333951Y-77110530D01*
X136333953Y-77110532D01*
X136430904Y-77190098D01*
X136434941Y-77193411D01*
X136588687Y-77275589D01*
X136755510Y-77326195D01*
X136885523Y-77339000D01*
X136885531Y-77339000D01*
X136929000Y-77343281D01*
X136972469Y-77339000D01*
X140902531Y-77339000D01*
X140946000Y-77343281D01*
X140989469Y-77339000D01*
X140989477Y-77339000D01*
X141119490Y-77326195D01*
X141286313Y-77275589D01*
X141440059Y-77193411D01*
X141574817Y-77082817D01*
X141602534Y-77049044D01*
X142158047Y-76493531D01*
X148959389Y-76493531D01*
X149001401Y-76783019D01*
X149099081Y-77058747D01*
X149172528Y-77196157D01*
X149421603Y-77273792D01*
X150270395Y-76425000D01*
X150629605Y-76425000D01*
X151478397Y-77273792D01*
X151727472Y-77196157D01*
X151853371Y-76932117D01*
X151925339Y-76648589D01*
X151933445Y-76493531D01*
X153459389Y-76493531D01*
X153501401Y-76783019D01*
X153599081Y-77058747D01*
X153672528Y-77196157D01*
X153921603Y-77273792D01*
X154770395Y-76425000D01*
X155129605Y-76425000D01*
X155978397Y-77273792D01*
X156227472Y-77196157D01*
X156353371Y-76932117D01*
X156425339Y-76648589D01*
X156440611Y-76356469D01*
X156398599Y-76066981D01*
X156300919Y-75791253D01*
X156227472Y-75653843D01*
X155978397Y-75576208D01*
X155129605Y-76425000D01*
X154770395Y-76425000D01*
X153921603Y-75576208D01*
X153672528Y-75653843D01*
X153546629Y-75917883D01*
X153474661Y-76201411D01*
X153459389Y-76493531D01*
X151933445Y-76493531D01*
X151940611Y-76356469D01*
X151898599Y-76066981D01*
X151800919Y-75791253D01*
X151727472Y-75653843D01*
X151478397Y-75576208D01*
X150629605Y-76425000D01*
X150270395Y-76425000D01*
X149421603Y-75576208D01*
X149172528Y-75653843D01*
X149046629Y-75917883D01*
X148974661Y-76201411D01*
X148959389Y-76493531D01*
X142158047Y-76493531D01*
X142466579Y-76185000D01*
X142703456Y-76185000D01*
X142965239Y-76132928D01*
X143211833Y-76030785D01*
X143433762Y-75882497D01*
X143550699Y-75765560D01*
X144354045Y-75765560D01*
X144415932Y-76001368D01*
X144657790Y-76114266D01*
X144917027Y-76177811D01*
X145183680Y-76189561D01*
X145447501Y-76149063D01*
X145698353Y-76057875D01*
X145804068Y-76001368D01*
X145865955Y-75765560D01*
X145110000Y-75009605D01*
X144354045Y-75765560D01*
X143550699Y-75765560D01*
X143622497Y-75693762D01*
X143770785Y-75471833D01*
X143840438Y-75303676D01*
X143882125Y-75418353D01*
X143938632Y-75524068D01*
X144174440Y-75585955D01*
X144930395Y-74830000D01*
X144916253Y-74815858D01*
X145095858Y-74636253D01*
X145110000Y-74650395D01*
X145124143Y-74636253D01*
X145303748Y-74815858D01*
X145289605Y-74830000D01*
X146045560Y-75585955D01*
X146281368Y-75524068D01*
X146340867Y-75396603D01*
X149601208Y-75396603D01*
X150450000Y-76245395D01*
X151298792Y-75396603D01*
X154101208Y-75396603D01*
X154950000Y-76245395D01*
X155798792Y-75396603D01*
X155721157Y-75147528D01*
X155457117Y-75021629D01*
X155173589Y-74949661D01*
X154881469Y-74934389D01*
X154591981Y-74976401D01*
X154316253Y-75074081D01*
X154178843Y-75147528D01*
X154101208Y-75396603D01*
X151298792Y-75396603D01*
X151221157Y-75147528D01*
X150957117Y-75021629D01*
X150673589Y-74949661D01*
X150381469Y-74934389D01*
X150091981Y-74976401D01*
X149816253Y-75074081D01*
X149678843Y-75147528D01*
X149601208Y-75396603D01*
X146340867Y-75396603D01*
X146394266Y-75282210D01*
X146457811Y-75022973D01*
X146469561Y-74756320D01*
X146437122Y-74544999D01*
X148595534Y-74544999D01*
X148639003Y-74549280D01*
X148682472Y-74544999D01*
X148682480Y-74544999D01*
X148812493Y-74532194D01*
X148979316Y-74481588D01*
X149133062Y-74399410D01*
X149267820Y-74288816D01*
X149295537Y-74255043D01*
X152379048Y-71171533D01*
X152412816Y-71143820D01*
X152448779Y-71100000D01*
X152503802Y-71032954D01*
X152523410Y-71009062D01*
X152605588Y-70855316D01*
X152645277Y-70724482D01*
X152656194Y-70688494D01*
X152662111Y-70628411D01*
X152668999Y-70558480D01*
X152668999Y-70558472D01*
X152673280Y-70515003D01*
X152668999Y-70471534D01*
X152668999Y-69778740D01*
X153465000Y-69778740D01*
X153465000Y-70071260D01*
X153522068Y-70358158D01*
X153634010Y-70628411D01*
X153796525Y-70871632D01*
X154003368Y-71078475D01*
X154246589Y-71240990D01*
X154516842Y-71352932D01*
X154803740Y-71410000D01*
X155096260Y-71410000D01*
X155383158Y-71352932D01*
X155653411Y-71240990D01*
X155896632Y-71078475D01*
X156103475Y-70871632D01*
X156265990Y-70628411D01*
X156377932Y-70358158D01*
X156435000Y-70071260D01*
X156435000Y-69778740D01*
X156377932Y-69491842D01*
X156265990Y-69221589D01*
X156103475Y-68978368D01*
X155896632Y-68771525D01*
X155653411Y-68609010D01*
X155383158Y-68497068D01*
X155096260Y-68440000D01*
X154803740Y-68440000D01*
X154516842Y-68497068D01*
X154246589Y-68609010D01*
X154003368Y-68771525D01*
X153796525Y-68978368D01*
X153634010Y-69221589D01*
X153522068Y-69491842D01*
X153465000Y-69778740D01*
X152668999Y-69778740D01*
X152668999Y-67660084D01*
X152759294Y-67829014D01*
X152944866Y-68055134D01*
X153170986Y-68240706D01*
X153428966Y-68378599D01*
X153708889Y-68463513D01*
X153927050Y-68485000D01*
X154072950Y-68485000D01*
X154291111Y-68463513D01*
X154571034Y-68378599D01*
X154829014Y-68240706D01*
X155055134Y-68055134D01*
X155079607Y-68025313D01*
X155100498Y-68094180D01*
X155159463Y-68204494D01*
X155238815Y-68301185D01*
X155335506Y-68380537D01*
X155445820Y-68439502D01*
X155565518Y-68475812D01*
X155690000Y-68488072D01*
X156254250Y-68485000D01*
X156413000Y-68326250D01*
X156413000Y-67127000D01*
X156667000Y-67127000D01*
X156667000Y-68326250D01*
X156825750Y-68485000D01*
X157390000Y-68488072D01*
X157514482Y-68475812D01*
X157634180Y-68439502D01*
X157744494Y-68380537D01*
X157841185Y-68301185D01*
X157920537Y-68204494D01*
X157979502Y-68094180D01*
X158015812Y-67974482D01*
X158028072Y-67850000D01*
X158025000Y-67285750D01*
X157866250Y-67127000D01*
X156667000Y-67127000D01*
X156413000Y-67127000D01*
X156393000Y-67127000D01*
X156393000Y-66873000D01*
X156413000Y-66873000D01*
X156413000Y-65673750D01*
X156667000Y-65673750D01*
X156667000Y-66873000D01*
X157866250Y-66873000D01*
X158025000Y-66714250D01*
X158028072Y-66150000D01*
X158015812Y-66025518D01*
X157979502Y-65905820D01*
X157920537Y-65795506D01*
X157841185Y-65698815D01*
X157744494Y-65619463D01*
X157634180Y-65560498D01*
X157514482Y-65524188D01*
X157390000Y-65511928D01*
X156825750Y-65515000D01*
X156667000Y-65673750D01*
X156413000Y-65673750D01*
X156254250Y-65515000D01*
X155690000Y-65511928D01*
X155565518Y-65524188D01*
X155445820Y-65560498D01*
X155335506Y-65619463D01*
X155238815Y-65698815D01*
X155159463Y-65795506D01*
X155100498Y-65905820D01*
X155079607Y-65974687D01*
X155055134Y-65944866D01*
X154829014Y-65759294D01*
X154571034Y-65621401D01*
X154291111Y-65536487D01*
X154072950Y-65515000D01*
X153927050Y-65515000D01*
X153708889Y-65536487D01*
X153428966Y-65621401D01*
X153170986Y-65759294D01*
X152944866Y-65944866D01*
X152759294Y-66170986D01*
X152668999Y-66339916D01*
X152668999Y-55942465D01*
X152673280Y-55898998D01*
X152668999Y-55855532D01*
X152668999Y-55855522D01*
X152656194Y-55725509D01*
X152605588Y-55558686D01*
X152523410Y-55404940D01*
X152412816Y-55270182D01*
X152390045Y-55251495D01*
X152379226Y-55197102D01*
X152301205Y-55008744D01*
X152187937Y-54839226D01*
X152043774Y-54695063D01*
X151874256Y-54581795D01*
X151685898Y-54503774D01*
X151485939Y-54464000D01*
X151282061Y-54464000D01*
X151082102Y-54503774D01*
X150893744Y-54581795D01*
X150745000Y-54681182D01*
X150745000Y-54018469D01*
X150749281Y-53975000D01*
X150745000Y-53931531D01*
X150745000Y-53931523D01*
X150732195Y-53801510D01*
X150681589Y-53634687D01*
X150599411Y-53480941D01*
X150488817Y-53346183D01*
X150455049Y-53318470D01*
X148611534Y-51474956D01*
X148583817Y-51441183D01*
X148449059Y-51330589D01*
X148295313Y-51248411D01*
X148128490Y-51197805D01*
X147998477Y-51185000D01*
X147998469Y-51185000D01*
X147955000Y-51180719D01*
X147911531Y-51185000D01*
X137190454Y-51185000D01*
X137142256Y-51152795D01*
X136953898Y-51074774D01*
X136753939Y-51035000D01*
X136550061Y-51035000D01*
X136350102Y-51074774D01*
X136161744Y-51152795D01*
X135992226Y-51266063D01*
X135848063Y-51410226D01*
X135734795Y-51579744D01*
X135656774Y-51768102D01*
X135617000Y-51968061D01*
X135617000Y-52171939D01*
X135656774Y-52371898D01*
X135734795Y-52560256D01*
X135848063Y-52729774D01*
X135992226Y-52873937D01*
X136161744Y-52987205D01*
X136350102Y-53065226D01*
X136550061Y-53105000D01*
X136753939Y-53105000D01*
X136953898Y-53065226D01*
X137142256Y-52987205D01*
X137190454Y-52955000D01*
X147588422Y-52955000D01*
X148975001Y-54341580D01*
X148975001Y-54681183D01*
X148826256Y-54581795D01*
X148637898Y-54503774D01*
X148437939Y-54464000D01*
X148234061Y-54464000D01*
X148118431Y-54487000D01*
X141889454Y-54487000D01*
X141841256Y-54454795D01*
X141652898Y-54376774D01*
X141452939Y-54337000D01*
X141249061Y-54337000D01*
X141049102Y-54376774D01*
X140860744Y-54454795D01*
X140691226Y-54568063D01*
X140547063Y-54712226D01*
X140433795Y-54881744D01*
X140355774Y-55070102D01*
X140316000Y-55270061D01*
X140316000Y-55473939D01*
X140355774Y-55673898D01*
X140433795Y-55862256D01*
X140547063Y-56031774D01*
X140691226Y-56175937D01*
X140860744Y-56289205D01*
X141049102Y-56367226D01*
X141249061Y-56407000D01*
X141452939Y-56407000D01*
X141652898Y-56367226D01*
X141841256Y-56289205D01*
X141889454Y-56257000D01*
X147630289Y-56257000D01*
X147676226Y-56302937D01*
X147845744Y-56416205D01*
X148034102Y-56494226D01*
X148234061Y-56534000D01*
X148437939Y-56534000D01*
X148637898Y-56494226D01*
X148826256Y-56416205D01*
X148975001Y-56316817D01*
X148975000Y-67705421D01*
X147108112Y-69572310D01*
X147108112Y-68907360D01*
X147095852Y-68782878D01*
X147059542Y-68663180D01*
X147000577Y-68552866D01*
X146921225Y-68456175D01*
X146824534Y-68376823D01*
X146714220Y-68317858D01*
X146594522Y-68281548D01*
X146470040Y-68269288D01*
X145120040Y-68269288D01*
X144995558Y-68281548D01*
X144875860Y-68317858D01*
X144765546Y-68376823D01*
X144668855Y-68456175D01*
X144595966Y-68544991D01*
X144526358Y-68487865D01*
X144298781Y-68366222D01*
X144051845Y-68291315D01*
X143859391Y-68272360D01*
X143730689Y-68272360D01*
X143538235Y-68291315D01*
X143291299Y-68366222D01*
X143063722Y-68487865D01*
X142864248Y-68651568D01*
X142795040Y-68735899D01*
X142725832Y-68651568D01*
X142526358Y-68487865D01*
X142298781Y-68366222D01*
X142051845Y-68291315D01*
X141859391Y-68272360D01*
X141730689Y-68272360D01*
X141538235Y-68291315D01*
X141291299Y-68366222D01*
X141063722Y-68487865D01*
X140864248Y-68651568D01*
X140795040Y-68735899D01*
X140725832Y-68651568D01*
X140526358Y-68487865D01*
X140298781Y-68366222D01*
X140051845Y-68291315D01*
X139859391Y-68272360D01*
X139730689Y-68272360D01*
X139538235Y-68291315D01*
X139291299Y-68366222D01*
X139063722Y-68487865D01*
X138864248Y-68651568D01*
X138795040Y-68735899D01*
X138725832Y-68651568D01*
X138526358Y-68487865D01*
X138298781Y-68366222D01*
X138051845Y-68291315D01*
X137859391Y-68272360D01*
X137730689Y-68272360D01*
X137538235Y-68291315D01*
X137291299Y-68366222D01*
X137063722Y-68487865D01*
X136864248Y-68651568D01*
X136795040Y-68735899D01*
X136725832Y-68651568D01*
X136526358Y-68487865D01*
X136298781Y-68366222D01*
X136051845Y-68291315D01*
X135859391Y-68272360D01*
X135730689Y-68272360D01*
X135538235Y-68291315D01*
X135291299Y-68366222D01*
X135063722Y-68487865D01*
X134864248Y-68651568D01*
X134795040Y-68735899D01*
X134725832Y-68651568D01*
X134526358Y-68487865D01*
X134298781Y-68366222D01*
X134051845Y-68291315D01*
X133859391Y-68272360D01*
X133730689Y-68272360D01*
X133538235Y-68291315D01*
X133291299Y-68366222D01*
X133063722Y-68487865D01*
X132864248Y-68651568D01*
X132795040Y-68735899D01*
X132725832Y-68651568D01*
X132526358Y-68487865D01*
X132298781Y-68366222D01*
X132051845Y-68291315D01*
X131859391Y-68272360D01*
X131730689Y-68272360D01*
X131538235Y-68291315D01*
X131291299Y-68366222D01*
X131063722Y-68487865D01*
X130864248Y-68651568D01*
X130795040Y-68735899D01*
X130725832Y-68651568D01*
X130526358Y-68487865D01*
X130298781Y-68366222D01*
X130051845Y-68291315D01*
X129859391Y-68272360D01*
X129730689Y-68272360D01*
X129538235Y-68291315D01*
X129291299Y-68366222D01*
X129063722Y-68487865D01*
X128864248Y-68651568D01*
X128795040Y-68735899D01*
X128725832Y-68651568D01*
X128526358Y-68487865D01*
X128298781Y-68366222D01*
X128051845Y-68291315D01*
X127859391Y-68272360D01*
X127730689Y-68272360D01*
X127538235Y-68291315D01*
X127291299Y-68366222D01*
X127063722Y-68487865D01*
X126864248Y-68651568D01*
X126700545Y-68851042D01*
X126578902Y-69078619D01*
X126503995Y-69325555D01*
X126478702Y-69582360D01*
X126503995Y-69839165D01*
X126578902Y-70086101D01*
X126700545Y-70313678D01*
X126864248Y-70513152D01*
X127063722Y-70676855D01*
X127187470Y-70743000D01*
X124356126Y-70743000D01*
X124490706Y-70579014D01*
X124628599Y-70321034D01*
X124713513Y-70041111D01*
X124742185Y-69750000D01*
X124713513Y-69458889D01*
X124628599Y-69178966D01*
X124490706Y-68920986D01*
X124311809Y-68703000D01*
X124683546Y-68703000D01*
X124731744Y-68735205D01*
X124920102Y-68813226D01*
X125120061Y-68853000D01*
X125323939Y-68853000D01*
X125523898Y-68813226D01*
X125712256Y-68735205D01*
X125881774Y-68621937D01*
X126025937Y-68477774D01*
X126139205Y-68308256D01*
X126217226Y-68119898D01*
X126257000Y-67919939D01*
X126257000Y-67716061D01*
X126217226Y-67516102D01*
X126140023Y-67329720D01*
X126753665Y-67329720D01*
X126905627Y-67481682D01*
X127124281Y-67627781D01*
X127367235Y-67728416D01*
X127625154Y-67779720D01*
X127888126Y-67779720D01*
X128146045Y-67728416D01*
X128388999Y-67627781D01*
X128607653Y-67481682D01*
X128756640Y-67332695D01*
X128905627Y-67481682D01*
X129124281Y-67627781D01*
X129367235Y-67728416D01*
X129625154Y-67779720D01*
X129888126Y-67779720D01*
X130146045Y-67728416D01*
X130388999Y-67627781D01*
X130607653Y-67481682D01*
X130756640Y-67332695D01*
X130905627Y-67481682D01*
X131124281Y-67627781D01*
X131367235Y-67728416D01*
X131625154Y-67779720D01*
X131888126Y-67779720D01*
X132146045Y-67728416D01*
X132388999Y-67627781D01*
X132607653Y-67481682D01*
X132756640Y-67332695D01*
X132905627Y-67481682D01*
X133124281Y-67627781D01*
X133367235Y-67728416D01*
X133625154Y-67779720D01*
X133888126Y-67779720D01*
X134146045Y-67728416D01*
X134388999Y-67627781D01*
X134607653Y-67481682D01*
X134756640Y-67332695D01*
X134905627Y-67481682D01*
X135124281Y-67627781D01*
X135367235Y-67728416D01*
X135625154Y-67779720D01*
X135888126Y-67779720D01*
X136146045Y-67728416D01*
X136388999Y-67627781D01*
X136607653Y-67481682D01*
X136756640Y-67332695D01*
X136905627Y-67481682D01*
X137124281Y-67627781D01*
X137367235Y-67728416D01*
X137625154Y-67779720D01*
X137888126Y-67779720D01*
X138146045Y-67728416D01*
X138388999Y-67627781D01*
X138607653Y-67481682D01*
X138756640Y-67332695D01*
X138905627Y-67481682D01*
X139124281Y-67627781D01*
X139367235Y-67728416D01*
X139625154Y-67779720D01*
X139888126Y-67779720D01*
X140146045Y-67728416D01*
X140388999Y-67627781D01*
X140607653Y-67481682D01*
X140756640Y-67332695D01*
X140905627Y-67481682D01*
X141124281Y-67627781D01*
X141367235Y-67728416D01*
X141625154Y-67779720D01*
X141888126Y-67779720D01*
X142146045Y-67728416D01*
X142388999Y-67627781D01*
X142607653Y-67481682D01*
X142756640Y-67332695D01*
X142905627Y-67481682D01*
X143124281Y-67627781D01*
X143367235Y-67728416D01*
X143625154Y-67779720D01*
X143888126Y-67779720D01*
X144146045Y-67728416D01*
X144388999Y-67627781D01*
X144607653Y-67481682D01*
X144756640Y-67332695D01*
X144905627Y-67481682D01*
X145124281Y-67627781D01*
X145367235Y-67728416D01*
X145625154Y-67779720D01*
X145888126Y-67779720D01*
X146146045Y-67728416D01*
X146388999Y-67627781D01*
X146607653Y-67481682D01*
X146793602Y-67295733D01*
X146939701Y-67077079D01*
X147040336Y-66834125D01*
X147091640Y-66576206D01*
X147091640Y-66313234D01*
X147040336Y-66055315D01*
X146939701Y-65812361D01*
X146793602Y-65593707D01*
X146607653Y-65407758D01*
X146388999Y-65261659D01*
X146146045Y-65161024D01*
X145888126Y-65109720D01*
X145625154Y-65109720D01*
X145367235Y-65161024D01*
X145124281Y-65261659D01*
X144905627Y-65407758D01*
X144756640Y-65556745D01*
X144607653Y-65407758D01*
X144388999Y-65261659D01*
X144146045Y-65161024D01*
X143888126Y-65109720D01*
X143625154Y-65109720D01*
X143367235Y-65161024D01*
X143124281Y-65261659D01*
X142905627Y-65407758D01*
X142756640Y-65556745D01*
X142644452Y-65444557D01*
X142645921Y-65429639D01*
X142641640Y-65386173D01*
X142641640Y-65386163D01*
X142628835Y-65256150D01*
X142578229Y-65089327D01*
X142496051Y-64935581D01*
X142452946Y-64883058D01*
X142413172Y-64834593D01*
X142413170Y-64834591D01*
X142385457Y-64800823D01*
X142351690Y-64773111D01*
X141372532Y-63793954D01*
X141344817Y-63760183D01*
X141210059Y-63649589D01*
X141056313Y-63567411D01*
X140889490Y-63516805D01*
X140759477Y-63504000D01*
X140759469Y-63504000D01*
X140716000Y-63499719D01*
X140672531Y-63504000D01*
X130823219Y-63504000D01*
X130829000Y-63474939D01*
X130829000Y-63271061D01*
X130789226Y-63071102D01*
X130711205Y-62882744D01*
X130597937Y-62713226D01*
X130491711Y-62607000D01*
X136113546Y-62607000D01*
X136161744Y-62639205D01*
X136350102Y-62717226D01*
X136550061Y-62757000D01*
X136753939Y-62757000D01*
X136953898Y-62717226D01*
X137142256Y-62639205D01*
X137311774Y-62525937D01*
X137455937Y-62381774D01*
X137569205Y-62212256D01*
X137647226Y-62023898D01*
X137687000Y-61823939D01*
X137687000Y-61620061D01*
X137647226Y-61420102D01*
X137569205Y-61231744D01*
X137455937Y-61062226D01*
X137311774Y-60918063D01*
X137142256Y-60804795D01*
X136953898Y-60726774D01*
X136753939Y-60687000D01*
X136550061Y-60687000D01*
X136350102Y-60726774D01*
X136161744Y-60804795D01*
X136113546Y-60837000D01*
X125399350Y-60837000D01*
X125523898Y-60812226D01*
X125712256Y-60734205D01*
X125760454Y-60702000D01*
X135719531Y-60702000D01*
X135763000Y-60706281D01*
X135806469Y-60702000D01*
X135806477Y-60702000D01*
X135936490Y-60689195D01*
X136103313Y-60638589D01*
X136257059Y-60556411D01*
X136391817Y-60445817D01*
X136419534Y-60412044D01*
X139056044Y-57775535D01*
X139112898Y-57764226D01*
X139301256Y-57686205D01*
X139470774Y-57572937D01*
X139614937Y-57428774D01*
X139728205Y-57259256D01*
X139806226Y-57070898D01*
X139846000Y-56870939D01*
X139846000Y-56667061D01*
X139806226Y-56467102D01*
X139728205Y-56278744D01*
X139614937Y-56109226D01*
X139470774Y-55965063D01*
X139301256Y-55851795D01*
X139112898Y-55773774D01*
X138912939Y-55734000D01*
X138709061Y-55734000D01*
X138509102Y-55773774D01*
X138320744Y-55851795D01*
X138151226Y-55965063D01*
X138007063Y-56109226D01*
X137893795Y-56278744D01*
X137815774Y-56467102D01*
X137804465Y-56523956D01*
X135396422Y-58932000D01*
X125760454Y-58932000D01*
X125712256Y-58899795D01*
X125523898Y-58821774D01*
X125323939Y-58782000D01*
X125120061Y-58782000D01*
X124920102Y-58821774D01*
X124731744Y-58899795D01*
X124562226Y-59013063D01*
X124418063Y-59157226D01*
X124304795Y-59326744D01*
X124226774Y-59515102D01*
X124187000Y-59715061D01*
X124187000Y-59918939D01*
X124226774Y-60118898D01*
X124304795Y-60307256D01*
X124418063Y-60476774D01*
X124562226Y-60620937D01*
X124731744Y-60734205D01*
X124920102Y-60812226D01*
X125044650Y-60837000D01*
X123601454Y-60837000D01*
X123553256Y-60804795D01*
X123364898Y-60726774D01*
X123164939Y-60687000D01*
X122997011Y-60687000D01*
X122997011Y-54617515D01*
X123001292Y-54574046D01*
X122997011Y-54530577D01*
X122997011Y-54530569D01*
X122984206Y-54400556D01*
X122970604Y-54355718D01*
X122933600Y-54233732D01*
X122851422Y-54079987D01*
X122768543Y-53978999D01*
X122768541Y-53978997D01*
X122740828Y-53945229D01*
X122707061Y-53917518D01*
X118471604Y-49682061D01*
X119488000Y-49682061D01*
X119488000Y-49885939D01*
X119527774Y-50085898D01*
X119605795Y-50274256D01*
X119719063Y-50443774D01*
X119863226Y-50587937D01*
X120032744Y-50701205D01*
X120221102Y-50779226D01*
X120275494Y-50790045D01*
X120294182Y-50812816D01*
X120428940Y-50923410D01*
X120582686Y-51005588D01*
X120749509Y-51056194D01*
X120879522Y-51068999D01*
X120879532Y-51068999D01*
X120922998Y-51073280D01*
X120966465Y-51068999D01*
X128258616Y-51068999D01*
X128325794Y-51169539D01*
X128469957Y-51313702D01*
X128639475Y-51426970D01*
X128827833Y-51504991D01*
X129027792Y-51544765D01*
X129231670Y-51544765D01*
X129431629Y-51504991D01*
X129619987Y-51426970D01*
X129789505Y-51313702D01*
X129933668Y-51169539D01*
X130046936Y-51000021D01*
X130124957Y-50811663D01*
X130164731Y-50611704D01*
X130164731Y-50407826D01*
X130124957Y-50207867D01*
X130046936Y-50019509D01*
X129933668Y-49849991D01*
X129789505Y-49705828D01*
X129619987Y-49592560D01*
X129431629Y-49514539D01*
X129231670Y-49474765D01*
X129162830Y-49474765D01*
X129126060Y-49444588D01*
X128972314Y-49362410D01*
X128805491Y-49311804D01*
X128675478Y-49298999D01*
X128675470Y-49298999D01*
X128632001Y-49294718D01*
X128588532Y-49298999D01*
X121442382Y-49298999D01*
X121440205Y-49293744D01*
X121326937Y-49124226D01*
X121182774Y-48980063D01*
X121013256Y-48866795D01*
X120824898Y-48788774D01*
X120624939Y-48749000D01*
X120421061Y-48749000D01*
X120221102Y-48788774D01*
X120032744Y-48866795D01*
X119863226Y-48980063D01*
X119719063Y-49124226D01*
X119605795Y-49293744D01*
X119527774Y-49482102D01*
X119488000Y-49682061D01*
X118471604Y-49682061D01*
X118359497Y-49569954D01*
X118331782Y-49536183D01*
X118197024Y-49425589D01*
X118043278Y-49343411D01*
X117876455Y-49292805D01*
X117746442Y-49280000D01*
X117746434Y-49280000D01*
X117725000Y-49277889D01*
X117725000Y-43202043D01*
X117725917Y-43183664D01*
X118705049Y-42204532D01*
X118738817Y-42176819D01*
X118769329Y-42139641D01*
X118849410Y-42042062D01*
X118849411Y-42042061D01*
X118931589Y-41888315D01*
X118982195Y-41721492D01*
X118995000Y-41591479D01*
X118995000Y-41591469D01*
X118999281Y-41548003D01*
X118995000Y-41504537D01*
X118995000Y-40810469D01*
X118999281Y-40767000D01*
X118995000Y-40723531D01*
X118995000Y-40723523D01*
X118982195Y-40593510D01*
X118931589Y-40426687D01*
X118849411Y-40272941D01*
X118738817Y-40138183D01*
X118705050Y-40110471D01*
X117090203Y-38495624D01*
X117094281Y-38454213D01*
X117090000Y-38410744D01*
X117090000Y-38410736D01*
X117077195Y-38280723D01*
X117053805Y-38203616D01*
X117226714Y-38061714D01*
X117339038Y-37924846D01*
X117494215Y-38099748D01*
X117749618Y-38293399D01*
X118037893Y-38433502D01*
X118224566Y-38490124D01*
X118478000Y-38370777D01*
X118478000Y-37027000D01*
X118458000Y-37027000D01*
X118458000Y-36773000D01*
X118478000Y-36773000D01*
X118478000Y-36753000D01*
X118732000Y-36753000D01*
X118732000Y-36773000D01*
X118752000Y-36773000D01*
X118752000Y-37027000D01*
X118732000Y-37027000D01*
X118732000Y-38370777D01*
X118985434Y-38490124D01*
X119172107Y-38433502D01*
X119460382Y-38293399D01*
X119715785Y-38099748D01*
X119870962Y-37924846D01*
X119983286Y-38061714D01*
X120232248Y-38266031D01*
X120516285Y-38417852D01*
X120824484Y-38511343D01*
X120990791Y-38527723D01*
X120924774Y-38687102D01*
X120885000Y-38887061D01*
X120885000Y-39090939D01*
X120924774Y-39290898D01*
X121002795Y-39479256D01*
X121035001Y-39527456D01*
X121035000Y-41797216D01*
X121030719Y-41840685D01*
X121035000Y-41884154D01*
X121035000Y-41884161D01*
X121042615Y-41961479D01*
X121047805Y-42014175D01*
X121056265Y-42042062D01*
X121098411Y-42180997D01*
X121180589Y-42334743D01*
X121291183Y-42469502D01*
X121324956Y-42497219D01*
X121998780Y-43171044D01*
X122010089Y-43227898D01*
X122088110Y-43416256D01*
X122201378Y-43585774D01*
X122345541Y-43729937D01*
X122515059Y-43843205D01*
X122703417Y-43921226D01*
X122903376Y-43961000D01*
X123107254Y-43961000D01*
X123307213Y-43921226D01*
X123495571Y-43843205D01*
X123665089Y-43729937D01*
X123809252Y-43585774D01*
X123922520Y-43416256D01*
X124000541Y-43227898D01*
X124024561Y-43107140D01*
X124184470Y-43267049D01*
X124212183Y-43300817D01*
X124245951Y-43328530D01*
X124245953Y-43328532D01*
X124317452Y-43387210D01*
X124346941Y-43411411D01*
X124500687Y-43493589D01*
X124667510Y-43544195D01*
X124797523Y-43557000D01*
X124797533Y-43557000D01*
X124840999Y-43561281D01*
X124884465Y-43557000D01*
X126748118Y-43557000D01*
X126718715Y-43586403D01*
X126835369Y-43703057D01*
X126601603Y-43762517D01*
X126490706Y-44000962D01*
X126428457Y-44256460D01*
X126417250Y-44519193D01*
X126457515Y-44779064D01*
X126524307Y-44962000D01*
X120172454Y-44962000D01*
X120124256Y-44929795D01*
X119935898Y-44851774D01*
X119735939Y-44812000D01*
X119532061Y-44812000D01*
X119332102Y-44851774D01*
X119143744Y-44929795D01*
X118974226Y-45043063D01*
X118830063Y-45187226D01*
X118716795Y-45356744D01*
X118638774Y-45545102D01*
X118599000Y-45745061D01*
X118599000Y-45948939D01*
X118638774Y-46148898D01*
X118716795Y-46337256D01*
X118830063Y-46506774D01*
X118974226Y-46650937D01*
X119073097Y-46717000D01*
X119024061Y-46717000D01*
X118824102Y-46756774D01*
X118635744Y-46834795D01*
X118466226Y-46948063D01*
X118322063Y-47092226D01*
X118208795Y-47261744D01*
X118130774Y-47450102D01*
X118091000Y-47650061D01*
X118091000Y-47853939D01*
X118130774Y-48053898D01*
X118208795Y-48242256D01*
X118322063Y-48411774D01*
X118466226Y-48555937D01*
X118635744Y-48669205D01*
X118824102Y-48747226D01*
X119024061Y-48787000D01*
X119227939Y-48787000D01*
X119427898Y-48747226D01*
X119616256Y-48669205D01*
X119664454Y-48637000D01*
X129890546Y-48637000D01*
X129938744Y-48669205D01*
X130127102Y-48747226D01*
X130327061Y-48787000D01*
X130530939Y-48787000D01*
X130730898Y-48747226D01*
X130919256Y-48669205D01*
X130967454Y-48637000D01*
X143605891Y-48637000D01*
X143649360Y-48641281D01*
X143692829Y-48637000D01*
X143692837Y-48637000D01*
X143822850Y-48624195D01*
X143989673Y-48573589D01*
X144143419Y-48491411D01*
X144278177Y-48380817D01*
X144305894Y-48347044D01*
X146351690Y-46301249D01*
X146385457Y-46273537D01*
X146417755Y-46234183D01*
X146496050Y-46138780D01*
X146496051Y-46138779D01*
X146578229Y-45985033D01*
X146628835Y-45818210D01*
X146635145Y-45754144D01*
X146700820Y-45734222D01*
X146811134Y-45675257D01*
X146907825Y-45595905D01*
X146987177Y-45499214D01*
X147046142Y-45388900D01*
X147082452Y-45269202D01*
X147094712Y-45144720D01*
X147094712Y-44000000D01*
X150507815Y-44000000D01*
X150536487Y-44291111D01*
X150621401Y-44571034D01*
X150759294Y-44829014D01*
X150944866Y-45055134D01*
X151170986Y-45240706D01*
X151428966Y-45378599D01*
X151708889Y-45463513D01*
X151927050Y-45485000D01*
X152072950Y-45485000D01*
X152291111Y-45463513D01*
X152571034Y-45378599D01*
X152829014Y-45240706D01*
X153055134Y-45055134D01*
X153079607Y-45025313D01*
X153100498Y-45094180D01*
X153159463Y-45204494D01*
X153238815Y-45301185D01*
X153335506Y-45380537D01*
X153445820Y-45439502D01*
X153565518Y-45475812D01*
X153690000Y-45488072D01*
X154254250Y-45485000D01*
X154413000Y-45326250D01*
X154413000Y-44127000D01*
X154667000Y-44127000D01*
X154667000Y-45326250D01*
X154825750Y-45485000D01*
X155390000Y-45488072D01*
X155514482Y-45475812D01*
X155634180Y-45439502D01*
X155744494Y-45380537D01*
X155841185Y-45301185D01*
X155920537Y-45204494D01*
X155979502Y-45094180D01*
X156015812Y-44974482D01*
X156028072Y-44850000D01*
X156025000Y-44285750D01*
X155866250Y-44127000D01*
X154667000Y-44127000D01*
X154413000Y-44127000D01*
X154393000Y-44127000D01*
X154393000Y-43873000D01*
X154413000Y-43873000D01*
X154413000Y-42673750D01*
X154667000Y-42673750D01*
X154667000Y-43873000D01*
X155866250Y-43873000D01*
X156025000Y-43714250D01*
X156028072Y-43150000D01*
X156015812Y-43025518D01*
X155979502Y-42905820D01*
X155920537Y-42795506D01*
X155841185Y-42698815D01*
X155744494Y-42619463D01*
X155634180Y-42560498D01*
X155514482Y-42524188D01*
X155390000Y-42511928D01*
X154825750Y-42515000D01*
X154667000Y-42673750D01*
X154413000Y-42673750D01*
X154254250Y-42515000D01*
X153690000Y-42511928D01*
X153565518Y-42524188D01*
X153445820Y-42560498D01*
X153335506Y-42619463D01*
X153238815Y-42698815D01*
X153159463Y-42795506D01*
X153100498Y-42905820D01*
X153079607Y-42974687D01*
X153055134Y-42944866D01*
X152829014Y-42759294D01*
X152571034Y-42621401D01*
X152291111Y-42536487D01*
X152072950Y-42515000D01*
X151927050Y-42515000D01*
X151708889Y-42536487D01*
X151428966Y-42621401D01*
X151170986Y-42759294D01*
X150944866Y-42944866D01*
X150759294Y-43170986D01*
X150621401Y-43428966D01*
X150536487Y-43708889D01*
X150507815Y-44000000D01*
X147094712Y-44000000D01*
X147094712Y-43744720D01*
X147082452Y-43620238D01*
X147046142Y-43500540D01*
X146987177Y-43390226D01*
X146907825Y-43293535D01*
X146811134Y-43214183D01*
X146700820Y-43155218D01*
X146581122Y-43118908D01*
X146456640Y-43106648D01*
X145056640Y-43106648D01*
X144932158Y-43118908D01*
X144812460Y-43155218D01*
X144702146Y-43214183D01*
X144605455Y-43293535D01*
X144545692Y-43366357D01*
X144388999Y-43261659D01*
X144146045Y-43161024D01*
X143888126Y-43109720D01*
X143625154Y-43109720D01*
X143367235Y-43161024D01*
X143124281Y-43261659D01*
X142905627Y-43407758D01*
X142756640Y-43556745D01*
X142607653Y-43407758D01*
X142388999Y-43261659D01*
X142146045Y-43161024D01*
X141888126Y-43109720D01*
X141625154Y-43109720D01*
X141367235Y-43161024D01*
X141124281Y-43261659D01*
X140905627Y-43407758D01*
X140756640Y-43556745D01*
X140607653Y-43407758D01*
X140388999Y-43261659D01*
X140146045Y-43161024D01*
X139888126Y-43109720D01*
X139625154Y-43109720D01*
X139367235Y-43161024D01*
X139124281Y-43261659D01*
X138905627Y-43407758D01*
X138756640Y-43556745D01*
X138607653Y-43407758D01*
X138388999Y-43261659D01*
X138146045Y-43161024D01*
X137888126Y-43109720D01*
X137625154Y-43109720D01*
X137367235Y-43161024D01*
X137124281Y-43261659D01*
X136905627Y-43407758D01*
X136756640Y-43556745D01*
X136607653Y-43407758D01*
X136388999Y-43261659D01*
X136146045Y-43161024D01*
X135888126Y-43109720D01*
X135625154Y-43109720D01*
X135367235Y-43161024D01*
X135124281Y-43261659D01*
X134905627Y-43407758D01*
X134756640Y-43556745D01*
X134607653Y-43407758D01*
X134388999Y-43261659D01*
X134146045Y-43161024D01*
X133888126Y-43109720D01*
X133625154Y-43109720D01*
X133367235Y-43161024D01*
X133124281Y-43261659D01*
X132905627Y-43407758D01*
X132756640Y-43556745D01*
X132607653Y-43407758D01*
X132388999Y-43261659D01*
X132146045Y-43161024D01*
X131888126Y-43109720D01*
X131625154Y-43109720D01*
X131367235Y-43161024D01*
X131124281Y-43261659D01*
X130905627Y-43407758D01*
X130756640Y-43556745D01*
X130635000Y-43435105D01*
X130635000Y-42417469D01*
X130639281Y-42374000D01*
X130635000Y-42330531D01*
X130635000Y-42116372D01*
X130680792Y-42078792D01*
X130750000Y-41994461D01*
X130819208Y-42078792D01*
X131018682Y-42242495D01*
X131246259Y-42364138D01*
X131493195Y-42439045D01*
X131685649Y-42458000D01*
X131814351Y-42458000D01*
X132006805Y-42439045D01*
X132253741Y-42364138D01*
X132481318Y-42242495D01*
X132680792Y-42078792D01*
X132750000Y-41994461D01*
X132819208Y-42078792D01*
X133018682Y-42242495D01*
X133246259Y-42364138D01*
X133493195Y-42439045D01*
X133685649Y-42458000D01*
X133814351Y-42458000D01*
X134006805Y-42439045D01*
X134253741Y-42364138D01*
X134481318Y-42242495D01*
X134680792Y-42078792D01*
X134750000Y-41994461D01*
X134819208Y-42078792D01*
X135018682Y-42242495D01*
X135246259Y-42364138D01*
X135493195Y-42439045D01*
X135685649Y-42458000D01*
X135814351Y-42458000D01*
X136006805Y-42439045D01*
X136253741Y-42364138D01*
X136481318Y-42242495D01*
X136680792Y-42078792D01*
X136750000Y-41994461D01*
X136819208Y-42078792D01*
X137018682Y-42242495D01*
X137246259Y-42364138D01*
X137493195Y-42439045D01*
X137685649Y-42458000D01*
X137814351Y-42458000D01*
X138006805Y-42439045D01*
X138253741Y-42364138D01*
X138481318Y-42242495D01*
X138680792Y-42078792D01*
X138750000Y-41994461D01*
X138819208Y-42078792D01*
X139018682Y-42242495D01*
X139246259Y-42364138D01*
X139493195Y-42439045D01*
X139685649Y-42458000D01*
X139814351Y-42458000D01*
X140006805Y-42439045D01*
X140253741Y-42364138D01*
X140481318Y-42242495D01*
X140680792Y-42078792D01*
X140750000Y-41994461D01*
X140819208Y-42078792D01*
X141018682Y-42242495D01*
X141246259Y-42364138D01*
X141493195Y-42439045D01*
X141685649Y-42458000D01*
X141814351Y-42458000D01*
X142006805Y-42439045D01*
X142253741Y-42364138D01*
X142481318Y-42242495D01*
X142680792Y-42078792D01*
X142750000Y-41994461D01*
X142819208Y-42078792D01*
X143018682Y-42242495D01*
X143246259Y-42364138D01*
X143493195Y-42439045D01*
X143685649Y-42458000D01*
X143814351Y-42458000D01*
X144006805Y-42439045D01*
X144253741Y-42364138D01*
X144481318Y-42242495D01*
X144550926Y-42185369D01*
X144623815Y-42274185D01*
X144720506Y-42353537D01*
X144830820Y-42412502D01*
X144950518Y-42448812D01*
X145075000Y-42461072D01*
X146425000Y-42461072D01*
X146549482Y-42448812D01*
X146669180Y-42412502D01*
X146779494Y-42353537D01*
X146876185Y-42274185D01*
X146955537Y-42177494D01*
X147014502Y-42067180D01*
X147050812Y-41947482D01*
X147063072Y-41823000D01*
X147063072Y-41403397D01*
X147676208Y-41403397D01*
X147753843Y-41652472D01*
X148017883Y-41778371D01*
X148301411Y-41850339D01*
X148593531Y-41865611D01*
X148883019Y-41823599D01*
X149158747Y-41725919D01*
X149296157Y-41652472D01*
X149373792Y-41403397D01*
X152176208Y-41403397D01*
X152253843Y-41652472D01*
X152517883Y-41778371D01*
X152801411Y-41850339D01*
X153093531Y-41865611D01*
X153383019Y-41823599D01*
X153658747Y-41725919D01*
X153796157Y-41652472D01*
X153873792Y-41403397D01*
X153025000Y-40554605D01*
X152176208Y-41403397D01*
X149373792Y-41403397D01*
X148525000Y-40554605D01*
X147676208Y-41403397D01*
X147063072Y-41403397D01*
X147063072Y-40641174D01*
X147076401Y-40733019D01*
X147174081Y-41008747D01*
X147247528Y-41146157D01*
X147496603Y-41223792D01*
X148345395Y-40375000D01*
X148704605Y-40375000D01*
X149553397Y-41223792D01*
X149802472Y-41146157D01*
X149928371Y-40882117D01*
X150000339Y-40598589D01*
X150008445Y-40443531D01*
X151534389Y-40443531D01*
X151576401Y-40733019D01*
X151674081Y-41008747D01*
X151747528Y-41146157D01*
X151996603Y-41223792D01*
X152845395Y-40375000D01*
X153204605Y-40375000D01*
X154053397Y-41223792D01*
X154302472Y-41146157D01*
X154428371Y-40882117D01*
X154500339Y-40598589D01*
X154515611Y-40306469D01*
X154473599Y-40016981D01*
X154375919Y-39741253D01*
X154302472Y-39603843D01*
X154053397Y-39526208D01*
X153204605Y-40375000D01*
X152845395Y-40375000D01*
X151996603Y-39526208D01*
X151747528Y-39603843D01*
X151621629Y-39867883D01*
X151549661Y-40151411D01*
X151534389Y-40443531D01*
X150008445Y-40443531D01*
X150015611Y-40306469D01*
X149973599Y-40016981D01*
X149875919Y-39741253D01*
X149802472Y-39603843D01*
X149553397Y-39526208D01*
X148704605Y-40375000D01*
X148345395Y-40375000D01*
X147496603Y-39526208D01*
X147247528Y-39603843D01*
X147121629Y-39867883D01*
X147049661Y-40151411D01*
X147041040Y-40316305D01*
X147014502Y-40228820D01*
X146955537Y-40118506D01*
X146876185Y-40021815D01*
X146779494Y-39942463D01*
X146669180Y-39883498D01*
X146549482Y-39847188D01*
X146425000Y-39834928D01*
X145075000Y-39834928D01*
X144950518Y-39847188D01*
X144830820Y-39883498D01*
X144720506Y-39942463D01*
X144635000Y-40012636D01*
X144635000Y-39838875D01*
X144639281Y-39795406D01*
X144635000Y-39751937D01*
X144635000Y-39751929D01*
X144622195Y-39621916D01*
X144571589Y-39455093D01*
X144513601Y-39346603D01*
X147676208Y-39346603D01*
X148525000Y-40195395D01*
X149373792Y-39346603D01*
X152176208Y-39346603D01*
X153025000Y-40195395D01*
X153873792Y-39346603D01*
X153796157Y-39097528D01*
X153532117Y-38971629D01*
X153248589Y-38899661D01*
X152956469Y-38884389D01*
X152666981Y-38926401D01*
X152391253Y-39024081D01*
X152253843Y-39097528D01*
X152176208Y-39346603D01*
X149373792Y-39346603D01*
X149296157Y-39097528D01*
X149032117Y-38971629D01*
X148748589Y-38899661D01*
X148456469Y-38884389D01*
X148166981Y-38926401D01*
X147891253Y-39024081D01*
X147753843Y-39097528D01*
X147676208Y-39346603D01*
X144513601Y-39346603D01*
X144489411Y-39301347D01*
X144378817Y-39166589D01*
X144345045Y-39138873D01*
X144136128Y-38929956D01*
X144108411Y-38896183D01*
X143973653Y-38785589D01*
X143819907Y-38703411D01*
X143653084Y-38652805D01*
X143523071Y-38640000D01*
X143523063Y-38640000D01*
X143479594Y-38635719D01*
X143436125Y-38640000D01*
X143191579Y-38640000D01*
X141234510Y-36682932D01*
X141496034Y-36603599D01*
X141754014Y-36465706D01*
X141980134Y-36280134D01*
X142004607Y-36250313D01*
X142025498Y-36319180D01*
X142084463Y-36429494D01*
X142163815Y-36526185D01*
X142260506Y-36605537D01*
X142370820Y-36664502D01*
X142490518Y-36700812D01*
X142615000Y-36713072D01*
X144315000Y-36713072D01*
X144439482Y-36700812D01*
X144559180Y-36664502D01*
X144669494Y-36605537D01*
X144766185Y-36526185D01*
X144845537Y-36429494D01*
X144904502Y-36319180D01*
X144940812Y-36199482D01*
X144953072Y-36075000D01*
X144953072Y-34375000D01*
X144940812Y-34250518D01*
X144904502Y-34130820D01*
X144845537Y-34020506D01*
X144766185Y-33923815D01*
X144669494Y-33844463D01*
X144559180Y-33785498D01*
X144439482Y-33749188D01*
X144315000Y-33736928D01*
X142615000Y-33736928D01*
X142490518Y-33749188D01*
X142370820Y-33785498D01*
X142260506Y-33844463D01*
X142163815Y-33923815D01*
X142084463Y-34020506D01*
X142025498Y-34130820D01*
X142004607Y-34199687D01*
X141980134Y-34169866D01*
X141827264Y-34044409D01*
X141831855Y-33728740D01*
X147040000Y-33728740D01*
X147040000Y-34021260D01*
X147097068Y-34308158D01*
X147209010Y-34578411D01*
X147371525Y-34821632D01*
X147578368Y-35028475D01*
X147821589Y-35190990D01*
X148091842Y-35302932D01*
X148378740Y-35360000D01*
X148671260Y-35360000D01*
X148958158Y-35302932D01*
X149228411Y-35190990D01*
X149471632Y-35028475D01*
X149678475Y-34821632D01*
X149840990Y-34578411D01*
X149952932Y-34308158D01*
X150010000Y-34021260D01*
X150010000Y-33728740D01*
X151540000Y-33728740D01*
X151540000Y-34021260D01*
X151597068Y-34308158D01*
X151709010Y-34578411D01*
X151871525Y-34821632D01*
X152078368Y-35028475D01*
X152321589Y-35190990D01*
X152591842Y-35302932D01*
X152878740Y-35360000D01*
X153171260Y-35360000D01*
X153458158Y-35302932D01*
X153728411Y-35190990D01*
X153971632Y-35028475D01*
X154178475Y-34821632D01*
X154340990Y-34578411D01*
X154452932Y-34308158D01*
X154510000Y-34021260D01*
X154510000Y-33728740D01*
X154452932Y-33441842D01*
X154340990Y-33171589D01*
X154178475Y-32928368D01*
X153971632Y-32721525D01*
X153728411Y-32559010D01*
X153458158Y-32447068D01*
X153171260Y-32390000D01*
X152878740Y-32390000D01*
X152591842Y-32447068D01*
X152321589Y-32559010D01*
X152078368Y-32721525D01*
X151871525Y-32928368D01*
X151709010Y-33171589D01*
X151597068Y-33441842D01*
X151540000Y-33728740D01*
X150010000Y-33728740D01*
X149952932Y-33441842D01*
X149840990Y-33171589D01*
X149678475Y-32928368D01*
X149471632Y-32721525D01*
X149228411Y-32559010D01*
X148958158Y-32447068D01*
X148671260Y-32390000D01*
X148378740Y-32390000D01*
X148091842Y-32447068D01*
X147821589Y-32559010D01*
X147578368Y-32721525D01*
X147371525Y-32928368D01*
X147209010Y-33171589D01*
X147097068Y-33441842D01*
X147040000Y-33728740D01*
X141831855Y-33728740D01*
X141854367Y-32180902D01*
X141859282Y-32131000D01*
X141858888Y-32127000D01*
X157697170Y-32127000D01*
X157615000Y-32540098D01*
X157615000Y-33009902D01*
X157706654Y-33470679D01*
X157886440Y-33904721D01*
X158147450Y-34295349D01*
X158479651Y-34627550D01*
X158870279Y-34888560D01*
X159304321Y-35068346D01*
X159765098Y-35160000D01*
X159873000Y-35160000D01*
X159873000Y-75040000D01*
X159765098Y-75040000D01*
X159304321Y-75131654D01*
X158870279Y-75311440D01*
X158479651Y-75572450D01*
X158147450Y-75904651D01*
X157886440Y-76295279D01*
X157706654Y-76729321D01*
X157615000Y-77190098D01*
X157615000Y-77659902D01*
X157657388Y-77873000D01*
X155309710Y-77873000D01*
X155583747Y-77775919D01*
X155721157Y-77702472D01*
X155798792Y-77453397D01*
X154950000Y-76604605D01*
X154101208Y-77453397D01*
X154178843Y-77702472D01*
X154442883Y-77828371D01*
X154618705Y-77873000D01*
X150809710Y-77873000D01*
X151083747Y-77775919D01*
X151221157Y-77702472D01*
X151298792Y-77453397D01*
X150450000Y-76604605D01*
X149601208Y-77453397D01*
X149678843Y-77702472D01*
X149942883Y-77828371D01*
X150118705Y-77873000D01*
X84967612Y-77873000D01*
X85010000Y-77659902D01*
X85010000Y-77190098D01*
X84918346Y-76729321D01*
X84738560Y-76295279D01*
X84477550Y-75904651D01*
X84338459Y-75765560D01*
X118414045Y-75765560D01*
X118475932Y-76001368D01*
X118717790Y-76114266D01*
X118977027Y-76177811D01*
X119243680Y-76189561D01*
X119507501Y-76149063D01*
X119758353Y-76057875D01*
X119864068Y-76001368D01*
X119925955Y-75765560D01*
X119170000Y-75009605D01*
X118414045Y-75765560D01*
X84338459Y-75765560D01*
X84145349Y-75572450D01*
X83754721Y-75311440D01*
X83320679Y-75131654D01*
X82859902Y-75040000D01*
X82390098Y-75040000D01*
X82127000Y-75092333D01*
X82127000Y-74775000D01*
X85886928Y-74775000D01*
X85899188Y-74899482D01*
X85935498Y-75019180D01*
X85994463Y-75129494D01*
X86073815Y-75226185D01*
X86170506Y-75305537D01*
X86280820Y-75364502D01*
X86400518Y-75400812D01*
X86525000Y-75413072D01*
X87739250Y-75410000D01*
X87898000Y-75251250D01*
X87898000Y-73402000D01*
X88152000Y-73402000D01*
X88152000Y-75251250D01*
X88310750Y-75410000D01*
X89525000Y-75413072D01*
X89649482Y-75400812D01*
X89769180Y-75364502D01*
X89879494Y-75305537D01*
X89976185Y-75226185D01*
X90055537Y-75129494D01*
X90114502Y-75019180D01*
X90150812Y-74899482D01*
X90163072Y-74775000D01*
X90160000Y-73560750D01*
X90001250Y-73402000D01*
X88152000Y-73402000D01*
X87898000Y-73402000D01*
X86048750Y-73402000D01*
X85890000Y-73560750D01*
X85886928Y-74775000D01*
X82127000Y-74775000D01*
X82127000Y-71775000D01*
X85886928Y-71775000D01*
X85890000Y-72989250D01*
X86048750Y-73148000D01*
X87898000Y-73148000D01*
X87898000Y-71298750D01*
X88152000Y-71298750D01*
X88152000Y-73148000D01*
X90001250Y-73148000D01*
X90084529Y-73064721D01*
X90970000Y-73064721D01*
X90970000Y-73485279D01*
X91052047Y-73897756D01*
X91212988Y-74286302D01*
X91446637Y-74635983D01*
X91744017Y-74933363D01*
X92093698Y-75167012D01*
X92482244Y-75327953D01*
X92894721Y-75410000D01*
X93315279Y-75410000D01*
X93727756Y-75327953D01*
X94116302Y-75167012D01*
X94465983Y-74933363D01*
X94599346Y-74800000D01*
X97686928Y-74800000D01*
X97699188Y-74924482D01*
X97735498Y-75044180D01*
X97794463Y-75154494D01*
X97873815Y-75251185D01*
X97970506Y-75330537D01*
X98080820Y-75389502D01*
X98200518Y-75425812D01*
X98325000Y-75438072D01*
X99539250Y-75435000D01*
X99698000Y-75276250D01*
X99698000Y-73427000D01*
X99952000Y-73427000D01*
X99952000Y-75276250D01*
X100110750Y-75435000D01*
X101325000Y-75438072D01*
X101449482Y-75425812D01*
X101569180Y-75389502D01*
X101679494Y-75330537D01*
X101776185Y-75251185D01*
X101855537Y-75154494D01*
X101914502Y-75044180D01*
X101950812Y-74924482D01*
X101963072Y-74800000D01*
X101960000Y-73585750D01*
X101801250Y-73427000D01*
X99952000Y-73427000D01*
X99698000Y-73427000D01*
X97848750Y-73427000D01*
X97690000Y-73585750D01*
X97686928Y-74800000D01*
X94599346Y-74800000D01*
X94763363Y-74635983D01*
X94997012Y-74286302D01*
X95157953Y-73897756D01*
X95240000Y-73485279D01*
X95240000Y-73064721D01*
X95157953Y-72652244D01*
X95157413Y-72650942D01*
X96623355Y-71185000D01*
X98164876Y-71185000D01*
X98080820Y-71210498D01*
X97970506Y-71269463D01*
X97873815Y-71348815D01*
X97794463Y-71445506D01*
X97735498Y-71555820D01*
X97699188Y-71675518D01*
X97686928Y-71800000D01*
X97690000Y-73014250D01*
X97848750Y-73173000D01*
X99698000Y-73173000D01*
X99698000Y-73153000D01*
X99952000Y-73153000D01*
X99952000Y-73173000D01*
X101801250Y-73173000D01*
X101884529Y-73089721D01*
X102770000Y-73089721D01*
X102770000Y-73510279D01*
X102852047Y-73922756D01*
X103012988Y-74311302D01*
X103246637Y-74660983D01*
X103544017Y-74958363D01*
X103893698Y-75192012D01*
X104282244Y-75352953D01*
X104694721Y-75435000D01*
X105115279Y-75435000D01*
X105527756Y-75352953D01*
X105916302Y-75192012D01*
X106265983Y-74958363D01*
X106320666Y-74903680D01*
X117810439Y-74903680D01*
X117850937Y-75167501D01*
X117942125Y-75418353D01*
X117998632Y-75524068D01*
X118234440Y-75585955D01*
X118990395Y-74830000D01*
X119349605Y-74830000D01*
X120105560Y-75585955D01*
X120341368Y-75524068D01*
X120441764Y-75308993D01*
X120509215Y-75471833D01*
X120657503Y-75693762D01*
X120846238Y-75882497D01*
X121068167Y-76030785D01*
X121314761Y-76132928D01*
X121576544Y-76185000D01*
X121813421Y-76185000D01*
X121834952Y-76206531D01*
X121834957Y-76206535D01*
X122423470Y-76795049D01*
X122451183Y-76828817D01*
X122484951Y-76856530D01*
X122484953Y-76856532D01*
X122556452Y-76915210D01*
X122585941Y-76939411D01*
X122739687Y-77021589D01*
X122906510Y-77072195D01*
X123036523Y-77085000D01*
X123036533Y-77085000D01*
X123079999Y-77089281D01*
X123123465Y-77085000D01*
X127942318Y-77085000D01*
X127985787Y-77089281D01*
X128029256Y-77085000D01*
X128029264Y-77085000D01*
X128159277Y-77072195D01*
X128326100Y-77021589D01*
X128479846Y-76939411D01*
X128614604Y-76828817D01*
X128642321Y-76795044D01*
X129537563Y-75899802D01*
X129732748Y-76094987D01*
X130000537Y-76273918D01*
X130298088Y-76397168D01*
X130613967Y-76460000D01*
X130936033Y-76460000D01*
X131251912Y-76397168D01*
X131549463Y-76273918D01*
X131817252Y-76094987D01*
X132044987Y-75867252D01*
X132223918Y-75599463D01*
X132347168Y-75301912D01*
X132410000Y-74986033D01*
X132410000Y-74663967D01*
X132347168Y-74348088D01*
X132223918Y-74050537D01*
X132044987Y-73782748D01*
X131817252Y-73555013D01*
X131549463Y-73376082D01*
X131251912Y-73252832D01*
X130936033Y-73190000D01*
X130613967Y-73190000D01*
X130298088Y-73252832D01*
X130000537Y-73376082D01*
X129732748Y-73555013D01*
X129505013Y-73782748D01*
X129400207Y-73939601D01*
X129360787Y-73935719D01*
X129317318Y-73940000D01*
X129317310Y-73940000D01*
X129187297Y-73952805D01*
X129020473Y-74003411D01*
X128866728Y-74085589D01*
X128765740Y-74168468D01*
X128765738Y-74168470D01*
X128731970Y-74196183D01*
X128704257Y-74229951D01*
X127619209Y-75315000D01*
X125515748Y-75315000D01*
X125552928Y-75225239D01*
X125605000Y-74963456D01*
X125605000Y-74696544D01*
X125552928Y-74434761D01*
X125450785Y-74188167D01*
X125302497Y-73966238D01*
X125113762Y-73777503D01*
X124891833Y-73629215D01*
X124645239Y-73527072D01*
X124383456Y-73475000D01*
X124116544Y-73475000D01*
X123854761Y-73527072D01*
X123608167Y-73629215D01*
X123386238Y-73777503D01*
X123197503Y-73966238D01*
X123049215Y-74188167D01*
X122980000Y-74355266D01*
X122910785Y-74188167D01*
X122762497Y-73966238D01*
X122573762Y-73777503D01*
X122351833Y-73629215D01*
X122105239Y-73527072D01*
X121843456Y-73475000D01*
X121576544Y-73475000D01*
X121314761Y-73527072D01*
X121068167Y-73629215D01*
X120846238Y-73777503D01*
X120657503Y-73966238D01*
X120509215Y-74188167D01*
X120439562Y-74356324D01*
X120397875Y-74241647D01*
X120341368Y-74135932D01*
X120105560Y-74074045D01*
X119349605Y-74830000D01*
X118990395Y-74830000D01*
X118234440Y-74074045D01*
X117998632Y-74135932D01*
X117885734Y-74377790D01*
X117822189Y-74637027D01*
X117810439Y-74903680D01*
X106320666Y-74903680D01*
X106563363Y-74660983D01*
X106797012Y-74311302D01*
X106957953Y-73922756D01*
X106963585Y-73894440D01*
X118414045Y-73894440D01*
X119170000Y-74650395D01*
X119925955Y-73894440D01*
X119864068Y-73658632D01*
X119622210Y-73545734D01*
X119362973Y-73482189D01*
X119096320Y-73470439D01*
X118832499Y-73510937D01*
X118581647Y-73602125D01*
X118475932Y-73658632D01*
X118414045Y-73894440D01*
X106963585Y-73894440D01*
X107040000Y-73510279D01*
X107040000Y-73089721D01*
X106957953Y-72677244D01*
X106797012Y-72288698D01*
X106563363Y-71939017D01*
X106265983Y-71641637D01*
X105916302Y-71407988D01*
X105527756Y-71247047D01*
X105115279Y-71165000D01*
X104694721Y-71165000D01*
X104282244Y-71247047D01*
X103893698Y-71407988D01*
X103544017Y-71641637D01*
X103246637Y-71939017D01*
X103012988Y-72288698D01*
X102852047Y-72677244D01*
X102770000Y-73089721D01*
X101884529Y-73089721D01*
X101960000Y-73014250D01*
X101963072Y-71800000D01*
X101950812Y-71675518D01*
X101914502Y-71555820D01*
X101855537Y-71445506D01*
X101776185Y-71348815D01*
X101679494Y-71269463D01*
X101569180Y-71210498D01*
X101485124Y-71185000D01*
X102600392Y-71185000D01*
X102650000Y-71189886D01*
X102847994Y-71170385D01*
X102935567Y-71143820D01*
X103038380Y-71112632D01*
X103213840Y-71018847D01*
X103367633Y-70892633D01*
X103399261Y-70854094D01*
X107537255Y-66716100D01*
X107575794Y-66684472D01*
X107702008Y-66530679D01*
X107795793Y-66355219D01*
X107853546Y-66164833D01*
X107868161Y-66016447D01*
X107868161Y-66016445D01*
X107873047Y-65966840D01*
X107868161Y-65917235D01*
X107868161Y-63762947D01*
X108136405Y-63754570D01*
X108229061Y-63773000D01*
X108432939Y-63773000D01*
X108632898Y-63733226D01*
X108821256Y-63655205D01*
X108990774Y-63541937D01*
X109134937Y-63397774D01*
X109248205Y-63228256D01*
X109326226Y-63039898D01*
X109366000Y-62839939D01*
X109366000Y-62636061D01*
X109326226Y-62436102D01*
X109248205Y-62247744D01*
X109134937Y-62078226D01*
X108990774Y-61934063D01*
X108821256Y-61820795D01*
X108632898Y-61742774D01*
X108432939Y-61703000D01*
X108229061Y-61703000D01*
X108063915Y-61735849D01*
X106892031Y-61772449D01*
X106858161Y-61769113D01*
X106792837Y-61775547D01*
X106777049Y-61776040D01*
X106743478Y-61780408D01*
X106660167Y-61788614D01*
X106644953Y-61793229D01*
X106629192Y-61795280D01*
X106549897Y-61822064D01*
X106469781Y-61846367D01*
X106455760Y-61853862D01*
X106440701Y-61858948D01*
X106368164Y-61900682D01*
X106294321Y-61940152D01*
X106282027Y-61950241D01*
X106268255Y-61958165D01*
X106205259Y-62013243D01*
X106140528Y-62066366D01*
X106130442Y-62078656D01*
X106118476Y-62089118D01*
X106067428Y-62155439D01*
X106014314Y-62220159D01*
X106006818Y-62234182D01*
X105997125Y-62246776D01*
X105959997Y-62321779D01*
X105920529Y-62395620D01*
X105915914Y-62410835D01*
X105908863Y-62425078D01*
X105887080Y-62505886D01*
X105862776Y-62586006D01*
X105861218Y-62601828D01*
X105857081Y-62617174D01*
X105851481Y-62700680D01*
X105848161Y-62734392D01*
X105848161Y-62750197D01*
X105843770Y-62815679D01*
X105848161Y-62849424D01*
X105848162Y-65548483D01*
X102231645Y-69165000D01*
X96254604Y-69165000D01*
X96204999Y-69160114D01*
X96155394Y-69165000D01*
X96155392Y-69165000D01*
X96007006Y-69179615D01*
X95816620Y-69237368D01*
X95641160Y-69331153D01*
X95487367Y-69457367D01*
X95455739Y-69495906D01*
X93729058Y-71222587D01*
X93727756Y-71222047D01*
X93315279Y-71140000D01*
X92894721Y-71140000D01*
X92482244Y-71222047D01*
X92093698Y-71382988D01*
X91744017Y-71616637D01*
X91446637Y-71914017D01*
X91212988Y-72263698D01*
X91052047Y-72652244D01*
X90970000Y-73064721D01*
X90084529Y-73064721D01*
X90160000Y-72989250D01*
X90163072Y-71775000D01*
X90150812Y-71650518D01*
X90114502Y-71530820D01*
X90055537Y-71420506D01*
X89976185Y-71323815D01*
X89879494Y-71244463D01*
X89769180Y-71185498D01*
X89649482Y-71149188D01*
X89525000Y-71136928D01*
X88310750Y-71140000D01*
X88152000Y-71298750D01*
X87898000Y-71298750D01*
X87739250Y-71140000D01*
X86525000Y-71136928D01*
X86400518Y-71149188D01*
X86280820Y-71185498D01*
X86170506Y-71244463D01*
X86073815Y-71323815D01*
X85994463Y-71420506D01*
X85935498Y-71530820D01*
X85899188Y-71650518D01*
X85886928Y-71775000D01*
X82127000Y-71775000D01*
X82127000Y-58839721D01*
X83763000Y-58839721D01*
X83763000Y-59260279D01*
X83845047Y-59672756D01*
X84005988Y-60061302D01*
X84239637Y-60410983D01*
X84537017Y-60708363D01*
X84886698Y-60942012D01*
X85275244Y-61102953D01*
X85687721Y-61185000D01*
X86108279Y-61185000D01*
X86520756Y-61102953D01*
X86909302Y-60942012D01*
X87258983Y-60708363D01*
X87556363Y-60410983D01*
X87790012Y-60061302D01*
X87950953Y-59672756D01*
X88033000Y-59260279D01*
X88033000Y-58889721D01*
X95813000Y-58889721D01*
X95813000Y-59310279D01*
X95895047Y-59722756D01*
X96055988Y-60111302D01*
X96289637Y-60460983D01*
X96587017Y-60758363D01*
X96936698Y-60992012D01*
X97325244Y-61152953D01*
X97737721Y-61235000D01*
X98158279Y-61235000D01*
X98570756Y-61152953D01*
X98959302Y-60992012D01*
X99308983Y-60758363D01*
X99606363Y-60460983D01*
X99840012Y-60111302D01*
X100000953Y-59722756D01*
X100083000Y-59310279D01*
X100083000Y-58889721D01*
X100000953Y-58477244D01*
X99840012Y-58088698D01*
X99606363Y-57739017D01*
X99308983Y-57441637D01*
X98959302Y-57207988D01*
X98570756Y-57047047D01*
X98158279Y-56965000D01*
X97737721Y-56965000D01*
X97325244Y-57047047D01*
X96936698Y-57207988D01*
X96587017Y-57441637D01*
X96289637Y-57739017D01*
X96055988Y-58088698D01*
X95895047Y-58477244D01*
X95813000Y-58889721D01*
X88033000Y-58889721D01*
X88033000Y-58839721D01*
X87950953Y-58427244D01*
X87790012Y-58038698D01*
X87556363Y-57689017D01*
X87258983Y-57391637D01*
X86909302Y-57157988D01*
X86740997Y-57088274D01*
X86737000Y-56902483D01*
X86737000Y-53071578D01*
X89647579Y-50161000D01*
X95220531Y-50161000D01*
X95264000Y-50165281D01*
X95307469Y-50161000D01*
X95307477Y-50161000D01*
X95437490Y-50148195D01*
X95604313Y-50097589D01*
X95758059Y-50015411D01*
X95892817Y-49904817D01*
X95920534Y-49871044D01*
X97193205Y-48598374D01*
X97348166Y-48662561D01*
X97712344Y-48735000D01*
X98083656Y-48735000D01*
X98447834Y-48662561D01*
X98790882Y-48520466D01*
X99099618Y-48314175D01*
X99362175Y-48051618D01*
X99568466Y-47742882D01*
X99710561Y-47399834D01*
X99783000Y-47035656D01*
X99783000Y-46664344D01*
X99710561Y-46300166D01*
X99568466Y-45957118D01*
X99362175Y-45648382D01*
X99099618Y-45385825D01*
X98790882Y-45179534D01*
X98447834Y-45037439D01*
X98083656Y-44965000D01*
X97712344Y-44965000D01*
X97348166Y-45037439D01*
X97005118Y-45179534D01*
X96696382Y-45385825D01*
X96433825Y-45648382D01*
X96227534Y-45957118D01*
X96085439Y-46300166D01*
X96013000Y-46664344D01*
X96013000Y-47035656D01*
X96052779Y-47235642D01*
X94897422Y-48391000D01*
X89324465Y-48391000D01*
X89280999Y-48386719D01*
X89237533Y-48391000D01*
X89237523Y-48391000D01*
X89107510Y-48403805D01*
X88940687Y-48454411D01*
X88786941Y-48536589D01*
X88786939Y-48536590D01*
X88786940Y-48536590D01*
X88685953Y-48619468D01*
X88685951Y-48619470D01*
X88652183Y-48647183D01*
X88624470Y-48680951D01*
X85256956Y-52048466D01*
X85223183Y-52076183D01*
X85112589Y-52210942D01*
X85030411Y-52364688D01*
X84979805Y-52531511D01*
X84967000Y-52661524D01*
X84967000Y-52661531D01*
X84962719Y-52705000D01*
X84967000Y-52748469D01*
X84967001Y-56878053D01*
X84966270Y-56887570D01*
X84967001Y-56921546D01*
X84967001Y-56955477D01*
X84967935Y-56964961D01*
X84971334Y-57122931D01*
X84886698Y-57157988D01*
X84537017Y-57391637D01*
X84239637Y-57689017D01*
X84005988Y-58038698D01*
X83845047Y-58427244D01*
X83763000Y-58839721D01*
X82127000Y-58839721D01*
X82127000Y-46664344D01*
X84013000Y-46664344D01*
X84013000Y-47035656D01*
X84085439Y-47399834D01*
X84227534Y-47742882D01*
X84433825Y-48051618D01*
X84696382Y-48314175D01*
X85005118Y-48520466D01*
X85348166Y-48662561D01*
X85712344Y-48735000D01*
X86083656Y-48735000D01*
X86447834Y-48662561D01*
X86790882Y-48520466D01*
X87099618Y-48314175D01*
X87362175Y-48051618D01*
X87568466Y-47742882D01*
X87710561Y-47399834D01*
X87783000Y-47035656D01*
X87783000Y-46664344D01*
X87710561Y-46300166D01*
X87568466Y-45957118D01*
X87362175Y-45648382D01*
X87099618Y-45385825D01*
X86790882Y-45179534D01*
X86447834Y-45037439D01*
X86083656Y-44965000D01*
X85712344Y-44965000D01*
X85348166Y-45037439D01*
X85005118Y-45179534D01*
X84696382Y-45385825D01*
X84433825Y-45648382D01*
X84227534Y-45957118D01*
X84085439Y-46300166D01*
X84013000Y-46664344D01*
X82127000Y-46664344D01*
X82127000Y-36389721D01*
X86219000Y-36389721D01*
X86219000Y-36810279D01*
X86301047Y-37222756D01*
X86461988Y-37611302D01*
X86695637Y-37960983D01*
X86993017Y-38258363D01*
X87084001Y-38319156D01*
X87084001Y-39135448D01*
X87078267Y-39181621D01*
X87084001Y-39260242D01*
X87084001Y-39276380D01*
X87088536Y-39322429D01*
X87096464Y-39431126D01*
X87100785Y-39446792D01*
X87102378Y-39462963D01*
X87134007Y-39567228D01*
X87162986Y-39672287D01*
X87170281Y-39686810D01*
X87174998Y-39702359D01*
X87226370Y-39798470D01*
X87247143Y-39839824D01*
X87255767Y-39853467D01*
X87292926Y-39922988D01*
X87322442Y-39958953D01*
X89957159Y-44127292D01*
X89895047Y-44277244D01*
X89813000Y-44689721D01*
X89813000Y-45110279D01*
X89895047Y-45522756D01*
X90055988Y-45911302D01*
X90289637Y-46260983D01*
X90587017Y-46558363D01*
X90936698Y-46792012D01*
X91325244Y-46952953D01*
X91737721Y-47035000D01*
X92158279Y-47035000D01*
X92570756Y-46952953D01*
X92959302Y-46792012D01*
X93308983Y-46558363D01*
X93606363Y-46260983D01*
X93840012Y-45911302D01*
X94000953Y-45522756D01*
X94083000Y-45110279D01*
X94083000Y-44689721D01*
X94000953Y-44277244D01*
X93840012Y-43888698D01*
X93606363Y-43539017D01*
X93308983Y-43241637D01*
X92959302Y-43007988D01*
X92570756Y-42847047D01*
X92158279Y-42765000D01*
X92100940Y-42765000D01*
X89624000Y-38846280D01*
X89624000Y-38319156D01*
X89714983Y-38258363D01*
X89873346Y-38100000D01*
X91295928Y-38100000D01*
X91308188Y-38224482D01*
X91344498Y-38344180D01*
X91403463Y-38454494D01*
X91482815Y-38551185D01*
X91579506Y-38630537D01*
X91689820Y-38689502D01*
X91809518Y-38725812D01*
X91934000Y-38738072D01*
X93148250Y-38735000D01*
X93307000Y-38576250D01*
X93307000Y-36727000D01*
X93561000Y-36727000D01*
X93561000Y-38576250D01*
X93719750Y-38735000D01*
X94934000Y-38738072D01*
X95058482Y-38725812D01*
X95178180Y-38689502D01*
X95288494Y-38630537D01*
X95385185Y-38551185D01*
X95464537Y-38454494D01*
X95523502Y-38344180D01*
X95559812Y-38224482D01*
X95572072Y-38100000D01*
X95569000Y-36885750D01*
X95410250Y-36727000D01*
X93561000Y-36727000D01*
X93307000Y-36727000D01*
X91457750Y-36727000D01*
X91299000Y-36885750D01*
X91295928Y-38100000D01*
X89873346Y-38100000D01*
X90012363Y-37960983D01*
X90246012Y-37611302D01*
X90406953Y-37222756D01*
X90489000Y-36810279D01*
X90489000Y-36389721D01*
X90406953Y-35977244D01*
X90246012Y-35588698D01*
X90012363Y-35239017D01*
X89873346Y-35100000D01*
X91295928Y-35100000D01*
X91299000Y-36314250D01*
X91457750Y-36473000D01*
X93307000Y-36473000D01*
X93307000Y-34623750D01*
X93561000Y-34623750D01*
X93561000Y-36473000D01*
X95410250Y-36473000D01*
X95569000Y-36314250D01*
X95572072Y-35100000D01*
X95559812Y-34975518D01*
X95523502Y-34855820D01*
X95464537Y-34745506D01*
X95385185Y-34648815D01*
X95288494Y-34569463D01*
X95178180Y-34510498D01*
X95058482Y-34474188D01*
X94934000Y-34461928D01*
X93719750Y-34465000D01*
X93561000Y-34623750D01*
X93307000Y-34623750D01*
X93148250Y-34465000D01*
X91934000Y-34461928D01*
X91809518Y-34474188D01*
X91689820Y-34510498D01*
X91579506Y-34569463D01*
X91482815Y-34648815D01*
X91403463Y-34745506D01*
X91344498Y-34855820D01*
X91308188Y-34975518D01*
X91295928Y-35100000D01*
X89873346Y-35100000D01*
X89714983Y-34941637D01*
X89365302Y-34707988D01*
X88976756Y-34547047D01*
X88564279Y-34465000D01*
X88143721Y-34465000D01*
X87731244Y-34547047D01*
X87342698Y-34707988D01*
X86993017Y-34941637D01*
X86695637Y-35239017D01*
X86461988Y-35588698D01*
X86301047Y-35977244D01*
X86219000Y-36389721D01*
X82127000Y-36389721D01*
X82127000Y-35046674D01*
X82179321Y-35068346D01*
X82640098Y-35160000D01*
X83109902Y-35160000D01*
X83570679Y-35068346D01*
X84004721Y-34888560D01*
X84395349Y-34627550D01*
X84727550Y-34295349D01*
X84988560Y-33904721D01*
X85168346Y-33470679D01*
X85260000Y-33009902D01*
X85260000Y-32540098D01*
X85177830Y-32127000D01*
X107315112Y-32127000D01*
X107314718Y-32131000D01*
G36*
X127950388Y-44430578D02*
G01*
X127936245Y-44444720D01*
X127950388Y-44458863D01*
X127770783Y-44638468D01*
X127756640Y-44624325D01*
X127742498Y-44638468D01*
X127562893Y-44458863D01*
X127577035Y-44444720D01*
X127562893Y-44430578D01*
X127742498Y-44250973D01*
X127756640Y-44265115D01*
X127770783Y-44250973D01*
X127950388Y-44430578D01*
X127950388Y-44430578D01*
G37*
X127950388Y-44430578D02*
X127936245Y-44444720D01*
X127950388Y-44458863D01*
X127770783Y-44638468D01*
X127756640Y-44624325D01*
X127742498Y-44638468D01*
X127562893Y-44458863D01*
X127577035Y-44444720D01*
X127562893Y-44430578D01*
X127742498Y-44250973D01*
X127756640Y-44265115D01*
X127770783Y-44250973D01*
X127950388Y-44430578D01*
G36*
X131984186Y-35098000D02*
G01*
X133178000Y-35098000D01*
X133178000Y-35078000D01*
X133432000Y-35078000D01*
X133432000Y-35098000D01*
X133452000Y-35098000D01*
X133452000Y-35352000D01*
X133432000Y-35352000D01*
X133432000Y-36545155D01*
X133661890Y-36666476D01*
X133809099Y-36621825D01*
X134071920Y-36496641D01*
X134305269Y-36322588D01*
X134500178Y-36106355D01*
X134569799Y-35989477D01*
X134604294Y-36054014D01*
X134789866Y-36280134D01*
X134960000Y-36419760D01*
X134960000Y-37076531D01*
X134955719Y-37120000D01*
X134960000Y-37163469D01*
X134960000Y-37163476D01*
X134968391Y-37248670D01*
X134972805Y-37293490D01*
X134987966Y-37343468D01*
X135023411Y-37460312D01*
X135105589Y-37614058D01*
X135216183Y-37748817D01*
X135249956Y-37776534D01*
X136068470Y-38595049D01*
X136096183Y-38628817D01*
X136129951Y-38656530D01*
X136129953Y-38656532D01*
X136168918Y-38688510D01*
X136230941Y-38739411D01*
X136384687Y-38821589D01*
X136500903Y-38856843D01*
X136551509Y-38872195D01*
X136566306Y-38873652D01*
X136681523Y-38885000D01*
X136681531Y-38885000D01*
X136725000Y-38889281D01*
X136768469Y-38885000D01*
X139588016Y-38885000D01*
X140865001Y-40161985D01*
X140865001Y-40179627D01*
X140819208Y-40217208D01*
X140750000Y-40301539D01*
X140680792Y-40217208D01*
X140481318Y-40053505D01*
X140253741Y-39931862D01*
X140006805Y-39856955D01*
X139814351Y-39838000D01*
X139685649Y-39838000D01*
X139493195Y-39856955D01*
X139246259Y-39931862D01*
X139018682Y-40053505D01*
X138819208Y-40217208D01*
X138750000Y-40301539D01*
X138680792Y-40217208D01*
X138481318Y-40053505D01*
X138253741Y-39931862D01*
X138006805Y-39856955D01*
X137814351Y-39838000D01*
X137685649Y-39838000D01*
X137493195Y-39856955D01*
X137246259Y-39931862D01*
X137018682Y-40053505D01*
X136819208Y-40217208D01*
X136750000Y-40301539D01*
X136680792Y-40217208D01*
X136481318Y-40053505D01*
X136253741Y-39931862D01*
X136006805Y-39856955D01*
X135814351Y-39838000D01*
X135685649Y-39838000D01*
X135493195Y-39856955D01*
X135246259Y-39931862D01*
X135018682Y-40053505D01*
X134819208Y-40217208D01*
X134750000Y-40301539D01*
X134680792Y-40217208D01*
X134481318Y-40053505D01*
X134253741Y-39931862D01*
X134006805Y-39856955D01*
X133814351Y-39838000D01*
X133685649Y-39838000D01*
X133493195Y-39856955D01*
X133246259Y-39931862D01*
X133018682Y-40053505D01*
X132819208Y-40217208D01*
X132750000Y-40301539D01*
X132680792Y-40217208D01*
X132481318Y-40053505D01*
X132253741Y-39931862D01*
X132006805Y-39856955D01*
X131814351Y-39838000D01*
X131685649Y-39838000D01*
X131493195Y-39856955D01*
X131246259Y-39931862D01*
X131018682Y-40053505D01*
X130819208Y-40217208D01*
X130750000Y-40301539D01*
X130680792Y-40217208D01*
X130481318Y-40053505D01*
X130253741Y-39931862D01*
X130006805Y-39856955D01*
X129814351Y-39838000D01*
X129685649Y-39838000D01*
X129493195Y-39856955D01*
X129246259Y-39931862D01*
X129018682Y-40053505D01*
X128819208Y-40217208D01*
X128746628Y-40305648D01*
X128621227Y-40169697D01*
X128413629Y-40018527D01*
X128180528Y-39910762D01*
X128079400Y-39880090D01*
X127877000Y-40003776D01*
X127877000Y-41021000D01*
X127897000Y-41021000D01*
X127897000Y-41275000D01*
X127877000Y-41275000D01*
X127877000Y-41295000D01*
X127623000Y-41295000D01*
X127623000Y-41275000D01*
X127603000Y-41275000D01*
X127603000Y-41021000D01*
X127623000Y-41021000D01*
X127623000Y-40003776D01*
X127420600Y-39880090D01*
X127319472Y-39910762D01*
X127086371Y-40018527D01*
X127003454Y-40078906D01*
X126979226Y-39957102D01*
X126901205Y-39768744D01*
X126869000Y-39720546D01*
X126869000Y-37938267D01*
X126920506Y-37980537D01*
X127030820Y-38039502D01*
X127150518Y-38075812D01*
X127275000Y-38088072D01*
X128975000Y-38088072D01*
X129099482Y-38075812D01*
X129219180Y-38039502D01*
X129329494Y-37980537D01*
X129426185Y-37901185D01*
X129505537Y-37804494D01*
X129564502Y-37694180D01*
X129600812Y-37574482D01*
X129610518Y-37475935D01*
X129648490Y-37472195D01*
X129815313Y-37421589D01*
X129969059Y-37339411D01*
X130103817Y-37228817D01*
X130131534Y-37195044D01*
X131003550Y-36323029D01*
X131037317Y-36295317D01*
X131076310Y-36247805D01*
X131147910Y-36160560D01*
X131147911Y-36160559D01*
X131230089Y-36006813D01*
X131280695Y-35839990D01*
X131293500Y-35709977D01*
X131293500Y-35709967D01*
X131297781Y-35666501D01*
X131293500Y-35623035D01*
X131293500Y-35581891D01*
X131863519Y-35581891D01*
X131960843Y-35856252D01*
X132109822Y-36106355D01*
X132304731Y-36322588D01*
X132538080Y-36496641D01*
X132800901Y-36621825D01*
X132948110Y-36666476D01*
X133178000Y-36545155D01*
X133178000Y-35352000D01*
X131984186Y-35352000D01*
X131863519Y-35581891D01*
X131293500Y-35581891D01*
X131293500Y-35566078D01*
X131907561Y-34952017D01*
X131984186Y-35098000D01*
X131984186Y-35098000D01*
G37*
X131984186Y-35098000D02*
X133178000Y-35098000D01*
X133178000Y-35078000D01*
X133432000Y-35078000D01*
X133432000Y-35098000D01*
X133452000Y-35098000D01*
X133452000Y-35352000D01*
X133432000Y-35352000D01*
X133432000Y-36545155D01*
X133661890Y-36666476D01*
X133809099Y-36621825D01*
X134071920Y-36496641D01*
X134305269Y-36322588D01*
X134500178Y-36106355D01*
X134569799Y-35989477D01*
X134604294Y-36054014D01*
X134789866Y-36280134D01*
X134960000Y-36419760D01*
X134960000Y-37076531D01*
X134955719Y-37120000D01*
X134960000Y-37163469D01*
X134960000Y-37163476D01*
X134968391Y-37248670D01*
X134972805Y-37293490D01*
X134987966Y-37343468D01*
X135023411Y-37460312D01*
X135105589Y-37614058D01*
X135216183Y-37748817D01*
X135249956Y-37776534D01*
X136068470Y-38595049D01*
X136096183Y-38628817D01*
X136129951Y-38656530D01*
X136129953Y-38656532D01*
X136168918Y-38688510D01*
X136230941Y-38739411D01*
X136384687Y-38821589D01*
X136500903Y-38856843D01*
X136551509Y-38872195D01*
X136566306Y-38873652D01*
X136681523Y-38885000D01*
X136681531Y-38885000D01*
X136725000Y-38889281D01*
X136768469Y-38885000D01*
X139588016Y-38885000D01*
X140865001Y-40161985D01*
X140865001Y-40179627D01*
X140819208Y-40217208D01*
X140750000Y-40301539D01*
X140680792Y-40217208D01*
X140481318Y-40053505D01*
X140253741Y-39931862D01*
X140006805Y-39856955D01*
X139814351Y-39838000D01*
X139685649Y-39838000D01*
X139493195Y-39856955D01*
X139246259Y-39931862D01*
X139018682Y-40053505D01*
X138819208Y-40217208D01*
X138750000Y-40301539D01*
X138680792Y-40217208D01*
X138481318Y-40053505D01*
X138253741Y-39931862D01*
X138006805Y-39856955D01*
X137814351Y-39838000D01*
X137685649Y-39838000D01*
X137493195Y-39856955D01*
X137246259Y-39931862D01*
X137018682Y-40053505D01*
X136819208Y-40217208D01*
X136750000Y-40301539D01*
X136680792Y-40217208D01*
X136481318Y-40053505D01*
X136253741Y-39931862D01*
X136006805Y-39856955D01*
X135814351Y-39838000D01*
X135685649Y-39838000D01*
X135493195Y-39856955D01*
X135246259Y-39931862D01*
X135018682Y-40053505D01*
X134819208Y-40217208D01*
X134750000Y-40301539D01*
X134680792Y-40217208D01*
X134481318Y-40053505D01*
X134253741Y-39931862D01*
X134006805Y-39856955D01*
X133814351Y-39838000D01*
X133685649Y-39838000D01*
X133493195Y-39856955D01*
X133246259Y-39931862D01*
X133018682Y-40053505D01*
X132819208Y-40217208D01*
X132750000Y-40301539D01*
X132680792Y-40217208D01*
X132481318Y-40053505D01*
X132253741Y-39931862D01*
X132006805Y-39856955D01*
X131814351Y-39838000D01*
X131685649Y-39838000D01*
X131493195Y-39856955D01*
X131246259Y-39931862D01*
X131018682Y-40053505D01*
X130819208Y-40217208D01*
X130750000Y-40301539D01*
X130680792Y-40217208D01*
X130481318Y-40053505D01*
X130253741Y-39931862D01*
X130006805Y-39856955D01*
X129814351Y-39838000D01*
X129685649Y-39838000D01*
X129493195Y-39856955D01*
X129246259Y-39931862D01*
X129018682Y-40053505D01*
X128819208Y-40217208D01*
X128746628Y-40305648D01*
X128621227Y-40169697D01*
X128413629Y-40018527D01*
X128180528Y-39910762D01*
X128079400Y-39880090D01*
X127877000Y-40003776D01*
X127877000Y-41021000D01*
X127897000Y-41021000D01*
X127897000Y-41275000D01*
X127877000Y-41275000D01*
X127877000Y-41295000D01*
X127623000Y-41295000D01*
X127623000Y-41275000D01*
X127603000Y-41275000D01*
X127603000Y-41021000D01*
X127623000Y-41021000D01*
X127623000Y-40003776D01*
X127420600Y-39880090D01*
X127319472Y-39910762D01*
X127086371Y-40018527D01*
X127003454Y-40078906D01*
X126979226Y-39957102D01*
X126901205Y-39768744D01*
X126869000Y-39720546D01*
X126869000Y-37938267D01*
X126920506Y-37980537D01*
X127030820Y-38039502D01*
X127150518Y-38075812D01*
X127275000Y-38088072D01*
X128975000Y-38088072D01*
X129099482Y-38075812D01*
X129219180Y-38039502D01*
X129329494Y-37980537D01*
X129426185Y-37901185D01*
X129505537Y-37804494D01*
X129564502Y-37694180D01*
X129600812Y-37574482D01*
X129610518Y-37475935D01*
X129648490Y-37472195D01*
X129815313Y-37421589D01*
X129969059Y-37339411D01*
X130103817Y-37228817D01*
X130131534Y-37195044D01*
X131003550Y-36323029D01*
X131037317Y-36295317D01*
X131076310Y-36247805D01*
X131147910Y-36160560D01*
X131147911Y-36160559D01*
X131230089Y-36006813D01*
X131280695Y-35839990D01*
X131293500Y-35709977D01*
X131293500Y-35709967D01*
X131297781Y-35666501D01*
X131293500Y-35623035D01*
X131293500Y-35581891D01*
X131863519Y-35581891D01*
X131960843Y-35856252D01*
X132109822Y-36106355D01*
X132304731Y-36322588D01*
X132538080Y-36496641D01*
X132800901Y-36621825D01*
X132948110Y-36666476D01*
X133178000Y-36545155D01*
X133178000Y-35352000D01*
X131984186Y-35352000D01*
X131863519Y-35581891D01*
X131293500Y-35581891D01*
X131293500Y-35566078D01*
X131907561Y-34952017D01*
X131984186Y-35098000D01*
D26*
G36*
X110251740Y-53353615D02*
G01*
X103751740Y-53353615D01*
X103751740Y-44866787D01*
X103764912Y-44853615D01*
X110251740Y-44853615D01*
X110251740Y-53353615D01*
X110251740Y-53353615D01*
G37*
X110251740Y-53353615D02*
X103751740Y-53353615D01*
X103751740Y-44866787D01*
X103764912Y-44853615D01*
X110251740Y-44853615D01*
X110251740Y-53353615D01*
M02*
