M48
; DRILL file {KiCad 5.1.4-e60b266~84~ubuntu18.04.1} date lun 21 oct 2019 10:53:18 -03
; FORMAT={-:-/ absolute / inch / decimal}
; #@! TF.CreationDate,2019-10-21T10:53:18-03:00
; #@! TF.GenerationSoftware,Kicad,Pcbnew,5.1.4-e60b266~84~ubuntu18.04.1
FMAT,2
INCH
T1C0.0157
T2C0.0315
T3C0.0394
T4C0.0512
T5C0.0598
T6C0.1181
%
G90
G05
T1
X4.04Y-1.755
X4.26Y-1.3
X4.265Y-2.47
X4.315Y-1.85
X4.315Y-2.06
X4.315Y-1.8
X4.315Y-2.0
X4.395Y-1.725
X4.4Y-1.78
X4.4Y-2.12
X4.44Y-2.175
X4.46Y-2.12
X4.475Y-1.535
X4.4902Y-2.6555
X4.69Y-1.88
X4.71Y-1.805
X4.745Y-1.96
X4.8Y-1.535
X4.8Y-1.845
X4.8427Y-1.69
X4.845Y-2.43
X4.93Y-2.355
X4.93Y-2.67
X4.96Y-1.585
X5.0838Y-1.9886
X5.11Y-2.495
X5.135Y-1.88
X5.345Y-1.845
X5.38Y-2.05
X5.38Y-2.43
X5.465Y-2.235
X5.565Y-2.18
X5.84Y-2.185
X5.96Y-2.185
T2
X5.0295Y-1.62
X5.1083Y-1.62
X5.187Y-1.62
X5.2657Y-1.62
X5.3445Y-1.62
X5.4232Y-1.62
X5.502Y-1.62
X5.5807Y-1.62
X5.6594Y-1.62
X5.7382Y-1.62
X5.0313Y-2.7395
X5.11Y-2.7395
X5.1888Y-2.7395
X5.2675Y-2.7395
X5.3463Y-2.7395
X5.425Y-2.7395
X5.5037Y-2.7395
X5.5825Y-2.7395
X5.6612Y-2.7395
X5.74Y-2.7395
X4.6917Y-2.9461
X4.7917Y-2.9461
X4.8917Y-2.9461
X5.0298Y-1.7498
X5.0298Y-2.6159
X5.1085Y-1.7498
X5.1085Y-2.6159
X5.1873Y-1.7498
X5.1873Y-2.6159
X5.266Y-1.7498
X5.266Y-2.6159
X5.3447Y-1.7498
X5.3447Y-2.6159
X5.4235Y-1.7498
X5.4235Y-2.6159
X5.5022Y-1.7498
X5.5022Y-2.6159
X5.581Y-1.7498
X5.581Y-2.6159
X5.6597Y-1.7498
X5.6597Y-2.6159
X5.7385Y-1.7498
X5.7385Y-2.6159
X5.513Y-2.9461
X5.613Y-2.9461
X5.713Y-2.9461
T3
X5.1486Y-2.9459
X4.6524Y-2.7461
X4.7524Y-2.7461
X4.8524Y-2.7461
X5.9843Y-1.7323
X6.0843Y-1.7323
X5.3268Y-2.9459
X5.0443Y-1.3409
X5.0443Y-1.4409
X5.2482Y-1.3868
X5.3482Y-1.3868
X5.4482Y-1.3868
X5.5482Y-1.3868
X5.6482Y-1.3868
X4.4695Y-1.3528
X4.4695Y-1.4528
X4.5695Y-1.3528
X4.5695Y-1.4528
X4.6695Y-1.3528
X4.6695Y-1.4528
X4.7695Y-1.3528
X4.7695Y-1.4528
X4.8695Y-1.3528
X4.8695Y-1.4528
X3.3818Y-1.8445
X3.8543Y-1.8445
X4.6604Y-2.1916
X4.6604Y-2.2916
X6.063Y-2.6378
X6.163Y-2.6378
X5.9232Y-2.753
X5.9232Y-3.0089
X6.1004Y-2.753
X6.1004Y-3.0089
X4.38Y-1.63
X4.48Y-1.63
X4.58Y-1.63
X5.8474Y-1.3337
X5.8474Y-1.5896
X6.0246Y-1.3337
X6.0246Y-1.5896
T4
X3.3818Y-2.3248
X3.62Y-1.7677
X3.8562Y-2.3268
T5
X3.4785Y-1.4409
X3.6785Y-1.4409
X3.9Y-1.439
X4.1Y-1.439
X3.9301Y-2.8858
X4.1301Y-2.8858
X3.4656Y-2.8848
X3.6656Y-2.8848
T6
X6.2992Y-1.2904
X3.2628Y-1.2904
X6.2992Y-3.0482
X3.253Y-3.0482
T0
M30
