G04 #@! TF.GenerationSoftware,KiCad,Pcbnew,5.1.4-e60b266~84~ubuntu18.04.1*
G04 #@! TF.CreationDate,2019-11-01T15:12:37-03:00*
G04 #@! TF.ProjectId,Xbee,58626565-2e6b-4696-9361-645f70636258,rev?*
G04 #@! TF.SameCoordinates,Original*
G04 #@! TF.FileFunction,Soldermask,Top*
G04 #@! TF.FilePolarity,Negative*
%FSLAX46Y46*%
G04 Gerber Fmt 4.6, Leading zero omitted, Abs format (unit mm)*
G04 Created by KiCad (PCBNEW 5.1.4-e60b266~84~ubuntu18.04.1) date 2019-11-01 15:12:37*
%MOMM*%
%LPD*%
G04 APERTURE LIST*
%ADD10C,0.150000*%
G04 APERTURE END LIST*
D10*
G36*
X151771442Y-77083518D02*
G01*
X151837627Y-77090037D01*
X152007466Y-77141557D01*
X152163991Y-77225222D01*
X152177890Y-77236629D01*
X152301186Y-77337814D01*
X152384448Y-77439271D01*
X152413778Y-77475009D01*
X152497443Y-77631534D01*
X152548963Y-77801373D01*
X152566359Y-77978000D01*
X152548963Y-78154627D01*
X152497443Y-78324466D01*
X152413778Y-78480991D01*
X152384448Y-78516729D01*
X152301186Y-78618186D01*
X152199729Y-78701448D01*
X152163991Y-78730778D01*
X152007466Y-78814443D01*
X151837627Y-78865963D01*
X151771443Y-78872481D01*
X151705260Y-78879000D01*
X151316740Y-78879000D01*
X151250557Y-78872481D01*
X151184373Y-78865963D01*
X151014534Y-78814443D01*
X150858009Y-78730778D01*
X150822271Y-78701448D01*
X150720814Y-78618186D01*
X150637552Y-78516729D01*
X150608222Y-78480991D01*
X150524557Y-78324466D01*
X150473037Y-78154627D01*
X150455641Y-77978000D01*
X150473037Y-77801373D01*
X150524557Y-77631534D01*
X150608222Y-77475009D01*
X150637552Y-77439271D01*
X150720814Y-77337814D01*
X150844110Y-77236629D01*
X150858009Y-77225222D01*
X151014534Y-77141557D01*
X151184373Y-77090037D01*
X151250558Y-77083518D01*
X151316740Y-77077000D01*
X151705260Y-77077000D01*
X151771442Y-77083518D01*
X151771442Y-77083518D01*
G37*
G36*
X145271442Y-77083518D02*
G01*
X145337627Y-77090037D01*
X145507466Y-77141557D01*
X145663991Y-77225222D01*
X145677890Y-77236629D01*
X145801186Y-77337814D01*
X145884448Y-77439271D01*
X145913778Y-77475009D01*
X145997443Y-77631534D01*
X146048963Y-77801373D01*
X146066359Y-77978000D01*
X146048963Y-78154627D01*
X145997443Y-78324466D01*
X145913778Y-78480991D01*
X145884448Y-78516729D01*
X145801186Y-78618186D01*
X145699729Y-78701448D01*
X145663991Y-78730778D01*
X145507466Y-78814443D01*
X145337627Y-78865963D01*
X145271443Y-78872481D01*
X145205260Y-78879000D01*
X144816740Y-78879000D01*
X144750557Y-78872481D01*
X144684373Y-78865963D01*
X144514534Y-78814443D01*
X144358009Y-78730778D01*
X144322271Y-78701448D01*
X144220814Y-78618186D01*
X144137552Y-78516729D01*
X144108222Y-78480991D01*
X144024557Y-78324466D01*
X143973037Y-78154627D01*
X143955641Y-77978000D01*
X143973037Y-77801373D01*
X144024557Y-77631534D01*
X144108222Y-77475009D01*
X144137552Y-77439271D01*
X144220814Y-77337814D01*
X144344110Y-77236629D01*
X144358009Y-77225222D01*
X144514534Y-77141557D01*
X144684373Y-77090037D01*
X144750558Y-77083518D01*
X144816740Y-77077000D01*
X145205260Y-77077000D01*
X145271442Y-77083518D01*
X145271442Y-77083518D01*
G37*
G36*
X121791589Y-77216876D02*
G01*
X121890893Y-77236629D01*
X122031206Y-77294748D01*
X122157484Y-77379125D01*
X122264875Y-77486516D01*
X122349252Y-77612794D01*
X122407371Y-77753107D01*
X122437000Y-77902063D01*
X122437000Y-78053937D01*
X122407371Y-78202893D01*
X122349252Y-78343206D01*
X122264875Y-78469484D01*
X122157484Y-78576875D01*
X122031206Y-78661252D01*
X121890893Y-78719371D01*
X121791589Y-78739124D01*
X121741938Y-78749000D01*
X121590062Y-78749000D01*
X121540411Y-78739124D01*
X121441107Y-78719371D01*
X121300794Y-78661252D01*
X121174516Y-78576875D01*
X121067125Y-78469484D01*
X120982748Y-78343206D01*
X120924629Y-78202893D01*
X120895000Y-78053937D01*
X120895000Y-77902063D01*
X120924629Y-77753107D01*
X120982748Y-77612794D01*
X121067125Y-77486516D01*
X121174516Y-77379125D01*
X121300794Y-77294748D01*
X121441107Y-77236629D01*
X121540411Y-77216876D01*
X121590062Y-77207000D01*
X121741938Y-77207000D01*
X121791589Y-77216876D01*
X121791589Y-77216876D01*
G37*
G36*
X139063589Y-77216876D02*
G01*
X139162893Y-77236629D01*
X139303206Y-77294748D01*
X139429484Y-77379125D01*
X139536875Y-77486516D01*
X139621252Y-77612794D01*
X139679371Y-77753107D01*
X139709000Y-77902063D01*
X139709000Y-78053937D01*
X139679371Y-78202893D01*
X139621252Y-78343206D01*
X139536875Y-78469484D01*
X139429484Y-78576875D01*
X139303206Y-78661252D01*
X139162893Y-78719371D01*
X139063589Y-78739124D01*
X139013938Y-78749000D01*
X138862062Y-78749000D01*
X138812411Y-78739124D01*
X138713107Y-78719371D01*
X138572794Y-78661252D01*
X138446516Y-78576875D01*
X138339125Y-78469484D01*
X138254748Y-78343206D01*
X138196629Y-78202893D01*
X138167000Y-78053937D01*
X138167000Y-77902063D01*
X138196629Y-77753107D01*
X138254748Y-77612794D01*
X138339125Y-77486516D01*
X138446516Y-77379125D01*
X138572794Y-77294748D01*
X138713107Y-77236629D01*
X138812411Y-77216876D01*
X138862062Y-77207000D01*
X139013938Y-77207000D01*
X139063589Y-77216876D01*
X139063589Y-77216876D01*
G37*
G36*
X114589000Y-77101000D02*
G01*
X112487000Y-77101000D01*
X112487000Y-75299000D01*
X114589000Y-75299000D01*
X114589000Y-77101000D01*
X114589000Y-77101000D01*
G37*
G36*
X128068564Y-74427389D02*
G01*
X128259833Y-74506615D01*
X128259835Y-74506616D01*
X128321715Y-74547963D01*
X128431973Y-74621635D01*
X128578365Y-74768027D01*
X128693385Y-74940167D01*
X128772611Y-75131436D01*
X128813000Y-75334484D01*
X128813000Y-75541516D01*
X128772611Y-75744564D01*
X128696015Y-75929483D01*
X128693384Y-75935835D01*
X128578365Y-76107973D01*
X128431973Y-76254365D01*
X128259835Y-76369384D01*
X128259834Y-76369385D01*
X128259833Y-76369385D01*
X128068564Y-76448611D01*
X127865516Y-76489000D01*
X127658484Y-76489000D01*
X127455436Y-76448611D01*
X127264167Y-76369385D01*
X127264166Y-76369385D01*
X127264165Y-76369384D01*
X127092027Y-76254365D01*
X126945635Y-76107973D01*
X126830616Y-75935835D01*
X126827985Y-75929483D01*
X126751389Y-75744564D01*
X126711000Y-75541516D01*
X126711000Y-75334484D01*
X126751389Y-75131436D01*
X126830615Y-74940167D01*
X126945635Y-74768027D01*
X127092027Y-74621635D01*
X127202285Y-74547963D01*
X127264165Y-74506616D01*
X127264167Y-74506615D01*
X127455436Y-74427389D01*
X127658484Y-74387000D01*
X127865516Y-74387000D01*
X128068564Y-74427389D01*
X128068564Y-74427389D01*
G37*
G36*
X132640564Y-74427389D02*
G01*
X132831833Y-74506615D01*
X132831835Y-74506616D01*
X132893715Y-74547963D01*
X133003973Y-74621635D01*
X133150365Y-74768027D01*
X133265385Y-74940167D01*
X133344611Y-75131436D01*
X133385000Y-75334484D01*
X133385000Y-75541516D01*
X133344611Y-75744564D01*
X133268015Y-75929483D01*
X133265384Y-75935835D01*
X133150365Y-76107973D01*
X133003973Y-76254365D01*
X132831835Y-76369384D01*
X132831834Y-76369385D01*
X132831833Y-76369385D01*
X132640564Y-76448611D01*
X132437516Y-76489000D01*
X132230484Y-76489000D01*
X132027436Y-76448611D01*
X131836167Y-76369385D01*
X131836166Y-76369385D01*
X131836165Y-76369384D01*
X131664027Y-76254365D01*
X131517635Y-76107973D01*
X131402616Y-75935835D01*
X131399985Y-75929483D01*
X131323389Y-75744564D01*
X131283000Y-75541516D01*
X131283000Y-75334484D01*
X131323389Y-75131436D01*
X131402615Y-74940167D01*
X131517635Y-74768027D01*
X131664027Y-74621635D01*
X131774285Y-74547963D01*
X131836165Y-74506616D01*
X131836167Y-74506615D01*
X132027436Y-74427389D01*
X132230484Y-74387000D01*
X132437516Y-74387000D01*
X132640564Y-74427389D01*
X132640564Y-74427389D01*
G37*
G36*
X141591537Y-74674479D02*
G01*
X141702893Y-74696629D01*
X141843206Y-74754748D01*
X141969484Y-74839125D01*
X142076875Y-74946516D01*
X142161252Y-75072794D01*
X142219371Y-75213107D01*
X142249000Y-75362063D01*
X142249000Y-75513937D01*
X142219371Y-75662893D01*
X142161252Y-75803206D01*
X142076875Y-75929484D01*
X141969484Y-76036875D01*
X141843206Y-76121252D01*
X141702893Y-76179371D01*
X141603589Y-76199124D01*
X141553938Y-76209000D01*
X141402062Y-76209000D01*
X141352411Y-76199124D01*
X141253107Y-76179371D01*
X141112794Y-76121252D01*
X140986516Y-76036875D01*
X140879125Y-75929484D01*
X140794748Y-75803206D01*
X140736629Y-75662893D01*
X140707000Y-75513937D01*
X140707000Y-75362063D01*
X140736629Y-75213107D01*
X140794748Y-75072794D01*
X140879125Y-74946516D01*
X140986516Y-74839125D01*
X141112794Y-74754748D01*
X141253107Y-74696629D01*
X141364463Y-74674479D01*
X141402062Y-74667000D01*
X141553938Y-74667000D01*
X141591537Y-74674479D01*
X141591537Y-74674479D01*
G37*
G36*
X136511537Y-74674479D02*
G01*
X136622893Y-74696629D01*
X136763206Y-74754748D01*
X136889484Y-74839125D01*
X136996875Y-74946516D01*
X137081252Y-75072794D01*
X137139371Y-75213107D01*
X137169000Y-75362063D01*
X137169000Y-75513937D01*
X137139371Y-75662893D01*
X137081252Y-75803206D01*
X136996875Y-75929484D01*
X136889484Y-76036875D01*
X136763206Y-76121252D01*
X136622893Y-76179371D01*
X136523589Y-76199124D01*
X136473938Y-76209000D01*
X136322062Y-76209000D01*
X136272411Y-76199124D01*
X136173107Y-76179371D01*
X136032794Y-76121252D01*
X135906516Y-76036875D01*
X135799125Y-75929484D01*
X135714748Y-75803206D01*
X135656629Y-75662893D01*
X135627000Y-75513937D01*
X135627000Y-75362063D01*
X135656629Y-75213107D01*
X135714748Y-75072794D01*
X135799125Y-74946516D01*
X135906516Y-74839125D01*
X136032794Y-74754748D01*
X136173107Y-74696629D01*
X136284463Y-74674479D01*
X136322062Y-74667000D01*
X136473938Y-74667000D01*
X136511537Y-74674479D01*
X136511537Y-74674479D01*
G37*
G36*
X119239537Y-74674479D02*
G01*
X119350893Y-74696629D01*
X119491206Y-74754748D01*
X119617484Y-74839125D01*
X119724875Y-74946516D01*
X119809252Y-75072794D01*
X119867371Y-75213107D01*
X119897000Y-75362063D01*
X119897000Y-75513937D01*
X119867371Y-75662893D01*
X119809252Y-75803206D01*
X119724875Y-75929484D01*
X119617484Y-76036875D01*
X119491206Y-76121252D01*
X119350893Y-76179371D01*
X119251589Y-76199124D01*
X119201938Y-76209000D01*
X119050062Y-76209000D01*
X119000411Y-76199124D01*
X118901107Y-76179371D01*
X118760794Y-76121252D01*
X118634516Y-76036875D01*
X118527125Y-75929484D01*
X118442748Y-75803206D01*
X118384629Y-75662893D01*
X118355000Y-75513937D01*
X118355000Y-75362063D01*
X118384629Y-75213107D01*
X118442748Y-75072794D01*
X118527125Y-74946516D01*
X118634516Y-74839125D01*
X118760794Y-74754748D01*
X118901107Y-74696629D01*
X119012463Y-74674479D01*
X119050062Y-74667000D01*
X119201938Y-74667000D01*
X119239537Y-74674479D01*
X119239537Y-74674479D01*
G37*
G36*
X124319537Y-74674479D02*
G01*
X124430893Y-74696629D01*
X124571206Y-74754748D01*
X124697484Y-74839125D01*
X124804875Y-74946516D01*
X124889252Y-75072794D01*
X124947371Y-75213107D01*
X124977000Y-75362063D01*
X124977000Y-75513937D01*
X124947371Y-75662893D01*
X124889252Y-75803206D01*
X124804875Y-75929484D01*
X124697484Y-76036875D01*
X124571206Y-76121252D01*
X124430893Y-76179371D01*
X124331589Y-76199124D01*
X124281938Y-76209000D01*
X124130062Y-76209000D01*
X124080411Y-76199124D01*
X123981107Y-76179371D01*
X123840794Y-76121252D01*
X123714516Y-76036875D01*
X123607125Y-75929484D01*
X123522748Y-75803206D01*
X123464629Y-75662893D01*
X123435000Y-75513937D01*
X123435000Y-75362063D01*
X123464629Y-75213107D01*
X123522748Y-75072794D01*
X123607125Y-74946516D01*
X123714516Y-74839125D01*
X123840794Y-74754748D01*
X123981107Y-74696629D01*
X124092463Y-74674479D01*
X124130062Y-74667000D01*
X124281938Y-74667000D01*
X124319537Y-74674479D01*
X124319537Y-74674479D01*
G37*
G36*
X102900000Y-74851000D02*
G01*
X99798000Y-74851000D01*
X99798000Y-71749000D01*
X102900000Y-71749000D01*
X102900000Y-74851000D01*
X102900000Y-74851000D01*
G37*
G36*
X106731585Y-71778802D02*
G01*
X106881410Y-71808604D01*
X107163674Y-71925521D01*
X107417705Y-72095259D01*
X107633741Y-72311295D01*
X107803479Y-72565326D01*
X107920396Y-72847590D01*
X107945741Y-72975009D01*
X107980000Y-73147239D01*
X107980000Y-73452761D01*
X107973911Y-73483373D01*
X107920396Y-73752410D01*
X107803479Y-74034674D01*
X107633741Y-74288705D01*
X107417705Y-74504741D01*
X107163674Y-74674479D01*
X106881410Y-74791396D01*
X106731585Y-74821198D01*
X106581761Y-74851000D01*
X106276239Y-74851000D01*
X106126415Y-74821198D01*
X105976590Y-74791396D01*
X105694326Y-74674479D01*
X105440295Y-74504741D01*
X105224259Y-74288705D01*
X105054521Y-74034674D01*
X104937604Y-73752410D01*
X104884089Y-73483373D01*
X104878000Y-73452761D01*
X104878000Y-73147239D01*
X104912259Y-72975009D01*
X104937604Y-72847590D01*
X105054521Y-72565326D01*
X105224259Y-72311295D01*
X105440295Y-72095259D01*
X105694326Y-71925521D01*
X105976590Y-71808604D01*
X106126415Y-71778802D01*
X106276239Y-71749000D01*
X106581761Y-71749000D01*
X106731585Y-71778802D01*
X106731585Y-71778802D01*
G37*
G36*
X94907444Y-71749000D02*
G01*
X95081410Y-71783604D01*
X95363674Y-71900521D01*
X95617705Y-72070259D01*
X95833741Y-72286295D01*
X96003479Y-72540326D01*
X96120396Y-72822590D01*
X96180000Y-73122240D01*
X96180000Y-73427760D01*
X96120396Y-73727410D01*
X96003479Y-74009674D01*
X95833741Y-74263705D01*
X95617705Y-74479741D01*
X95363674Y-74649479D01*
X95081410Y-74766396D01*
X94955726Y-74791396D01*
X94781761Y-74826000D01*
X94476239Y-74826000D01*
X94302274Y-74791396D01*
X94176590Y-74766396D01*
X93894326Y-74649479D01*
X93640295Y-74479741D01*
X93424259Y-74263705D01*
X93254521Y-74009674D01*
X93137604Y-73727410D01*
X93078000Y-73427760D01*
X93078000Y-73122240D01*
X93137604Y-72822590D01*
X93254521Y-72540326D01*
X93424259Y-72286295D01*
X93640295Y-72070259D01*
X93894326Y-71900521D01*
X94176590Y-71783604D01*
X94350556Y-71749000D01*
X94476239Y-71724000D01*
X94781761Y-71724000D01*
X94907444Y-71749000D01*
X94907444Y-71749000D01*
G37*
G36*
X91100000Y-74826000D02*
G01*
X87998000Y-74826000D01*
X87998000Y-71724000D01*
X91100000Y-71724000D01*
X91100000Y-74826000D01*
X91100000Y-74826000D01*
G37*
G36*
X113798442Y-72765518D02*
G01*
X113864627Y-72772037D01*
X114034466Y-72823557D01*
X114190991Y-72907222D01*
X114226729Y-72936552D01*
X114328186Y-73019814D01*
X114411448Y-73121271D01*
X114440778Y-73157009D01*
X114524443Y-73313534D01*
X114575963Y-73483373D01*
X114593359Y-73660000D01*
X114575963Y-73836627D01*
X114524443Y-74006466D01*
X114524442Y-74006468D01*
X114509365Y-74034674D01*
X114440778Y-74162991D01*
X114411448Y-74198729D01*
X114328186Y-74300186D01*
X114248035Y-74365963D01*
X114190991Y-74412778D01*
X114034466Y-74496443D01*
X113864627Y-74547963D01*
X113798442Y-74554482D01*
X113732260Y-74561000D01*
X113343740Y-74561000D01*
X113277558Y-74554482D01*
X113211373Y-74547963D01*
X113041534Y-74496443D01*
X112885009Y-74412778D01*
X112827965Y-74365963D01*
X112747814Y-74300186D01*
X112664552Y-74198729D01*
X112635222Y-74162991D01*
X112566635Y-74034674D01*
X112551558Y-74006468D01*
X112551557Y-74006466D01*
X112500037Y-73836627D01*
X112482641Y-73660000D01*
X112500037Y-73483373D01*
X112551557Y-73313534D01*
X112635222Y-73157009D01*
X112664552Y-73121271D01*
X112747814Y-73019814D01*
X112849271Y-72936552D01*
X112885009Y-72907222D01*
X113041534Y-72823557D01*
X113211373Y-72772037D01*
X113277558Y-72765518D01*
X113343740Y-72759000D01*
X113732260Y-72759000D01*
X113798442Y-72765518D01*
X113798442Y-72765518D01*
G37*
G36*
X145271442Y-72583518D02*
G01*
X145337627Y-72590037D01*
X145507466Y-72641557D01*
X145663991Y-72725222D01*
X145699729Y-72754552D01*
X145801186Y-72837814D01*
X145884448Y-72939271D01*
X145913778Y-72975009D01*
X145997443Y-73131534D01*
X146048963Y-73301373D01*
X146066359Y-73478000D01*
X146048963Y-73654627D01*
X145997443Y-73824466D01*
X145913778Y-73980991D01*
X145892871Y-74006466D01*
X145801186Y-74118186D01*
X145699729Y-74201448D01*
X145663991Y-74230778D01*
X145507466Y-74314443D01*
X145337627Y-74365963D01*
X145271442Y-74372482D01*
X145205260Y-74379000D01*
X144816740Y-74379000D01*
X144750558Y-74372482D01*
X144684373Y-74365963D01*
X144514534Y-74314443D01*
X144358009Y-74230778D01*
X144322271Y-74201448D01*
X144220814Y-74118186D01*
X144129129Y-74006466D01*
X144108222Y-73980991D01*
X144024557Y-73824466D01*
X143973037Y-73654627D01*
X143955641Y-73478000D01*
X143973037Y-73301373D01*
X144024557Y-73131534D01*
X144108222Y-72975009D01*
X144137552Y-72939271D01*
X144220814Y-72837814D01*
X144322271Y-72754552D01*
X144358009Y-72725222D01*
X144514534Y-72641557D01*
X144684373Y-72590037D01*
X144750558Y-72583518D01*
X144816740Y-72577000D01*
X145205260Y-72577000D01*
X145271442Y-72583518D01*
X145271442Y-72583518D01*
G37*
G36*
X151771442Y-72583518D02*
G01*
X151837627Y-72590037D01*
X152007466Y-72641557D01*
X152163991Y-72725222D01*
X152199729Y-72754552D01*
X152301186Y-72837814D01*
X152384448Y-72939271D01*
X152413778Y-72975009D01*
X152497443Y-73131534D01*
X152548963Y-73301373D01*
X152566359Y-73478000D01*
X152548963Y-73654627D01*
X152497443Y-73824466D01*
X152413778Y-73980991D01*
X152392871Y-74006466D01*
X152301186Y-74118186D01*
X152199729Y-74201448D01*
X152163991Y-74230778D01*
X152007466Y-74314443D01*
X151837627Y-74365963D01*
X151771442Y-74372482D01*
X151705260Y-74379000D01*
X151316740Y-74379000D01*
X151250558Y-74372482D01*
X151184373Y-74365963D01*
X151014534Y-74314443D01*
X150858009Y-74230778D01*
X150822271Y-74201448D01*
X150720814Y-74118186D01*
X150629129Y-74006466D01*
X150608222Y-73980991D01*
X150524557Y-73824466D01*
X150473037Y-73654627D01*
X150455641Y-73478000D01*
X150473037Y-73301373D01*
X150524557Y-73131534D01*
X150608222Y-72975009D01*
X150637552Y-72939271D01*
X150720814Y-72837814D01*
X150822271Y-72754552D01*
X150858009Y-72725222D01*
X151014534Y-72641557D01*
X151184373Y-72590037D01*
X151250558Y-72583518D01*
X151316740Y-72577000D01*
X151705260Y-72577000D01*
X151771442Y-72583518D01*
X151771442Y-72583518D01*
G37*
G36*
X113798442Y-70225518D02*
G01*
X113864627Y-70232037D01*
X114034466Y-70283557D01*
X114190991Y-70367222D01*
X114226729Y-70396552D01*
X114328186Y-70479814D01*
X114411448Y-70581271D01*
X114440778Y-70617009D01*
X114524443Y-70773534D01*
X114575963Y-70943373D01*
X114593359Y-71120000D01*
X114575963Y-71296627D01*
X114524443Y-71466466D01*
X114440778Y-71622991D01*
X114411448Y-71658729D01*
X114328186Y-71760186D01*
X114226729Y-71843448D01*
X114190991Y-71872778D01*
X114034466Y-71956443D01*
X113864627Y-72007963D01*
X113798443Y-72014481D01*
X113732260Y-72021000D01*
X113343740Y-72021000D01*
X113277557Y-72014481D01*
X113211373Y-72007963D01*
X113041534Y-71956443D01*
X112885009Y-71872778D01*
X112849271Y-71843448D01*
X112747814Y-71760186D01*
X112664552Y-71658729D01*
X112635222Y-71622991D01*
X112551557Y-71466466D01*
X112500037Y-71296627D01*
X112482641Y-71120000D01*
X112500037Y-70943373D01*
X112551557Y-70773534D01*
X112635222Y-70617009D01*
X112664552Y-70581271D01*
X112747814Y-70479814D01*
X112849271Y-70396552D01*
X112885009Y-70367222D01*
X113041534Y-70283557D01*
X113211373Y-70232037D01*
X113277558Y-70225518D01*
X113343740Y-70219000D01*
X113732260Y-70219000D01*
X113798442Y-70225518D01*
X113798442Y-70225518D01*
G37*
G36*
X119640442Y-68320518D02*
G01*
X119706627Y-68327037D01*
X119876466Y-68378557D01*
X120032991Y-68462222D01*
X120068729Y-68491552D01*
X120170186Y-68574814D01*
X120253448Y-68676271D01*
X120282778Y-68712009D01*
X120366443Y-68868534D01*
X120417963Y-69038373D01*
X120435359Y-69215000D01*
X120417963Y-69391627D01*
X120366443Y-69561466D01*
X120282778Y-69717991D01*
X120253448Y-69753729D01*
X120170186Y-69855186D01*
X120068729Y-69938448D01*
X120032991Y-69967778D01*
X119876466Y-70051443D01*
X119706627Y-70102963D01*
X119640442Y-70109482D01*
X119574260Y-70116000D01*
X119185740Y-70116000D01*
X119119558Y-70109482D01*
X119053373Y-70102963D01*
X118883534Y-70051443D01*
X118727009Y-69967778D01*
X118691271Y-69938448D01*
X118589814Y-69855186D01*
X118506552Y-69753729D01*
X118477222Y-69717991D01*
X118393557Y-69561466D01*
X118342037Y-69391627D01*
X118324641Y-69215000D01*
X118342037Y-69038373D01*
X118393557Y-68868534D01*
X118477222Y-68712009D01*
X118506552Y-68676271D01*
X118589814Y-68574814D01*
X118691271Y-68491552D01*
X118727009Y-68462222D01*
X118883534Y-68378557D01*
X119053373Y-68327037D01*
X119119558Y-68320518D01*
X119185740Y-68314000D01*
X119574260Y-68314000D01*
X119640442Y-68320518D01*
X119640442Y-68320518D01*
G37*
G36*
X122971000Y-70116000D02*
G01*
X120869000Y-70116000D01*
X120869000Y-68314000D01*
X122971000Y-68314000D01*
X122971000Y-70116000D01*
X122971000Y-70116000D01*
G37*
G36*
X151600000Y-69814000D02*
G01*
X150148000Y-69814000D01*
X150148000Y-68362000D01*
X151600000Y-68362000D01*
X151600000Y-69814000D01*
X151600000Y-69814000D01*
G37*
G36*
X132945213Y-68365502D02*
G01*
X133016321Y-68372505D01*
X133153172Y-68414019D01*
X133153175Y-68414020D01*
X133279294Y-68481432D01*
X133389843Y-68572157D01*
X133480568Y-68682706D01*
X133547980Y-68808825D01*
X133547981Y-68808828D01*
X133589495Y-68945679D01*
X133603512Y-69088000D01*
X133589495Y-69230321D01*
X133547981Y-69367172D01*
X133547980Y-69367175D01*
X133480568Y-69493294D01*
X133389843Y-69603843D01*
X133279294Y-69694568D01*
X133153175Y-69761980D01*
X133153172Y-69761981D01*
X133016321Y-69803495D01*
X132945213Y-69810498D01*
X132909660Y-69814000D01*
X132838340Y-69814000D01*
X132802787Y-69810498D01*
X132731679Y-69803495D01*
X132594828Y-69761981D01*
X132594825Y-69761980D01*
X132468706Y-69694568D01*
X132358157Y-69603843D01*
X132267432Y-69493294D01*
X132200020Y-69367175D01*
X132200019Y-69367172D01*
X132158505Y-69230321D01*
X132144488Y-69088000D01*
X132158505Y-68945679D01*
X132200019Y-68808828D01*
X132200020Y-68808825D01*
X132267432Y-68682706D01*
X132358157Y-68572157D01*
X132468706Y-68481432D01*
X132594825Y-68414020D01*
X132594828Y-68414019D01*
X132731679Y-68372505D01*
X132802787Y-68365502D01*
X132838340Y-68362000D01*
X132909660Y-68362000D01*
X132945213Y-68365502D01*
X132945213Y-68365502D01*
G37*
G36*
X134945213Y-68365502D02*
G01*
X135016321Y-68372505D01*
X135153172Y-68414019D01*
X135153175Y-68414020D01*
X135279294Y-68481432D01*
X135389843Y-68572157D01*
X135480568Y-68682706D01*
X135547980Y-68808825D01*
X135547981Y-68808828D01*
X135589495Y-68945679D01*
X135603512Y-69088000D01*
X135589495Y-69230321D01*
X135547981Y-69367172D01*
X135547980Y-69367175D01*
X135480568Y-69493294D01*
X135389843Y-69603843D01*
X135279294Y-69694568D01*
X135153175Y-69761980D01*
X135153172Y-69761981D01*
X135016321Y-69803495D01*
X134945213Y-69810498D01*
X134909660Y-69814000D01*
X134838340Y-69814000D01*
X134802787Y-69810498D01*
X134731679Y-69803495D01*
X134594828Y-69761981D01*
X134594825Y-69761980D01*
X134468706Y-69694568D01*
X134358157Y-69603843D01*
X134267432Y-69493294D01*
X134200020Y-69367175D01*
X134200019Y-69367172D01*
X134158505Y-69230321D01*
X134144488Y-69088000D01*
X134158505Y-68945679D01*
X134200019Y-68808828D01*
X134200020Y-68808825D01*
X134267432Y-68682706D01*
X134358157Y-68572157D01*
X134468706Y-68481432D01*
X134594825Y-68414020D01*
X134594828Y-68414019D01*
X134731679Y-68372505D01*
X134802787Y-68365502D01*
X134838340Y-68362000D01*
X134909660Y-68362000D01*
X134945213Y-68365502D01*
X134945213Y-68365502D01*
G37*
G36*
X136945213Y-68365502D02*
G01*
X137016321Y-68372505D01*
X137153172Y-68414019D01*
X137153175Y-68414020D01*
X137279294Y-68481432D01*
X137389843Y-68572157D01*
X137480568Y-68682706D01*
X137547980Y-68808825D01*
X137547981Y-68808828D01*
X137589495Y-68945679D01*
X137603512Y-69088000D01*
X137589495Y-69230321D01*
X137547981Y-69367172D01*
X137547980Y-69367175D01*
X137480568Y-69493294D01*
X137389843Y-69603843D01*
X137279294Y-69694568D01*
X137153175Y-69761980D01*
X137153172Y-69761981D01*
X137016321Y-69803495D01*
X136945213Y-69810498D01*
X136909660Y-69814000D01*
X136838340Y-69814000D01*
X136802787Y-69810498D01*
X136731679Y-69803495D01*
X136594828Y-69761981D01*
X136594825Y-69761980D01*
X136468706Y-69694568D01*
X136358157Y-69603843D01*
X136267432Y-69493294D01*
X136200020Y-69367175D01*
X136200019Y-69367172D01*
X136158505Y-69230321D01*
X136144488Y-69088000D01*
X136158505Y-68945679D01*
X136200019Y-68808828D01*
X136200020Y-68808825D01*
X136267432Y-68682706D01*
X136358157Y-68572157D01*
X136468706Y-68481432D01*
X136594825Y-68414020D01*
X136594828Y-68414019D01*
X136731679Y-68372505D01*
X136802787Y-68365502D01*
X136838340Y-68362000D01*
X136909660Y-68362000D01*
X136945213Y-68365502D01*
X136945213Y-68365502D01*
G37*
G36*
X138945213Y-68365502D02*
G01*
X139016321Y-68372505D01*
X139153172Y-68414019D01*
X139153175Y-68414020D01*
X139279294Y-68481432D01*
X139389843Y-68572157D01*
X139480568Y-68682706D01*
X139547980Y-68808825D01*
X139547981Y-68808828D01*
X139589495Y-68945679D01*
X139603512Y-69088000D01*
X139589495Y-69230321D01*
X139547981Y-69367172D01*
X139547980Y-69367175D01*
X139480568Y-69493294D01*
X139389843Y-69603843D01*
X139279294Y-69694568D01*
X139153175Y-69761980D01*
X139153172Y-69761981D01*
X139016321Y-69803495D01*
X138945213Y-69810498D01*
X138909660Y-69814000D01*
X138838340Y-69814000D01*
X138802787Y-69810498D01*
X138731679Y-69803495D01*
X138594828Y-69761981D01*
X138594825Y-69761980D01*
X138468706Y-69694568D01*
X138358157Y-69603843D01*
X138267432Y-69493294D01*
X138200020Y-69367175D01*
X138200019Y-69367172D01*
X138158505Y-69230321D01*
X138144488Y-69088000D01*
X138158505Y-68945679D01*
X138200019Y-68808828D01*
X138200020Y-68808825D01*
X138267432Y-68682706D01*
X138358157Y-68572157D01*
X138468706Y-68481432D01*
X138594825Y-68414020D01*
X138594828Y-68414019D01*
X138731679Y-68372505D01*
X138802787Y-68365502D01*
X138838340Y-68362000D01*
X138909660Y-68362000D01*
X138945213Y-68365502D01*
X138945213Y-68365502D01*
G37*
G36*
X142945213Y-68365502D02*
G01*
X143016321Y-68372505D01*
X143153172Y-68414019D01*
X143153175Y-68414020D01*
X143279294Y-68481432D01*
X143389843Y-68572157D01*
X143480568Y-68682706D01*
X143547980Y-68808825D01*
X143547981Y-68808828D01*
X143589495Y-68945679D01*
X143603512Y-69088000D01*
X143589495Y-69230321D01*
X143547981Y-69367172D01*
X143547980Y-69367175D01*
X143480568Y-69493294D01*
X143389843Y-69603843D01*
X143279294Y-69694568D01*
X143153175Y-69761980D01*
X143153172Y-69761981D01*
X143016321Y-69803495D01*
X142945213Y-69810498D01*
X142909660Y-69814000D01*
X142838340Y-69814000D01*
X142802787Y-69810498D01*
X142731679Y-69803495D01*
X142594828Y-69761981D01*
X142594825Y-69761980D01*
X142468706Y-69694568D01*
X142358157Y-69603843D01*
X142267432Y-69493294D01*
X142200020Y-69367175D01*
X142200019Y-69367172D01*
X142158505Y-69230321D01*
X142144488Y-69088000D01*
X142158505Y-68945679D01*
X142200019Y-68808828D01*
X142200020Y-68808825D01*
X142267432Y-68682706D01*
X142358157Y-68572157D01*
X142468706Y-68481432D01*
X142594825Y-68414020D01*
X142594828Y-68414019D01*
X142731679Y-68372505D01*
X142802787Y-68365502D01*
X142838340Y-68362000D01*
X142909660Y-68362000D01*
X142945213Y-68365502D01*
X142945213Y-68365502D01*
G37*
G36*
X144945213Y-68365502D02*
G01*
X145016321Y-68372505D01*
X145153172Y-68414019D01*
X145153175Y-68414020D01*
X145279294Y-68481432D01*
X145389843Y-68572157D01*
X145480568Y-68682706D01*
X145547980Y-68808825D01*
X145547981Y-68808828D01*
X145589495Y-68945679D01*
X145603512Y-69088000D01*
X145589495Y-69230321D01*
X145547981Y-69367172D01*
X145547980Y-69367175D01*
X145480568Y-69493294D01*
X145389843Y-69603843D01*
X145279294Y-69694568D01*
X145153175Y-69761980D01*
X145153172Y-69761981D01*
X145016321Y-69803495D01*
X144945213Y-69810498D01*
X144909660Y-69814000D01*
X144838340Y-69814000D01*
X144802787Y-69810498D01*
X144731679Y-69803495D01*
X144594828Y-69761981D01*
X144594825Y-69761980D01*
X144468706Y-69694568D01*
X144358157Y-69603843D01*
X144267432Y-69493294D01*
X144200020Y-69367175D01*
X144200019Y-69367172D01*
X144158505Y-69230321D01*
X144144488Y-69088000D01*
X144158505Y-68945679D01*
X144200019Y-68808828D01*
X144200020Y-68808825D01*
X144267432Y-68682706D01*
X144358157Y-68572157D01*
X144468706Y-68481432D01*
X144594825Y-68414020D01*
X144594828Y-68414019D01*
X144731679Y-68372505D01*
X144802787Y-68365502D01*
X144838340Y-68362000D01*
X144909660Y-68362000D01*
X144945213Y-68365502D01*
X144945213Y-68365502D01*
G37*
G36*
X148945213Y-68365502D02*
G01*
X149016321Y-68372505D01*
X149153172Y-68414019D01*
X149153175Y-68414020D01*
X149279294Y-68481432D01*
X149389843Y-68572157D01*
X149480568Y-68682706D01*
X149547980Y-68808825D01*
X149547981Y-68808828D01*
X149589495Y-68945679D01*
X149603512Y-69088000D01*
X149589495Y-69230321D01*
X149547981Y-69367172D01*
X149547980Y-69367175D01*
X149480568Y-69493294D01*
X149389843Y-69603843D01*
X149279294Y-69694568D01*
X149153175Y-69761980D01*
X149153172Y-69761981D01*
X149016321Y-69803495D01*
X148945213Y-69810498D01*
X148909660Y-69814000D01*
X148838340Y-69814000D01*
X148802787Y-69810498D01*
X148731679Y-69803495D01*
X148594828Y-69761981D01*
X148594825Y-69761980D01*
X148468706Y-69694568D01*
X148358157Y-69603843D01*
X148267432Y-69493294D01*
X148200020Y-69367175D01*
X148200019Y-69367172D01*
X148158505Y-69230321D01*
X148144488Y-69088000D01*
X148158505Y-68945679D01*
X148200019Y-68808828D01*
X148200020Y-68808825D01*
X148267432Y-68682706D01*
X148358157Y-68572157D01*
X148468706Y-68481432D01*
X148594825Y-68414020D01*
X148594828Y-68414019D01*
X148731679Y-68372505D01*
X148802787Y-68365502D01*
X148838340Y-68362000D01*
X148909660Y-68362000D01*
X148945213Y-68365502D01*
X148945213Y-68365502D01*
G37*
G36*
X146945213Y-68365502D02*
G01*
X147016321Y-68372505D01*
X147153172Y-68414019D01*
X147153175Y-68414020D01*
X147279294Y-68481432D01*
X147389843Y-68572157D01*
X147480568Y-68682706D01*
X147547980Y-68808825D01*
X147547981Y-68808828D01*
X147589495Y-68945679D01*
X147603512Y-69088000D01*
X147589495Y-69230321D01*
X147547981Y-69367172D01*
X147547980Y-69367175D01*
X147480568Y-69493294D01*
X147389843Y-69603843D01*
X147279294Y-69694568D01*
X147153175Y-69761980D01*
X147153172Y-69761981D01*
X147016321Y-69803495D01*
X146945213Y-69810498D01*
X146909660Y-69814000D01*
X146838340Y-69814000D01*
X146802787Y-69810498D01*
X146731679Y-69803495D01*
X146594828Y-69761981D01*
X146594825Y-69761980D01*
X146468706Y-69694568D01*
X146358157Y-69603843D01*
X146267432Y-69493294D01*
X146200020Y-69367175D01*
X146200019Y-69367172D01*
X146158505Y-69230321D01*
X146144488Y-69088000D01*
X146158505Y-68945679D01*
X146200019Y-68808828D01*
X146200020Y-68808825D01*
X146267432Y-68682706D01*
X146358157Y-68572157D01*
X146468706Y-68481432D01*
X146594825Y-68414020D01*
X146594828Y-68414019D01*
X146731679Y-68372505D01*
X146802787Y-68365502D01*
X146838340Y-68362000D01*
X146909660Y-68362000D01*
X146945213Y-68365502D01*
X146945213Y-68365502D01*
G37*
G36*
X140945213Y-68365502D02*
G01*
X141016321Y-68372505D01*
X141153172Y-68414019D01*
X141153175Y-68414020D01*
X141279294Y-68481432D01*
X141389843Y-68572157D01*
X141480568Y-68682706D01*
X141547980Y-68808825D01*
X141547981Y-68808828D01*
X141589495Y-68945679D01*
X141603512Y-69088000D01*
X141589495Y-69230321D01*
X141547981Y-69367172D01*
X141547980Y-69367175D01*
X141480568Y-69493294D01*
X141389843Y-69603843D01*
X141279294Y-69694568D01*
X141153175Y-69761980D01*
X141153172Y-69761981D01*
X141016321Y-69803495D01*
X140945213Y-69810498D01*
X140909660Y-69814000D01*
X140838340Y-69814000D01*
X140802787Y-69810498D01*
X140731679Y-69803495D01*
X140594828Y-69761981D01*
X140594825Y-69761980D01*
X140468706Y-69694568D01*
X140358157Y-69603843D01*
X140267432Y-69493294D01*
X140200020Y-69367175D01*
X140200019Y-69367172D01*
X140158505Y-69230321D01*
X140144488Y-69088000D01*
X140158505Y-68945679D01*
X140200019Y-68808828D01*
X140200020Y-68808825D01*
X140267432Y-68682706D01*
X140358157Y-68572157D01*
X140468706Y-68481432D01*
X140594825Y-68414020D01*
X140594828Y-68414019D01*
X140731679Y-68372505D01*
X140802787Y-68365502D01*
X140838340Y-68362000D01*
X140909660Y-68362000D01*
X140945213Y-68365502D01*
X140945213Y-68365502D01*
G37*
G36*
X99581562Y-66768181D02*
G01*
X99616481Y-66778774D01*
X99648663Y-66795976D01*
X99676873Y-66819127D01*
X99700024Y-66847337D01*
X99717226Y-66879519D01*
X99727819Y-66914438D01*
X99732000Y-66956895D01*
X99732000Y-68098105D01*
X99727819Y-68140562D01*
X99717226Y-68175481D01*
X99700024Y-68207663D01*
X99676873Y-68235873D01*
X99648663Y-68259024D01*
X99616481Y-68276226D01*
X99581562Y-68286819D01*
X99539105Y-68291000D01*
X98072895Y-68291000D01*
X98030438Y-68286819D01*
X97995519Y-68276226D01*
X97963337Y-68259024D01*
X97935127Y-68235873D01*
X97911976Y-68207663D01*
X97894774Y-68175481D01*
X97884181Y-68140562D01*
X97880000Y-68098105D01*
X97880000Y-66956895D01*
X97884181Y-66914438D01*
X97894774Y-66879519D01*
X97911976Y-66847337D01*
X97935127Y-66819127D01*
X97963337Y-66795976D01*
X97995519Y-66778774D01*
X98030438Y-66768181D01*
X98072895Y-66764000D01*
X99539105Y-66764000D01*
X99581562Y-66768181D01*
X99581562Y-66768181D01*
G37*
G36*
X95771562Y-66768181D02*
G01*
X95806481Y-66778774D01*
X95838663Y-66795976D01*
X95866873Y-66819127D01*
X95890024Y-66847337D01*
X95907226Y-66879519D01*
X95917819Y-66914438D01*
X95922000Y-66956895D01*
X95922000Y-68098105D01*
X95917819Y-68140562D01*
X95907226Y-68175481D01*
X95890024Y-68207663D01*
X95866873Y-68235873D01*
X95838663Y-68259024D01*
X95806481Y-68276226D01*
X95771562Y-68286819D01*
X95729105Y-68291000D01*
X94262895Y-68291000D01*
X94220438Y-68286819D01*
X94185519Y-68276226D01*
X94153337Y-68259024D01*
X94125127Y-68235873D01*
X94101976Y-68207663D01*
X94084774Y-68175481D01*
X94074181Y-68140562D01*
X94070000Y-68098105D01*
X94070000Y-66956895D01*
X94074181Y-66914438D01*
X94084774Y-66879519D01*
X94101976Y-66847337D01*
X94125127Y-66819127D01*
X94153337Y-66795976D01*
X94185519Y-66778774D01*
X94220438Y-66768181D01*
X94262895Y-66764000D01*
X95729105Y-66764000D01*
X95771562Y-66768181D01*
X95771562Y-66768181D01*
G37*
G36*
X127649562Y-65372181D02*
G01*
X127684481Y-65382774D01*
X127716663Y-65399976D01*
X127744873Y-65423127D01*
X127768024Y-65451337D01*
X127785226Y-65483519D01*
X127795819Y-65518438D01*
X127800000Y-65560895D01*
X127800000Y-67027105D01*
X127795819Y-67069562D01*
X127785226Y-67104481D01*
X127768024Y-67136663D01*
X127744873Y-67164873D01*
X127716663Y-67188024D01*
X127684481Y-67205226D01*
X127649562Y-67215819D01*
X127607105Y-67220000D01*
X126465895Y-67220000D01*
X126423438Y-67215819D01*
X126388519Y-67205226D01*
X126356337Y-67188024D01*
X126328127Y-67164873D01*
X126304976Y-67136663D01*
X126287774Y-67104481D01*
X126277181Y-67069562D01*
X126273000Y-67027105D01*
X126273000Y-65560895D01*
X126277181Y-65518438D01*
X126287774Y-65483519D01*
X126304976Y-65451337D01*
X126328127Y-65423127D01*
X126356337Y-65399976D01*
X126388519Y-65382774D01*
X126423438Y-65372181D01*
X126465895Y-65368000D01*
X127607105Y-65368000D01*
X127649562Y-65372181D01*
X127649562Y-65372181D01*
G37*
G36*
X130624562Y-65372181D02*
G01*
X130659481Y-65382774D01*
X130691663Y-65399976D01*
X130719873Y-65423127D01*
X130743024Y-65451337D01*
X130760226Y-65483519D01*
X130770819Y-65518438D01*
X130775000Y-65560895D01*
X130775000Y-67027105D01*
X130770819Y-67069562D01*
X130760226Y-67104481D01*
X130743024Y-67136663D01*
X130719873Y-67164873D01*
X130691663Y-67188024D01*
X130659481Y-67205226D01*
X130624562Y-67215819D01*
X130582105Y-67220000D01*
X129440895Y-67220000D01*
X129398438Y-67215819D01*
X129363519Y-67205226D01*
X129331337Y-67188024D01*
X129303127Y-67164873D01*
X129279976Y-67136663D01*
X129262774Y-67104481D01*
X129252181Y-67069562D01*
X129248000Y-67027105D01*
X129248000Y-65560895D01*
X129252181Y-65518438D01*
X129262774Y-65483519D01*
X129279976Y-65451337D01*
X129303127Y-65423127D01*
X129331337Y-65399976D01*
X129363519Y-65382774D01*
X129398438Y-65372181D01*
X129440895Y-65368000D01*
X130582105Y-65368000D01*
X130624562Y-65372181D01*
X130624562Y-65372181D01*
G37*
G36*
X92947000Y-66991000D02*
G01*
X89345000Y-66991000D01*
X89345000Y-65089000D01*
X92947000Y-65089000D01*
X92947000Y-66991000D01*
X92947000Y-66991000D01*
G37*
G36*
X87947000Y-66991000D02*
G01*
X84345000Y-66991000D01*
X84345000Y-65089000D01*
X87947000Y-65089000D01*
X87947000Y-66991000D01*
X87947000Y-66991000D01*
G37*
G36*
X104118062Y-65118181D02*
G01*
X104152981Y-65128774D01*
X104185163Y-65145976D01*
X104213373Y-65169127D01*
X104236524Y-65197337D01*
X104253726Y-65229519D01*
X104264319Y-65264438D01*
X104268500Y-65306895D01*
X104268500Y-66773105D01*
X104264319Y-66815562D01*
X104253726Y-66850481D01*
X104236524Y-66882663D01*
X104213373Y-66910873D01*
X104185163Y-66934024D01*
X104152981Y-66951226D01*
X104118062Y-66961819D01*
X104075605Y-66966000D01*
X102934395Y-66966000D01*
X102891938Y-66961819D01*
X102857019Y-66951226D01*
X102824837Y-66934024D01*
X102796627Y-66910873D01*
X102773476Y-66882663D01*
X102756274Y-66850481D01*
X102745681Y-66815562D01*
X102741500Y-66773105D01*
X102741500Y-65306895D01*
X102745681Y-65264438D01*
X102756274Y-65229519D01*
X102773476Y-65197337D01*
X102796627Y-65169127D01*
X102824837Y-65145976D01*
X102857019Y-65128774D01*
X102891938Y-65118181D01*
X102934395Y-65114000D01*
X104075605Y-65114000D01*
X104118062Y-65118181D01*
X104118062Y-65118181D01*
G37*
G36*
X107093062Y-65118181D02*
G01*
X107127981Y-65128774D01*
X107160163Y-65145976D01*
X107188373Y-65169127D01*
X107211524Y-65197337D01*
X107228726Y-65229519D01*
X107239319Y-65264438D01*
X107243500Y-65306895D01*
X107243500Y-66773105D01*
X107239319Y-66815562D01*
X107228726Y-66850481D01*
X107211524Y-66882663D01*
X107188373Y-66910873D01*
X107160163Y-66934024D01*
X107127981Y-66951226D01*
X107093062Y-66961819D01*
X107050605Y-66966000D01*
X105909395Y-66966000D01*
X105866938Y-66961819D01*
X105832019Y-66951226D01*
X105799837Y-66934024D01*
X105771627Y-66910873D01*
X105748476Y-66882663D01*
X105731274Y-66850481D01*
X105720681Y-66815562D01*
X105716500Y-66773105D01*
X105716500Y-65306895D01*
X105720681Y-65264438D01*
X105731274Y-65229519D01*
X105748476Y-65197337D01*
X105771627Y-65169127D01*
X105799837Y-65145976D01*
X105832019Y-65128774D01*
X105866938Y-65118181D01*
X105909395Y-65114000D01*
X107050605Y-65114000D01*
X107093062Y-65118181D01*
X107093062Y-65118181D01*
G37*
G36*
X139055699Y-65468580D02*
G01*
X139176067Y-65518438D01*
X139192372Y-65525192D01*
X139315375Y-65607380D01*
X139419980Y-65711985D01*
X139502168Y-65834988D01*
X139558780Y-65971661D01*
X139587640Y-66116753D01*
X139587640Y-66264687D01*
X139558780Y-66409779D01*
X139502168Y-66546452D01*
X139419980Y-66669455D01*
X139315375Y-66774060D01*
X139192372Y-66856248D01*
X139192371Y-66856249D01*
X139192370Y-66856249D01*
X139055699Y-66912860D01*
X138910608Y-66941720D01*
X138762672Y-66941720D01*
X138617581Y-66912860D01*
X138480910Y-66856249D01*
X138480909Y-66856249D01*
X138480908Y-66856248D01*
X138357905Y-66774060D01*
X138253300Y-66669455D01*
X138171112Y-66546452D01*
X138114500Y-66409779D01*
X138085640Y-66264687D01*
X138085640Y-66116753D01*
X138114500Y-65971661D01*
X138171112Y-65834988D01*
X138253300Y-65711985D01*
X138357905Y-65607380D01*
X138480908Y-65525192D01*
X138497214Y-65518438D01*
X138617581Y-65468580D01*
X138762672Y-65439720D01*
X138910608Y-65439720D01*
X139055699Y-65468580D01*
X139055699Y-65468580D01*
G37*
G36*
X151055699Y-65468580D02*
G01*
X151176067Y-65518438D01*
X151192372Y-65525192D01*
X151315375Y-65607380D01*
X151419980Y-65711985D01*
X151502168Y-65834988D01*
X151558780Y-65971661D01*
X151587640Y-66116753D01*
X151587640Y-66264687D01*
X151558780Y-66409779D01*
X151502168Y-66546452D01*
X151419980Y-66669455D01*
X151315375Y-66774060D01*
X151192372Y-66856248D01*
X151192371Y-66856249D01*
X151192370Y-66856249D01*
X151055699Y-66912860D01*
X150910608Y-66941720D01*
X150762672Y-66941720D01*
X150617581Y-66912860D01*
X150480910Y-66856249D01*
X150480909Y-66856249D01*
X150480908Y-66856248D01*
X150357905Y-66774060D01*
X150253300Y-66669455D01*
X150171112Y-66546452D01*
X150114500Y-66409779D01*
X150085640Y-66264687D01*
X150085640Y-66116753D01*
X150114500Y-65971661D01*
X150171112Y-65834988D01*
X150253300Y-65711985D01*
X150357905Y-65607380D01*
X150480908Y-65525192D01*
X150497214Y-65518438D01*
X150617581Y-65468580D01*
X150762672Y-65439720D01*
X150910608Y-65439720D01*
X151055699Y-65468580D01*
X151055699Y-65468580D01*
G37*
G36*
X147055699Y-65468580D02*
G01*
X147176067Y-65518438D01*
X147192372Y-65525192D01*
X147315375Y-65607380D01*
X147419980Y-65711985D01*
X147502168Y-65834988D01*
X147558780Y-65971661D01*
X147587640Y-66116753D01*
X147587640Y-66264687D01*
X147558780Y-66409779D01*
X147502168Y-66546452D01*
X147419980Y-66669455D01*
X147315375Y-66774060D01*
X147192372Y-66856248D01*
X147192371Y-66856249D01*
X147192370Y-66856249D01*
X147055699Y-66912860D01*
X146910608Y-66941720D01*
X146762672Y-66941720D01*
X146617581Y-66912860D01*
X146480910Y-66856249D01*
X146480909Y-66856249D01*
X146480908Y-66856248D01*
X146357905Y-66774060D01*
X146253300Y-66669455D01*
X146171112Y-66546452D01*
X146114500Y-66409779D01*
X146085640Y-66264687D01*
X146085640Y-66116753D01*
X146114500Y-65971661D01*
X146171112Y-65834988D01*
X146253300Y-65711985D01*
X146357905Y-65607380D01*
X146480908Y-65525192D01*
X146497214Y-65518438D01*
X146617581Y-65468580D01*
X146762672Y-65439720D01*
X146910608Y-65439720D01*
X147055699Y-65468580D01*
X147055699Y-65468580D01*
G37*
G36*
X149055699Y-65468580D02*
G01*
X149176067Y-65518438D01*
X149192372Y-65525192D01*
X149315375Y-65607380D01*
X149419980Y-65711985D01*
X149502168Y-65834988D01*
X149558780Y-65971661D01*
X149587640Y-66116753D01*
X149587640Y-66264687D01*
X149558780Y-66409779D01*
X149502168Y-66546452D01*
X149419980Y-66669455D01*
X149315375Y-66774060D01*
X149192372Y-66856248D01*
X149192371Y-66856249D01*
X149192370Y-66856249D01*
X149055699Y-66912860D01*
X148910608Y-66941720D01*
X148762672Y-66941720D01*
X148617581Y-66912860D01*
X148480910Y-66856249D01*
X148480909Y-66856249D01*
X148480908Y-66856248D01*
X148357905Y-66774060D01*
X148253300Y-66669455D01*
X148171112Y-66546452D01*
X148114500Y-66409779D01*
X148085640Y-66264687D01*
X148085640Y-66116753D01*
X148114500Y-65971661D01*
X148171112Y-65834988D01*
X148253300Y-65711985D01*
X148357905Y-65607380D01*
X148480908Y-65525192D01*
X148497214Y-65518438D01*
X148617581Y-65468580D01*
X148762672Y-65439720D01*
X148910608Y-65439720D01*
X149055699Y-65468580D01*
X149055699Y-65468580D01*
G37*
G36*
X133055699Y-65468580D02*
G01*
X133176067Y-65518438D01*
X133192372Y-65525192D01*
X133315375Y-65607380D01*
X133419980Y-65711985D01*
X133502168Y-65834988D01*
X133558780Y-65971661D01*
X133587640Y-66116753D01*
X133587640Y-66264687D01*
X133558780Y-66409779D01*
X133502168Y-66546452D01*
X133419980Y-66669455D01*
X133315375Y-66774060D01*
X133192372Y-66856248D01*
X133192371Y-66856249D01*
X133192370Y-66856249D01*
X133055699Y-66912860D01*
X132910608Y-66941720D01*
X132762672Y-66941720D01*
X132617581Y-66912860D01*
X132480910Y-66856249D01*
X132480909Y-66856249D01*
X132480908Y-66856248D01*
X132357905Y-66774060D01*
X132253300Y-66669455D01*
X132171112Y-66546452D01*
X132114500Y-66409779D01*
X132085640Y-66264687D01*
X132085640Y-66116753D01*
X132114500Y-65971661D01*
X132171112Y-65834988D01*
X132253300Y-65711985D01*
X132357905Y-65607380D01*
X132480908Y-65525192D01*
X132497214Y-65518438D01*
X132617581Y-65468580D01*
X132762672Y-65439720D01*
X132910608Y-65439720D01*
X133055699Y-65468580D01*
X133055699Y-65468580D01*
G37*
G36*
X137055699Y-65468580D02*
G01*
X137176067Y-65518438D01*
X137192372Y-65525192D01*
X137315375Y-65607380D01*
X137419980Y-65711985D01*
X137502168Y-65834988D01*
X137558780Y-65971661D01*
X137587640Y-66116753D01*
X137587640Y-66264687D01*
X137558780Y-66409779D01*
X137502168Y-66546452D01*
X137419980Y-66669455D01*
X137315375Y-66774060D01*
X137192372Y-66856248D01*
X137192371Y-66856249D01*
X137192370Y-66856249D01*
X137055699Y-66912860D01*
X136910608Y-66941720D01*
X136762672Y-66941720D01*
X136617581Y-66912860D01*
X136480910Y-66856249D01*
X136480909Y-66856249D01*
X136480908Y-66856248D01*
X136357905Y-66774060D01*
X136253300Y-66669455D01*
X136171112Y-66546452D01*
X136114500Y-66409779D01*
X136085640Y-66264687D01*
X136085640Y-66116753D01*
X136114500Y-65971661D01*
X136171112Y-65834988D01*
X136253300Y-65711985D01*
X136357905Y-65607380D01*
X136480908Y-65525192D01*
X136497214Y-65518438D01*
X136617581Y-65468580D01*
X136762672Y-65439720D01*
X136910608Y-65439720D01*
X137055699Y-65468580D01*
X137055699Y-65468580D01*
G37*
G36*
X135055699Y-65468580D02*
G01*
X135176067Y-65518438D01*
X135192372Y-65525192D01*
X135315375Y-65607380D01*
X135419980Y-65711985D01*
X135502168Y-65834988D01*
X135558780Y-65971661D01*
X135587640Y-66116753D01*
X135587640Y-66264687D01*
X135558780Y-66409779D01*
X135502168Y-66546452D01*
X135419980Y-66669455D01*
X135315375Y-66774060D01*
X135192372Y-66856248D01*
X135192371Y-66856249D01*
X135192370Y-66856249D01*
X135055699Y-66912860D01*
X134910608Y-66941720D01*
X134762672Y-66941720D01*
X134617581Y-66912860D01*
X134480910Y-66856249D01*
X134480909Y-66856249D01*
X134480908Y-66856248D01*
X134357905Y-66774060D01*
X134253300Y-66669455D01*
X134171112Y-66546452D01*
X134114500Y-66409779D01*
X134085640Y-66264687D01*
X134085640Y-66116753D01*
X134114500Y-65971661D01*
X134171112Y-65834988D01*
X134253300Y-65711985D01*
X134357905Y-65607380D01*
X134480908Y-65525192D01*
X134497214Y-65518438D01*
X134617581Y-65468580D01*
X134762672Y-65439720D01*
X134910608Y-65439720D01*
X135055699Y-65468580D01*
X135055699Y-65468580D01*
G37*
G36*
X145055699Y-65468580D02*
G01*
X145176067Y-65518438D01*
X145192372Y-65525192D01*
X145315375Y-65607380D01*
X145419980Y-65711985D01*
X145502168Y-65834988D01*
X145558780Y-65971661D01*
X145587640Y-66116753D01*
X145587640Y-66264687D01*
X145558780Y-66409779D01*
X145502168Y-66546452D01*
X145419980Y-66669455D01*
X145315375Y-66774060D01*
X145192372Y-66856248D01*
X145192371Y-66856249D01*
X145192370Y-66856249D01*
X145055699Y-66912860D01*
X144910608Y-66941720D01*
X144762672Y-66941720D01*
X144617581Y-66912860D01*
X144480910Y-66856249D01*
X144480909Y-66856249D01*
X144480908Y-66856248D01*
X144357905Y-66774060D01*
X144253300Y-66669455D01*
X144171112Y-66546452D01*
X144114500Y-66409779D01*
X144085640Y-66264687D01*
X144085640Y-66116753D01*
X144114500Y-65971661D01*
X144171112Y-65834988D01*
X144253300Y-65711985D01*
X144357905Y-65607380D01*
X144480908Y-65525192D01*
X144497214Y-65518438D01*
X144617581Y-65468580D01*
X144762672Y-65439720D01*
X144910608Y-65439720D01*
X145055699Y-65468580D01*
X145055699Y-65468580D01*
G37*
G36*
X141055699Y-65468580D02*
G01*
X141176067Y-65518438D01*
X141192372Y-65525192D01*
X141315375Y-65607380D01*
X141419980Y-65711985D01*
X141502168Y-65834988D01*
X141558780Y-65971661D01*
X141587640Y-66116753D01*
X141587640Y-66264687D01*
X141558780Y-66409779D01*
X141502168Y-66546452D01*
X141419980Y-66669455D01*
X141315375Y-66774060D01*
X141192372Y-66856248D01*
X141192371Y-66856249D01*
X141192370Y-66856249D01*
X141055699Y-66912860D01*
X140910608Y-66941720D01*
X140762672Y-66941720D01*
X140617581Y-66912860D01*
X140480910Y-66856249D01*
X140480909Y-66856249D01*
X140480908Y-66856248D01*
X140357905Y-66774060D01*
X140253300Y-66669455D01*
X140171112Y-66546452D01*
X140114500Y-66409779D01*
X140085640Y-66264687D01*
X140085640Y-66116753D01*
X140114500Y-65971661D01*
X140171112Y-65834988D01*
X140253300Y-65711985D01*
X140357905Y-65607380D01*
X140480908Y-65525192D01*
X140497214Y-65518438D01*
X140617581Y-65468580D01*
X140762672Y-65439720D01*
X140910608Y-65439720D01*
X141055699Y-65468580D01*
X141055699Y-65468580D01*
G37*
G36*
X143055699Y-65468580D02*
G01*
X143176067Y-65518438D01*
X143192372Y-65525192D01*
X143315375Y-65607380D01*
X143419980Y-65711985D01*
X143502168Y-65834988D01*
X143558780Y-65971661D01*
X143587640Y-66116753D01*
X143587640Y-66264687D01*
X143558780Y-66409779D01*
X143502168Y-66546452D01*
X143419980Y-66669455D01*
X143315375Y-66774060D01*
X143192372Y-66856248D01*
X143192371Y-66856249D01*
X143192370Y-66856249D01*
X143055699Y-66912860D01*
X142910608Y-66941720D01*
X142762672Y-66941720D01*
X142617581Y-66912860D01*
X142480910Y-66856249D01*
X142480909Y-66856249D01*
X142480908Y-66856248D01*
X142357905Y-66774060D01*
X142253300Y-66669455D01*
X142171112Y-66546452D01*
X142114500Y-66409779D01*
X142085640Y-66264687D01*
X142085640Y-66116753D01*
X142114500Y-65971661D01*
X142171112Y-65834988D01*
X142253300Y-65711985D01*
X142357905Y-65607380D01*
X142480908Y-65525192D01*
X142497214Y-65518438D01*
X142617581Y-65468580D01*
X142762672Y-65439720D01*
X142910608Y-65439720D01*
X143055699Y-65468580D01*
X143055699Y-65468580D01*
G37*
G36*
X115297444Y-64403375D02*
G01*
X115334261Y-64414543D01*
X115368183Y-64432675D01*
X115397920Y-64457080D01*
X115422325Y-64486817D01*
X115440457Y-64520739D01*
X115451625Y-64557556D01*
X115456000Y-64601977D01*
X115456000Y-65523023D01*
X115451625Y-65567444D01*
X115440457Y-65604261D01*
X115422325Y-65638183D01*
X115397920Y-65667920D01*
X115368183Y-65692325D01*
X115334261Y-65710457D01*
X115297444Y-65721625D01*
X115253023Y-65726000D01*
X110806977Y-65726000D01*
X110762556Y-65721625D01*
X110725739Y-65710457D01*
X110691817Y-65692325D01*
X110662080Y-65667920D01*
X110637675Y-65638183D01*
X110619543Y-65604261D01*
X110608375Y-65567444D01*
X110604000Y-65523023D01*
X110604000Y-64601977D01*
X110608375Y-64557556D01*
X110619543Y-64520739D01*
X110637675Y-64486817D01*
X110662080Y-64457080D01*
X110691817Y-64432675D01*
X110725739Y-64414543D01*
X110762556Y-64403375D01*
X110806977Y-64399000D01*
X115253023Y-64399000D01*
X115297444Y-64403375D01*
X115297444Y-64403375D01*
G37*
G36*
X122369562Y-63594181D02*
G01*
X122404481Y-63604774D01*
X122436663Y-63621976D01*
X122464873Y-63645127D01*
X122488024Y-63673337D01*
X122505226Y-63705519D01*
X122515819Y-63740438D01*
X122520000Y-63782895D01*
X122520000Y-65249105D01*
X122515819Y-65291562D01*
X122505226Y-65326481D01*
X122488024Y-65358663D01*
X122464873Y-65386873D01*
X122436663Y-65410024D01*
X122404481Y-65427226D01*
X122369562Y-65437819D01*
X122327105Y-65442000D01*
X121185895Y-65442000D01*
X121143438Y-65437819D01*
X121108519Y-65427226D01*
X121076337Y-65410024D01*
X121048127Y-65386873D01*
X121024976Y-65358663D01*
X121007774Y-65326481D01*
X120997181Y-65291562D01*
X120993000Y-65249105D01*
X120993000Y-63782895D01*
X120997181Y-63740438D01*
X121007774Y-63705519D01*
X121024976Y-63673337D01*
X121048127Y-63645127D01*
X121076337Y-63621976D01*
X121108519Y-63604774D01*
X121143438Y-63594181D01*
X121185895Y-63590000D01*
X122327105Y-63590000D01*
X122369562Y-63594181D01*
X122369562Y-63594181D01*
G37*
G36*
X119394562Y-63594181D02*
G01*
X119429481Y-63604774D01*
X119461663Y-63621976D01*
X119489873Y-63645127D01*
X119513024Y-63673337D01*
X119530226Y-63705519D01*
X119540819Y-63740438D01*
X119545000Y-63782895D01*
X119545000Y-65249105D01*
X119540819Y-65291562D01*
X119530226Y-65326481D01*
X119513024Y-65358663D01*
X119489873Y-65386873D01*
X119461663Y-65410024D01*
X119429481Y-65427226D01*
X119394562Y-65437819D01*
X119352105Y-65442000D01*
X118210895Y-65442000D01*
X118168438Y-65437819D01*
X118133519Y-65427226D01*
X118101337Y-65410024D01*
X118073127Y-65386873D01*
X118049976Y-65358663D01*
X118032774Y-65326481D01*
X118022181Y-65291562D01*
X118018000Y-65249105D01*
X118018000Y-63782895D01*
X118022181Y-63740438D01*
X118032774Y-63705519D01*
X118049976Y-63673337D01*
X118073127Y-63645127D01*
X118101337Y-63621976D01*
X118133519Y-63604774D01*
X118168438Y-63594181D01*
X118210895Y-63590000D01*
X119352105Y-63590000D01*
X119394562Y-63594181D01*
X119394562Y-63594181D01*
G37*
G36*
X99581562Y-63793181D02*
G01*
X99616481Y-63803774D01*
X99648663Y-63820976D01*
X99676873Y-63844127D01*
X99700024Y-63872337D01*
X99717226Y-63904519D01*
X99727819Y-63939438D01*
X99732000Y-63981895D01*
X99732000Y-65123105D01*
X99727819Y-65165562D01*
X99717226Y-65200481D01*
X99700024Y-65232663D01*
X99676873Y-65260873D01*
X99648663Y-65284024D01*
X99616481Y-65301226D01*
X99581562Y-65311819D01*
X99539105Y-65316000D01*
X98072895Y-65316000D01*
X98030438Y-65311819D01*
X97995519Y-65301226D01*
X97963337Y-65284024D01*
X97935127Y-65260873D01*
X97911976Y-65232663D01*
X97894774Y-65200481D01*
X97884181Y-65165562D01*
X97880000Y-65123105D01*
X97880000Y-63981895D01*
X97884181Y-63939438D01*
X97894774Y-63904519D01*
X97911976Y-63872337D01*
X97935127Y-63844127D01*
X97963337Y-63820976D01*
X97995519Y-63803774D01*
X98030438Y-63793181D01*
X98072895Y-63789000D01*
X99539105Y-63789000D01*
X99581562Y-63793181D01*
X99581562Y-63793181D01*
G37*
G36*
X95771562Y-63793181D02*
G01*
X95806481Y-63803774D01*
X95838663Y-63820976D01*
X95866873Y-63844127D01*
X95890024Y-63872337D01*
X95907226Y-63904519D01*
X95917819Y-63939438D01*
X95922000Y-63981895D01*
X95922000Y-65123105D01*
X95917819Y-65165562D01*
X95907226Y-65200481D01*
X95890024Y-65232663D01*
X95866873Y-65260873D01*
X95838663Y-65284024D01*
X95806481Y-65301226D01*
X95771562Y-65311819D01*
X95729105Y-65316000D01*
X94262895Y-65316000D01*
X94220438Y-65311819D01*
X94185519Y-65301226D01*
X94153337Y-65284024D01*
X94125127Y-65260873D01*
X94101976Y-65232663D01*
X94084774Y-65200481D01*
X94074181Y-65165562D01*
X94070000Y-65123105D01*
X94070000Y-63981895D01*
X94074181Y-63939438D01*
X94084774Y-63904519D01*
X94101976Y-63872337D01*
X94125127Y-63844127D01*
X94153337Y-63820976D01*
X94185519Y-63803774D01*
X94220438Y-63793181D01*
X94262895Y-63789000D01*
X95729105Y-63789000D01*
X95771562Y-63793181D01*
X95771562Y-63793181D01*
G37*
G36*
X130370562Y-62070181D02*
G01*
X130405481Y-62080774D01*
X130437663Y-62097976D01*
X130465873Y-62121127D01*
X130489024Y-62149337D01*
X130506226Y-62181519D01*
X130516819Y-62216438D01*
X130521000Y-62258895D01*
X130521000Y-63725105D01*
X130516819Y-63767562D01*
X130506226Y-63802481D01*
X130489024Y-63834663D01*
X130465873Y-63862873D01*
X130437663Y-63886024D01*
X130405481Y-63903226D01*
X130370562Y-63913819D01*
X130328105Y-63918000D01*
X129186895Y-63918000D01*
X129144438Y-63913819D01*
X129109519Y-63903226D01*
X129077337Y-63886024D01*
X129049127Y-63862873D01*
X129025976Y-63834663D01*
X129008774Y-63802481D01*
X128998181Y-63767562D01*
X128994000Y-63725105D01*
X128994000Y-62258895D01*
X128998181Y-62216438D01*
X129008774Y-62181519D01*
X129025976Y-62149337D01*
X129049127Y-62121127D01*
X129077337Y-62097976D01*
X129109519Y-62080774D01*
X129144438Y-62070181D01*
X129186895Y-62066000D01*
X130328105Y-62066000D01*
X130370562Y-62070181D01*
X130370562Y-62070181D01*
G37*
G36*
X127395562Y-62070181D02*
G01*
X127430481Y-62080774D01*
X127462663Y-62097976D01*
X127490873Y-62121127D01*
X127514024Y-62149337D01*
X127531226Y-62181519D01*
X127541819Y-62216438D01*
X127546000Y-62258895D01*
X127546000Y-63725105D01*
X127541819Y-63767562D01*
X127531226Y-63802481D01*
X127514024Y-63834663D01*
X127490873Y-63862873D01*
X127462663Y-63886024D01*
X127430481Y-63903226D01*
X127395562Y-63913819D01*
X127353105Y-63918000D01*
X126211895Y-63918000D01*
X126169438Y-63913819D01*
X126134519Y-63903226D01*
X126102337Y-63886024D01*
X126074127Y-63862873D01*
X126050976Y-63834663D01*
X126033774Y-63802481D01*
X126023181Y-63767562D01*
X126019000Y-63725105D01*
X126019000Y-62258895D01*
X126023181Y-62216438D01*
X126033774Y-62181519D01*
X126050976Y-62149337D01*
X126074127Y-62121127D01*
X126102337Y-62097976D01*
X126134519Y-62080774D01*
X126169438Y-62070181D01*
X126211895Y-62066000D01*
X127353105Y-62066000D01*
X127395562Y-62070181D01*
X127395562Y-62070181D01*
G37*
G36*
X115297444Y-61278375D02*
G01*
X115334261Y-61289543D01*
X115368183Y-61307675D01*
X115397920Y-61332080D01*
X115422325Y-61361817D01*
X115440457Y-61395739D01*
X115451625Y-61432556D01*
X115456000Y-61476977D01*
X115456000Y-62398023D01*
X115451625Y-62442444D01*
X115440457Y-62479261D01*
X115422325Y-62513183D01*
X115397920Y-62542920D01*
X115368183Y-62567325D01*
X115334261Y-62585457D01*
X115297444Y-62596625D01*
X115253023Y-62601000D01*
X110806977Y-62601000D01*
X110762556Y-62596625D01*
X110725739Y-62585457D01*
X110691817Y-62567325D01*
X110662080Y-62542920D01*
X110637675Y-62513183D01*
X110619543Y-62479261D01*
X110608375Y-62442444D01*
X110604000Y-62398023D01*
X110604000Y-61476977D01*
X110608375Y-61432556D01*
X110619543Y-61395739D01*
X110637675Y-61361817D01*
X110662080Y-61332080D01*
X110691817Y-61307675D01*
X110725739Y-61289543D01*
X110762556Y-61278375D01*
X110806977Y-61274000D01*
X115253023Y-61274000D01*
X115297444Y-61278375D01*
X115297444Y-61278375D01*
G37*
G36*
X104076000Y-62546000D02*
G01*
X101474000Y-62546000D01*
X101474000Y-60644000D01*
X104076000Y-60644000D01*
X104076000Y-62546000D01*
X104076000Y-62546000D01*
G37*
G36*
X108076000Y-62546000D02*
G01*
X105474000Y-62546000D01*
X105474000Y-60644000D01*
X108076000Y-60644000D01*
X108076000Y-62546000D01*
X108076000Y-62546000D01*
G37*
G36*
X119394562Y-60292181D02*
G01*
X119429481Y-60302774D01*
X119461663Y-60319976D01*
X119489873Y-60343127D01*
X119513024Y-60371337D01*
X119530226Y-60403519D01*
X119540819Y-60438438D01*
X119545000Y-60480895D01*
X119545000Y-61947105D01*
X119540819Y-61989562D01*
X119530226Y-62024481D01*
X119513024Y-62056663D01*
X119489873Y-62084873D01*
X119461663Y-62108024D01*
X119429481Y-62125226D01*
X119394562Y-62135819D01*
X119352105Y-62140000D01*
X118210895Y-62140000D01*
X118168438Y-62135819D01*
X118133519Y-62125226D01*
X118101337Y-62108024D01*
X118073127Y-62084873D01*
X118049976Y-62056663D01*
X118032774Y-62024481D01*
X118022181Y-61989562D01*
X118018000Y-61947105D01*
X118018000Y-60480895D01*
X118022181Y-60438438D01*
X118032774Y-60403519D01*
X118049976Y-60371337D01*
X118073127Y-60343127D01*
X118101337Y-60319976D01*
X118133519Y-60302774D01*
X118168438Y-60292181D01*
X118210895Y-60288000D01*
X119352105Y-60288000D01*
X119394562Y-60292181D01*
X119394562Y-60292181D01*
G37*
G36*
X122369562Y-60292181D02*
G01*
X122404481Y-60302774D01*
X122436663Y-60319976D01*
X122464873Y-60343127D01*
X122488024Y-60371337D01*
X122505226Y-60403519D01*
X122515819Y-60438438D01*
X122520000Y-60480895D01*
X122520000Y-61947105D01*
X122515819Y-61989562D01*
X122505226Y-62024481D01*
X122488024Y-62056663D01*
X122464873Y-62084873D01*
X122436663Y-62108024D01*
X122404481Y-62125226D01*
X122369562Y-62135819D01*
X122327105Y-62140000D01*
X121185895Y-62140000D01*
X121143438Y-62135819D01*
X121108519Y-62125226D01*
X121076337Y-62108024D01*
X121048127Y-62084873D01*
X121024976Y-62056663D01*
X121007774Y-62024481D01*
X120997181Y-61989562D01*
X120993000Y-61947105D01*
X120993000Y-60480895D01*
X120997181Y-60438438D01*
X121007774Y-60403519D01*
X121024976Y-60371337D01*
X121048127Y-60343127D01*
X121076337Y-60319976D01*
X121108519Y-60302774D01*
X121143438Y-60292181D01*
X121185895Y-60288000D01*
X122327105Y-60288000D01*
X122369562Y-60292181D01*
X122369562Y-60292181D01*
G37*
G36*
X98149043Y-57558604D02*
G01*
X98400410Y-57608604D01*
X98682674Y-57725521D01*
X98936705Y-57895259D01*
X99152741Y-58111295D01*
X99322479Y-58365326D01*
X99439396Y-58647590D01*
X99453088Y-58716423D01*
X99489055Y-58897240D01*
X99499000Y-58947240D01*
X99499000Y-59252760D01*
X99439396Y-59552410D01*
X99322479Y-59834674D01*
X99152741Y-60088705D01*
X98936705Y-60304741D01*
X98682674Y-60474479D01*
X98400410Y-60591396D01*
X98352127Y-60601000D01*
X98100761Y-60651000D01*
X97795239Y-60651000D01*
X97543873Y-60601000D01*
X97495590Y-60591396D01*
X97213326Y-60474479D01*
X96959295Y-60304741D01*
X96743259Y-60088705D01*
X96573521Y-59834674D01*
X96456604Y-59552410D01*
X96397000Y-59252760D01*
X96397000Y-58947240D01*
X96406946Y-58897240D01*
X96442912Y-58716423D01*
X96456604Y-58647590D01*
X96573521Y-58365326D01*
X96743259Y-58111295D01*
X96959295Y-57895259D01*
X97213326Y-57725521D01*
X97495590Y-57608604D01*
X97746957Y-57558604D01*
X97795239Y-57549000D01*
X98100761Y-57549000D01*
X98149043Y-57558604D01*
X98149043Y-57558604D01*
G37*
G36*
X86200585Y-57528802D02*
G01*
X86350410Y-57558604D01*
X86632674Y-57675521D01*
X86886705Y-57845259D01*
X87102741Y-58061295D01*
X87272479Y-58315326D01*
X87389396Y-58597590D01*
X87418246Y-58742628D01*
X87449000Y-58897239D01*
X87449000Y-59202761D01*
X87439054Y-59252761D01*
X87389396Y-59502410D01*
X87272479Y-59784674D01*
X87102741Y-60038705D01*
X86886705Y-60254741D01*
X86632674Y-60424479D01*
X86350410Y-60541396D01*
X86277518Y-60555895D01*
X86050761Y-60601000D01*
X85745239Y-60601000D01*
X85518482Y-60555895D01*
X85445590Y-60541396D01*
X85163326Y-60424479D01*
X84909295Y-60254741D01*
X84693259Y-60038705D01*
X84523521Y-59784674D01*
X84406604Y-59502410D01*
X84356946Y-59252761D01*
X84347000Y-59202761D01*
X84347000Y-58897239D01*
X84377754Y-58742628D01*
X84406604Y-58597590D01*
X84523521Y-58315326D01*
X84693259Y-58061295D01*
X84909295Y-57845259D01*
X85163326Y-57675521D01*
X85445590Y-57558604D01*
X85595415Y-57528802D01*
X85745239Y-57499000D01*
X86050761Y-57499000D01*
X86200585Y-57528802D01*
X86200585Y-57528802D01*
G37*
G36*
X132216000Y-58805000D02*
G01*
X131214000Y-58805000D01*
X131214000Y-57903000D01*
X132216000Y-57903000D01*
X132216000Y-58805000D01*
X132216000Y-58805000D01*
G37*
G36*
X141229928Y-56896764D02*
G01*
X141251009Y-56903160D01*
X141270445Y-56913548D01*
X141287476Y-56927524D01*
X141301452Y-56944555D01*
X141311840Y-56963991D01*
X141318236Y-56985072D01*
X141321000Y-57013140D01*
X141321000Y-58626860D01*
X141318236Y-58654928D01*
X141311840Y-58676009D01*
X141301452Y-58695445D01*
X141287476Y-58712476D01*
X141270445Y-58726452D01*
X141251009Y-58736840D01*
X141229928Y-58743236D01*
X141201860Y-58746000D01*
X140738140Y-58746000D01*
X140710072Y-58743236D01*
X140688991Y-58736840D01*
X140669555Y-58726452D01*
X140652524Y-58712476D01*
X140638548Y-58695445D01*
X140628160Y-58676009D01*
X140621764Y-58654928D01*
X140619000Y-58626860D01*
X140619000Y-57013140D01*
X140621764Y-56985072D01*
X140628160Y-56963991D01*
X140638548Y-56944555D01*
X140652524Y-56927524D01*
X140669555Y-56913548D01*
X140688991Y-56903160D01*
X140710072Y-56896764D01*
X140738140Y-56894000D01*
X141201860Y-56894000D01*
X141229928Y-56896764D01*
X141229928Y-56896764D01*
G37*
G36*
X139959928Y-56896764D02*
G01*
X139981009Y-56903160D01*
X140000445Y-56913548D01*
X140017476Y-56927524D01*
X140031452Y-56944555D01*
X140041840Y-56963991D01*
X140048236Y-56985072D01*
X140051000Y-57013140D01*
X140051000Y-58626860D01*
X140048236Y-58654928D01*
X140041840Y-58676009D01*
X140031452Y-58695445D01*
X140017476Y-58712476D01*
X140000445Y-58726452D01*
X139981009Y-58736840D01*
X139959928Y-58743236D01*
X139931860Y-58746000D01*
X139468140Y-58746000D01*
X139440072Y-58743236D01*
X139418991Y-58736840D01*
X139399555Y-58726452D01*
X139382524Y-58712476D01*
X139368548Y-58695445D01*
X139358160Y-58676009D01*
X139351764Y-58654928D01*
X139349000Y-58626860D01*
X139349000Y-57013140D01*
X139351764Y-56985072D01*
X139358160Y-56963991D01*
X139368548Y-56944555D01*
X139382524Y-56927524D01*
X139399555Y-56913548D01*
X139418991Y-56903160D01*
X139440072Y-56896764D01*
X139468140Y-56894000D01*
X139931860Y-56894000D01*
X139959928Y-56896764D01*
X139959928Y-56896764D01*
G37*
G36*
X142499928Y-56896764D02*
G01*
X142521009Y-56903160D01*
X142540445Y-56913548D01*
X142557476Y-56927524D01*
X142571452Y-56944555D01*
X142581840Y-56963991D01*
X142588236Y-56985072D01*
X142591000Y-57013140D01*
X142591000Y-58626860D01*
X142588236Y-58654928D01*
X142581840Y-58676009D01*
X142571452Y-58695445D01*
X142557476Y-58712476D01*
X142540445Y-58726452D01*
X142521009Y-58736840D01*
X142499928Y-58743236D01*
X142471860Y-58746000D01*
X142008140Y-58746000D01*
X141980072Y-58743236D01*
X141958991Y-58736840D01*
X141939555Y-58726452D01*
X141922524Y-58712476D01*
X141908548Y-58695445D01*
X141898160Y-58676009D01*
X141891764Y-58654928D01*
X141889000Y-58626860D01*
X141889000Y-57013140D01*
X141891764Y-56985072D01*
X141898160Y-56963991D01*
X141908548Y-56944555D01*
X141922524Y-56927524D01*
X141939555Y-56913548D01*
X141958991Y-56903160D01*
X141980072Y-56896764D01*
X142008140Y-56894000D01*
X142471860Y-56894000D01*
X142499928Y-56896764D01*
X142499928Y-56896764D01*
G37*
G36*
X138689928Y-56896764D02*
G01*
X138711009Y-56903160D01*
X138730445Y-56913548D01*
X138747476Y-56927524D01*
X138761452Y-56944555D01*
X138771840Y-56963991D01*
X138778236Y-56985072D01*
X138781000Y-57013140D01*
X138781000Y-58626860D01*
X138778236Y-58654928D01*
X138771840Y-58676009D01*
X138761452Y-58695445D01*
X138747476Y-58712476D01*
X138730445Y-58726452D01*
X138711009Y-58736840D01*
X138689928Y-58743236D01*
X138661860Y-58746000D01*
X138198140Y-58746000D01*
X138170072Y-58743236D01*
X138148991Y-58736840D01*
X138129555Y-58726452D01*
X138112524Y-58712476D01*
X138098548Y-58695445D01*
X138088160Y-58676009D01*
X138081764Y-58654928D01*
X138079000Y-58626860D01*
X138079000Y-57013140D01*
X138081764Y-56985072D01*
X138088160Y-56963991D01*
X138098548Y-56944555D01*
X138112524Y-56927524D01*
X138129555Y-56913548D01*
X138148991Y-56903160D01*
X138170072Y-56896764D01*
X138198140Y-56894000D01*
X138661860Y-56894000D01*
X138689928Y-56896764D01*
X138689928Y-56896764D01*
G37*
G36*
X134216000Y-57855000D02*
G01*
X133214000Y-57855000D01*
X133214000Y-56953000D01*
X134216000Y-56953000D01*
X134216000Y-57855000D01*
X134216000Y-57855000D01*
G37*
G36*
X132216000Y-56905000D02*
G01*
X131214000Y-56905000D01*
X131214000Y-56003000D01*
X132216000Y-56003000D01*
X132216000Y-56905000D01*
X132216000Y-56905000D01*
G37*
G36*
X113895000Y-56892000D02*
G01*
X111793000Y-56892000D01*
X111793000Y-55290000D01*
X113895000Y-55290000D01*
X113895000Y-56892000D01*
X113895000Y-56892000D01*
G37*
G36*
X109360562Y-54920681D02*
G01*
X109395481Y-54931274D01*
X109427663Y-54948476D01*
X109455873Y-54971627D01*
X109479024Y-54999837D01*
X109496226Y-55032019D01*
X109506819Y-55066938D01*
X109511000Y-55109395D01*
X109511000Y-56250605D01*
X109506819Y-56293062D01*
X109496226Y-56327981D01*
X109479024Y-56360163D01*
X109455873Y-56388373D01*
X109427663Y-56411524D01*
X109395481Y-56428726D01*
X109360562Y-56439319D01*
X109318105Y-56443500D01*
X107851895Y-56443500D01*
X107809438Y-56439319D01*
X107774519Y-56428726D01*
X107742337Y-56411524D01*
X107714127Y-56388373D01*
X107690976Y-56360163D01*
X107673774Y-56327981D01*
X107663181Y-56293062D01*
X107659000Y-56250605D01*
X107659000Y-55109395D01*
X107663181Y-55066938D01*
X107673774Y-55032019D01*
X107690976Y-54999837D01*
X107714127Y-54971627D01*
X107742337Y-54948476D01*
X107774519Y-54931274D01*
X107809438Y-54920681D01*
X107851895Y-54916500D01*
X109318105Y-54916500D01*
X109360562Y-54920681D01*
X109360562Y-54920681D01*
G37*
G36*
X103010562Y-54920681D02*
G01*
X103045481Y-54931274D01*
X103077663Y-54948476D01*
X103105873Y-54971627D01*
X103129024Y-54999837D01*
X103146226Y-55032019D01*
X103156819Y-55066938D01*
X103161000Y-55109395D01*
X103161000Y-56250605D01*
X103156819Y-56293062D01*
X103146226Y-56327981D01*
X103129024Y-56360163D01*
X103105873Y-56388373D01*
X103077663Y-56411524D01*
X103045481Y-56428726D01*
X103010562Y-56439319D01*
X102968105Y-56443500D01*
X101501895Y-56443500D01*
X101459438Y-56439319D01*
X101424519Y-56428726D01*
X101392337Y-56411524D01*
X101364127Y-56388373D01*
X101340976Y-56360163D01*
X101323774Y-56327981D01*
X101313181Y-56293062D01*
X101309000Y-56250605D01*
X101309000Y-55109395D01*
X101313181Y-55066938D01*
X101323774Y-55032019D01*
X101340976Y-54999837D01*
X101364127Y-54971627D01*
X101392337Y-54948476D01*
X101424519Y-54931274D01*
X101459438Y-54920681D01*
X101501895Y-54916500D01*
X102968105Y-54916500D01*
X103010562Y-54920681D01*
X103010562Y-54920681D01*
G37*
G36*
X106061000Y-56126000D02*
G01*
X104759000Y-56126000D01*
X104759000Y-55124000D01*
X106061000Y-55124000D01*
X106061000Y-56126000D01*
X106061000Y-56126000D01*
G37*
G36*
X120195000Y-55742000D02*
G01*
X118093000Y-55742000D01*
X118093000Y-51840000D01*
X120195000Y-51840000D01*
X120195000Y-55742000D01*
X120195000Y-55742000D01*
G37*
G36*
X150436562Y-53180181D02*
G01*
X150471481Y-53190774D01*
X150503663Y-53207976D01*
X150531873Y-53231127D01*
X150555024Y-53259337D01*
X150572226Y-53291519D01*
X150582819Y-53326438D01*
X150587000Y-53368895D01*
X150587000Y-54835105D01*
X150582819Y-54877562D01*
X150572226Y-54912481D01*
X150555024Y-54944663D01*
X150531873Y-54972873D01*
X150503663Y-54996024D01*
X150471481Y-55013226D01*
X150436562Y-55023819D01*
X150394105Y-55028000D01*
X149252895Y-55028000D01*
X149210438Y-55023819D01*
X149175519Y-55013226D01*
X149143337Y-54996024D01*
X149115127Y-54972873D01*
X149091976Y-54944663D01*
X149074774Y-54912481D01*
X149064181Y-54877562D01*
X149060000Y-54835105D01*
X149060000Y-53368895D01*
X149064181Y-53326438D01*
X149074774Y-53291519D01*
X149091976Y-53259337D01*
X149115127Y-53231127D01*
X149143337Y-53207976D01*
X149175519Y-53190774D01*
X149210438Y-53180181D01*
X149252895Y-53176000D01*
X150394105Y-53176000D01*
X150436562Y-53180181D01*
X150436562Y-53180181D01*
G37*
G36*
X147461562Y-53180181D02*
G01*
X147496481Y-53190774D01*
X147528663Y-53207976D01*
X147556873Y-53231127D01*
X147580024Y-53259337D01*
X147597226Y-53291519D01*
X147607819Y-53326438D01*
X147612000Y-53368895D01*
X147612000Y-54835105D01*
X147607819Y-54877562D01*
X147597226Y-54912481D01*
X147580024Y-54944663D01*
X147556873Y-54972873D01*
X147528663Y-54996024D01*
X147496481Y-55013226D01*
X147461562Y-55023819D01*
X147419105Y-55028000D01*
X146277895Y-55028000D01*
X146235438Y-55023819D01*
X146200519Y-55013226D01*
X146168337Y-54996024D01*
X146140127Y-54972873D01*
X146116976Y-54944663D01*
X146099774Y-54912481D01*
X146089181Y-54877562D01*
X146085000Y-54835105D01*
X146085000Y-53368895D01*
X146089181Y-53326438D01*
X146099774Y-53291519D01*
X146116976Y-53259337D01*
X146140127Y-53231127D01*
X146168337Y-53207976D01*
X146200519Y-53190774D01*
X146235438Y-53180181D01*
X146277895Y-53176000D01*
X147419105Y-53176000D01*
X147461562Y-53180181D01*
X147461562Y-53180181D01*
G37*
G36*
X113895000Y-54592000D02*
G01*
X111793000Y-54592000D01*
X111793000Y-52990000D01*
X113895000Y-52990000D01*
X113895000Y-54592000D01*
X113895000Y-54592000D01*
G37*
G36*
X132216000Y-53725000D02*
G01*
X131214000Y-53725000D01*
X131214000Y-52823000D01*
X132216000Y-52823000D01*
X132216000Y-53725000D01*
X132216000Y-53725000D01*
G37*
G36*
X138689928Y-51746764D02*
G01*
X138711009Y-51753160D01*
X138730445Y-51763548D01*
X138747476Y-51777524D01*
X138761452Y-51794555D01*
X138771840Y-51813991D01*
X138778236Y-51835072D01*
X138781000Y-51863140D01*
X138781000Y-53476860D01*
X138778236Y-53504928D01*
X138771840Y-53526009D01*
X138761452Y-53545445D01*
X138747476Y-53562476D01*
X138730445Y-53576452D01*
X138711009Y-53586840D01*
X138689928Y-53593236D01*
X138661860Y-53596000D01*
X138198140Y-53596000D01*
X138170072Y-53593236D01*
X138148991Y-53586840D01*
X138129555Y-53576452D01*
X138112524Y-53562476D01*
X138098548Y-53545445D01*
X138088160Y-53526009D01*
X138081764Y-53504928D01*
X138079000Y-53476860D01*
X138079000Y-51863140D01*
X138081764Y-51835072D01*
X138088160Y-51813991D01*
X138098548Y-51794555D01*
X138112524Y-51777524D01*
X138129555Y-51763548D01*
X138148991Y-51753160D01*
X138170072Y-51746764D01*
X138198140Y-51744000D01*
X138661860Y-51744000D01*
X138689928Y-51746764D01*
X138689928Y-51746764D01*
G37*
G36*
X141229928Y-51746764D02*
G01*
X141251009Y-51753160D01*
X141270445Y-51763548D01*
X141287476Y-51777524D01*
X141301452Y-51794555D01*
X141311840Y-51813991D01*
X141318236Y-51835072D01*
X141321000Y-51863140D01*
X141321000Y-53476860D01*
X141318236Y-53504928D01*
X141311840Y-53526009D01*
X141301452Y-53545445D01*
X141287476Y-53562476D01*
X141270445Y-53576452D01*
X141251009Y-53586840D01*
X141229928Y-53593236D01*
X141201860Y-53596000D01*
X140738140Y-53596000D01*
X140710072Y-53593236D01*
X140688991Y-53586840D01*
X140669555Y-53576452D01*
X140652524Y-53562476D01*
X140638548Y-53545445D01*
X140628160Y-53526009D01*
X140621764Y-53504928D01*
X140619000Y-53476860D01*
X140619000Y-51863140D01*
X140621764Y-51835072D01*
X140628160Y-51813991D01*
X140638548Y-51794555D01*
X140652524Y-51777524D01*
X140669555Y-51763548D01*
X140688991Y-51753160D01*
X140710072Y-51746764D01*
X140738140Y-51744000D01*
X141201860Y-51744000D01*
X141229928Y-51746764D01*
X141229928Y-51746764D01*
G37*
G36*
X142499928Y-51746764D02*
G01*
X142521009Y-51753160D01*
X142540445Y-51763548D01*
X142557476Y-51777524D01*
X142571452Y-51794555D01*
X142581840Y-51813991D01*
X142588236Y-51835072D01*
X142591000Y-51863140D01*
X142591000Y-53476860D01*
X142588236Y-53504928D01*
X142581840Y-53526009D01*
X142571452Y-53545445D01*
X142557476Y-53562476D01*
X142540445Y-53576452D01*
X142521009Y-53586840D01*
X142499928Y-53593236D01*
X142471860Y-53596000D01*
X142008140Y-53596000D01*
X141980072Y-53593236D01*
X141958991Y-53586840D01*
X141939555Y-53576452D01*
X141922524Y-53562476D01*
X141908548Y-53545445D01*
X141898160Y-53526009D01*
X141891764Y-53504928D01*
X141889000Y-53476860D01*
X141889000Y-51863140D01*
X141891764Y-51835072D01*
X141898160Y-51813991D01*
X141908548Y-51794555D01*
X141922524Y-51777524D01*
X141939555Y-51763548D01*
X141958991Y-51753160D01*
X141980072Y-51746764D01*
X142008140Y-51744000D01*
X142471860Y-51744000D01*
X142499928Y-51746764D01*
X142499928Y-51746764D01*
G37*
G36*
X139959928Y-51746764D02*
G01*
X139981009Y-51753160D01*
X140000445Y-51763548D01*
X140017476Y-51777524D01*
X140031452Y-51794555D01*
X140041840Y-51813991D01*
X140048236Y-51835072D01*
X140051000Y-51863140D01*
X140051000Y-53476860D01*
X140048236Y-53504928D01*
X140041840Y-53526009D01*
X140031452Y-53545445D01*
X140017476Y-53562476D01*
X140000445Y-53576452D01*
X139981009Y-53586840D01*
X139959928Y-53593236D01*
X139931860Y-53596000D01*
X139468140Y-53596000D01*
X139440072Y-53593236D01*
X139418991Y-53586840D01*
X139399555Y-53576452D01*
X139382524Y-53562476D01*
X139368548Y-53545445D01*
X139358160Y-53526009D01*
X139351764Y-53504928D01*
X139349000Y-53476860D01*
X139349000Y-51863140D01*
X139351764Y-51835072D01*
X139358160Y-51813991D01*
X139368548Y-51794555D01*
X139382524Y-51777524D01*
X139399555Y-51763548D01*
X139418991Y-51753160D01*
X139440072Y-51746764D01*
X139468140Y-51744000D01*
X139931860Y-51744000D01*
X139959928Y-51746764D01*
X139959928Y-51746764D01*
G37*
G36*
X109360562Y-51945681D02*
G01*
X109395481Y-51956274D01*
X109427663Y-51973476D01*
X109455873Y-51996627D01*
X109479024Y-52024837D01*
X109496226Y-52057019D01*
X109506819Y-52091938D01*
X109511000Y-52134395D01*
X109511000Y-53275605D01*
X109506819Y-53318062D01*
X109496226Y-53352981D01*
X109479024Y-53385163D01*
X109455873Y-53413373D01*
X109427663Y-53436524D01*
X109395481Y-53453726D01*
X109360562Y-53464319D01*
X109318105Y-53468500D01*
X107851895Y-53468500D01*
X107809438Y-53464319D01*
X107774519Y-53453726D01*
X107742337Y-53436524D01*
X107714127Y-53413373D01*
X107690976Y-53385163D01*
X107673774Y-53352981D01*
X107663181Y-53318062D01*
X107659000Y-53275605D01*
X107659000Y-52134395D01*
X107663181Y-52091938D01*
X107673774Y-52057019D01*
X107690976Y-52024837D01*
X107714127Y-51996627D01*
X107742337Y-51973476D01*
X107774519Y-51956274D01*
X107809438Y-51945681D01*
X107851895Y-51941500D01*
X109318105Y-51941500D01*
X109360562Y-51945681D01*
X109360562Y-51945681D01*
G37*
G36*
X103010562Y-51945681D02*
G01*
X103045481Y-51956274D01*
X103077663Y-51973476D01*
X103105873Y-51996627D01*
X103129024Y-52024837D01*
X103146226Y-52057019D01*
X103156819Y-52091938D01*
X103161000Y-52134395D01*
X103161000Y-53275605D01*
X103156819Y-53318062D01*
X103146226Y-53352981D01*
X103129024Y-53385163D01*
X103105873Y-53413373D01*
X103077663Y-53436524D01*
X103045481Y-53453726D01*
X103010562Y-53464319D01*
X102968105Y-53468500D01*
X101501895Y-53468500D01*
X101459438Y-53464319D01*
X101424519Y-53453726D01*
X101392337Y-53436524D01*
X101364127Y-53413373D01*
X101340976Y-53385163D01*
X101323774Y-53352981D01*
X101313181Y-53318062D01*
X101309000Y-53275605D01*
X101309000Y-52134395D01*
X101313181Y-52091938D01*
X101323774Y-52057019D01*
X101340976Y-52024837D01*
X101364127Y-51996627D01*
X101392337Y-51973476D01*
X101424519Y-51956274D01*
X101459438Y-51945681D01*
X101501895Y-51941500D01*
X102968105Y-51941500D01*
X103010562Y-51945681D01*
X103010562Y-51945681D01*
G37*
G36*
X106061000Y-52826000D02*
G01*
X104759000Y-52826000D01*
X104759000Y-51824000D01*
X106061000Y-51824000D01*
X106061000Y-52826000D01*
X106061000Y-52826000D01*
G37*
G36*
X134216000Y-52775000D02*
G01*
X133214000Y-52775000D01*
X133214000Y-51873000D01*
X134216000Y-51873000D01*
X134216000Y-52775000D01*
X134216000Y-52775000D01*
G37*
G36*
X113895000Y-52292000D02*
G01*
X111793000Y-52292000D01*
X111793000Y-50690000D01*
X113895000Y-50690000D01*
X113895000Y-52292000D01*
X113895000Y-52292000D01*
G37*
G36*
X132216000Y-51825000D02*
G01*
X131214000Y-51825000D01*
X131214000Y-50923000D01*
X132216000Y-50923000D01*
X132216000Y-51825000D01*
X132216000Y-51825000D01*
G37*
G36*
X103736000Y-49661000D02*
G01*
X102734000Y-49661000D01*
X102734000Y-48759000D01*
X103736000Y-48759000D01*
X103736000Y-49661000D01*
X103736000Y-49661000D01*
G37*
G36*
X139460562Y-47338181D02*
G01*
X139495481Y-47348774D01*
X139527663Y-47365976D01*
X139555873Y-47389127D01*
X139579024Y-47417337D01*
X139596226Y-47449519D01*
X139606819Y-47484438D01*
X139611000Y-47526895D01*
X139611000Y-48993105D01*
X139606819Y-49035562D01*
X139596226Y-49070481D01*
X139579024Y-49102663D01*
X139555873Y-49130873D01*
X139527663Y-49154024D01*
X139495481Y-49171226D01*
X139460562Y-49181819D01*
X139418105Y-49186000D01*
X138276895Y-49186000D01*
X138234438Y-49181819D01*
X138199519Y-49171226D01*
X138167337Y-49154024D01*
X138139127Y-49130873D01*
X138115976Y-49102663D01*
X138098774Y-49070481D01*
X138088181Y-49035562D01*
X138084000Y-48993105D01*
X138084000Y-47526895D01*
X138088181Y-47484438D01*
X138098774Y-47449519D01*
X138115976Y-47417337D01*
X138139127Y-47389127D01*
X138167337Y-47365976D01*
X138199519Y-47348774D01*
X138234438Y-47338181D01*
X138276895Y-47334000D01*
X139418105Y-47334000D01*
X139460562Y-47338181D01*
X139460562Y-47338181D01*
G37*
G36*
X142435562Y-47338181D02*
G01*
X142470481Y-47348774D01*
X142502663Y-47365976D01*
X142530873Y-47389127D01*
X142554024Y-47417337D01*
X142571226Y-47449519D01*
X142581819Y-47484438D01*
X142586000Y-47526895D01*
X142586000Y-48993105D01*
X142581819Y-49035562D01*
X142571226Y-49070481D01*
X142554024Y-49102663D01*
X142530873Y-49130873D01*
X142502663Y-49154024D01*
X142470481Y-49171226D01*
X142435562Y-49181819D01*
X142393105Y-49186000D01*
X141251895Y-49186000D01*
X141209438Y-49181819D01*
X141174519Y-49171226D01*
X141142337Y-49154024D01*
X141114127Y-49130873D01*
X141090976Y-49102663D01*
X141073774Y-49070481D01*
X141063181Y-49035562D01*
X141059000Y-48993105D01*
X141059000Y-47526895D01*
X141063181Y-47484438D01*
X141073774Y-47449519D01*
X141090976Y-47417337D01*
X141114127Y-47389127D01*
X141142337Y-47365976D01*
X141174519Y-47348774D01*
X141209438Y-47338181D01*
X141251895Y-47334000D01*
X142393105Y-47334000D01*
X142435562Y-47338181D01*
X142435562Y-47338181D01*
G37*
G36*
X109466000Y-48911000D02*
G01*
X108464000Y-48911000D01*
X108464000Y-47609000D01*
X109466000Y-47609000D01*
X109466000Y-48911000D01*
X109466000Y-48911000D01*
G37*
G36*
X106166000Y-48911000D02*
G01*
X105164000Y-48911000D01*
X105164000Y-47609000D01*
X106166000Y-47609000D01*
X106166000Y-48911000D01*
X106166000Y-48911000D01*
G37*
G36*
X101736000Y-48711000D02*
G01*
X100734000Y-48711000D01*
X100734000Y-47809000D01*
X101736000Y-47809000D01*
X101736000Y-48711000D01*
X101736000Y-48711000D01*
G37*
G36*
X130370562Y-46576181D02*
G01*
X130405481Y-46586774D01*
X130437663Y-46603976D01*
X130465873Y-46627127D01*
X130489024Y-46655337D01*
X130506226Y-46687519D01*
X130516819Y-46722438D01*
X130521000Y-46764895D01*
X130521000Y-48231105D01*
X130516819Y-48273562D01*
X130506226Y-48308481D01*
X130489024Y-48340663D01*
X130465873Y-48368873D01*
X130437663Y-48392024D01*
X130405481Y-48409226D01*
X130370562Y-48419819D01*
X130328105Y-48424000D01*
X129186895Y-48424000D01*
X129144438Y-48419819D01*
X129109519Y-48409226D01*
X129077337Y-48392024D01*
X129049127Y-48368873D01*
X129025976Y-48340663D01*
X129008774Y-48308481D01*
X128998181Y-48273562D01*
X128994000Y-48231105D01*
X128994000Y-46764895D01*
X128998181Y-46722438D01*
X129008774Y-46687519D01*
X129025976Y-46655337D01*
X129049127Y-46627127D01*
X129077337Y-46603976D01*
X129109519Y-46586774D01*
X129144438Y-46576181D01*
X129186895Y-46572000D01*
X130328105Y-46572000D01*
X130370562Y-46576181D01*
X130370562Y-46576181D01*
G37*
G36*
X127395562Y-46576181D02*
G01*
X127430481Y-46586774D01*
X127462663Y-46603976D01*
X127490873Y-46627127D01*
X127514024Y-46655337D01*
X127531226Y-46687519D01*
X127541819Y-46722438D01*
X127546000Y-46764895D01*
X127546000Y-48231105D01*
X127541819Y-48273562D01*
X127531226Y-48308481D01*
X127514024Y-48340663D01*
X127490873Y-48368873D01*
X127462663Y-48392024D01*
X127430481Y-48409226D01*
X127395562Y-48419819D01*
X127353105Y-48424000D01*
X126211895Y-48424000D01*
X126169438Y-48419819D01*
X126134519Y-48409226D01*
X126102337Y-48392024D01*
X126074127Y-48368873D01*
X126050976Y-48340663D01*
X126033774Y-48308481D01*
X126023181Y-48273562D01*
X126019000Y-48231105D01*
X126019000Y-46764895D01*
X126023181Y-46722438D01*
X126033774Y-46687519D01*
X126050976Y-46655337D01*
X126074127Y-46627127D01*
X126102337Y-46603976D01*
X126134519Y-46586774D01*
X126169438Y-46576181D01*
X126211895Y-46572000D01*
X127353105Y-46572000D01*
X127395562Y-46576181D01*
X127395562Y-46576181D01*
G37*
G36*
X86277487Y-45598996D02*
G01*
X86514253Y-45697068D01*
X86514255Y-45697069D01*
X86727339Y-45839447D01*
X86908553Y-46020661D01*
X87050932Y-46233747D01*
X87149004Y-46470513D01*
X87199000Y-46721861D01*
X87199000Y-46978139D01*
X87149004Y-47229487D01*
X87057863Y-47449519D01*
X87050931Y-47466255D01*
X86908553Y-47679339D01*
X86727339Y-47860553D01*
X86514255Y-48002931D01*
X86514254Y-48002932D01*
X86514253Y-48002932D01*
X86277487Y-48101004D01*
X86026139Y-48151000D01*
X85769861Y-48151000D01*
X85518513Y-48101004D01*
X85281747Y-48002932D01*
X85281746Y-48002932D01*
X85281745Y-48002931D01*
X85068661Y-47860553D01*
X84887447Y-47679339D01*
X84745069Y-47466255D01*
X84738137Y-47449519D01*
X84646996Y-47229487D01*
X84597000Y-46978139D01*
X84597000Y-46721861D01*
X84646996Y-46470513D01*
X84745068Y-46233747D01*
X84887447Y-46020661D01*
X85068661Y-45839447D01*
X85281745Y-45697069D01*
X85281747Y-45697068D01*
X85518513Y-45598996D01*
X85769861Y-45549000D01*
X86026139Y-45549000D01*
X86277487Y-45598996D01*
X86277487Y-45598996D01*
G37*
G36*
X98277487Y-45598996D02*
G01*
X98514253Y-45697068D01*
X98514255Y-45697069D01*
X98727339Y-45839447D01*
X98908553Y-46020661D01*
X99050932Y-46233747D01*
X99149004Y-46470513D01*
X99199000Y-46721861D01*
X99199000Y-46978139D01*
X99149004Y-47229487D01*
X99057863Y-47449519D01*
X99050931Y-47466255D01*
X98908553Y-47679339D01*
X98727339Y-47860553D01*
X98514255Y-48002931D01*
X98514254Y-48002932D01*
X98514253Y-48002932D01*
X98277487Y-48101004D01*
X98026139Y-48151000D01*
X97769861Y-48151000D01*
X97518513Y-48101004D01*
X97281747Y-48002932D01*
X97281746Y-48002932D01*
X97281745Y-48002931D01*
X97068661Y-47860553D01*
X96887447Y-47679339D01*
X96745069Y-47466255D01*
X96738137Y-47449519D01*
X96646996Y-47229487D01*
X96597000Y-46978139D01*
X96597000Y-46721861D01*
X96646996Y-46470513D01*
X96745068Y-46233747D01*
X96887447Y-46020661D01*
X97068661Y-45839447D01*
X97281745Y-45697069D01*
X97281747Y-45697068D01*
X97518513Y-45598996D01*
X97769861Y-45549000D01*
X98026139Y-45549000D01*
X98277487Y-45598996D01*
X98277487Y-45598996D01*
G37*
G36*
X103736000Y-47761000D02*
G01*
X102734000Y-47761000D01*
X102734000Y-46859000D01*
X103736000Y-46859000D01*
X103736000Y-47761000D01*
X103736000Y-47761000D01*
G37*
G36*
X116621000Y-46621000D02*
G01*
X114519000Y-46621000D01*
X114519000Y-44819000D01*
X116621000Y-44819000D01*
X116621000Y-46621000D01*
X116621000Y-46621000D01*
G37*
G36*
X113290442Y-44825518D02*
G01*
X113356627Y-44832037D01*
X113526466Y-44883557D01*
X113682991Y-44967222D01*
X113718729Y-44996552D01*
X113820186Y-45079814D01*
X113903448Y-45181271D01*
X113932778Y-45217009D01*
X114016443Y-45373534D01*
X114067963Y-45543373D01*
X114085359Y-45720000D01*
X114067963Y-45896627D01*
X114016443Y-46066466D01*
X113932778Y-46222991D01*
X113903448Y-46258729D01*
X113820186Y-46360186D01*
X113718729Y-46443448D01*
X113682991Y-46472778D01*
X113526466Y-46556443D01*
X113356627Y-46607963D01*
X113290443Y-46614481D01*
X113224260Y-46621000D01*
X112835740Y-46621000D01*
X112769558Y-46614482D01*
X112703373Y-46607963D01*
X112533534Y-46556443D01*
X112377009Y-46472778D01*
X112341271Y-46443448D01*
X112239814Y-46360186D01*
X112156552Y-46258729D01*
X112127222Y-46222991D01*
X112043557Y-46066466D01*
X111992037Y-45896627D01*
X111974641Y-45720000D01*
X111992037Y-45543373D01*
X112043557Y-45373534D01*
X112127222Y-45217009D01*
X112156552Y-45181271D01*
X112239814Y-45079814D01*
X112341271Y-44996552D01*
X112377009Y-44967222D01*
X112533534Y-44883557D01*
X112703373Y-44832037D01*
X112769558Y-44825518D01*
X112835740Y-44819000D01*
X113224260Y-44819000D01*
X113290442Y-44825518D01*
X113290442Y-44825518D01*
G37*
G36*
X92250585Y-43378802D02*
G01*
X92400410Y-43408604D01*
X92682674Y-43525521D01*
X92936705Y-43695259D01*
X93152741Y-43911295D01*
X93322479Y-44165326D01*
X93423734Y-44409779D01*
X93439396Y-44447591D01*
X93499000Y-44747239D01*
X93499000Y-45052761D01*
X93487991Y-45108105D01*
X93439396Y-45352410D01*
X93322479Y-45634674D01*
X93152741Y-45888705D01*
X92936705Y-46104741D01*
X92682674Y-46274479D01*
X92400410Y-46391396D01*
X92250585Y-46421198D01*
X92100761Y-46451000D01*
X91795239Y-46451000D01*
X91645415Y-46421198D01*
X91495590Y-46391396D01*
X91213326Y-46274479D01*
X90959295Y-46104741D01*
X90743259Y-45888705D01*
X90573521Y-45634674D01*
X90456604Y-45352410D01*
X90408009Y-45108105D01*
X90397000Y-45052761D01*
X90397000Y-44747239D01*
X90456604Y-44447591D01*
X90472266Y-44409779D01*
X90573521Y-44165326D01*
X90743259Y-43911295D01*
X90959295Y-43695259D01*
X91213326Y-43525521D01*
X91495590Y-43408604D01*
X91645415Y-43378802D01*
X91795239Y-43349000D01*
X92100761Y-43349000D01*
X92250585Y-43378802D01*
X92250585Y-43378802D01*
G37*
G36*
X127395562Y-43528181D02*
G01*
X127430481Y-43538774D01*
X127462663Y-43555976D01*
X127490873Y-43579127D01*
X127514024Y-43607337D01*
X127531226Y-43639519D01*
X127541819Y-43674438D01*
X127546000Y-43716895D01*
X127546000Y-45183105D01*
X127541819Y-45225562D01*
X127531226Y-45260481D01*
X127514024Y-45292663D01*
X127490873Y-45320873D01*
X127462663Y-45344024D01*
X127430481Y-45361226D01*
X127395562Y-45371819D01*
X127353105Y-45376000D01*
X126211895Y-45376000D01*
X126169438Y-45371819D01*
X126134519Y-45361226D01*
X126102337Y-45344024D01*
X126074127Y-45320873D01*
X126050976Y-45292663D01*
X126033774Y-45260481D01*
X126023181Y-45225562D01*
X126019000Y-45183105D01*
X126019000Y-43716895D01*
X126023181Y-43674438D01*
X126033774Y-43639519D01*
X126050976Y-43607337D01*
X126074127Y-43579127D01*
X126102337Y-43555976D01*
X126134519Y-43538774D01*
X126169438Y-43528181D01*
X126211895Y-43524000D01*
X127353105Y-43524000D01*
X127395562Y-43528181D01*
X127395562Y-43528181D01*
G37*
G36*
X130370562Y-43528181D02*
G01*
X130405481Y-43538774D01*
X130437663Y-43555976D01*
X130465873Y-43579127D01*
X130489024Y-43607337D01*
X130506226Y-43639519D01*
X130516819Y-43674438D01*
X130521000Y-43716895D01*
X130521000Y-45183105D01*
X130516819Y-45225562D01*
X130506226Y-45260481D01*
X130489024Y-45292663D01*
X130465873Y-45320873D01*
X130437663Y-45344024D01*
X130405481Y-45361226D01*
X130370562Y-45371819D01*
X130328105Y-45376000D01*
X129186895Y-45376000D01*
X129144438Y-45371819D01*
X129109519Y-45361226D01*
X129077337Y-45344024D01*
X129049127Y-45320873D01*
X129025976Y-45292663D01*
X129008774Y-45260481D01*
X128998181Y-45225562D01*
X128994000Y-45183105D01*
X128994000Y-43716895D01*
X128998181Y-43674438D01*
X129008774Y-43639519D01*
X129025976Y-43607337D01*
X129049127Y-43579127D01*
X129077337Y-43555976D01*
X129109519Y-43538774D01*
X129144438Y-43528181D01*
X129186895Y-43524000D01*
X130328105Y-43524000D01*
X130370562Y-43528181D01*
X130370562Y-43528181D01*
G37*
G36*
X151587640Y-44941720D02*
G01*
X150085640Y-44941720D01*
X150085640Y-43439720D01*
X151587640Y-43439720D01*
X151587640Y-44941720D01*
X151587640Y-44941720D01*
G37*
G36*
X147055699Y-43468580D02*
G01*
X147189495Y-43524000D01*
X147192372Y-43525192D01*
X147315375Y-43607380D01*
X147419980Y-43711985D01*
X147502168Y-43834988D01*
X147558780Y-43971661D01*
X147587640Y-44116753D01*
X147587640Y-44264687D01*
X147558780Y-44409779D01*
X147502168Y-44546452D01*
X147419980Y-44669455D01*
X147315375Y-44774060D01*
X147192372Y-44856248D01*
X147192371Y-44856249D01*
X147192370Y-44856249D01*
X147055699Y-44912860D01*
X146910608Y-44941720D01*
X146762672Y-44941720D01*
X146617581Y-44912860D01*
X146480910Y-44856249D01*
X146480909Y-44856249D01*
X146480908Y-44856248D01*
X146357905Y-44774060D01*
X146253300Y-44669455D01*
X146171112Y-44546452D01*
X146114500Y-44409779D01*
X146085640Y-44264687D01*
X146085640Y-44116753D01*
X146114500Y-43971661D01*
X146171112Y-43834988D01*
X146253300Y-43711985D01*
X146357905Y-43607380D01*
X146480908Y-43525192D01*
X146483786Y-43524000D01*
X146617581Y-43468580D01*
X146762672Y-43439720D01*
X146910608Y-43439720D01*
X147055699Y-43468580D01*
X147055699Y-43468580D01*
G37*
G36*
X149055699Y-43468580D02*
G01*
X149189495Y-43524000D01*
X149192372Y-43525192D01*
X149315375Y-43607380D01*
X149419980Y-43711985D01*
X149502168Y-43834988D01*
X149558780Y-43971661D01*
X149587640Y-44116753D01*
X149587640Y-44264687D01*
X149558780Y-44409779D01*
X149502168Y-44546452D01*
X149419980Y-44669455D01*
X149315375Y-44774060D01*
X149192372Y-44856248D01*
X149192371Y-44856249D01*
X149192370Y-44856249D01*
X149055699Y-44912860D01*
X148910608Y-44941720D01*
X148762672Y-44941720D01*
X148617581Y-44912860D01*
X148480910Y-44856249D01*
X148480909Y-44856249D01*
X148480908Y-44856248D01*
X148357905Y-44774060D01*
X148253300Y-44669455D01*
X148171112Y-44546452D01*
X148114500Y-44409779D01*
X148085640Y-44264687D01*
X148085640Y-44116753D01*
X148114500Y-43971661D01*
X148171112Y-43834988D01*
X148253300Y-43711985D01*
X148357905Y-43607380D01*
X148480908Y-43525192D01*
X148483786Y-43524000D01*
X148617581Y-43468580D01*
X148762672Y-43439720D01*
X148910608Y-43439720D01*
X149055699Y-43468580D01*
X149055699Y-43468580D01*
G37*
G36*
X145055699Y-43468580D02*
G01*
X145189495Y-43524000D01*
X145192372Y-43525192D01*
X145315375Y-43607380D01*
X145419980Y-43711985D01*
X145502168Y-43834988D01*
X145558780Y-43971661D01*
X145587640Y-44116753D01*
X145587640Y-44264687D01*
X145558780Y-44409779D01*
X145502168Y-44546452D01*
X145419980Y-44669455D01*
X145315375Y-44774060D01*
X145192372Y-44856248D01*
X145192371Y-44856249D01*
X145192370Y-44856249D01*
X145055699Y-44912860D01*
X144910608Y-44941720D01*
X144762672Y-44941720D01*
X144617581Y-44912860D01*
X144480910Y-44856249D01*
X144480909Y-44856249D01*
X144480908Y-44856248D01*
X144357905Y-44774060D01*
X144253300Y-44669455D01*
X144171112Y-44546452D01*
X144114500Y-44409779D01*
X144085640Y-44264687D01*
X144085640Y-44116753D01*
X144114500Y-43971661D01*
X144171112Y-43834988D01*
X144253300Y-43711985D01*
X144357905Y-43607380D01*
X144480908Y-43525192D01*
X144483786Y-43524000D01*
X144617581Y-43468580D01*
X144762672Y-43439720D01*
X144910608Y-43439720D01*
X145055699Y-43468580D01*
X145055699Y-43468580D01*
G37*
G36*
X143055699Y-43468580D02*
G01*
X143189495Y-43524000D01*
X143192372Y-43525192D01*
X143315375Y-43607380D01*
X143419980Y-43711985D01*
X143502168Y-43834988D01*
X143558780Y-43971661D01*
X143587640Y-44116753D01*
X143587640Y-44264687D01*
X143558780Y-44409779D01*
X143502168Y-44546452D01*
X143419980Y-44669455D01*
X143315375Y-44774060D01*
X143192372Y-44856248D01*
X143192371Y-44856249D01*
X143192370Y-44856249D01*
X143055699Y-44912860D01*
X142910608Y-44941720D01*
X142762672Y-44941720D01*
X142617581Y-44912860D01*
X142480910Y-44856249D01*
X142480909Y-44856249D01*
X142480908Y-44856248D01*
X142357905Y-44774060D01*
X142253300Y-44669455D01*
X142171112Y-44546452D01*
X142114500Y-44409779D01*
X142085640Y-44264687D01*
X142085640Y-44116753D01*
X142114500Y-43971661D01*
X142171112Y-43834988D01*
X142253300Y-43711985D01*
X142357905Y-43607380D01*
X142480908Y-43525192D01*
X142483786Y-43524000D01*
X142617581Y-43468580D01*
X142762672Y-43439720D01*
X142910608Y-43439720D01*
X143055699Y-43468580D01*
X143055699Y-43468580D01*
G37*
G36*
X133055699Y-43468580D02*
G01*
X133189495Y-43524000D01*
X133192372Y-43525192D01*
X133315375Y-43607380D01*
X133419980Y-43711985D01*
X133502168Y-43834988D01*
X133558780Y-43971661D01*
X133587640Y-44116753D01*
X133587640Y-44264687D01*
X133558780Y-44409779D01*
X133502168Y-44546452D01*
X133419980Y-44669455D01*
X133315375Y-44774060D01*
X133192372Y-44856248D01*
X133192371Y-44856249D01*
X133192370Y-44856249D01*
X133055699Y-44912860D01*
X132910608Y-44941720D01*
X132762672Y-44941720D01*
X132617581Y-44912860D01*
X132480910Y-44856249D01*
X132480909Y-44856249D01*
X132480908Y-44856248D01*
X132357905Y-44774060D01*
X132253300Y-44669455D01*
X132171112Y-44546452D01*
X132114500Y-44409779D01*
X132085640Y-44264687D01*
X132085640Y-44116753D01*
X132114500Y-43971661D01*
X132171112Y-43834988D01*
X132253300Y-43711985D01*
X132357905Y-43607380D01*
X132480908Y-43525192D01*
X132483786Y-43524000D01*
X132617581Y-43468580D01*
X132762672Y-43439720D01*
X132910608Y-43439720D01*
X133055699Y-43468580D01*
X133055699Y-43468580D01*
G37*
G36*
X135055699Y-43468580D02*
G01*
X135189495Y-43524000D01*
X135192372Y-43525192D01*
X135315375Y-43607380D01*
X135419980Y-43711985D01*
X135502168Y-43834988D01*
X135558780Y-43971661D01*
X135587640Y-44116753D01*
X135587640Y-44264687D01*
X135558780Y-44409779D01*
X135502168Y-44546452D01*
X135419980Y-44669455D01*
X135315375Y-44774060D01*
X135192372Y-44856248D01*
X135192371Y-44856249D01*
X135192370Y-44856249D01*
X135055699Y-44912860D01*
X134910608Y-44941720D01*
X134762672Y-44941720D01*
X134617581Y-44912860D01*
X134480910Y-44856249D01*
X134480909Y-44856249D01*
X134480908Y-44856248D01*
X134357905Y-44774060D01*
X134253300Y-44669455D01*
X134171112Y-44546452D01*
X134114500Y-44409779D01*
X134085640Y-44264687D01*
X134085640Y-44116753D01*
X134114500Y-43971661D01*
X134171112Y-43834988D01*
X134253300Y-43711985D01*
X134357905Y-43607380D01*
X134480908Y-43525192D01*
X134483786Y-43524000D01*
X134617581Y-43468580D01*
X134762672Y-43439720D01*
X134910608Y-43439720D01*
X135055699Y-43468580D01*
X135055699Y-43468580D01*
G37*
G36*
X139055699Y-43468580D02*
G01*
X139189495Y-43524000D01*
X139192372Y-43525192D01*
X139315375Y-43607380D01*
X139419980Y-43711985D01*
X139502168Y-43834988D01*
X139558780Y-43971661D01*
X139587640Y-44116753D01*
X139587640Y-44264687D01*
X139558780Y-44409779D01*
X139502168Y-44546452D01*
X139419980Y-44669455D01*
X139315375Y-44774060D01*
X139192372Y-44856248D01*
X139192371Y-44856249D01*
X139192370Y-44856249D01*
X139055699Y-44912860D01*
X138910608Y-44941720D01*
X138762672Y-44941720D01*
X138617581Y-44912860D01*
X138480910Y-44856249D01*
X138480909Y-44856249D01*
X138480908Y-44856248D01*
X138357905Y-44774060D01*
X138253300Y-44669455D01*
X138171112Y-44546452D01*
X138114500Y-44409779D01*
X138085640Y-44264687D01*
X138085640Y-44116753D01*
X138114500Y-43971661D01*
X138171112Y-43834988D01*
X138253300Y-43711985D01*
X138357905Y-43607380D01*
X138480908Y-43525192D01*
X138483786Y-43524000D01*
X138617581Y-43468580D01*
X138762672Y-43439720D01*
X138910608Y-43439720D01*
X139055699Y-43468580D01*
X139055699Y-43468580D01*
G37*
G36*
X137055699Y-43468580D02*
G01*
X137189495Y-43524000D01*
X137192372Y-43525192D01*
X137315375Y-43607380D01*
X137419980Y-43711985D01*
X137502168Y-43834988D01*
X137558780Y-43971661D01*
X137587640Y-44116753D01*
X137587640Y-44264687D01*
X137558780Y-44409779D01*
X137502168Y-44546452D01*
X137419980Y-44669455D01*
X137315375Y-44774060D01*
X137192372Y-44856248D01*
X137192371Y-44856249D01*
X137192370Y-44856249D01*
X137055699Y-44912860D01*
X136910608Y-44941720D01*
X136762672Y-44941720D01*
X136617581Y-44912860D01*
X136480910Y-44856249D01*
X136480909Y-44856249D01*
X136480908Y-44856248D01*
X136357905Y-44774060D01*
X136253300Y-44669455D01*
X136171112Y-44546452D01*
X136114500Y-44409779D01*
X136085640Y-44264687D01*
X136085640Y-44116753D01*
X136114500Y-43971661D01*
X136171112Y-43834988D01*
X136253300Y-43711985D01*
X136357905Y-43607380D01*
X136480908Y-43525192D01*
X136483786Y-43524000D01*
X136617581Y-43468580D01*
X136762672Y-43439720D01*
X136910608Y-43439720D01*
X137055699Y-43468580D01*
X137055699Y-43468580D01*
G37*
G36*
X141055699Y-43468580D02*
G01*
X141189495Y-43524000D01*
X141192372Y-43525192D01*
X141315375Y-43607380D01*
X141419980Y-43711985D01*
X141502168Y-43834988D01*
X141558780Y-43971661D01*
X141587640Y-44116753D01*
X141587640Y-44264687D01*
X141558780Y-44409779D01*
X141502168Y-44546452D01*
X141419980Y-44669455D01*
X141315375Y-44774060D01*
X141192372Y-44856248D01*
X141192371Y-44856249D01*
X141192370Y-44856249D01*
X141055699Y-44912860D01*
X140910608Y-44941720D01*
X140762672Y-44941720D01*
X140617581Y-44912860D01*
X140480910Y-44856249D01*
X140480909Y-44856249D01*
X140480908Y-44856248D01*
X140357905Y-44774060D01*
X140253300Y-44669455D01*
X140171112Y-44546452D01*
X140114500Y-44409779D01*
X140085640Y-44264687D01*
X140085640Y-44116753D01*
X140114500Y-43971661D01*
X140171112Y-43834988D01*
X140253300Y-43711985D01*
X140357905Y-43607380D01*
X140480908Y-43525192D01*
X140483786Y-43524000D01*
X140617581Y-43468580D01*
X140762672Y-43439720D01*
X140910608Y-43439720D01*
X141055699Y-43468580D01*
X141055699Y-43468580D01*
G37*
G36*
X122059000Y-44866000D02*
G01*
X120257000Y-44866000D01*
X120257000Y-42764000D01*
X122059000Y-42764000D01*
X122059000Y-44866000D01*
X122059000Y-44866000D01*
G37*
G36*
X103355000Y-44073000D02*
G01*
X102353000Y-44073000D01*
X102353000Y-43171000D01*
X103355000Y-43171000D01*
X103355000Y-44073000D01*
X103355000Y-44073000D01*
G37*
G36*
X108817062Y-41496181D02*
G01*
X108851981Y-41506774D01*
X108884163Y-41523976D01*
X108912373Y-41547127D01*
X108935524Y-41575337D01*
X108952726Y-41607519D01*
X108963319Y-41642438D01*
X108967500Y-41684895D01*
X108967500Y-43151105D01*
X108963319Y-43193562D01*
X108952726Y-43228481D01*
X108935524Y-43260663D01*
X108912373Y-43288873D01*
X108884163Y-43312024D01*
X108851981Y-43329226D01*
X108817062Y-43339819D01*
X108774605Y-43344000D01*
X107633395Y-43344000D01*
X107590938Y-43339819D01*
X107556019Y-43329226D01*
X107523837Y-43312024D01*
X107495627Y-43288873D01*
X107472476Y-43260663D01*
X107455274Y-43228481D01*
X107444681Y-43193562D01*
X107440500Y-43151105D01*
X107440500Y-41684895D01*
X107444681Y-41642438D01*
X107455274Y-41607519D01*
X107472476Y-41575337D01*
X107495627Y-41547127D01*
X107523837Y-41523976D01*
X107556019Y-41506774D01*
X107590938Y-41496181D01*
X107633395Y-41492000D01*
X108774605Y-41492000D01*
X108817062Y-41496181D01*
X108817062Y-41496181D01*
G37*
G36*
X105842062Y-41496181D02*
G01*
X105876981Y-41506774D01*
X105909163Y-41523976D01*
X105937373Y-41547127D01*
X105960524Y-41575337D01*
X105977726Y-41607519D01*
X105988319Y-41642438D01*
X105992500Y-41684895D01*
X105992500Y-43151105D01*
X105988319Y-43193562D01*
X105977726Y-43228481D01*
X105960524Y-43260663D01*
X105937373Y-43288873D01*
X105909163Y-43312024D01*
X105876981Y-43329226D01*
X105842062Y-43339819D01*
X105799605Y-43344000D01*
X104658395Y-43344000D01*
X104615938Y-43339819D01*
X104581019Y-43329226D01*
X104548837Y-43312024D01*
X104520627Y-43288873D01*
X104497476Y-43260663D01*
X104480274Y-43228481D01*
X104469681Y-43193562D01*
X104465500Y-43151105D01*
X104465500Y-41684895D01*
X104469681Y-41642438D01*
X104480274Y-41607519D01*
X104497476Y-41575337D01*
X104520627Y-41547127D01*
X104548837Y-41523976D01*
X104581019Y-41506774D01*
X104615938Y-41496181D01*
X104658395Y-41492000D01*
X105799605Y-41492000D01*
X105842062Y-41496181D01*
X105842062Y-41496181D01*
G37*
G36*
X101355000Y-43123000D02*
G01*
X100353000Y-43123000D01*
X100353000Y-42221000D01*
X101355000Y-42221000D01*
X101355000Y-43123000D01*
X101355000Y-43123000D01*
G37*
G36*
X121334627Y-40237037D02*
G01*
X121504466Y-40288557D01*
X121660991Y-40372222D01*
X121696729Y-40401552D01*
X121798186Y-40484814D01*
X121864449Y-40565557D01*
X121910778Y-40622009D01*
X121994443Y-40778534D01*
X122045963Y-40948374D01*
X122059000Y-41080743D01*
X122059000Y-41469258D01*
X122045963Y-41601627D01*
X121994443Y-41771466D01*
X121910778Y-41927991D01*
X121881448Y-41963729D01*
X121798186Y-42065186D01*
X121660989Y-42177779D01*
X121580128Y-42221000D01*
X121504465Y-42261443D01*
X121334626Y-42312963D01*
X121158000Y-42330359D01*
X120981373Y-42312963D01*
X120811534Y-42261443D01*
X120655009Y-42177778D01*
X120619271Y-42148448D01*
X120517814Y-42065186D01*
X120405221Y-41927989D01*
X120321558Y-41771467D01*
X120321557Y-41771465D01*
X120270037Y-41601626D01*
X120257000Y-41469257D01*
X120257000Y-41080742D01*
X120270037Y-40948373D01*
X120321557Y-40778534D01*
X120348558Y-40728020D01*
X120405221Y-40622011D01*
X120405222Y-40622009D01*
X120517815Y-40484815D01*
X120655010Y-40372222D01*
X120811535Y-40288557D01*
X120981374Y-40237037D01*
X121158000Y-40219641D01*
X121334627Y-40237037D01*
X121334627Y-40237037D01*
G37*
G36*
X114052443Y-40507519D02*
G01*
X114118627Y-40514037D01*
X114288466Y-40565557D01*
X114444991Y-40649222D01*
X114477620Y-40676000D01*
X114582186Y-40761814D01*
X114665448Y-40863271D01*
X114694778Y-40899009D01*
X114778443Y-41055534D01*
X114829963Y-41225373D01*
X114847359Y-41402000D01*
X114829963Y-41578627D01*
X114778443Y-41748466D01*
X114694778Y-41904991D01*
X114675904Y-41927989D01*
X114582186Y-42042186D01*
X114490420Y-42117495D01*
X114444991Y-42154778D01*
X114288466Y-42238443D01*
X114118627Y-42289963D01*
X114052442Y-42296482D01*
X113986260Y-42303000D01*
X113597740Y-42303000D01*
X113531558Y-42296482D01*
X113465373Y-42289963D01*
X113295534Y-42238443D01*
X113139009Y-42154778D01*
X113093580Y-42117495D01*
X113001814Y-42042186D01*
X112908096Y-41927989D01*
X112889222Y-41904991D01*
X112805557Y-41748466D01*
X112754037Y-41578627D01*
X112736641Y-41402000D01*
X112754037Y-41225373D01*
X112805557Y-41055534D01*
X112889222Y-40899009D01*
X112918552Y-40863271D01*
X113001814Y-40761814D01*
X113106380Y-40676000D01*
X113139009Y-40649222D01*
X113295534Y-40565557D01*
X113465373Y-40514037D01*
X113531557Y-40507519D01*
X113597740Y-40501000D01*
X113986260Y-40501000D01*
X114052443Y-40507519D01*
X114052443Y-40507519D01*
G37*
G36*
X112303000Y-42303000D02*
G01*
X110201000Y-42303000D01*
X110201000Y-40501000D01*
X112303000Y-40501000D01*
X112303000Y-42303000D01*
X112303000Y-42303000D01*
G37*
G36*
X116592443Y-40507519D02*
G01*
X116658627Y-40514037D01*
X116828466Y-40565557D01*
X116984991Y-40649222D01*
X117017620Y-40676000D01*
X117122186Y-40761814D01*
X117205448Y-40863271D01*
X117234778Y-40899009D01*
X117318443Y-41055534D01*
X117369963Y-41225373D01*
X117387359Y-41402000D01*
X117369963Y-41578627D01*
X117318443Y-41748466D01*
X117234778Y-41904991D01*
X117215904Y-41927989D01*
X117122186Y-42042186D01*
X117030420Y-42117495D01*
X116984991Y-42154778D01*
X116828466Y-42238443D01*
X116658627Y-42289963D01*
X116592442Y-42296482D01*
X116526260Y-42303000D01*
X116137740Y-42303000D01*
X116071558Y-42296482D01*
X116005373Y-42289963D01*
X115835534Y-42238443D01*
X115679009Y-42154778D01*
X115633580Y-42117495D01*
X115541814Y-42042186D01*
X115448096Y-41927989D01*
X115429222Y-41904991D01*
X115345557Y-41748466D01*
X115294037Y-41578627D01*
X115276641Y-41402000D01*
X115294037Y-41225373D01*
X115345557Y-41055534D01*
X115429222Y-40899009D01*
X115458552Y-40863271D01*
X115541814Y-40761814D01*
X115646380Y-40676000D01*
X115679009Y-40649222D01*
X115835534Y-40565557D01*
X116005373Y-40514037D01*
X116071557Y-40507519D01*
X116137740Y-40501000D01*
X116526260Y-40501000D01*
X116592443Y-40507519D01*
X116592443Y-40507519D01*
G37*
G36*
X103355000Y-42173000D02*
G01*
X102353000Y-42173000D01*
X102353000Y-41271000D01*
X103355000Y-41271000D01*
X103355000Y-42173000D01*
X103355000Y-42173000D01*
G37*
G36*
X134947213Y-40679502D02*
G01*
X135018321Y-40686505D01*
X135155172Y-40728019D01*
X135155175Y-40728020D01*
X135281294Y-40795432D01*
X135391843Y-40886157D01*
X135482568Y-40996706D01*
X135549980Y-41122825D01*
X135549981Y-41122828D01*
X135591495Y-41259679D01*
X135605512Y-41402000D01*
X135591495Y-41544321D01*
X135549981Y-41681172D01*
X135549980Y-41681175D01*
X135482568Y-41807294D01*
X135391843Y-41917843D01*
X135281294Y-42008568D01*
X135155175Y-42075980D01*
X135155172Y-42075981D01*
X135018321Y-42117495D01*
X134947213Y-42124498D01*
X134911660Y-42128000D01*
X134840340Y-42128000D01*
X134804787Y-42124498D01*
X134733679Y-42117495D01*
X134596828Y-42075981D01*
X134596825Y-42075980D01*
X134470706Y-42008568D01*
X134360157Y-41917843D01*
X134269432Y-41807294D01*
X134202020Y-41681175D01*
X134202019Y-41681172D01*
X134160505Y-41544321D01*
X134146488Y-41402000D01*
X134160505Y-41259679D01*
X134202019Y-41122828D01*
X134202020Y-41122825D01*
X134269432Y-40996706D01*
X134360157Y-40886157D01*
X134470706Y-40795432D01*
X134596825Y-40728020D01*
X134596828Y-40728019D01*
X134733679Y-40686505D01*
X134804787Y-40679502D01*
X134840340Y-40676000D01*
X134911660Y-40676000D01*
X134947213Y-40679502D01*
X134947213Y-40679502D01*
G37*
G36*
X140947213Y-40679502D02*
G01*
X141018321Y-40686505D01*
X141155172Y-40728019D01*
X141155175Y-40728020D01*
X141281294Y-40795432D01*
X141391843Y-40886157D01*
X141482568Y-40996706D01*
X141549980Y-41122825D01*
X141549981Y-41122828D01*
X141591495Y-41259679D01*
X141605512Y-41402000D01*
X141591495Y-41544321D01*
X141549981Y-41681172D01*
X141549980Y-41681175D01*
X141482568Y-41807294D01*
X141391843Y-41917843D01*
X141281294Y-42008568D01*
X141155175Y-42075980D01*
X141155172Y-42075981D01*
X141018321Y-42117495D01*
X140947213Y-42124498D01*
X140911660Y-42128000D01*
X140840340Y-42128000D01*
X140804787Y-42124498D01*
X140733679Y-42117495D01*
X140596828Y-42075981D01*
X140596825Y-42075980D01*
X140470706Y-42008568D01*
X140360157Y-41917843D01*
X140269432Y-41807294D01*
X140202020Y-41681175D01*
X140202019Y-41681172D01*
X140160505Y-41544321D01*
X140146488Y-41402000D01*
X140160505Y-41259679D01*
X140202019Y-41122828D01*
X140202020Y-41122825D01*
X140269432Y-40996706D01*
X140360157Y-40886157D01*
X140470706Y-40795432D01*
X140596825Y-40728020D01*
X140596828Y-40728019D01*
X140733679Y-40686505D01*
X140804787Y-40679502D01*
X140840340Y-40676000D01*
X140911660Y-40676000D01*
X140947213Y-40679502D01*
X140947213Y-40679502D01*
G37*
G36*
X151602000Y-42128000D02*
G01*
X150150000Y-42128000D01*
X150150000Y-40676000D01*
X151602000Y-40676000D01*
X151602000Y-42128000D01*
X151602000Y-42128000D01*
G37*
G36*
X146947213Y-40679502D02*
G01*
X147018321Y-40686505D01*
X147155172Y-40728019D01*
X147155175Y-40728020D01*
X147281294Y-40795432D01*
X147391843Y-40886157D01*
X147482568Y-40996706D01*
X147549980Y-41122825D01*
X147549981Y-41122828D01*
X147591495Y-41259679D01*
X147605512Y-41402000D01*
X147591495Y-41544321D01*
X147549981Y-41681172D01*
X147549980Y-41681175D01*
X147482568Y-41807294D01*
X147391843Y-41917843D01*
X147281294Y-42008568D01*
X147155175Y-42075980D01*
X147155172Y-42075981D01*
X147018321Y-42117495D01*
X146947213Y-42124498D01*
X146911660Y-42128000D01*
X146840340Y-42128000D01*
X146804787Y-42124498D01*
X146733679Y-42117495D01*
X146596828Y-42075981D01*
X146596825Y-42075980D01*
X146470706Y-42008568D01*
X146360157Y-41917843D01*
X146269432Y-41807294D01*
X146202020Y-41681175D01*
X146202019Y-41681172D01*
X146160505Y-41544321D01*
X146146488Y-41402000D01*
X146160505Y-41259679D01*
X146202019Y-41122828D01*
X146202020Y-41122825D01*
X146269432Y-40996706D01*
X146360157Y-40886157D01*
X146470706Y-40795432D01*
X146596825Y-40728020D01*
X146596828Y-40728019D01*
X146733679Y-40686505D01*
X146804787Y-40679502D01*
X146840340Y-40676000D01*
X146911660Y-40676000D01*
X146947213Y-40679502D01*
X146947213Y-40679502D01*
G37*
G36*
X144947213Y-40679502D02*
G01*
X145018321Y-40686505D01*
X145155172Y-40728019D01*
X145155175Y-40728020D01*
X145281294Y-40795432D01*
X145391843Y-40886157D01*
X145482568Y-40996706D01*
X145549980Y-41122825D01*
X145549981Y-41122828D01*
X145591495Y-41259679D01*
X145605512Y-41402000D01*
X145591495Y-41544321D01*
X145549981Y-41681172D01*
X145549980Y-41681175D01*
X145482568Y-41807294D01*
X145391843Y-41917843D01*
X145281294Y-42008568D01*
X145155175Y-42075980D01*
X145155172Y-42075981D01*
X145018321Y-42117495D01*
X144947213Y-42124498D01*
X144911660Y-42128000D01*
X144840340Y-42128000D01*
X144804787Y-42124498D01*
X144733679Y-42117495D01*
X144596828Y-42075981D01*
X144596825Y-42075980D01*
X144470706Y-42008568D01*
X144360157Y-41917843D01*
X144269432Y-41807294D01*
X144202020Y-41681175D01*
X144202019Y-41681172D01*
X144160505Y-41544321D01*
X144146488Y-41402000D01*
X144160505Y-41259679D01*
X144202019Y-41122828D01*
X144202020Y-41122825D01*
X144269432Y-40996706D01*
X144360157Y-40886157D01*
X144470706Y-40795432D01*
X144596825Y-40728020D01*
X144596828Y-40728019D01*
X144733679Y-40686505D01*
X144804787Y-40679502D01*
X144840340Y-40676000D01*
X144911660Y-40676000D01*
X144947213Y-40679502D01*
X144947213Y-40679502D01*
G37*
G36*
X142947213Y-40679502D02*
G01*
X143018321Y-40686505D01*
X143155172Y-40728019D01*
X143155175Y-40728020D01*
X143281294Y-40795432D01*
X143391843Y-40886157D01*
X143482568Y-40996706D01*
X143549980Y-41122825D01*
X143549981Y-41122828D01*
X143591495Y-41259679D01*
X143605512Y-41402000D01*
X143591495Y-41544321D01*
X143549981Y-41681172D01*
X143549980Y-41681175D01*
X143482568Y-41807294D01*
X143391843Y-41917843D01*
X143281294Y-42008568D01*
X143155175Y-42075980D01*
X143155172Y-42075981D01*
X143018321Y-42117495D01*
X142947213Y-42124498D01*
X142911660Y-42128000D01*
X142840340Y-42128000D01*
X142804787Y-42124498D01*
X142733679Y-42117495D01*
X142596828Y-42075981D01*
X142596825Y-42075980D01*
X142470706Y-42008568D01*
X142360157Y-41917843D01*
X142269432Y-41807294D01*
X142202020Y-41681175D01*
X142202019Y-41681172D01*
X142160505Y-41544321D01*
X142146488Y-41402000D01*
X142160505Y-41259679D01*
X142202019Y-41122828D01*
X142202020Y-41122825D01*
X142269432Y-40996706D01*
X142360157Y-40886157D01*
X142470706Y-40795432D01*
X142596825Y-40728020D01*
X142596828Y-40728019D01*
X142733679Y-40686505D01*
X142804787Y-40679502D01*
X142840340Y-40676000D01*
X142911660Y-40676000D01*
X142947213Y-40679502D01*
X142947213Y-40679502D01*
G37*
G36*
X138947213Y-40679502D02*
G01*
X139018321Y-40686505D01*
X139155172Y-40728019D01*
X139155175Y-40728020D01*
X139281294Y-40795432D01*
X139391843Y-40886157D01*
X139482568Y-40996706D01*
X139549980Y-41122825D01*
X139549981Y-41122828D01*
X139591495Y-41259679D01*
X139605512Y-41402000D01*
X139591495Y-41544321D01*
X139549981Y-41681172D01*
X139549980Y-41681175D01*
X139482568Y-41807294D01*
X139391843Y-41917843D01*
X139281294Y-42008568D01*
X139155175Y-42075980D01*
X139155172Y-42075981D01*
X139018321Y-42117495D01*
X138947213Y-42124498D01*
X138911660Y-42128000D01*
X138840340Y-42128000D01*
X138804787Y-42124498D01*
X138733679Y-42117495D01*
X138596828Y-42075981D01*
X138596825Y-42075980D01*
X138470706Y-42008568D01*
X138360157Y-41917843D01*
X138269432Y-41807294D01*
X138202020Y-41681175D01*
X138202019Y-41681172D01*
X138160505Y-41544321D01*
X138146488Y-41402000D01*
X138160505Y-41259679D01*
X138202019Y-41122828D01*
X138202020Y-41122825D01*
X138269432Y-40996706D01*
X138360157Y-40886157D01*
X138470706Y-40795432D01*
X138596825Y-40728020D01*
X138596828Y-40728019D01*
X138733679Y-40686505D01*
X138804787Y-40679502D01*
X138840340Y-40676000D01*
X138911660Y-40676000D01*
X138947213Y-40679502D01*
X138947213Y-40679502D01*
G37*
G36*
X148947213Y-40679502D02*
G01*
X149018321Y-40686505D01*
X149155172Y-40728019D01*
X149155175Y-40728020D01*
X149281294Y-40795432D01*
X149391843Y-40886157D01*
X149482568Y-40996706D01*
X149549980Y-41122825D01*
X149549981Y-41122828D01*
X149591495Y-41259679D01*
X149605512Y-41402000D01*
X149591495Y-41544321D01*
X149549981Y-41681172D01*
X149549980Y-41681175D01*
X149482568Y-41807294D01*
X149391843Y-41917843D01*
X149281294Y-42008568D01*
X149155175Y-42075980D01*
X149155172Y-42075981D01*
X149018321Y-42117495D01*
X148947213Y-42124498D01*
X148911660Y-42128000D01*
X148840340Y-42128000D01*
X148804787Y-42124498D01*
X148733679Y-42117495D01*
X148596828Y-42075981D01*
X148596825Y-42075980D01*
X148470706Y-42008568D01*
X148360157Y-41917843D01*
X148269432Y-41807294D01*
X148202020Y-41681175D01*
X148202019Y-41681172D01*
X148160505Y-41544321D01*
X148146488Y-41402000D01*
X148160505Y-41259679D01*
X148202019Y-41122828D01*
X148202020Y-41122825D01*
X148269432Y-40996706D01*
X148360157Y-40886157D01*
X148470706Y-40795432D01*
X148596825Y-40728020D01*
X148596828Y-40728019D01*
X148733679Y-40686505D01*
X148804787Y-40679502D01*
X148840340Y-40676000D01*
X148911660Y-40676000D01*
X148947213Y-40679502D01*
X148947213Y-40679502D01*
G37*
G36*
X132947213Y-40679502D02*
G01*
X133018321Y-40686505D01*
X133155172Y-40728019D01*
X133155175Y-40728020D01*
X133281294Y-40795432D01*
X133391843Y-40886157D01*
X133482568Y-40996706D01*
X133549980Y-41122825D01*
X133549981Y-41122828D01*
X133591495Y-41259679D01*
X133605512Y-41402000D01*
X133591495Y-41544321D01*
X133549981Y-41681172D01*
X133549980Y-41681175D01*
X133482568Y-41807294D01*
X133391843Y-41917843D01*
X133281294Y-42008568D01*
X133155175Y-42075980D01*
X133155172Y-42075981D01*
X133018321Y-42117495D01*
X132947213Y-42124498D01*
X132911660Y-42128000D01*
X132840340Y-42128000D01*
X132804787Y-42124498D01*
X132733679Y-42117495D01*
X132596828Y-42075981D01*
X132596825Y-42075980D01*
X132470706Y-42008568D01*
X132360157Y-41917843D01*
X132269432Y-41807294D01*
X132202020Y-41681175D01*
X132202019Y-41681172D01*
X132160505Y-41544321D01*
X132146488Y-41402000D01*
X132160505Y-41259679D01*
X132202019Y-41122828D01*
X132202020Y-41122825D01*
X132269432Y-40996706D01*
X132360157Y-40886157D01*
X132470706Y-40795432D01*
X132596825Y-40728020D01*
X132596828Y-40728019D01*
X132733679Y-40686505D01*
X132804787Y-40679502D01*
X132840340Y-40676000D01*
X132911660Y-40676000D01*
X132947213Y-40679502D01*
X132947213Y-40679502D01*
G37*
G36*
X136947213Y-40679502D02*
G01*
X137018321Y-40686505D01*
X137155172Y-40728019D01*
X137155175Y-40728020D01*
X137281294Y-40795432D01*
X137391843Y-40886157D01*
X137482568Y-40996706D01*
X137549980Y-41122825D01*
X137549981Y-41122828D01*
X137591495Y-41259679D01*
X137605512Y-41402000D01*
X137591495Y-41544321D01*
X137549981Y-41681172D01*
X137549980Y-41681175D01*
X137482568Y-41807294D01*
X137391843Y-41917843D01*
X137281294Y-42008568D01*
X137155175Y-42075980D01*
X137155172Y-42075981D01*
X137018321Y-42117495D01*
X136947213Y-42124498D01*
X136911660Y-42128000D01*
X136840340Y-42128000D01*
X136804787Y-42124498D01*
X136733679Y-42117495D01*
X136596828Y-42075981D01*
X136596825Y-42075980D01*
X136470706Y-42008568D01*
X136360157Y-41917843D01*
X136269432Y-41807294D01*
X136202020Y-41681175D01*
X136202019Y-41681172D01*
X136160505Y-41544321D01*
X136146488Y-41402000D01*
X136160505Y-41259679D01*
X136202019Y-41122828D01*
X136202020Y-41122825D01*
X136269432Y-40996706D01*
X136360157Y-40886157D01*
X136470706Y-40795432D01*
X136596825Y-40728020D01*
X136596828Y-40728019D01*
X136733679Y-40686505D01*
X136804787Y-40679502D01*
X136840340Y-40676000D01*
X136911660Y-40676000D01*
X136947213Y-40679502D01*
X136947213Y-40679502D01*
G37*
G36*
X127268562Y-36416181D02*
G01*
X127303481Y-36426774D01*
X127335663Y-36443976D01*
X127363873Y-36467127D01*
X127387024Y-36495337D01*
X127404226Y-36527519D01*
X127414819Y-36562438D01*
X127419000Y-36604895D01*
X127419000Y-38071105D01*
X127414819Y-38113562D01*
X127404226Y-38148481D01*
X127387024Y-38180663D01*
X127363873Y-38208873D01*
X127335663Y-38232024D01*
X127303481Y-38249226D01*
X127268562Y-38259819D01*
X127226105Y-38264000D01*
X126084895Y-38264000D01*
X126042438Y-38259819D01*
X126007519Y-38249226D01*
X125975337Y-38232024D01*
X125947127Y-38208873D01*
X125923976Y-38180663D01*
X125906774Y-38148481D01*
X125896181Y-38113562D01*
X125892000Y-38071105D01*
X125892000Y-36604895D01*
X125896181Y-36562438D01*
X125906774Y-36527519D01*
X125923976Y-36495337D01*
X125947127Y-36467127D01*
X125975337Y-36443976D01*
X126007519Y-36426774D01*
X126042438Y-36416181D01*
X126084895Y-36412000D01*
X127226105Y-36412000D01*
X127268562Y-36416181D01*
X127268562Y-36416181D01*
G37*
G36*
X130243562Y-36416181D02*
G01*
X130278481Y-36426774D01*
X130310663Y-36443976D01*
X130338873Y-36467127D01*
X130362024Y-36495337D01*
X130379226Y-36527519D01*
X130389819Y-36562438D01*
X130394000Y-36604895D01*
X130394000Y-38071105D01*
X130389819Y-38113562D01*
X130379226Y-38148481D01*
X130362024Y-38180663D01*
X130338873Y-38208873D01*
X130310663Y-38232024D01*
X130278481Y-38249226D01*
X130243562Y-38259819D01*
X130201105Y-38264000D01*
X129059895Y-38264000D01*
X129017438Y-38259819D01*
X128982519Y-38249226D01*
X128950337Y-38232024D01*
X128922127Y-38208873D01*
X128898976Y-38180663D01*
X128881774Y-38148481D01*
X128871181Y-38113562D01*
X128867000Y-38071105D01*
X128867000Y-36604895D01*
X128871181Y-36562438D01*
X128881774Y-36527519D01*
X128898976Y-36495337D01*
X128922127Y-36467127D01*
X128950337Y-36443976D01*
X128982519Y-36426774D01*
X129017438Y-36416181D01*
X129059895Y-36412000D01*
X130201105Y-36412000D01*
X130243562Y-36416181D01*
X130243562Y-36416181D01*
G37*
G36*
X136684062Y-36416181D02*
G01*
X136718981Y-36426774D01*
X136751163Y-36443976D01*
X136779373Y-36467127D01*
X136802524Y-36495337D01*
X136819726Y-36527519D01*
X136830319Y-36562438D01*
X136834500Y-36604895D01*
X136834500Y-38071105D01*
X136830319Y-38113562D01*
X136819726Y-38148481D01*
X136802524Y-38180663D01*
X136779373Y-38208873D01*
X136751163Y-38232024D01*
X136718981Y-38249226D01*
X136684062Y-38259819D01*
X136641605Y-38264000D01*
X135500395Y-38264000D01*
X135457938Y-38259819D01*
X135423019Y-38249226D01*
X135390837Y-38232024D01*
X135362627Y-38208873D01*
X135339476Y-38180663D01*
X135322274Y-38148481D01*
X135311681Y-38113562D01*
X135307500Y-38071105D01*
X135307500Y-36604895D01*
X135311681Y-36562438D01*
X135322274Y-36527519D01*
X135339476Y-36495337D01*
X135362627Y-36467127D01*
X135390837Y-36443976D01*
X135423019Y-36426774D01*
X135457938Y-36416181D01*
X135500395Y-36412000D01*
X136641605Y-36412000D01*
X136684062Y-36416181D01*
X136684062Y-36416181D01*
G37*
G36*
X133709062Y-36416181D02*
G01*
X133743981Y-36426774D01*
X133776163Y-36443976D01*
X133804373Y-36467127D01*
X133827524Y-36495337D01*
X133844726Y-36527519D01*
X133855319Y-36562438D01*
X133859500Y-36604895D01*
X133859500Y-38071105D01*
X133855319Y-38113562D01*
X133844726Y-38148481D01*
X133827524Y-38180663D01*
X133804373Y-38208873D01*
X133776163Y-38232024D01*
X133743981Y-38249226D01*
X133709062Y-38259819D01*
X133666605Y-38264000D01*
X132525395Y-38264000D01*
X132482938Y-38259819D01*
X132448019Y-38249226D01*
X132415837Y-38232024D01*
X132387627Y-38208873D01*
X132364476Y-38180663D01*
X132347274Y-38148481D01*
X132336681Y-38113562D01*
X132332500Y-38071105D01*
X132332500Y-36604895D01*
X132336681Y-36562438D01*
X132347274Y-36527519D01*
X132364476Y-36495337D01*
X132387627Y-36467127D01*
X132415837Y-36443976D01*
X132448019Y-36426774D01*
X132482938Y-36416181D01*
X132525395Y-36412000D01*
X133666605Y-36412000D01*
X133709062Y-36416181D01*
X133709062Y-36416181D01*
G37*
G36*
X89837585Y-35054802D02*
G01*
X89987410Y-35084604D01*
X90269674Y-35201521D01*
X90523705Y-35371259D01*
X90739741Y-35587295D01*
X90909479Y-35841326D01*
X91026396Y-36123590D01*
X91086000Y-36423240D01*
X91086000Y-36728760D01*
X91026396Y-37028410D01*
X90909479Y-37310674D01*
X90739741Y-37564705D01*
X90523705Y-37780741D01*
X90269674Y-37950479D01*
X89987410Y-38067396D01*
X89837585Y-38097198D01*
X89687761Y-38127000D01*
X89382239Y-38127000D01*
X89232415Y-38097198D01*
X89082590Y-38067396D01*
X88800326Y-37950479D01*
X88546295Y-37780741D01*
X88330259Y-37564705D01*
X88160521Y-37310674D01*
X88043604Y-37028410D01*
X87984000Y-36728760D01*
X87984000Y-36423240D01*
X88043604Y-36123590D01*
X88160521Y-35841326D01*
X88330259Y-35587295D01*
X88546295Y-35371259D01*
X88800326Y-35201521D01*
X89082590Y-35084604D01*
X89232415Y-35054802D01*
X89382239Y-35025000D01*
X89687761Y-35025000D01*
X89837585Y-35054802D01*
X89837585Y-35054802D01*
G37*
G36*
X96166000Y-38127000D02*
G01*
X93064000Y-38127000D01*
X93064000Y-35025000D01*
X96166000Y-35025000D01*
X96166000Y-38127000D01*
X96166000Y-38127000D01*
G37*
G36*
X106706000Y-38101000D02*
G01*
X103604000Y-38101000D01*
X103604000Y-34999000D01*
X106706000Y-34999000D01*
X106706000Y-38101000D01*
X106706000Y-38101000D01*
G37*
G36*
X100358471Y-35025000D02*
G01*
X100527410Y-35058604D01*
X100809674Y-35175521D01*
X101063705Y-35345259D01*
X101279741Y-35561295D01*
X101449479Y-35815326D01*
X101566396Y-36097590D01*
X101566396Y-36097591D01*
X101626000Y-36397239D01*
X101626000Y-36702761D01*
X101619083Y-36737534D01*
X101566396Y-37002410D01*
X101449479Y-37284674D01*
X101279741Y-37538705D01*
X101063705Y-37754741D01*
X100809674Y-37924479D01*
X100527410Y-38041396D01*
X100492354Y-38048369D01*
X100227761Y-38101000D01*
X99922239Y-38101000D01*
X99657646Y-38048369D01*
X99622590Y-38041396D01*
X99340326Y-37924479D01*
X99086295Y-37754741D01*
X98870259Y-37538705D01*
X98700521Y-37284674D01*
X98583604Y-37002410D01*
X98530917Y-36737534D01*
X98524000Y-36702761D01*
X98524000Y-36397239D01*
X98583604Y-36097591D01*
X98583604Y-36097590D01*
X98700521Y-35815326D01*
X98870259Y-35561295D01*
X99086295Y-35345259D01*
X99340326Y-35175521D01*
X99622590Y-35058604D01*
X99791529Y-35025000D01*
X99922239Y-34999000D01*
X100227761Y-34999000D01*
X100358471Y-35025000D01*
X100358471Y-35025000D01*
G37*
G36*
X152152443Y-36189519D02*
G01*
X152218627Y-36196037D01*
X152388466Y-36247557D01*
X152544991Y-36331222D01*
X152580729Y-36360552D01*
X152682186Y-36443814D01*
X152765448Y-36545271D01*
X152794778Y-36581009D01*
X152878443Y-36737534D01*
X152929963Y-36907373D01*
X152947359Y-37084000D01*
X152929963Y-37260627D01*
X152878443Y-37430466D01*
X152794778Y-37586991D01*
X152765448Y-37622729D01*
X152682186Y-37724186D01*
X152580729Y-37807448D01*
X152544991Y-37836778D01*
X152388466Y-37920443D01*
X152218627Y-37971963D01*
X152152442Y-37978482D01*
X152086260Y-37985000D01*
X151697740Y-37985000D01*
X151631558Y-37978482D01*
X151565373Y-37971963D01*
X151395534Y-37920443D01*
X151239009Y-37836778D01*
X151203271Y-37807448D01*
X151101814Y-37724186D01*
X151018552Y-37622729D01*
X150989222Y-37586991D01*
X150905557Y-37430466D01*
X150854037Y-37260627D01*
X150836641Y-37084000D01*
X150854037Y-36907373D01*
X150905557Y-36737534D01*
X150989222Y-36581009D01*
X151018552Y-36545271D01*
X151101814Y-36443814D01*
X151203271Y-36360552D01*
X151239009Y-36331222D01*
X151395534Y-36247557D01*
X151565373Y-36196037D01*
X151631557Y-36189519D01*
X151697740Y-36183000D01*
X152086260Y-36183000D01*
X152152443Y-36189519D01*
X152152443Y-36189519D01*
G37*
G36*
X145652443Y-36189519D02*
G01*
X145718627Y-36196037D01*
X145888466Y-36247557D01*
X146044991Y-36331222D01*
X146080729Y-36360552D01*
X146182186Y-36443814D01*
X146265448Y-36545271D01*
X146294778Y-36581009D01*
X146378443Y-36737534D01*
X146429963Y-36907373D01*
X146447359Y-37084000D01*
X146429963Y-37260627D01*
X146378443Y-37430466D01*
X146294778Y-37586991D01*
X146265448Y-37622729D01*
X146182186Y-37724186D01*
X146080729Y-37807448D01*
X146044991Y-37836778D01*
X145888466Y-37920443D01*
X145718627Y-37971963D01*
X145652442Y-37978482D01*
X145586260Y-37985000D01*
X145197740Y-37985000D01*
X145131558Y-37978482D01*
X145065373Y-37971963D01*
X144895534Y-37920443D01*
X144739009Y-37836778D01*
X144703271Y-37807448D01*
X144601814Y-37724186D01*
X144518552Y-37622729D01*
X144489222Y-37586991D01*
X144405557Y-37430466D01*
X144354037Y-37260627D01*
X144336641Y-37084000D01*
X144354037Y-36907373D01*
X144405557Y-36737534D01*
X144489222Y-36581009D01*
X144518552Y-36545271D01*
X144601814Y-36443814D01*
X144703271Y-36360552D01*
X144739009Y-36331222D01*
X144895534Y-36247557D01*
X145065373Y-36196037D01*
X145131557Y-36189519D01*
X145197740Y-36183000D01*
X145586260Y-36183000D01*
X145652443Y-36189519D01*
X145652443Y-36189519D01*
G37*
G36*
X142125000Y-37373000D02*
G01*
X140323000Y-37373000D01*
X140323000Y-35271000D01*
X142125000Y-35271000D01*
X142125000Y-37373000D01*
X142125000Y-37373000D01*
G37*
G36*
X121447000Y-36715000D02*
G01*
X119345000Y-36715000D01*
X119345000Y-34913000D01*
X121447000Y-34913000D01*
X121447000Y-36715000D01*
X121447000Y-36715000D01*
G37*
G36*
X118116442Y-34919518D02*
G01*
X118182627Y-34926037D01*
X118352466Y-34977557D01*
X118508991Y-35061222D01*
X118537482Y-35084604D01*
X118646186Y-35173814D01*
X118725943Y-35271000D01*
X118758778Y-35311009D01*
X118842443Y-35467534D01*
X118893963Y-35637373D01*
X118911359Y-35814000D01*
X118893963Y-35990627D01*
X118842443Y-36160466D01*
X118758778Y-36316991D01*
X118729448Y-36352729D01*
X118646186Y-36454186D01*
X118556828Y-36527519D01*
X118508991Y-36566778D01*
X118352466Y-36650443D01*
X118182627Y-36701963D01*
X118116443Y-36708481D01*
X118050260Y-36715000D01*
X117661740Y-36715000D01*
X117595557Y-36708481D01*
X117529373Y-36701963D01*
X117359534Y-36650443D01*
X117203009Y-36566778D01*
X117155172Y-36527519D01*
X117065814Y-36454186D01*
X116982552Y-36352729D01*
X116953222Y-36316991D01*
X116869557Y-36160466D01*
X116818037Y-35990627D01*
X116800641Y-35814000D01*
X116818037Y-35637373D01*
X116869557Y-35467534D01*
X116953222Y-35311009D01*
X116986057Y-35271000D01*
X117065814Y-35173814D01*
X117174518Y-35084604D01*
X117203009Y-35061222D01*
X117359534Y-34977557D01*
X117529373Y-34926037D01*
X117595558Y-34919518D01*
X117661740Y-34913000D01*
X118050260Y-34913000D01*
X118116442Y-34919518D01*
X118116442Y-34919518D01*
G37*
G36*
X115576442Y-34919518D02*
G01*
X115642627Y-34926037D01*
X115812466Y-34977557D01*
X115968991Y-35061222D01*
X115997482Y-35084604D01*
X116106186Y-35173814D01*
X116185943Y-35271000D01*
X116218778Y-35311009D01*
X116302443Y-35467534D01*
X116353963Y-35637373D01*
X116371359Y-35814000D01*
X116353963Y-35990627D01*
X116302443Y-36160466D01*
X116218778Y-36316991D01*
X116189448Y-36352729D01*
X116106186Y-36454186D01*
X116016828Y-36527519D01*
X115968991Y-36566778D01*
X115812466Y-36650443D01*
X115642627Y-36701963D01*
X115576443Y-36708481D01*
X115510260Y-36715000D01*
X115121740Y-36715000D01*
X115055557Y-36708481D01*
X114989373Y-36701963D01*
X114819534Y-36650443D01*
X114663009Y-36566778D01*
X114615172Y-36527519D01*
X114525814Y-36454186D01*
X114442552Y-36352729D01*
X114413222Y-36316991D01*
X114329557Y-36160466D01*
X114278037Y-35990627D01*
X114260641Y-35814000D01*
X114278037Y-35637373D01*
X114329557Y-35467534D01*
X114413222Y-35311009D01*
X114446057Y-35271000D01*
X114525814Y-35173814D01*
X114634518Y-35084604D01*
X114663009Y-35061222D01*
X114819534Y-34977557D01*
X114989373Y-34926037D01*
X115055558Y-34919518D01*
X115121740Y-34913000D01*
X115510260Y-34913000D01*
X115576442Y-34919518D01*
X115576442Y-34919518D01*
G37*
G36*
X113036442Y-34919518D02*
G01*
X113102627Y-34926037D01*
X113272466Y-34977557D01*
X113428991Y-35061222D01*
X113457482Y-35084604D01*
X113566186Y-35173814D01*
X113645943Y-35271000D01*
X113678778Y-35311009D01*
X113762443Y-35467534D01*
X113813963Y-35637373D01*
X113831359Y-35814000D01*
X113813963Y-35990627D01*
X113762443Y-36160466D01*
X113678778Y-36316991D01*
X113649448Y-36352729D01*
X113566186Y-36454186D01*
X113476828Y-36527519D01*
X113428991Y-36566778D01*
X113272466Y-36650443D01*
X113102627Y-36701963D01*
X113036443Y-36708481D01*
X112970260Y-36715000D01*
X112581740Y-36715000D01*
X112515557Y-36708481D01*
X112449373Y-36701963D01*
X112279534Y-36650443D01*
X112123009Y-36566778D01*
X112075172Y-36527519D01*
X111985814Y-36454186D01*
X111902552Y-36352729D01*
X111873222Y-36316991D01*
X111789557Y-36160466D01*
X111738037Y-35990627D01*
X111720641Y-35814000D01*
X111738037Y-35637373D01*
X111789557Y-35467534D01*
X111873222Y-35311009D01*
X111906057Y-35271000D01*
X111985814Y-35173814D01*
X112094518Y-35084604D01*
X112123009Y-35061222D01*
X112279534Y-34977557D01*
X112449373Y-34926037D01*
X112515558Y-34919518D01*
X112581740Y-34913000D01*
X112970260Y-34913000D01*
X113036442Y-34919518D01*
X113036442Y-34919518D01*
G37*
G36*
X110496442Y-34919518D02*
G01*
X110562627Y-34926037D01*
X110732466Y-34977557D01*
X110888991Y-35061222D01*
X110917482Y-35084604D01*
X111026186Y-35173814D01*
X111105943Y-35271000D01*
X111138778Y-35311009D01*
X111222443Y-35467534D01*
X111273963Y-35637373D01*
X111291359Y-35814000D01*
X111273963Y-35990627D01*
X111222443Y-36160466D01*
X111138778Y-36316991D01*
X111109448Y-36352729D01*
X111026186Y-36454186D01*
X110936828Y-36527519D01*
X110888991Y-36566778D01*
X110732466Y-36650443D01*
X110562627Y-36701963D01*
X110496443Y-36708481D01*
X110430260Y-36715000D01*
X110041740Y-36715000D01*
X109975557Y-36708481D01*
X109909373Y-36701963D01*
X109739534Y-36650443D01*
X109583009Y-36566778D01*
X109535172Y-36527519D01*
X109445814Y-36454186D01*
X109362552Y-36352729D01*
X109333222Y-36316991D01*
X109249557Y-36160466D01*
X109198037Y-35990627D01*
X109180641Y-35814000D01*
X109198037Y-35637373D01*
X109249557Y-35467534D01*
X109333222Y-35311009D01*
X109366057Y-35271000D01*
X109445814Y-35173814D01*
X109554518Y-35084604D01*
X109583009Y-35061222D01*
X109739534Y-34977557D01*
X109909373Y-34926037D01*
X109975558Y-34919518D01*
X110041740Y-34913000D01*
X110430260Y-34913000D01*
X110496442Y-34919518D01*
X110496442Y-34919518D01*
G37*
G36*
X130517443Y-33141519D02*
G01*
X130583627Y-33148037D01*
X130753466Y-33199557D01*
X130909991Y-33283222D01*
X130945729Y-33312552D01*
X131047186Y-33395814D01*
X131120378Y-33485000D01*
X131159778Y-33533009D01*
X131243443Y-33689534D01*
X131294963Y-33859373D01*
X131312359Y-34036000D01*
X131294963Y-34212627D01*
X131243443Y-34382466D01*
X131159778Y-34538991D01*
X131132536Y-34572185D01*
X131047186Y-34676186D01*
X130945729Y-34759448D01*
X130909991Y-34788778D01*
X130753466Y-34872443D01*
X130583627Y-34923963D01*
X130517442Y-34930482D01*
X130451260Y-34937000D01*
X130062740Y-34937000D01*
X129996558Y-34930482D01*
X129930373Y-34923963D01*
X129760534Y-34872443D01*
X129604009Y-34788778D01*
X129568271Y-34759448D01*
X129466814Y-34676186D01*
X129381464Y-34572185D01*
X129354222Y-34538991D01*
X129270557Y-34382466D01*
X129219037Y-34212627D01*
X129201641Y-34036000D01*
X129219037Y-33859373D01*
X129270557Y-33689534D01*
X129354222Y-33533009D01*
X129393622Y-33485000D01*
X129466814Y-33395814D01*
X129568271Y-33312552D01*
X129604009Y-33283222D01*
X129760534Y-33199557D01*
X129930373Y-33148037D01*
X129996557Y-33141519D01*
X130062740Y-33135000D01*
X130451260Y-33135000D01*
X130517443Y-33141519D01*
X130517443Y-33141519D01*
G37*
G36*
X125437443Y-33141519D02*
G01*
X125503627Y-33148037D01*
X125673466Y-33199557D01*
X125829991Y-33283222D01*
X125865729Y-33312552D01*
X125967186Y-33395814D01*
X126040378Y-33485000D01*
X126079778Y-33533009D01*
X126163443Y-33689534D01*
X126214963Y-33859373D01*
X126232359Y-34036000D01*
X126214963Y-34212627D01*
X126163443Y-34382466D01*
X126079778Y-34538991D01*
X126052536Y-34572185D01*
X125967186Y-34676186D01*
X125865729Y-34759448D01*
X125829991Y-34788778D01*
X125673466Y-34872443D01*
X125503627Y-34923963D01*
X125437442Y-34930482D01*
X125371260Y-34937000D01*
X124982740Y-34937000D01*
X124916558Y-34930482D01*
X124850373Y-34923963D01*
X124680534Y-34872443D01*
X124524009Y-34788778D01*
X124488271Y-34759448D01*
X124386814Y-34676186D01*
X124301464Y-34572185D01*
X124274222Y-34538991D01*
X124190557Y-34382466D01*
X124139037Y-34212627D01*
X124121641Y-34036000D01*
X124139037Y-33859373D01*
X124190557Y-33689534D01*
X124274222Y-33533009D01*
X124313622Y-33485000D01*
X124386814Y-33395814D01*
X124488271Y-33312552D01*
X124524009Y-33283222D01*
X124680534Y-33199557D01*
X124850373Y-33148037D01*
X124916557Y-33141519D01*
X124982740Y-33135000D01*
X125371260Y-33135000D01*
X125437443Y-33141519D01*
X125437443Y-33141519D01*
G37*
G36*
X133057443Y-33141519D02*
G01*
X133123627Y-33148037D01*
X133293466Y-33199557D01*
X133449991Y-33283222D01*
X133485729Y-33312552D01*
X133587186Y-33395814D01*
X133660378Y-33485000D01*
X133699778Y-33533009D01*
X133783443Y-33689534D01*
X133834963Y-33859373D01*
X133852359Y-34036000D01*
X133834963Y-34212627D01*
X133783443Y-34382466D01*
X133699778Y-34538991D01*
X133672536Y-34572185D01*
X133587186Y-34676186D01*
X133485729Y-34759448D01*
X133449991Y-34788778D01*
X133293466Y-34872443D01*
X133123627Y-34923963D01*
X133057442Y-34930482D01*
X132991260Y-34937000D01*
X132602740Y-34937000D01*
X132536558Y-34930482D01*
X132470373Y-34923963D01*
X132300534Y-34872443D01*
X132144009Y-34788778D01*
X132108271Y-34759448D01*
X132006814Y-34676186D01*
X131921464Y-34572185D01*
X131894222Y-34538991D01*
X131810557Y-34382466D01*
X131759037Y-34212627D01*
X131741641Y-34036000D01*
X131759037Y-33859373D01*
X131810557Y-33689534D01*
X131894222Y-33533009D01*
X131933622Y-33485000D01*
X132006814Y-33395814D01*
X132108271Y-33312552D01*
X132144009Y-33283222D01*
X132300534Y-33199557D01*
X132470373Y-33148037D01*
X132536557Y-33141519D01*
X132602740Y-33135000D01*
X132991260Y-33135000D01*
X133057443Y-33141519D01*
X133057443Y-33141519D01*
G37*
G36*
X136238000Y-34937000D02*
G01*
X134436000Y-34937000D01*
X134436000Y-33135000D01*
X136238000Y-33135000D01*
X136238000Y-34937000D01*
X136238000Y-34937000D01*
G37*
G36*
X127977443Y-33141519D02*
G01*
X128043627Y-33148037D01*
X128213466Y-33199557D01*
X128369991Y-33283222D01*
X128405729Y-33312552D01*
X128507186Y-33395814D01*
X128580378Y-33485000D01*
X128619778Y-33533009D01*
X128703443Y-33689534D01*
X128754963Y-33859373D01*
X128772359Y-34036000D01*
X128754963Y-34212627D01*
X128703443Y-34382466D01*
X128619778Y-34538991D01*
X128592536Y-34572185D01*
X128507186Y-34676186D01*
X128405729Y-34759448D01*
X128369991Y-34788778D01*
X128213466Y-34872443D01*
X128043627Y-34923963D01*
X127977442Y-34930482D01*
X127911260Y-34937000D01*
X127522740Y-34937000D01*
X127456558Y-34930482D01*
X127390373Y-34923963D01*
X127220534Y-34872443D01*
X127064009Y-34788778D01*
X127028271Y-34759448D01*
X126926814Y-34676186D01*
X126841464Y-34572185D01*
X126814222Y-34538991D01*
X126730557Y-34382466D01*
X126679037Y-34212627D01*
X126661641Y-34036000D01*
X126679037Y-33859373D01*
X126730557Y-33689534D01*
X126814222Y-33533009D01*
X126853622Y-33485000D01*
X126926814Y-33395814D01*
X127028271Y-33312552D01*
X127064009Y-33283222D01*
X127220534Y-33199557D01*
X127390373Y-33148037D01*
X127456557Y-33141519D01*
X127522740Y-33135000D01*
X127911260Y-33135000D01*
X127977443Y-33141519D01*
X127977443Y-33141519D01*
G37*
G36*
X141400627Y-32744037D02*
G01*
X141570466Y-32795557D01*
X141726991Y-32879222D01*
X141762729Y-32908552D01*
X141864186Y-32991814D01*
X141947448Y-33093271D01*
X141976778Y-33129009D01*
X142060443Y-33285534D01*
X142111963Y-33455374D01*
X142125000Y-33587743D01*
X142125000Y-33976258D01*
X142111963Y-34108627D01*
X142060443Y-34278466D01*
X141976778Y-34434991D01*
X141947448Y-34470729D01*
X141864186Y-34572186D01*
X141726989Y-34684779D01*
X141570467Y-34768442D01*
X141570465Y-34768443D01*
X141400626Y-34819963D01*
X141224000Y-34837359D01*
X141047373Y-34819963D01*
X140877534Y-34768443D01*
X140721009Y-34684778D01*
X140685271Y-34655448D01*
X140583814Y-34572186D01*
X140471221Y-34434989D01*
X140387558Y-34278467D01*
X140387557Y-34278465D01*
X140336037Y-34108626D01*
X140323000Y-33976257D01*
X140323000Y-33587742D01*
X140336037Y-33455373D01*
X140387557Y-33285534D01*
X140471222Y-33129009D01*
X140583815Y-32991815D01*
X140721010Y-32879222D01*
X140877535Y-32795557D01*
X141047374Y-32744037D01*
X141224000Y-32726641D01*
X141400627Y-32744037D01*
X141400627Y-32744037D01*
G37*
G36*
X115576442Y-32379518D02*
G01*
X115642627Y-32386037D01*
X115812466Y-32437557D01*
X115968991Y-32521222D01*
X116004729Y-32550552D01*
X116106186Y-32633814D01*
X116182366Y-32726641D01*
X116218778Y-32771009D01*
X116218779Y-32771011D01*
X116276620Y-32879222D01*
X116302443Y-32927534D01*
X116353963Y-33097373D01*
X116371359Y-33274000D01*
X116353963Y-33450627D01*
X116302443Y-33620466D01*
X116218778Y-33776991D01*
X116189448Y-33812729D01*
X116106186Y-33914186D01*
X116030547Y-33976260D01*
X115968991Y-34026778D01*
X115968989Y-34026779D01*
X115815864Y-34108627D01*
X115812466Y-34110443D01*
X115642627Y-34161963D01*
X115576442Y-34168482D01*
X115510260Y-34175000D01*
X115121740Y-34175000D01*
X115055558Y-34168482D01*
X114989373Y-34161963D01*
X114819534Y-34110443D01*
X114816137Y-34108627D01*
X114663011Y-34026779D01*
X114663009Y-34026778D01*
X114601453Y-33976260D01*
X114525814Y-33914186D01*
X114442552Y-33812729D01*
X114413222Y-33776991D01*
X114329557Y-33620466D01*
X114278037Y-33450627D01*
X114260641Y-33274000D01*
X114278037Y-33097373D01*
X114329557Y-32927534D01*
X114355381Y-32879222D01*
X114413221Y-32771011D01*
X114413222Y-32771009D01*
X114449634Y-32726641D01*
X114525814Y-32633814D01*
X114627271Y-32550552D01*
X114663009Y-32521222D01*
X114819534Y-32437557D01*
X114989373Y-32386037D01*
X115055558Y-32379518D01*
X115121740Y-32373000D01*
X115510260Y-32373000D01*
X115576442Y-32379518D01*
X115576442Y-32379518D01*
G37*
G36*
X113036442Y-32379518D02*
G01*
X113102627Y-32386037D01*
X113272466Y-32437557D01*
X113428991Y-32521222D01*
X113464729Y-32550552D01*
X113566186Y-32633814D01*
X113642366Y-32726641D01*
X113678778Y-32771009D01*
X113678779Y-32771011D01*
X113736620Y-32879222D01*
X113762443Y-32927534D01*
X113813963Y-33097373D01*
X113831359Y-33274000D01*
X113813963Y-33450627D01*
X113762443Y-33620466D01*
X113678778Y-33776991D01*
X113649448Y-33812729D01*
X113566186Y-33914186D01*
X113490547Y-33976260D01*
X113428991Y-34026778D01*
X113428989Y-34026779D01*
X113275864Y-34108627D01*
X113272466Y-34110443D01*
X113102627Y-34161963D01*
X113036442Y-34168482D01*
X112970260Y-34175000D01*
X112581740Y-34175000D01*
X112515558Y-34168482D01*
X112449373Y-34161963D01*
X112279534Y-34110443D01*
X112276137Y-34108627D01*
X112123011Y-34026779D01*
X112123009Y-34026778D01*
X112061453Y-33976260D01*
X111985814Y-33914186D01*
X111902552Y-33812729D01*
X111873222Y-33776991D01*
X111789557Y-33620466D01*
X111738037Y-33450627D01*
X111720641Y-33274000D01*
X111738037Y-33097373D01*
X111789557Y-32927534D01*
X111815381Y-32879222D01*
X111873221Y-32771011D01*
X111873222Y-32771009D01*
X111909634Y-32726641D01*
X111985814Y-32633814D01*
X112087271Y-32550552D01*
X112123009Y-32521222D01*
X112279534Y-32437557D01*
X112449373Y-32386037D01*
X112515558Y-32379518D01*
X112581740Y-32373000D01*
X112970260Y-32373000D01*
X113036442Y-32379518D01*
X113036442Y-32379518D01*
G37*
G36*
X118116442Y-32379518D02*
G01*
X118182627Y-32386037D01*
X118352466Y-32437557D01*
X118508991Y-32521222D01*
X118544729Y-32550552D01*
X118646186Y-32633814D01*
X118722366Y-32726641D01*
X118758778Y-32771009D01*
X118758779Y-32771011D01*
X118816620Y-32879222D01*
X118842443Y-32927534D01*
X118893963Y-33097373D01*
X118911359Y-33274000D01*
X118893963Y-33450627D01*
X118842443Y-33620466D01*
X118758778Y-33776991D01*
X118729448Y-33812729D01*
X118646186Y-33914186D01*
X118570547Y-33976260D01*
X118508991Y-34026778D01*
X118508989Y-34026779D01*
X118355864Y-34108627D01*
X118352466Y-34110443D01*
X118182627Y-34161963D01*
X118116442Y-34168482D01*
X118050260Y-34175000D01*
X117661740Y-34175000D01*
X117595558Y-34168482D01*
X117529373Y-34161963D01*
X117359534Y-34110443D01*
X117356137Y-34108627D01*
X117203011Y-34026779D01*
X117203009Y-34026778D01*
X117141453Y-33976260D01*
X117065814Y-33914186D01*
X116982552Y-33812729D01*
X116953222Y-33776991D01*
X116869557Y-33620466D01*
X116818037Y-33450627D01*
X116800641Y-33274000D01*
X116818037Y-33097373D01*
X116869557Y-32927534D01*
X116895381Y-32879222D01*
X116953221Y-32771011D01*
X116953222Y-32771009D01*
X116989634Y-32726641D01*
X117065814Y-32633814D01*
X117167271Y-32550552D01*
X117203009Y-32521222D01*
X117359534Y-32437557D01*
X117529373Y-32386037D01*
X117595558Y-32379518D01*
X117661740Y-32373000D01*
X118050260Y-32373000D01*
X118116442Y-32379518D01*
X118116442Y-32379518D01*
G37*
G36*
X120656442Y-32379518D02*
G01*
X120722627Y-32386037D01*
X120892466Y-32437557D01*
X121048991Y-32521222D01*
X121084729Y-32550552D01*
X121186186Y-32633814D01*
X121262366Y-32726641D01*
X121298778Y-32771009D01*
X121298779Y-32771011D01*
X121356620Y-32879222D01*
X121382443Y-32927534D01*
X121433963Y-33097373D01*
X121451359Y-33274000D01*
X121433963Y-33450627D01*
X121382443Y-33620466D01*
X121298778Y-33776991D01*
X121269448Y-33812729D01*
X121186186Y-33914186D01*
X121110547Y-33976260D01*
X121048991Y-34026778D01*
X121048989Y-34026779D01*
X120895864Y-34108627D01*
X120892466Y-34110443D01*
X120722627Y-34161963D01*
X120656442Y-34168482D01*
X120590260Y-34175000D01*
X120201740Y-34175000D01*
X120135558Y-34168482D01*
X120069373Y-34161963D01*
X119899534Y-34110443D01*
X119896137Y-34108627D01*
X119743011Y-34026779D01*
X119743009Y-34026778D01*
X119681453Y-33976260D01*
X119605814Y-33914186D01*
X119522552Y-33812729D01*
X119493222Y-33776991D01*
X119409557Y-33620466D01*
X119358037Y-33450627D01*
X119340641Y-33274000D01*
X119358037Y-33097373D01*
X119409557Y-32927534D01*
X119435381Y-32879222D01*
X119493221Y-32771011D01*
X119493222Y-32771009D01*
X119529634Y-32726641D01*
X119605814Y-32633814D01*
X119707271Y-32550552D01*
X119743009Y-32521222D01*
X119899534Y-32437557D01*
X120069373Y-32386037D01*
X120135558Y-32379518D01*
X120201740Y-32373000D01*
X120590260Y-32373000D01*
X120656442Y-32379518D01*
X120656442Y-32379518D01*
G37*
G36*
X110496442Y-32379518D02*
G01*
X110562627Y-32386037D01*
X110732466Y-32437557D01*
X110888991Y-32521222D01*
X110924729Y-32550552D01*
X111026186Y-32633814D01*
X111102366Y-32726641D01*
X111138778Y-32771009D01*
X111138779Y-32771011D01*
X111196620Y-32879222D01*
X111222443Y-32927534D01*
X111273963Y-33097373D01*
X111291359Y-33274000D01*
X111273963Y-33450627D01*
X111222443Y-33620466D01*
X111138778Y-33776991D01*
X111109448Y-33812729D01*
X111026186Y-33914186D01*
X110950547Y-33976260D01*
X110888991Y-34026778D01*
X110888989Y-34026779D01*
X110735864Y-34108627D01*
X110732466Y-34110443D01*
X110562627Y-34161963D01*
X110496442Y-34168482D01*
X110430260Y-34175000D01*
X110041740Y-34175000D01*
X109975558Y-34168482D01*
X109909373Y-34161963D01*
X109739534Y-34110443D01*
X109736137Y-34108627D01*
X109583011Y-34026779D01*
X109583009Y-34026778D01*
X109521453Y-33976260D01*
X109445814Y-33914186D01*
X109362552Y-33812729D01*
X109333222Y-33776991D01*
X109249557Y-33620466D01*
X109198037Y-33450627D01*
X109180641Y-33274000D01*
X109198037Y-33097373D01*
X109249557Y-32927534D01*
X109275381Y-32879222D01*
X109333221Y-32771011D01*
X109333222Y-32771009D01*
X109369634Y-32726641D01*
X109445814Y-32633814D01*
X109547271Y-32550552D01*
X109583009Y-32521222D01*
X109739534Y-32437557D01*
X109909373Y-32386037D01*
X109975558Y-32379518D01*
X110041740Y-32373000D01*
X110430260Y-32373000D01*
X110496442Y-32379518D01*
X110496442Y-32379518D01*
G37*
G36*
X145652442Y-31689518D02*
G01*
X145718627Y-31696037D01*
X145888466Y-31747557D01*
X146044991Y-31831222D01*
X146080729Y-31860552D01*
X146182186Y-31943814D01*
X146265448Y-32045271D01*
X146294778Y-32081009D01*
X146378443Y-32237534D01*
X146429963Y-32407373D01*
X146447359Y-32584000D01*
X146429963Y-32760627D01*
X146378443Y-32930466D01*
X146294778Y-33086991D01*
X146286256Y-33097375D01*
X146182186Y-33224186D01*
X146107433Y-33285533D01*
X146044991Y-33336778D01*
X145888466Y-33420443D01*
X145718627Y-33471963D01*
X145652443Y-33478481D01*
X145586260Y-33485000D01*
X145197740Y-33485000D01*
X145131557Y-33478481D01*
X145065373Y-33471963D01*
X144895534Y-33420443D01*
X144739009Y-33336778D01*
X144676567Y-33285533D01*
X144601814Y-33224186D01*
X144497744Y-33097375D01*
X144489222Y-33086991D01*
X144405557Y-32930466D01*
X144354037Y-32760627D01*
X144336641Y-32584000D01*
X144354037Y-32407373D01*
X144405557Y-32237534D01*
X144489222Y-32081009D01*
X144518552Y-32045271D01*
X144601814Y-31943814D01*
X144703271Y-31860552D01*
X144739009Y-31831222D01*
X144895534Y-31747557D01*
X145065373Y-31696037D01*
X145131558Y-31689518D01*
X145197740Y-31683000D01*
X145586260Y-31683000D01*
X145652442Y-31689518D01*
X145652442Y-31689518D01*
G37*
G36*
X152152442Y-31689518D02*
G01*
X152218627Y-31696037D01*
X152388466Y-31747557D01*
X152544991Y-31831222D01*
X152580729Y-31860552D01*
X152682186Y-31943814D01*
X152765448Y-32045271D01*
X152794778Y-32081009D01*
X152878443Y-32237534D01*
X152929963Y-32407373D01*
X152947359Y-32584000D01*
X152929963Y-32760627D01*
X152878443Y-32930466D01*
X152794778Y-33086991D01*
X152786256Y-33097375D01*
X152682186Y-33224186D01*
X152607433Y-33285533D01*
X152544991Y-33336778D01*
X152388466Y-33420443D01*
X152218627Y-33471963D01*
X152152443Y-33478481D01*
X152086260Y-33485000D01*
X151697740Y-33485000D01*
X151631557Y-33478481D01*
X151565373Y-33471963D01*
X151395534Y-33420443D01*
X151239009Y-33336778D01*
X151176567Y-33285533D01*
X151101814Y-33224186D01*
X150997744Y-33097375D01*
X150989222Y-33086991D01*
X150905557Y-32930466D01*
X150854037Y-32760627D01*
X150836641Y-32584000D01*
X150854037Y-32407373D01*
X150905557Y-32237534D01*
X150989222Y-32081009D01*
X151018552Y-32045271D01*
X151101814Y-31943814D01*
X151203271Y-31860552D01*
X151239009Y-31831222D01*
X151395534Y-31747557D01*
X151565373Y-31696037D01*
X151631558Y-31689518D01*
X151697740Y-31683000D01*
X152086260Y-31683000D01*
X152152442Y-31689518D01*
X152152442Y-31689518D01*
G37*
M02*
