M48
; DRILL file {KiCad 5.1.4-e60b266~84~ubuntu18.04.1} date vie 01 nov 2019 15:12:39 -03
; FORMAT={-:-/ absolute / inch / decimal}
; #@! TF.CreationDate,2019-11-01T15:12:39-03:00
; #@! TF.GenerationSoftware,Kicad,Pcbnew,5.1.4-e60b266~84~ubuntu18.04.1
FMAT,2
INCH
T1C0.0157
T2C0.0197
T3C0.0315
T4C0.0394
T5C0.0512
T6C0.0591
T7C0.1378
%
G90
G05
T1
X3.56Y-2.5
X3.94Y-1.56
X3.94Y-1.935
X3.96Y-2.655
X3.98Y-2.76
X4.0Y-2.01
X4.135Y-2.6
X4.15Y-1.8
X4.15Y-2.01
X4.15Y-2.26
X4.2Y-2.35
X4.295Y-2.255
X4.3Y-2.6
X4.34Y-1.48
X4.35Y-2.12
X4.37Y-1.85
X4.385Y-2.81
X4.4Y-1.91
X4.4Y-2.38
X4.44Y-1.53
X4.45Y-1.935
X4.455Y-2.615
X4.505Y-1.505
X4.55Y-1.7065
X4.58Y-1.5
X4.595Y-2.065
X4.595Y-2.265
X4.595Y-2.54
X4.595Y-2.005
X4.595Y-2.215
X4.64Y-1.84
X4.68Y-2.81
X4.69Y-1.545
X4.69Y-1.71
X4.74Y-2.475
X4.81Y-1.42
X4.81Y-1.5
X4.8455Y-1.5635
X4.85Y-1.62
X4.85Y-1.78
X4.855Y-1.89
X4.87Y-2.21
X4.89Y-1.48
X4.89Y-1.87
X4.89Y-2.78
X4.8909Y-1.7811
X4.93Y-1.4377
X4.94Y-1.76
X4.94Y-2.34
X4.94Y-2.58
X4.99Y-2.015
X5.03Y-1.53
X5.03Y-2.17
X5.05Y-1.87
X5.07Y-2.42
X5.07Y-2.21
X5.07Y-2.375
X5.07Y-2.86
X5.1282Y-1.9316
X5.13Y-2.13
X5.16Y-1.61
X5.18Y-1.47
X5.2Y-1.89
X5.2Y-1.97
X5.325Y-2.215
X5.34Y-2.095
X5.37Y-2.82
X5.4Y-2.035
X5.45Y-2.21
X5.55Y-2.15
X5.55Y-2.2
X5.55Y-2.54
X5.62Y-2.4
X5.62Y-3.1
X5.67Y-2.495
X5.6736Y-2.0736
X5.68Y-2.015
X5.685Y-1.905
X5.7131Y-2.435
X5.795Y-1.34
X5.835Y-1.555
X5.85Y-1.23
X5.86Y-1.97
X5.94Y-1.52
X5.9434Y-1.8385
X6.0Y-2.015
X6.0Y-2.665
X6.005Y-1.56
X6.005Y-1.805
X6.04Y-2.54
X6.09Y-2.13
X6.09Y-2.79
X6.13Y-2.4
X6.13Y-2.845
T2
X3.74Y-2.46
X3.8521Y-2.1921
T3
X5.2313Y-2.72
X5.31Y-2.72
X5.3887Y-2.72
X5.4675Y-2.72
X5.5462Y-2.72
X5.625Y-2.72
X5.7037Y-2.72
X5.7824Y-2.72
X5.8612Y-2.72
X5.9399Y-2.72
X5.37Y-2.97
X5.47Y-3.07
X5.57Y-2.97
X4.69Y-2.97
X4.79Y-3.07
X4.89Y-2.97
X5.2313Y-1.63
X5.3101Y-1.63
X5.3888Y-1.63
X5.4676Y-1.63
X5.5463Y-1.63
X5.625Y-1.63
X5.7038Y-1.63
X5.7825Y-1.63
X5.8613Y-1.63
X5.94Y-1.63
X5.2298Y-1.7398
X5.2298Y-2.6059
X5.3085Y-1.7398
X5.3085Y-2.6059
X5.3873Y-1.7398
X5.3873Y-2.6059
X5.466Y-1.7398
X5.466Y-2.6059
X5.5447Y-1.7398
X5.5447Y-2.6059
X5.6235Y-1.7398
X5.6235Y-2.6059
X5.7022Y-1.7398
X5.7022Y-2.6059
X5.781Y-1.7398
X5.781Y-2.6059
X5.8597Y-1.7398
X5.8597Y-2.6059
X5.9385Y-1.7398
X5.9385Y-2.6059
T4
X4.34Y-1.31
X4.34Y-1.41
X4.44Y-1.31
X4.44Y-1.41
X4.54Y-1.31
X4.54Y-1.41
X4.64Y-1.31
X4.64Y-1.41
X4.74Y-1.31
X4.74Y-1.41
X4.45Y-1.8
X4.55Y-1.8
X4.77Y-1.625
X4.77Y-1.725
X5.21Y-2.97
X5.7091Y-2.8928
X5.7091Y-3.07
X5.965Y-2.8928
X5.965Y-3.07
X4.7Y-2.725
X4.8Y-2.725
X3.3818Y-1.8445
X3.8543Y-1.8445
X5.03Y-2.97
X4.38Y-1.63
X4.48Y-1.63
X4.58Y-1.63
X4.9282Y-1.34
X5.0282Y-1.34
X5.1282Y-1.34
X5.2282Y-1.34
X5.3282Y-1.34
X5.56Y-1.33
X5.56Y-1.43
X5.7241Y-1.2828
X5.7241Y-1.46
X5.98Y-1.2828
X5.98Y-1.46
X4.47Y-2.8
X4.47Y-2.9
X4.47Y-3.0
T5
X3.3818Y-2.3248
X3.62Y-1.7677
X3.8562Y-2.3268
T6
X3.94Y-1.439
X4.14Y-1.439
X3.5256Y-2.8848
X3.7256Y-2.8848
X3.9901Y-2.8858
X4.1901Y-2.8858
X3.525Y-1.44
X3.725Y-1.44
T7
X3.285Y-1.31
X3.285Y-3.025
X6.155Y-3.01
X6.164Y-1.34
T0
M30
